<svg width="51" height="50" viewBox="0 0 51 50" fill="none" xmlns="http://www.w3.org/2000/svg">
<path d="M25.8894 40.4316C28.2375 39.4346 30.4163 38.0257 32.3256 36.3359C34.2503 34.6306 35.9479 32.5558 36.9641 30.1807C37.4876 28.9528 37.8341 27.6825 37.9495 26.3506C38.0111 25.6384 37.988 24.9186 37.988 24.2026C37.988 23.4443 37.988 22.6821 37.988 21.9238C37.988 19.9183 37.988 17.9127 37.988 15.9072C37.988 15.2259 38.015 14.5368 37.988 13.8555C37.988 13.8478 37.988 13.8401 37.988 13.8324C37.988 13.4744 37.7455 13.2011 37.4222 13.0895C36.0903 12.6275 34.7545 12.1656 33.4227 11.7037C31.3209 10.9762 29.2191 10.2448 27.1212 9.51725C26.6555 9.35557 26.1935 9.1708 25.7201 9.03223C25.4852 8.96294 25.3236 9.01683 25.1196 9.08612C24.8809 9.1708 24.6384 9.25164 24.3997 9.33633C22.3865 10.0331 20.3771 10.7298 18.3639 11.4265C16.7895 11.9732 15.219 12.5159 13.6446 13.0625C13.6176 13.0702 13.5945 13.0818 13.5676 13.0895C13.2442 13.2011 13.0017 13.4783 13.0017 13.8324C13.0017 14.3752 13.0017 14.9179 13.0017 15.4607C13.0017 17.2968 13.0017 19.133 13.0017 20.9691C13.0017 22.4704 12.9979 23.9717 13.0017 25.4729C13.0056 26.7471 13.2288 28.0289 13.6523 29.2299C14.5184 31.7051 16.0928 33.88 17.9674 35.693C19.819 37.483 21.9862 38.9804 24.3112 40.0813C24.5729 40.2045 24.8424 40.3238 25.108 40.4393C25.3082 40.524 25.4814 40.5779 25.7008 40.5163C25.8779 40.4662 26.0742 40.3277 26.1627 40.1621C26.336 39.8311 26.2821 39.2768 25.8856 39.1074C24.777 38.6378 23.7107 38.0758 22.6906 37.4368C22.1478 37.098 21.6205 36.7362 21.1085 36.3551C21.0469 36.3089 20.9853 36.2627 20.9237 36.2165C20.866 36.1703 20.7467 36.1049 20.8737 36.178C20.7274 36.0934 20.5965 35.9586 20.4657 35.8547C20.2193 35.6545 19.9768 35.4467 19.7381 35.2349C19.2608 34.8115 18.8027 34.3688 18.3639 33.9031C18.1483 33.6721 17.9366 33.4373 17.7287 33.1948C17.6287 33.0793 17.5324 32.96 17.4362 32.8406C17.39 32.7829 17.34 32.7213 17.2938 32.6636C17.2745 32.6366 17.236 32.602 17.2245 32.575C17.2591 32.6559 17.2822 32.652 17.2245 32.5712C16.8434 32.0669 16.4854 31.5434 16.1659 30.9968C16.0158 30.7389 15.8695 30.4771 15.7348 30.2115C15.6693 30.0806 15.6039 29.9459 15.5385 29.8112C15.5077 29.7457 15.4769 29.6764 15.4461 29.611C15.423 29.561 15.2959 29.3031 15.3922 29.4917C15.2613 29.2338 15.1728 28.9412 15.0842 28.6679C14.9841 28.3715 14.8995 28.0751 14.8263 27.7749C14.7532 27.4823 14.6954 27.1859 14.6454 26.8895C14.6338 26.8279 14.63 26.7625 14.6184 26.7009C14.6685 26.9049 14.6184 26.6932 14.6108 26.6316C14.5915 26.4661 14.5761 26.3044 14.5646 26.1389C14.5145 25.4036 14.5415 24.6646 14.5415 23.9255C14.5415 23.1979 14.5415 22.4743 14.5415 21.7467C14.5415 19.7835 14.5415 17.8204 14.5415 15.8572C14.5415 15.1951 14.5723 14.5214 14.5415 13.8593C14.5415 13.8516 14.5415 13.844 14.5415 13.8363C14.3528 14.0826 14.1642 14.3328 13.9756 14.5792C15.3036 14.1173 16.624 13.6592 17.9482 13.1973C20.0538 12.4659 22.1594 11.7383 24.265 11.007C24.7462 10.8414 25.2273 10.6759 25.7047 10.5065C25.5699 10.5065 25.4314 10.5065 25.2966 10.5065C26.617 10.9646 27.9411 11.4227 29.2615 11.8808C31.3671 12.6121 33.4689 13.3397 35.5745 14.0711C36.0556 14.2366 36.533 14.4021 37.0141 14.5715C36.8255 14.3251 36.6369 14.0749 36.4483 13.8286C36.4483 14.3598 36.4483 14.8871 36.4483 15.4183C36.4483 17.2083 36.4483 18.9983 36.4483 20.7921C36.4483 22.2471 36.4483 23.7061 36.4483 25.1611C36.4483 25.4922 36.4483 25.8271 36.4252 26.1581C36.4136 26.3044 36.4021 26.4507 36.3867 26.5969C36.3828 26.6239 36.352 26.8625 36.3713 26.7394C36.3867 26.6316 36.3713 26.724 36.3713 26.7471C36.3636 26.801 36.3559 26.8548 36.3482 26.9087C36.252 27.5054 36.1057 28.0905 35.9132 28.6602C35.867 28.7988 35.817 28.9374 35.7669 29.0759C35.74 29.1452 35.713 29.2145 35.6861 29.28C35.6707 29.3146 35.6592 29.3492 35.6438 29.3839C35.6361 29.407 35.5745 29.5533 35.6207 29.4455C35.663 29.3415 35.5706 29.5571 35.5591 29.5802C35.5283 29.6495 35.4975 29.7149 35.4667 29.7804C35.4012 29.9228 35.332 30.0652 35.2588 30.2038C34.9778 30.7543 34.6622 31.2855 34.3196 31.7974C34.1386 32.0631 33.95 32.3248 33.7576 32.5827C33.7345 32.6135 33.6729 32.7021 33.773 32.5635C33.7499 32.5943 33.7268 32.6251 33.7037 32.652C33.6613 32.7059 33.619 32.7559 33.5805 32.8098C33.4766 32.9369 33.3765 33.06 33.2687 33.1871C32.8491 33.6798 32.4064 34.1494 31.9445 34.5959C31.4864 35.0386 31.0091 35.4621 30.5125 35.8662C30.3932 35.9625 30.27 36.0587 30.1507 36.1549C30.0814 36.2088 30.1892 36.128 30.193 36.1241C30.1661 36.1472 30.1314 36.1703 30.1006 36.1934C30.0237 36.2512 29.9467 36.3089 29.8697 36.3667C29.6156 36.5553 29.3577 36.7401 29.096 36.9171C28.0836 37.6062 27.0211 38.2221 25.9125 38.7456C25.6508 38.8688 25.3813 38.9881 25.1157 39.1036C24.7423 39.2614 24.6345 39.8388 24.8385 40.1583C25.0849 40.5432 25.4929 40.601 25.8894 40.4316Z" fill="#00552A"/>
<path d="M18.9763 23.8446C20.2158 25.0841 21.4553 26.3236 22.6987 27.567C22.8758 27.744 23.0528 27.9211 23.2299 28.0982C23.5225 28.3907 24.0229 28.3946 24.3193 28.0982C25.1931 27.2244 26.0707 26.3467 26.9445 25.4729C28.3265 24.091 29.7122 22.7052 31.098 21.3233C31.4175 21.0038 31.737 20.6843 32.0565 20.3648C32.3414 20.0799 32.3645 19.5564 32.0565 19.2754C31.7486 18.9944 31.2712 18.9713 30.9671 19.2754C30.0933 20.1492 29.2157 21.0269 28.3419 21.9007C26.9561 23.2865 25.5742 24.6684 24.1884 26.0542C23.8689 26.3737 23.5494 26.6932 23.2299 27.0127C23.5917 27.0127 23.9574 27.0127 24.3193 27.0127C23.0798 25.7732 21.8403 24.5337 20.5969 23.2903C20.4199 23.1132 20.2428 22.9362 20.0657 22.7591C19.7809 22.4742 19.2573 22.4511 18.9763 22.7591C18.6953 23.0632 18.6722 23.5405 18.9763 23.8446Z" fill="#00552A"/>
<rect x="0.75" y="0.25" width="49.5" height="49.5" rx="4.75" stroke="#00552A" stroke-width="0.5"/>
</svg>
