<svg width="51" height="50" viewBox="0 0 51 50" fill="none" xmlns="http://www.w3.org/2000/svg">
<path d="M30.7036 10L34.3515 10.0211C34.4108 10.0211 34.4703 10.0351 34.5221 10.0638C35.1605 10.514 35.1479 11.1292 35.0235 11.79C34.9931 11.9292 34.8667 12.0418 34.7248 12.0564L31.2369 12.408C30.1667 13.3438 29.3186 14.2439 28.5917 15.1678C28.9852 14.9809 29.3679 14.8204 29.7437 14.7629C30.7138 14.6472 31.4727 15.1941 31.6956 16.0736C31.8718 16.906 31.552 17.6326 31.0449 18.2154C30.6074 18.7183 30.0352 19.1426 29.4663 19.5367C30.6594 21.2237 31.2145 23.3374 30.9169 25.0456C30.8958 25.1456 30.8271 25.2344 30.7356 25.28C29.3699 26.0095 27.7263 26.1264 26.3624 26.1751C28.368 30.3734 29.9838 34.5702 31.7489 39.3347C31.7878 39.7047 31.5183 39.8367 31.2263 39.9208C30.8824 40.0139 30.5403 39.9979 30.2129 39.9742C29.9268 39.9511 29.8094 39.8445 29.637 39.6866C27.6895 35.7495 25.7893 31.7334 23.1732 28.2318C20.9618 31.5733 19.3051 35.7239 18.2454 39.5906C18.208 39.6994 18.0764 39.7915 17.904 39.8464C17.3529 40.0769 16.7084 40.033 16.1974 39.8144C16.0607 39.7511 15.9774 39.5893 16.0054 39.4414C16.9009 34.4094 18.7637 28.805 20.4106 23.9588C20.414 23.9445 20.4168 23.9302 20.4212 23.9162C23.3976 18.1008 25.2057 12.8566 30.5435 10.0427C30.5936 10.0089 30.6577 10.0123 30.7035 10H30.7036ZM30.8103 10.6819C25.7859 13.3611 24.0232 18.354 21.0506 24.1719C19.3906 29.0902 17.6372 34.2158 16.7414 39.2389C17.059 39.3118 17.3917 39.3228 17.6374 39.2283C18.7579 35.1973 20.4936 30.8711 22.8745 27.422C22.9935 27.2418 23.2968 27.2301 23.4292 27.4008C26.2405 31.0387 28.1838 35.229 30.181 39.2712C30.4359 39.3357 30.7217 39.3104 30.9916 39.2712C29.2106 34.4699 27.5891 30.2405 25.5411 26.0156C25.4415 25.8112 25.6123 25.531 25.8398 25.5254C27.206 25.4871 28.9462 25.3854 30.2556 24.7476C30.4596 23.2082 29.9095 21.1725 28.7303 19.6542C28.6164 19.5084 28.6528 19.2694 28.805 19.1641C29.4541 18.7202 30.1083 18.2563 30.533 17.7682C30.9521 17.2863 31.151 16.8218 31.0343 16.2338C30.8724 15.6211 30.4022 15.3555 29.8503 15.4346C29.226 15.5303 28.372 15.9933 27.5357 16.5747C27.4109 16.6729 27.2156 16.6668 27.0971 16.5611C26.9787 16.4554 26.9508 16.2622 27.0344 16.1273C27.9289 14.5411 29.2393 13.2362 30.8636 11.8224C30.9166 11.7749 30.9848 11.7447 31.0556 11.7372L34.3728 11.4175C34.4694 11.0953 34.4119 10.876 34.2128 10.7036L30.8103 10.6819ZM27.8143 21.7867C27.2454 22.2187 26.4248 23.2864 26.257 23.9183C26.8293 23.9023 27.8025 23.6067 28.3866 23.4317C28.3229 22.8767 28.0927 22.2245 27.8143 21.7867Z" fill="#00552A"/>
<rect x="0.75" y="0.25" width="49.5" height="49.5" rx="4.75" stroke="#00552A" stroke-width="0.5"/>
</svg>
