<svg width="47" height="47" viewBox="0 0 47 47" fill="none" xmlns="http://www.w3.org/2000/svg">
<path d="M23.0021 25.5L23.0021 25.5L22.9986 25.4964L22.8889 25.3868L23.0027 25.4998L23.0029 25.5L23.0029 25.5L23.0021 25.5ZM21.156 22.5015L20.0872 22.5851L20.0021 22.5H20.9999C20.9999 22.5 21 22.5 21 22.5C21.266 22.5 21.5294 22.447 21.7746 22.344C22.0199 22.241 22.2422 22.0901 22.4284 21.9001C22.6147 21.7102 22.7612 21.4849 22.8593 21.2377C22.9427 21.0274 22.9898 20.8047 22.9987 20.5792C22.9817 21.0557 22.7948 21.5115 22.4704 21.8633C22.1284 22.2342 21.6589 22.4622 21.156 22.5015ZM23.0002 20.4764C23.0001 20.4709 23 20.4655 22.9999 20.46C22.9916 20.0452 22.8547 19.6461 22.6122 19.316C22.8649 19.65 23.0012 20.0576 23.0002 20.4764ZM21.9851 18.5L22.5608 19.2491C22.5111 19.1871 22.4575 19.1278 22.4002 19.0716C22.0264 18.7053 21.524 18.5001 21.0007 18.5H21.9851Z" fill="black" stroke="#00552A"/>
<path d="M24.3655 23.0776L24.3088 23.021C24.211 22.9255 24.1333 22.8114 24.0802 22.6854C24.0273 22.5595 24 22.4244 23.9999 22.2879C23.9999 22.2861 23.9999 22.2843 23.9999 22.2825L24.4999 22.285C24.4988 22.2147 24.5124 22.145 24.54 22.0804C24.5675 22.0158 24.6084 21.9577 24.6599 21.91L24.3655 23.0776ZM24.3655 23.0776L24.3061 23.019L24.3055 23.0184C24.2084 22.923 24.1313 22.8093 24.0787 22.6838C24.0261 22.5583 23.999 22.4236 23.999 22.2875C23.999 22.2569 24.0004 22.2263 24.0031 22.1959L24.3655 23.0776ZM24.4107 21.4644C24.3759 21.4912 24.3428 21.5202 24.3115 21.5513C24.2994 21.5627 24.2877 21.5744 24.2763 21.5864C24.2858 21.5763 24.2955 21.5663 24.3055 21.5565L24.3055 21.5565L24.3077 21.5543C24.3402 21.522 24.3746 21.492 24.4107 21.4644ZM25.7822 21.5543L25.783 21.5551L26.1361 21.905L25.7836 21.5565C25.7508 21.5234 25.7159 21.4927 25.6792 21.4644C25.7152 21.492 25.7497 21.522 25.7822 21.5543Z" fill="black" stroke="#00552A"/>
<path d="M14.7231 17.8645C14.6087 18.1408 14.5077 18.4215 14.4203 18.7057C14.8745 17.2296 15.6835 15.8815 16.7825 14.7825C16.9595 14.6055 17.143 14.436 17.3324 14.2743C17.1422 14.4366 16.9588 14.6062 16.7825 14.7825C15.9046 15.6604 15.2029 16.7063 14.7231 17.8645ZM14.2053 23.4644C14.1975 23.4274 14.1899 23.3904 14.1825 23.3534C14.1825 23.3534 14.1825 23.3534 14.1825 23.3534C14.1899 23.3904 14.1975 23.4275 14.2053 23.4644ZM17.7044 13.9726C18.8588 13.0838 20.2069 12.4689 21.6466 12.1825C20.4289 12.4248 19.2644 12.9046 18.2221 13.601C18.045 13.7193 17.8724 13.8433 17.7044 13.9726ZM23.3866 12.0007C23.4244 12.0002 23.4622 12 23.5 12C23.5 12 23.5 12 23.5 12C23.4622 12 23.4244 12.0002 23.3866 12.0007ZM31.8808 25.9735C31.5614 26.572 31.1771 27.1377 30.7324 27.6598C30.9707 27.38 31.1934 27.0856 31.399 26.7779C31.5733 26.5171 31.734 26.2485 31.8808 25.9735Z" fill="black" stroke="#00552A"/>
<path d="M23.0244 33.5006L23.5 33.5239V33.518L23.9816 33.5003C24.6268 33.4766 25.269 33.4012 25.902 33.2747L26.5 33.1552V33.126L26.8572 33.0208M23.0244 33.5006L26.8588 33.0204L26.8572 33.0208M23.0244 33.5006C22.6575 33.4826 22.2917 33.4479 21.9282 33.3966M23.0244 33.5006L21.9282 33.3966M26.8572 33.0208C26.5232 33.1181 26.1842 33.2012 25.8411 33.2694C24.5456 33.5271 23.2238 33.5678 21.9282 33.3966M26.8572 33.0208L21.9282 33.3966M28.0922 35.5866C28.0093 35.6209 27.9261 35.6543 27.8426 35.6867C28.3222 35.4998 28.7894 35.2815 29.241 35.0331L29.5 34.8906V34.8923C29.0474 35.1536 28.5772 35.3857 28.0922 35.5866ZM34.5866 29.0922C34.0796 30.3162 33.374 31.4462 32.5 32.4373V32.26V31H33H33.0438L33.4125 31.2526C34.2337 30.0537 34.8284 28.7154 35.1679 27.3037C35.0215 27.9127 34.8274 28.5108 34.5866 29.0922ZM35.5 24.5C35.5 25.3795 35.4033 26.2543 35.213 27.1087L34.2764 26.7791C34.2745 26.7831 34.2726 26.787 34.2706 26.7909C34.7278 25.8601 35.0649 24.8691 35.2694 23.8411C35.4228 23.0699 35.4993 22.2894 35.5 21.5107V24.5ZM31.9853 29.9853C32.1629 29.8077 32.3345 29.6249 32.5 29.4373V29.5373L31.6619 30.3067C31.2177 30.7144 30.744 31.0883 30.2447 31.4252C30.8659 31.003 31.4491 30.5215 31.9853 29.9853ZM29.0914 32.1177C29.2408 32.039 29.3886 31.9572 29.5345 31.8723L29.5 31.8932V31.9166L29.0914 32.1177ZM19.1663 35.6901C18.5894 35.4667 18.0325 35.1998 17.5 34.8923V34.8906L17.759 35.0331C18.2134 35.283 18.6835 35.5024 19.1663 35.6901ZM14.6296 32.5759C14.8976 32.8713 15.1795 33.1534 15.4743 33.4212C15.1317 33.1131 14.8063 32.7846 14.5 32.4373V32.433L14.6296 32.5759ZM13.5875 31.2526L13.8209 31.5933C12.8658 30.29 12.1892 28.815 11.8216 27.2597C12.1593 28.6876 12.7578 30.0413 13.5875 31.2526ZM12.7236 26.7791L11.787 27.1087C11.5973 26.2572 11.5 25.3826 11.5 24.5V21.5C11.5 23.3398 11.9229 25.1476 12.7273 26.7867C12.726 26.7842 12.7248 26.7816 12.7236 26.7791ZM14.5 29.5173V29.4373C14.6846 29.6466 14.8763 29.8492 15.0746 30.0447L14.5 29.5173ZM17.5 31.9162V31.8923C17.6328 31.969 17.7673 32.0432 17.9032 32.1149L17.5 31.9162ZM20.1441 33.0212C20.2898 33.0636 20.4361 33.1033 20.5831 33.1401L20.5 33.1224V33.1258L20.1441 33.0212Z" fill="black" stroke="#00552A"/>
<rect x="0.25" y="0.25" width="46.5" height="46.5" rx="4.75" stroke="#00552A" stroke-width="0.5"/>
</svg>
