<svg width="47" height="47" viewBox="0 0 47 47" fill="none" xmlns="http://www.w3.org/2000/svg">
<path d="M13.3305 14.8684L19.2037 13.6447V11.3125C19.2037 11.1398 19.3437 11 19.5162 11H27.6063C27.7789 11 27.9188 11.1398 27.9188 11.3125V13.6702L13.3305 14.8684ZM13.3305 14.8684C13.1857 14.8983 13.0818 15.0262 13.0818 15.1742V21.5892L13.3305 14.8684Z" fill="#00552A" stroke="#00552A"/>
<mask id="path-3-inside-1" fill="white">
<path d="M21.6807 15.7107C21.8532 15.7107 21.9932 15.5709 21.9932 15.3982V14.1961C21.9932 14.0234 21.8532 13.8836 21.6807 13.8836C21.5081 13.8836 21.3682 14.0234 21.3682 14.1961V15.3982C21.3682 15.5709 21.5081 15.7107 21.6807 15.7107Z"/>
</mask>
<path d="M21.6807 15.7107C21.8532 15.7107 21.9932 15.5709 21.9932 15.3982V14.1961C21.9932 14.0234 21.8532 13.8836 21.6807 13.8836C21.5081 13.8836 21.3682 14.0234 21.3682 14.1961V15.3982C21.3682 15.5709 21.5081 15.7107 21.6807 15.7107Z" fill="#00552A"/>
<path d="M21.6807 16.7107C22.4052 16.7107 22.9932 16.1235 22.9932 15.3982H20.9932C20.9932 15.0183 21.3013 14.7107 21.6807 14.7107V16.7107ZM22.9932 15.3982V14.1961H20.9932V15.3982H22.9932ZM22.9932 14.1961C22.9932 13.4708 22.4052 12.8836 21.6807 12.8836V14.8836C21.3013 14.8836 20.9932 14.576 20.9932 14.1961H22.9932ZM21.6807 12.8836C20.9561 12.8836 20.3682 13.4708 20.3682 14.1961H22.3682C22.3682 14.576 22.0601 14.8836 21.6807 14.8836V12.8836ZM20.3682 14.1961V15.3982H22.3682V14.1961H20.3682ZM20.3682 15.3982C20.3682 16.1235 20.9561 16.7107 21.6807 16.7107V14.7107C22.0601 14.7107 22.3682 15.0183 22.3682 15.3982H20.3682Z" fill="#00552A" mask="url(#path-3-inside-1)"/>
<mask id="path-5-inside-2" fill="white">
<path d="M23.5615 15.7107C23.7341 15.7107 23.874 15.5709 23.874 15.3982V14.1961C23.874 14.0234 23.7341 13.8836 23.5615 13.8836C23.3889 13.8836 23.249 14.0234 23.249 14.1961V15.3982C23.249 15.5709 23.3889 15.7107 23.5615 15.7107Z"/>
</mask>
<path d="M23.5615 15.7107C23.7341 15.7107 23.874 15.5709 23.874 15.3982V14.1961C23.874 14.0234 23.7341 13.8836 23.5615 13.8836C23.3889 13.8836 23.249 14.0234 23.249 14.1961V15.3982C23.249 15.5709 23.3889 15.7107 23.5615 15.7107Z" fill="#00552A"/>
<path d="M23.5615 16.7107C24.2861 16.7107 24.874 16.1235 24.874 15.3982H22.874C22.874 15.0183 23.1821 14.7107 23.5615 14.7107V16.7107ZM24.874 15.3982V14.1961H22.874V15.3982H24.874ZM24.874 14.1961C24.874 13.4708 24.2861 12.8836 23.5615 12.8836V14.8836C23.1821 14.8836 22.874 14.576 22.874 14.1961H24.874ZM23.5615 12.8836C22.837 12.8836 22.249 13.4708 22.249 14.1961H24.249C24.249 14.576 23.9409 14.8836 23.5615 14.8836V12.8836ZM22.249 14.1961V15.3982H24.249V14.1961H22.249ZM22.249 15.3982C22.249 16.1235 22.837 16.7107 23.5615 16.7107V14.7107C23.9409 14.7107 24.249 15.0183 24.249 15.3982H22.249Z" fill="#00552A" mask="url(#path-5-inside-2)"/>
<mask id="path-7-inside-3" fill="white">
<path d="M25.4424 15.7107C25.615 15.7107 25.7549 15.5709 25.7549 15.3982V14.1961C25.7549 14.0234 25.615 13.8836 25.4424 13.8836C25.2698 13.8836 25.1299 14.0234 25.1299 14.1961V15.3982C25.1299 15.5709 25.2698 15.7107 25.4424 15.7107Z"/>
</mask>
<path d="M25.4424 15.7107C25.615 15.7107 25.7549 15.5709 25.7549 15.3982V14.1961C25.7549 14.0234 25.615 13.8836 25.4424 13.8836C25.2698 13.8836 25.1299 14.0234 25.1299 14.1961V15.3982C25.1299 15.5709 25.2698 15.7107 25.4424 15.7107Z" fill="#00552A"/>
<path d="M25.4424 16.7107C26.1669 16.7107 26.7549 16.1235 26.7549 15.3982H24.7549C24.7549 15.0183 25.063 14.7107 25.4424 14.7107V16.7107ZM26.7549 15.3982V14.1961H24.7549V15.3982H26.7549ZM26.7549 14.1961C26.7549 13.4708 26.1669 12.8836 25.4424 12.8836V14.8836C25.063 14.8836 24.7549 14.576 24.7549 14.1961H26.7549ZM25.4424 12.8836C24.7178 12.8836 24.1299 13.4708 24.1299 14.1961H26.1299C26.1299 14.576 25.8218 14.8836 25.4424 14.8836V12.8836ZM24.1299 14.1961V15.3982H26.1299V14.1961H24.1299ZM24.1299 15.3982C24.1299 16.1235 24.7178 16.7107 25.4424 16.7107V14.7107C25.8218 14.7107 26.1299 15.0183 26.1299 15.3982H24.1299Z" fill="#00552A" mask="url(#path-7-inside-3)"/>
<mask id="path-9-inside-4" fill="white">
<path d="M21.6807 19.2727C21.8532 19.2727 21.9932 19.1329 21.9932 18.9602V17.7581C21.9932 17.5854 21.8532 17.4456 21.6807 17.4456C21.5081 17.4456 21.3682 17.5854 21.3682 17.7581V18.9602C21.3682 19.1329 21.5081 19.2727 21.6807 19.2727Z"/>
</mask>
<path d="M21.6807 19.2727C21.8532 19.2727 21.9932 19.1329 21.9932 18.9602V17.7581C21.9932 17.5854 21.8532 17.4456 21.6807 17.4456C21.5081 17.4456 21.3682 17.5854 21.3682 17.7581V18.9602C21.3682 19.1329 21.5081 19.2727 21.6807 19.2727Z" fill="#00552A"/>
<path d="M21.6807 20.2727C22.4052 20.2727 22.9932 19.6855 22.9932 18.9602H20.9932C20.9932 18.5803 21.3013 18.2727 21.6807 18.2727V20.2727ZM22.9932 18.9602V17.7581H20.9932V18.9602H22.9932ZM22.9932 17.7581C22.9932 17.0328 22.4052 16.4456 21.6807 16.4456V18.4456C21.3013 18.4456 20.9932 18.138 20.9932 17.7581H22.9932ZM21.6807 16.4456C20.9561 16.4456 20.3682 17.0328 20.3682 17.7581H22.3682C22.3682 18.138 22.0601 18.4456 21.6807 18.4456V16.4456ZM20.3682 17.7581V18.9602H22.3682V17.7581H20.3682ZM20.3682 18.9602C20.3682 19.6855 20.9561 20.2727 21.6807 20.2727V18.2727C22.0601 18.2727 22.3682 18.5803 22.3682 18.9602H20.3682Z" fill="#00552A" mask="url(#path-9-inside-4)"/>
<mask id="path-11-inside-5" fill="white">
<path d="M23.5615 19.2727C23.7341 19.2727 23.874 19.1329 23.874 18.9602V17.7581C23.874 17.5854 23.7341 17.4456 23.5615 17.4456C23.3889 17.4456 23.249 17.5854 23.249 17.7581V18.9602C23.249 19.1329 23.3889 19.2727 23.5615 19.2727Z"/>
</mask>
<path d="M23.5615 19.2727C23.7341 19.2727 23.874 19.1329 23.874 18.9602V17.7581C23.874 17.5854 23.7341 17.4456 23.5615 17.4456C23.3889 17.4456 23.249 17.5854 23.249 17.7581V18.9602C23.249 19.1329 23.3889 19.2727 23.5615 19.2727Z" fill="#00552A"/>
<path d="M23.5615 20.2727C24.2861 20.2727 24.874 19.6855 24.874 18.9602H22.874C22.874 18.5803 23.1821 18.2727 23.5615 18.2727V20.2727ZM24.874 18.9602V17.7581H22.874V18.9602H24.874ZM24.874 17.7581C24.874 17.0328 24.2861 16.4456 23.5615 16.4456V18.4456C23.1821 18.4456 22.874 18.138 22.874 17.7581H24.874ZM23.5615 16.4456C22.837 16.4456 22.249 17.0328 22.249 17.7581H24.249C24.249 18.138 23.9409 18.4456 23.5615 18.4456V16.4456ZM22.249 17.7581V18.9602H24.249V17.7581H22.249ZM22.249 18.9602C22.249 19.6855 22.837 20.2727 23.5615 20.2727V18.2727C23.9409 18.2727 24.249 18.5803 24.249 18.9602H22.249Z" fill="#00552A" mask="url(#path-11-inside-5)"/>
<mask id="path-13-inside-6" fill="white">
<path d="M25.4424 19.2727C25.615 19.2727 25.7549 19.1329 25.7549 18.9602V17.7581C25.7549 17.5854 25.615 17.4456 25.4424 17.4456C25.2698 17.4456 25.1299 17.5854 25.1299 17.7581V18.9602C25.1299 19.1329 25.2698 19.2727 25.4424 19.2727Z"/>
</mask>
<path d="M25.4424 19.2727C25.615 19.2727 25.7549 19.1329 25.7549 18.9602V17.7581C25.7549 17.5854 25.615 17.4456 25.4424 17.4456C25.2698 17.4456 25.1299 17.5854 25.1299 17.7581V18.9602C25.1299 19.1329 25.2698 19.2727 25.4424 19.2727Z" fill="#00552A"/>
<path d="M25.4424 20.2727C26.1669 20.2727 26.7549 19.6855 26.7549 18.9602H24.7549C24.7549 18.5803 25.063 18.2727 25.4424 18.2727V20.2727ZM26.7549 18.9602V17.7581H24.7549V18.9602H26.7549ZM26.7549 17.7581C26.7549 17.0328 26.1669 16.4456 25.4424 16.4456V18.4456C25.063 18.4456 24.7549 18.138 24.7549 17.7581H26.7549ZM25.4424 16.4456C24.7178 16.4456 24.1299 17.0328 24.1299 17.7581H26.1299C26.1299 18.138 25.8218 18.4456 25.4424 18.4456V16.4456ZM24.1299 17.7581V18.9602H26.1299V17.7581H24.1299ZM24.1299 18.9602C24.1299 19.6855 24.7178 20.2727 25.4424 20.2727V18.2727C25.8218 18.2727 26.1299 18.5803 26.1299 18.9602H24.1299Z" fill="#00552A" mask="url(#path-13-inside-6)"/>
<mask id="path-15-inside-7" fill="white">
<path d="M21.6807 22.8347C21.8532 22.8347 21.9932 22.6949 21.9932 22.5222V21.3201C21.9932 21.1474 21.8532 21.0076 21.6807 21.0076C21.5081 21.0076 21.3682 21.1474 21.3682 21.3201V22.5222C21.3682 22.6949 21.5081 22.8347 21.6807 22.8347Z"/>
</mask>
<path d="M21.6807 22.8347C21.8532 22.8347 21.9932 22.6949 21.9932 22.5222V21.3201C21.9932 21.1474 21.8532 21.0076 21.6807 21.0076C21.5081 21.0076 21.3682 21.1474 21.3682 21.3201V22.5222C21.3682 22.6949 21.5081 22.8347 21.6807 22.8347Z" fill="#00552A"/>
<path d="M21.6807 23.8347C22.4052 23.8347 22.9932 23.2475 22.9932 22.5222H20.9932C20.9932 22.1423 21.3013 21.8347 21.6807 21.8347V23.8347ZM22.9932 22.5222V21.3201H20.9932V22.5222H22.9932ZM22.9932 21.3201C22.9932 20.5948 22.4052 20.0076 21.6807 20.0076V22.0076C21.3013 22.0076 20.9932 21.7 20.9932 21.3201H22.9932ZM21.6807 20.0076C20.9561 20.0076 20.3682 20.5948 20.3682 21.3201H22.3682C22.3682 21.7 22.0601 22.0076 21.6807 22.0076V20.0076ZM20.3682 21.3201V22.5222H22.3682V21.3201H20.3682ZM20.3682 22.5222C20.3682 23.2475 20.9561 23.8347 21.6807 23.8347V21.8347C22.0601 21.8347 22.3682 22.1423 22.3682 22.5222H20.3682Z" fill="#00552A" mask="url(#path-15-inside-7)"/>
<mask id="path-17-inside-8" fill="white">
<path d="M23.5615 22.8347C23.7341 22.8347 23.874 22.6949 23.874 22.5222V21.3201C23.874 21.1474 23.7341 21.0076 23.5615 21.0076C23.3889 21.0076 23.249 21.1474 23.249 21.3201V22.5222C23.249 22.6949 23.3889 22.8347 23.5615 22.8347Z"/>
</mask>
<path d="M23.5615 22.8347C23.7341 22.8347 23.874 22.6949 23.874 22.5222V21.3201C23.874 21.1474 23.7341 21.0076 23.5615 21.0076C23.3889 21.0076 23.249 21.1474 23.249 21.3201V22.5222C23.249 22.6949 23.3889 22.8347 23.5615 22.8347Z" fill="#00552A"/>
<path d="M23.5615 23.8347C24.2861 23.8347 24.874 23.2475 24.874 22.5222H22.874C22.874 22.1423 23.1821 21.8347 23.5615 21.8347V23.8347ZM24.874 22.5222V21.3201H22.874V22.5222H24.874ZM24.874 21.3201C24.874 20.5948 24.2861 20.0076 23.5615 20.0076V22.0076C23.1821 22.0076 22.874 21.7 22.874 21.3201H24.874ZM23.5615 20.0076C22.837 20.0076 22.249 20.5948 22.249 21.3201H24.249C24.249 21.7 23.9409 22.0076 23.5615 22.0076V20.0076ZM22.249 21.3201V22.5222H24.249V21.3201H22.249ZM22.249 22.5222C22.249 23.2475 22.837 23.8347 23.5615 23.8347V21.8347C23.9409 21.8347 24.249 22.1423 24.249 22.5222H22.249Z" fill="#00552A" mask="url(#path-17-inside-8)"/>
<mask id="path-19-inside-9" fill="white">
<path d="M25.4424 22.8347C25.615 22.8347 25.7549 22.6949 25.7549 22.5222V21.3201C25.7549 21.1474 25.615 21.0076 25.4424 21.0076C25.2698 21.0076 25.1299 21.1474 25.1299 21.3201V22.5222C25.1299 22.6949 25.2698 22.8347 25.4424 22.8347Z"/>
</mask>
<path d="M25.4424 22.8347C25.615 22.8347 25.7549 22.6949 25.7549 22.5222V21.3201C25.7549 21.1474 25.615 21.0076 25.4424 21.0076C25.2698 21.0076 25.1299 21.1474 25.1299 21.3201V22.5222C25.1299 22.6949 25.2698 22.8347 25.4424 22.8347Z" fill="#00552A"/>
<path d="M25.4424 23.8347C26.1669 23.8347 26.7549 23.2475 26.7549 22.5222H24.7549C24.7549 22.1423 25.063 21.8347 25.4424 21.8347V23.8347ZM26.7549 22.5222V21.3201H24.7549V22.5222H26.7549ZM26.7549 21.3201C26.7549 20.5948 26.1669 20.0076 25.4424 20.0076V22.0076C25.063 22.0076 24.7549 21.7 24.7549 21.3201H26.7549ZM25.4424 20.0076C24.7178 20.0076 24.1299 20.5948 24.1299 21.3201H26.1299C26.1299 21.7 25.8218 22.0076 25.4424 22.0076V20.0076ZM24.1299 21.3201V22.5222H26.1299V21.3201H24.1299ZM24.1299 22.5222C24.1299 23.2475 24.7178 23.8347 25.4424 23.8347V21.8347C25.8218 21.8347 26.1299 22.1423 26.1299 22.5222H24.1299Z" fill="#00552A" mask="url(#path-19-inside-9)"/>
<mask id="path-21-inside-10" fill="white">
<path d="M21.6807 26.3967C21.8532 26.3967 21.9932 26.257 21.9932 26.0842V24.8821C21.9932 24.7094 21.8532 24.5696 21.6807 24.5696C21.5081 24.5696 21.3682 24.7094 21.3682 24.8821V26.0842C21.3682 26.257 21.5081 26.3967 21.6807 26.3967Z"/>
</mask>
<path d="M21.6807 26.3967C21.8532 26.3967 21.9932 26.257 21.9932 26.0842V24.8821C21.9932 24.7094 21.8532 24.5696 21.6807 24.5696C21.5081 24.5696 21.3682 24.7094 21.3682 24.8821V26.0842C21.3682 26.257 21.5081 26.3967 21.6807 26.3967Z" fill="#00552A"/>
<path d="M21.6807 27.3967C22.4052 27.3967 22.9932 26.8096 22.9932 26.0842H20.9932C20.9932 25.7044 21.3013 25.3967 21.6807 25.3967V27.3967ZM22.9932 26.0842V24.8821H20.9932V26.0842H22.9932ZM22.9932 24.8821C22.9932 24.1568 22.4052 23.5696 21.6807 23.5696V25.5696C21.3013 25.5696 20.9932 25.262 20.9932 24.8821H22.9932ZM21.6807 23.5696C20.9561 23.5696 20.3682 24.1568 20.3682 24.8821H22.3682C22.3682 25.262 22.0601 25.5696 21.6807 25.5696V23.5696ZM20.3682 24.8821V26.0842H22.3682V24.8821H20.3682ZM20.3682 26.0842C20.3682 26.8096 20.9561 27.3967 21.6807 27.3967V25.3967C22.0601 25.3967 22.3682 25.7044 22.3682 26.0842H20.3682Z" fill="#00552A" mask="url(#path-21-inside-10)"/>
<mask id="path-23-inside-11" fill="white">
<path d="M23.5615 26.3967C23.7341 26.3967 23.874 26.257 23.874 26.0842V24.8821C23.874 24.7094 23.7341 24.5696 23.5615 24.5696C23.3889 24.5696 23.249 24.7094 23.249 24.8821V26.0842C23.249 26.257 23.3889 26.3967 23.5615 26.3967Z"/>
</mask>
<path d="M23.5615 26.3967C23.7341 26.3967 23.874 26.257 23.874 26.0842V24.8821C23.874 24.7094 23.7341 24.5696 23.5615 24.5696C23.3889 24.5696 23.249 24.7094 23.249 24.8821V26.0842C23.249 26.257 23.3889 26.3967 23.5615 26.3967Z" fill="#00552A"/>
<path d="M23.5615 27.3967C24.2861 27.3967 24.874 26.8096 24.874 26.0842H22.874C22.874 25.7044 23.1821 25.3967 23.5615 25.3967V27.3967ZM24.874 26.0842V24.8821H22.874V26.0842H24.874ZM24.874 24.8821C24.874 24.1568 24.2861 23.5696 23.5615 23.5696V25.5696C23.1821 25.5696 22.874 25.262 22.874 24.8821H24.874ZM23.5615 23.5696C22.837 23.5696 22.249 24.1568 22.249 24.8821H24.249C24.249 25.262 23.9409 25.5696 23.5615 25.5696V23.5696ZM22.249 24.8821V26.0842H24.249V24.8821H22.249ZM22.249 26.0842C22.249 26.8096 22.837 27.3967 23.5615 27.3967V25.3967C23.9409 25.3967 24.249 25.7044 24.249 26.0842H22.249Z" fill="#00552A" mask="url(#path-23-inside-11)"/>
<mask id="path-25-inside-12" fill="white">
<path d="M25.4424 26.3967C25.615 26.3967 25.7549 26.257 25.7549 26.0842V24.8821C25.7549 24.7094 25.615 24.5696 25.4424 24.5696C25.2698 24.5696 25.1299 24.7094 25.1299 24.8821V26.0842C25.1299 26.257 25.2698 26.3967 25.4424 26.3967Z"/>
</mask>
<path d="M25.4424 26.3967C25.615 26.3967 25.7549 26.257 25.7549 26.0842V24.8821C25.7549 24.7094 25.615 24.5696 25.4424 24.5696C25.2698 24.5696 25.1299 24.7094 25.1299 24.8821V26.0842C25.1299 26.257 25.2698 26.3967 25.4424 26.3967Z" fill="#00552A"/>
<path d="M25.4424 27.3967C26.1669 27.3967 26.7549 26.8096 26.7549 26.0842H24.7549C24.7549 25.7044 25.063 25.3967 25.4424 25.3967V27.3967ZM26.7549 26.0842V24.8821H24.7549V26.0842H26.7549ZM26.7549 24.8821C26.7549 24.1568 26.1669 23.5696 25.4424 23.5696V25.5696C25.063 25.5696 24.7549 25.262 24.7549 24.8821H26.7549ZM25.4424 23.5696C24.7178 23.5696 24.1299 24.1568 24.1299 24.8821H26.1299C26.1299 25.262 25.8218 25.5696 25.4424 25.5696V23.5696ZM24.1299 24.8821V26.0842H26.1299V24.8821H24.1299ZM24.1299 26.0842C24.1299 26.8096 24.7178 27.3967 25.4424 27.3967V25.3967C25.8218 25.3967 26.1299 25.7044 26.1299 26.0842H24.1299Z" fill="#00552A" mask="url(#path-25-inside-12)"/>
<mask id="path-27-inside-13" fill="white">
<path d="M21.6807 29.9587C21.8532 29.9587 21.9932 29.819 21.9932 29.6462V28.4438C21.9932 28.2711 21.8532 28.1313 21.6807 28.1313C21.5081 28.1313 21.3682 28.2711 21.3682 28.4438V29.6462C21.3682 29.819 21.5081 29.9587 21.6807 29.9587Z"/>
</mask>
<path d="M21.6807 29.9587C21.8532 29.9587 21.9932 29.819 21.9932 29.6462V28.4438C21.9932 28.2711 21.8532 28.1313 21.6807 28.1313C21.5081 28.1313 21.3682 28.2711 21.3682 28.4438V29.6462C21.3682 29.819 21.5081 29.9587 21.6807 29.9587Z" fill="#00552A"/>
<path d="M21.6807 30.9587C22.4052 30.9587 22.9932 30.3716 22.9932 29.6462H20.9932C20.9932 29.2664 21.3013 28.9587 21.6807 28.9587V30.9587ZM22.9932 29.6462V28.4438H20.9932V29.6462H22.9932ZM22.9932 28.4438C22.9932 27.7185 22.4052 27.1313 21.6807 27.1313V29.1313C21.3013 29.1313 20.9932 28.8237 20.9932 28.4438H22.9932ZM21.6807 27.1313C20.9561 27.1313 20.3682 27.7185 20.3682 28.4438H22.3682C22.3682 28.8237 22.0601 29.1313 21.6807 29.1313V27.1313ZM20.3682 28.4438V29.6462H22.3682V28.4438H20.3682ZM20.3682 29.6462C20.3682 30.3716 20.9561 30.9587 21.6807 30.9587V28.9587C22.0601 28.9587 22.3682 29.2664 22.3682 29.6462H20.3682Z" fill="#00552A" mask="url(#path-27-inside-13)"/>
<mask id="path-29-inside-14" fill="white">
<path d="M23.5615 29.9587C23.7341 29.9587 23.874 29.819 23.874 29.6462V28.4438C23.874 28.2711 23.7341 28.1313 23.5615 28.1313C23.3889 28.1313 23.249 28.2711 23.249 28.4438V29.6462C23.249 29.819 23.3889 29.9587 23.5615 29.9587Z"/>
</mask>
<path d="M23.5615 29.9587C23.7341 29.9587 23.874 29.819 23.874 29.6462V28.4438C23.874 28.2711 23.7341 28.1313 23.5615 28.1313C23.3889 28.1313 23.249 28.2711 23.249 28.4438V29.6462C23.249 29.819 23.3889 29.9587 23.5615 29.9587Z" fill="#00552A"/>
<path d="M23.5615 30.9587C24.2861 30.9587 24.874 30.3716 24.874 29.6462H22.874C22.874 29.2664 23.1821 28.9587 23.5615 28.9587V30.9587ZM24.874 29.6462V28.4438H22.874V29.6462H24.874ZM24.874 28.4438C24.874 27.7185 24.2861 27.1313 23.5615 27.1313V29.1313C23.1821 29.1313 22.874 28.8237 22.874 28.4438H24.874ZM23.5615 27.1313C22.837 27.1313 22.249 27.7185 22.249 28.4438H24.249C24.249 28.8237 23.9409 29.1313 23.5615 29.1313V27.1313ZM22.249 28.4438V29.6462H24.249V28.4438H22.249ZM22.249 29.6462C22.249 30.3716 22.837 30.9587 23.5615 30.9587V28.9587C23.9409 28.9587 24.249 29.2664 24.249 29.6462H22.249Z" fill="#00552A" mask="url(#path-29-inside-14)"/>
<mask id="path-31-inside-15" fill="white">
<path d="M15.4541 30.9438C15.2815 30.9438 15.1416 31.0836 15.1416 31.2563V32.4587C15.1416 32.6315 15.2815 32.7712 15.4541 32.7712C15.6267 32.7712 15.7666 32.6315 15.7666 32.4587V31.2563C15.7666 31.0836 15.6267 30.9438 15.4541 30.9438Z"/>
</mask>
<path d="M15.4541 30.9438C15.2815 30.9438 15.1416 31.0836 15.1416 31.2563V32.4587C15.1416 32.6315 15.2815 32.7712 15.4541 32.7712C15.6267 32.7712 15.7666 32.6315 15.7666 32.4587V31.2563C15.7666 31.0836 15.6267 30.9438 15.4541 30.9438Z" fill="#00552A"/>
<path d="M15.4541 29.9438C14.7296 29.9438 14.1416 30.531 14.1416 31.2563H16.1416C16.1416 31.6362 15.8335 31.9438 15.4541 31.9438V29.9438ZM14.1416 31.2563V32.4587H16.1416V31.2563H14.1416ZM14.1416 32.4587C14.1416 33.1841 14.7296 33.7712 15.4541 33.7712V31.7712C15.8335 31.7712 16.1416 32.0789 16.1416 32.4587H14.1416ZM15.4541 33.7712C16.1786 33.7712 16.7666 33.1841 16.7666 32.4587H14.7666C14.7666 32.0789 15.0747 31.7712 15.4541 31.7712V33.7712ZM16.7666 32.4587V31.2563H14.7666V32.4587H16.7666ZM16.7666 31.2563C16.7666 30.531 16.1786 29.9438 15.4541 29.9438V31.9438C15.0747 31.9438 14.7666 31.6362 14.7666 31.2563H16.7666Z" fill="#00552A" mask="url(#path-31-inside-15)"/>
<mask id="path-33-inside-16" fill="white">
<path d="M17.334 30.9438C17.1614 30.9438 17.0215 31.0836 17.0215 31.2563V32.4587C17.0215 32.6315 17.1614 32.7712 17.334 32.7712C17.5066 32.7712 17.6465 32.6315 17.6465 32.4587V31.2563C17.6465 31.0836 17.5066 30.9438 17.334 30.9438Z"/>
</mask>
<path d="M17.334 30.9438C17.1614 30.9438 17.0215 31.0836 17.0215 31.2563V32.4587C17.0215 32.6315 17.1614 32.7712 17.334 32.7712C17.5066 32.7712 17.6465 32.6315 17.6465 32.4587V31.2563C17.6465 31.0836 17.5066 30.9438 17.334 30.9438Z" fill="#00552A"/>
<path d="M17.334 29.9438C16.6094 29.9438 16.0215 30.531 16.0215 31.2563H18.0215C18.0215 31.6362 17.7134 31.9438 17.334 31.9438V29.9438ZM16.0215 31.2563V32.4587H18.0215V31.2563H16.0215ZM16.0215 32.4587C16.0215 33.1841 16.6094 33.7712 17.334 33.7712V31.7712C17.7134 31.7712 18.0215 32.0789 18.0215 32.4587H16.0215ZM17.334 33.7712C18.0585 33.7712 18.6465 33.1841 18.6465 32.4587H16.6465C16.6465 32.0789 16.9546 31.7712 17.334 31.7712V33.7712ZM18.6465 32.4587V31.2563H16.6465V32.4587H18.6465ZM18.6465 31.2563C18.6465 30.531 18.0585 29.9438 17.334 29.9438V31.9438C16.9546 31.9438 16.6465 31.6362 16.6465 31.2563H18.6465Z" fill="#00552A" mask="url(#path-33-inside-16)"/>
<mask id="path-35-inside-17" fill="white">
<path d="M15.4541 27.983C15.2815 27.983 15.1416 28.1228 15.1416 28.2955V29.4976C15.1416 29.6703 15.2815 29.8101 15.4541 29.8101C15.6267 29.8101 15.7666 29.6703 15.7666 29.4976V28.2955C15.7666 28.1228 15.6267 27.983 15.4541 27.983Z"/>
</mask>
<path d="M15.4541 27.983C15.2815 27.983 15.1416 28.1228 15.1416 28.2955V29.4976C15.1416 29.6703 15.2815 29.8101 15.4541 29.8101C15.6267 29.8101 15.7666 29.6703 15.7666 29.4976V28.2955C15.7666 28.1228 15.6267 27.983 15.4541 27.983Z" fill="#00552A"/>
<path d="M15.4541 26.983C14.7296 26.983 14.1416 27.5702 14.1416 28.2955H16.1416C16.1416 28.6754 15.8335 28.983 15.4541 28.983V26.983ZM14.1416 28.2955V29.4976H16.1416V28.2955H14.1416ZM14.1416 29.4976C14.1416 30.223 14.7296 30.8101 15.4541 30.8101V28.8101C15.8335 28.8101 16.1416 29.1177 16.1416 29.4976H14.1416ZM15.4541 30.8101C16.1786 30.8101 16.7666 30.223 16.7666 29.4976H14.7666C14.7666 29.1177 15.0747 28.8101 15.4541 28.8101V30.8101ZM16.7666 29.4976V28.2955H14.7666V29.4976H16.7666ZM16.7666 28.2955C16.7666 27.5702 16.1786 26.983 15.4541 26.983V28.983C15.0747 28.983 14.7666 28.6754 14.7666 28.2955H16.7666Z" fill="#00552A" mask="url(#path-35-inside-17)"/>
<mask id="path-37-inside-18" fill="white">
<path d="M17.334 27.983C17.1614 27.983 17.0215 28.1228 17.0215 28.2955V29.4976C17.0215 29.6703 17.1614 29.8101 17.334 29.8101C17.5066 29.8101 17.6465 29.6703 17.6465 29.4976V28.2955C17.6465 28.1228 17.5066 27.983 17.334 27.983Z"/>
</mask>
<path d="M17.334 27.983C17.1614 27.983 17.0215 28.1228 17.0215 28.2955V29.4976C17.0215 29.6703 17.1614 29.8101 17.334 29.8101C17.5066 29.8101 17.6465 29.6703 17.6465 29.4976V28.2955C17.6465 28.1228 17.5066 27.983 17.334 27.983Z" fill="#00552A"/>
<path d="M17.334 26.983C16.6094 26.983 16.0215 27.5702 16.0215 28.2955H18.0215C18.0215 28.6754 17.7134 28.983 17.334 28.983V26.983ZM16.0215 28.2955V29.4976H18.0215V28.2955H16.0215ZM16.0215 29.4976C16.0215 30.223 16.6094 30.8101 17.334 30.8101V28.8101C17.7134 28.8101 18.0215 29.1177 18.0215 29.4976H16.0215ZM17.334 30.8101C18.0585 30.8101 18.6465 30.223 18.6465 29.4976H16.6465C16.6465 29.1177 16.9546 28.8101 17.334 28.8101V30.8101ZM18.6465 29.4976V28.2955H16.6465V29.4976H18.6465ZM18.6465 28.2955C18.6465 27.5702 18.0585 26.983 17.334 26.983V28.983C16.9546 28.983 16.6465 28.6754 16.6465 28.2955H18.6465Z" fill="#00552A" mask="url(#path-37-inside-18)"/>
<mask id="path-39-inside-19" fill="white">
<path d="M29.666 32.7712C29.8386 32.7712 29.9785 32.6315 29.9785 32.4587V31.2563C29.9785 31.0836 29.8386 30.9438 29.666 30.9438C29.4934 30.9438 29.3535 31.0836 29.3535 31.2563V32.4587C29.3535 32.6315 29.4934 32.7712 29.666 32.7712Z"/>
</mask>
<path d="M29.666 32.7712C29.8386 32.7712 29.9785 32.6315 29.9785 32.4587V31.2563C29.9785 31.0836 29.8386 30.9438 29.666 30.9438C29.4934 30.9438 29.3535 31.0836 29.3535 31.2563V32.4587C29.3535 32.6315 29.4934 32.7712 29.666 32.7712Z" fill="#00552A"/>
<path d="M29.666 33.7712C30.3906 33.7712 30.9785 33.1841 30.9785 32.4587H28.9785C28.9785 32.0789 29.2866 31.7712 29.666 31.7712V33.7712ZM30.9785 32.4587V31.2563H28.9785V32.4587H30.9785ZM30.9785 31.2563C30.9785 30.531 30.3906 29.9438 29.666 29.9438V31.9438C29.2866 31.9438 28.9785 31.6362 28.9785 31.2563H30.9785ZM29.666 29.9438C28.9415 29.9438 28.3535 30.531 28.3535 31.2563H30.3535C30.3535 31.6362 30.0454 31.9438 29.666 31.9438V29.9438ZM28.3535 31.2563V32.4587H30.3535V31.2563H28.3535ZM28.3535 32.4587C28.3535 33.1841 28.9415 33.7712 29.666 33.7712V31.7712C30.0454 31.7712 30.3535 32.0789 30.3535 32.4587H28.3535Z" fill="#00552A" mask="url(#path-39-inside-19)"/>
<mask id="path-41-inside-20" fill="white">
<path d="M31.5459 32.7712C31.7185 32.7712 31.8584 32.6315 31.8584 32.4587V31.2563C31.8584 31.0836 31.7185 30.9438 31.5459 30.9438C31.3733 30.9438 31.2334 31.0836 31.2334 31.2563V32.4587C31.2334 32.6315 31.3733 32.7712 31.5459 32.7712Z"/>
</mask>
<path d="M31.5459 32.7712C31.7185 32.7712 31.8584 32.6315 31.8584 32.4587V31.2563C31.8584 31.0836 31.7185 30.9438 31.5459 30.9438C31.3733 30.9438 31.2334 31.0836 31.2334 31.2563V32.4587C31.2334 32.6315 31.3733 32.7712 31.5459 32.7712Z" fill="#00552A"/>
<path d="M31.5459 33.7712C32.2704 33.7712 32.8584 33.1841 32.8584 32.4587H30.8584C30.8584 32.0789 31.1665 31.7712 31.5459 31.7712V33.7712ZM32.8584 32.4587V31.2563H30.8584V32.4587H32.8584ZM32.8584 31.2563C32.8584 30.531 32.2704 29.9438 31.5459 29.9438V31.9438C31.1665 31.9438 30.8584 31.6362 30.8584 31.2563H32.8584ZM31.5459 29.9438C30.8214 29.9438 30.2334 30.531 30.2334 31.2563H32.2334C32.2334 31.6362 31.9253 31.9438 31.5459 31.9438V29.9438ZM30.2334 31.2563V32.4587H32.2334V31.2563H30.2334ZM30.2334 32.4587C30.2334 33.1841 30.8214 33.7712 31.5459 33.7712V31.7712C31.9253 31.7712 32.2334 32.0789 32.2334 32.4587H30.2334Z" fill="#00552A" mask="url(#path-41-inside-20)"/>
<mask id="path-43-inside-21" fill="white">
<path d="M29.666 29.8101C29.8386 29.8101 29.9785 29.6703 29.9785 29.4976V28.2955C29.9785 28.1228 29.8386 27.983 29.666 27.983C29.4934 27.983 29.3535 28.1228 29.3535 28.2955V29.4976C29.3535 29.6703 29.4934 29.8101 29.666 29.8101Z"/>
</mask>
<path d="M29.666 29.8101C29.8386 29.8101 29.9785 29.6703 29.9785 29.4976V28.2955C29.9785 28.1228 29.8386 27.983 29.666 27.983C29.4934 27.983 29.3535 28.1228 29.3535 28.2955V29.4976C29.3535 29.6703 29.4934 29.8101 29.666 29.8101Z" fill="#00552A"/>
<path d="M29.666 30.8101C30.3906 30.8101 30.9785 30.223 30.9785 29.4976H28.9785C28.9785 29.1177 29.2866 28.8101 29.666 28.8101V30.8101ZM30.9785 29.4976V28.2955H28.9785V29.4976H30.9785ZM30.9785 28.2955C30.9785 27.5702 30.3906 26.983 29.666 26.983V28.983C29.2866 28.983 28.9785 28.6754 28.9785 28.2955H30.9785ZM29.666 26.983C28.9415 26.983 28.3535 27.5702 28.3535 28.2955H30.3535C30.3535 28.6754 30.0454 28.983 29.666 28.983V26.983ZM28.3535 28.2955V29.4976H30.3535V28.2955H28.3535ZM28.3535 29.4976C28.3535 30.223 28.9415 30.8101 29.666 30.8101V28.8101C30.0454 28.8101 30.3535 29.1177 30.3535 29.4976H28.3535Z" fill="#00552A" mask="url(#path-43-inside-21)"/>
<mask id="path-45-inside-22" fill="white">
<path d="M31.5459 29.8101C31.7185 29.8101 31.8584 29.6703 31.8584 29.4976V28.2955C31.8584 28.1228 31.7185 27.983 31.5459 27.983C31.3733 27.983 31.2334 28.1228 31.2334 28.2955V29.4976C31.2334 29.6703 31.3733 29.8101 31.5459 29.8101Z"/>
</mask>
<path d="M31.5459 29.8101C31.7185 29.8101 31.8584 29.6703 31.8584 29.4976V28.2955C31.8584 28.1228 31.7185 27.983 31.5459 27.983C31.3733 27.983 31.2334 28.1228 31.2334 28.2955V29.4976C31.2334 29.6703 31.3733 29.8101 31.5459 29.8101Z" fill="#00552A"/>
<path d="M31.5459 30.8101C32.2704 30.8101 32.8584 30.223 32.8584 29.4976H30.8584C30.8584 29.1177 31.1665 28.8101 31.5459 28.8101V30.8101ZM32.8584 29.4976V28.2955H30.8584V29.4976H32.8584ZM32.8584 28.2955C32.8584 27.5702 32.2704 26.983 31.5459 26.983V28.983C31.1665 28.983 30.8584 28.6754 30.8584 28.2955H32.8584ZM31.5459 26.983C30.8214 26.983 30.2334 27.5702 30.2334 28.2955H32.2334C32.2334 28.6754 31.9253 28.983 31.5459 28.983V26.983ZM30.2334 28.2955V29.4976H32.2334V28.2955H30.2334ZM30.2334 29.4976C30.2334 30.223 30.8214 30.8101 31.5459 30.8101V28.8101C31.9253 28.8101 32.2334 29.1177 32.2334 29.4976H30.2334Z" fill="#00552A" mask="url(#path-45-inside-22)"/>
<mask id="path-47-inside-23" fill="white">
<path d="M15.4541 18.926C15.2815 18.926 15.1416 19.0658 15.1416 19.2385V20.4406C15.1416 20.6133 15.2815 20.7531 15.4541 20.7531C15.6267 20.7531 15.7666 20.6133 15.7666 20.4406V19.2385C15.7666 19.0658 15.6267 18.926 15.4541 18.926Z"/>
</mask>
<path d="M15.4541 18.926C15.2815 18.926 15.1416 19.0658 15.1416 19.2385V20.4406C15.1416 20.6133 15.2815 20.7531 15.4541 20.7531C15.6267 20.7531 15.7666 20.6133 15.7666 20.4406V19.2385C15.7666 19.0658 15.6267 18.926 15.4541 18.926Z" fill="#00552A"/>
<path d="M15.4541 17.926C14.7296 17.926 14.1416 18.5132 14.1416 19.2385H16.1416C16.1416 19.6184 15.8335 19.926 15.4541 19.926V17.926ZM14.1416 19.2385V20.4406H16.1416V19.2385H14.1416ZM14.1416 20.4406C14.1416 21.1659 14.7296 21.7531 15.4541 21.7531V19.7531C15.8335 19.7531 16.1416 20.0607 16.1416 20.4406H14.1416ZM15.4541 21.7531C16.1786 21.7531 16.7666 21.1659 16.7666 20.4406H14.7666C14.7666 20.0607 15.0747 19.7531 15.4541 19.7531V21.7531ZM16.7666 20.4406V19.2385H14.7666V20.4406H16.7666ZM16.7666 19.2385C16.7666 18.5132 16.1786 17.926 15.4541 17.926V19.926C15.0747 19.926 14.7666 19.6184 14.7666 19.2385H16.7666Z" fill="#00552A" mask="url(#path-47-inside-23)"/>
<mask id="path-49-inside-24" fill="white">
<path d="M17.334 18.926C17.1614 18.926 17.0215 19.0658 17.0215 19.2385V20.4406C17.0215 20.6133 17.1614 20.7531 17.334 20.7531C17.5066 20.7531 17.6465 20.6133 17.6465 20.4406V19.2385C17.6465 19.0658 17.5066 18.926 17.334 18.926Z"/>
</mask>
<path d="M17.334 18.926C17.1614 18.926 17.0215 19.0658 17.0215 19.2385V20.4406C17.0215 20.6133 17.1614 20.7531 17.334 20.7531C17.5066 20.7531 17.6465 20.6133 17.6465 20.4406V19.2385C17.6465 19.0658 17.5066 18.926 17.334 18.926Z" fill="#00552A"/>
<path d="M17.334 17.926C16.6094 17.926 16.0215 18.5132 16.0215 19.2385H18.0215C18.0215 19.6184 17.7134 19.926 17.334 19.926V17.926ZM16.0215 19.2385V20.4406H18.0215V19.2385H16.0215ZM16.0215 20.4406C16.0215 21.1659 16.6094 21.7531 17.334 21.7531V19.7531C17.7134 19.7531 18.0215 20.0607 18.0215 20.4406H16.0215ZM17.334 21.7531C18.0585 21.7531 18.6465 21.1659 18.6465 20.4406H16.6465C16.6465 20.0607 16.9546 19.7531 17.334 19.7531V21.7531ZM18.6465 20.4406V19.2385H16.6465V20.4406H18.6465ZM18.6465 19.2385C18.6465 18.5132 18.0585 17.926 17.334 17.926V19.926C16.9546 19.926 16.6465 19.6184 16.6465 19.2385H18.6465Z" fill="#00552A" mask="url(#path-49-inside-24)"/>
<mask id="path-51-inside-25" fill="white">
<path d="M15.4541 15.9652C15.2815 15.9652 15.1416 16.105 15.1416 16.2777V17.4798C15.1416 17.6525 15.2815 17.7923 15.4541 17.7923C15.6267 17.7923 15.7666 17.6525 15.7666 17.4798V16.2777C15.7666 16.105 15.6267 15.9652 15.4541 15.9652Z"/>
</mask>
<path d="M15.4541 15.9652C15.2815 15.9652 15.1416 16.105 15.1416 16.2777V17.4798C15.1416 17.6525 15.2815 17.7923 15.4541 17.7923C15.6267 17.7923 15.7666 17.6525 15.7666 17.4798V16.2777C15.7666 16.105 15.6267 15.9652 15.4541 15.9652Z" fill="#00552A"/>
<path d="M15.4541 14.9652C14.7296 14.9652 14.1416 15.5524 14.1416 16.2777H16.1416C16.1416 16.6576 15.8335 16.9652 15.4541 16.9652V14.9652ZM14.1416 16.2777V17.4798H16.1416V16.2777H14.1416ZM14.1416 17.4798C14.1416 18.2051 14.7296 18.7923 15.4541 18.7923V16.7923C15.8335 16.7923 16.1416 17.0999 16.1416 17.4798H14.1416ZM15.4541 18.7923C16.1786 18.7923 16.7666 18.2051 16.7666 17.4798H14.7666C14.7666 17.0999 15.0747 16.7923 15.4541 16.7923V18.7923ZM16.7666 17.4798V16.2777H14.7666V17.4798H16.7666ZM16.7666 16.2777C16.7666 15.5524 16.1786 14.9652 15.4541 14.9652V16.9652C15.0747 16.9652 14.7666 16.6576 14.7666 16.2777H16.7666Z" fill="#00552A" mask="url(#path-51-inside-25)"/>
<mask id="path-53-inside-26" fill="white">
<path d="M17.334 15.9652C17.1614 15.9652 17.0215 16.105 17.0215 16.2777V17.4798C17.0215 17.6525 17.1614 17.7923 17.334 17.7923C17.5066 17.7923 17.6465 17.6525 17.6465 17.4798V16.2777C17.6465 16.105 17.5066 15.9652 17.334 15.9652Z"/>
</mask>
<path d="M17.334 15.9652C17.1614 15.9652 17.0215 16.105 17.0215 16.2777V17.4798C17.0215 17.6525 17.1614 17.7923 17.334 17.7923C17.5066 17.7923 17.6465 17.6525 17.6465 17.4798V16.2777C17.6465 16.105 17.5066 15.9652 17.334 15.9652Z" fill="#00552A"/>
<path d="M17.334 14.9652C16.6094 14.9652 16.0215 15.5524 16.0215 16.2777H18.0215C18.0215 16.6576 17.7134 16.9652 17.334 16.9652V14.9652ZM16.0215 16.2777V17.4798H18.0215V16.2777H16.0215ZM16.0215 17.4798C16.0215 18.2051 16.6094 18.7923 17.334 18.7923V16.7923C17.7134 16.7923 18.0215 17.0999 18.0215 17.4798H16.0215ZM17.334 18.7923C18.0585 18.7923 18.6465 18.2051 18.6465 17.4798H16.6465C16.6465 17.0999 16.9546 16.7923 17.334 16.7923V18.7923ZM18.6465 17.4798V16.2777H16.6465V17.4798H18.6465ZM18.6465 16.2777C18.6465 15.5524 18.0585 14.9652 17.334 14.9652V16.9652C16.9546 16.9652 16.6465 16.6576 16.6465 16.2777H18.6465Z" fill="#00552A" mask="url(#path-53-inside-26)"/>
<mask id="path-55-inside-27" fill="white">
<path d="M29.666 20.7531C29.8386 20.7531 29.9785 20.6133 29.9785 20.4406V19.2385C29.9785 19.0658 29.8386 18.926 29.666 18.926C29.4934 18.926 29.3535 19.0658 29.3535 19.2385V20.4406C29.3535 20.6133 29.4934 20.7531 29.666 20.7531Z"/>
</mask>
<path d="M29.666 20.7531C29.8386 20.7531 29.9785 20.6133 29.9785 20.4406V19.2385C29.9785 19.0658 29.8386 18.926 29.666 18.926C29.4934 18.926 29.3535 19.0658 29.3535 19.2385V20.4406C29.3535 20.6133 29.4934 20.7531 29.666 20.7531Z" fill="#00552A"/>
<path d="M29.666 21.7531C30.3906 21.7531 30.9785 21.1659 30.9785 20.4406H28.9785C28.9785 20.0607 29.2866 19.7531 29.666 19.7531V21.7531ZM30.9785 20.4406V19.2385H28.9785V20.4406H30.9785ZM30.9785 19.2385C30.9785 18.5132 30.3906 17.926 29.666 17.926V19.926C29.2866 19.926 28.9785 19.6184 28.9785 19.2385H30.9785ZM29.666 17.926C28.9415 17.926 28.3535 18.5132 28.3535 19.2385H30.3535C30.3535 19.6184 30.0454 19.926 29.666 19.926V17.926ZM28.3535 19.2385V20.4406H30.3535V19.2385H28.3535ZM28.3535 20.4406C28.3535 21.1659 28.9415 21.7531 29.666 21.7531V19.7531C30.0454 19.7531 30.3535 20.0607 30.3535 20.4406H28.3535Z" fill="#00552A" mask="url(#path-55-inside-27)"/>
<mask id="path-57-inside-28" fill="white">
<path d="M31.5459 20.7531C31.7185 20.7531 31.8584 20.6133 31.8584 20.4406V19.2385C31.8584 19.0658 31.7185 18.926 31.5459 18.926C31.3733 18.926 31.2334 19.0658 31.2334 19.2385V20.4406C31.2334 20.6133 31.3733 20.7531 31.5459 20.7531Z"/>
</mask>
<path d="M31.5459 20.7531C31.7185 20.7531 31.8584 20.6133 31.8584 20.4406V19.2385C31.8584 19.0658 31.7185 18.926 31.5459 18.926C31.3733 18.926 31.2334 19.0658 31.2334 19.2385V20.4406C31.2334 20.6133 31.3733 20.7531 31.5459 20.7531Z" fill="#00552A"/>
<path d="M31.5459 21.7531C32.2704 21.7531 32.8584 21.1659 32.8584 20.4406H30.8584C30.8584 20.0607 31.1665 19.7531 31.5459 19.7531V21.7531ZM32.8584 20.4406V19.2385H30.8584V20.4406H32.8584ZM32.8584 19.2385C32.8584 18.5132 32.2704 17.926 31.5459 17.926V19.926C31.1665 19.926 30.8584 19.6184 30.8584 19.2385H32.8584ZM31.5459 17.926C30.8214 17.926 30.2334 18.5132 30.2334 19.2385H32.2334C32.2334 19.6184 31.9253 19.926 31.5459 19.926V17.926ZM30.2334 19.2385V20.4406H32.2334V19.2385H30.2334ZM30.2334 20.4406C30.2334 21.1659 30.8214 21.7531 31.5459 21.7531V19.7531C31.9253 19.7531 32.2334 20.0607 32.2334 20.4406H30.2334Z" fill="#00552A" mask="url(#path-57-inside-28)"/>
<mask id="path-59-inside-29" fill="white">
<path d="M29.666 17.7923C29.8386 17.7923 29.9785 17.6525 29.9785 17.4798V16.2777C29.9785 16.105 29.8386 15.9652 29.666 15.9652C29.4934 15.9652 29.3535 16.105 29.3535 16.2777V17.4798C29.3535 17.6525 29.4934 17.7923 29.666 17.7923Z"/>
</mask>
<path d="M29.666 17.7923C29.8386 17.7923 29.9785 17.6525 29.9785 17.4798V16.2777C29.9785 16.105 29.8386 15.9652 29.666 15.9652C29.4934 15.9652 29.3535 16.105 29.3535 16.2777V17.4798C29.3535 17.6525 29.4934 17.7923 29.666 17.7923Z" fill="#00552A"/>
<path d="M29.666 18.7923C30.3906 18.7923 30.9785 18.2051 30.9785 17.4798H28.9785C28.9785 17.0999 29.2866 16.7923 29.666 16.7923V18.7923ZM30.9785 17.4798V16.2777H28.9785V17.4798H30.9785ZM30.9785 16.2777C30.9785 15.5524 30.3906 14.9652 29.666 14.9652V16.9652C29.2866 16.9652 28.9785 16.6576 28.9785 16.2777H30.9785ZM29.666 14.9652C28.9415 14.9652 28.3535 15.5524 28.3535 16.2777H30.3535C30.3535 16.6576 30.0454 16.9652 29.666 16.9652V14.9652ZM28.3535 16.2777V17.4798H30.3535V16.2777H28.3535ZM28.3535 17.4798C28.3535 18.2051 28.9415 18.7923 29.666 18.7923V16.7923C30.0454 16.7923 30.3535 17.0999 30.3535 17.4798H28.3535Z" fill="#00552A" mask="url(#path-59-inside-29)"/>
<mask id="path-61-inside-30" fill="white">
<path d="M31.5459 17.7923C31.7185 17.7923 31.8584 17.6525 31.8584 17.4798V16.2777C31.8584 16.105 31.7185 15.9652 31.5459 15.9652C31.3733 15.9652 31.2334 16.105 31.2334 16.2777V17.4798C31.2334 17.6525 31.3733 17.7923 31.5459 17.7923Z"/>
</mask>
<path d="M31.5459 17.7923C31.7185 17.7923 31.8584 17.6525 31.8584 17.4798V16.2777C31.8584 16.105 31.7185 15.9652 31.5459 15.9652C31.3733 15.9652 31.2334 16.105 31.2334 16.2777V17.4798C31.2334 17.6525 31.3733 17.7923 31.5459 17.7923Z" fill="#00552A"/>
<path d="M31.5459 18.7923C32.2704 18.7923 32.8584 18.2051 32.8584 17.4798H30.8584C30.8584 17.0999 31.1665 16.7923 31.5459 16.7923V18.7923ZM32.8584 17.4798V16.2777H30.8584V17.4798H32.8584ZM32.8584 16.2777C32.8584 15.5524 32.2704 14.9652 31.5459 14.9652V16.9652C31.1665 16.9652 30.8584 16.6576 30.8584 16.2777H32.8584ZM31.5459 14.9652C30.8214 14.9652 30.2334 15.5524 30.2334 16.2777H32.2334C32.2334 16.6576 31.9253 16.9652 31.5459 16.9652V14.9652ZM30.2334 16.2777V17.4798H32.2334V16.2777H30.2334ZM30.2334 17.4798C30.2334 18.2051 30.8214 18.7923 31.5459 18.7923V16.7923C31.9253 16.7923 32.2334 17.0999 32.2334 17.4798H30.2334Z" fill="#00552A" mask="url(#path-61-inside-30)"/>
<mask id="path-63-inside-31" fill="white">
<path d="M25.4424 29.9587C25.615 29.9587 25.7549 29.819 25.7549 29.6462V28.4438C25.7549 28.2711 25.615 28.1313 25.4424 28.1313C25.2698 28.1313 25.1299 28.2711 25.1299 28.4438V29.6462C25.1299 29.819 25.2698 29.9587 25.4424 29.9587Z"/>
</mask>
<path d="M25.4424 29.9587C25.615 29.9587 25.7549 29.819 25.7549 29.6462V28.4438C25.7549 28.2711 25.615 28.1313 25.4424 28.1313C25.2698 28.1313 25.1299 28.2711 25.1299 28.4438V29.6462C25.1299 29.819 25.2698 29.9587 25.4424 29.9587Z" fill="#00552A"/>
<path d="M25.4424 30.9587C26.1669 30.9587 26.7549 30.3716 26.7549 29.6462H24.7549C24.7549 29.2664 25.063 28.9587 25.4424 28.9587V30.9587ZM26.7549 29.6462V28.4438H24.7549V29.6462H26.7549ZM26.7549 28.4438C26.7549 27.7185 26.1669 27.1313 25.4424 27.1313V29.1313C25.063 29.1313 24.7549 28.8237 24.7549 28.4438H26.7549ZM25.4424 27.1313C24.7178 27.1313 24.1299 27.7185 24.1299 28.4438H26.1299C26.1299 28.8237 25.8218 29.1313 25.4424 29.1313V27.1313ZM24.1299 28.4438V29.6462H26.1299V28.4438H24.1299ZM24.1299 29.6462C24.1299 30.3716 24.7178 30.9587 25.4424 30.9587V28.9587C25.8218 28.9587 26.1299 29.2664 26.1299 29.6462H24.1299Z" fill="#00552A" mask="url(#path-63-inside-31)"/>
<rect x="0.25" y="0.25" width="46.5" height="46.5" rx="4.75" stroke="#00552A" stroke-width="0.5"/>
</svg>
