<svg width="51" height="50" viewBox="0 0 51 50" fill="none" xmlns="http://www.w3.org/2000/svg">
<path d="M20.9321 26.0406C21.0327 26.0791 21.1457 26.029 21.1843 25.9281L21.4257 25.2964C21.922 25.2555 22.4199 25.2208 22.9177 25.1914C23.0252 25.1853 23.1076 25.0926 23.1012 24.9851C23.0947 24.8771 22.9993 24.7871 22.8948 24.8016C22.3527 24.8332 21.8106 24.8714 21.2709 24.9176C21.1961 24.9237 21.1316 24.9725 21.1049 25.0423L20.8196 25.7884C20.7811 25.8892 20.8314 26.0021 20.9321 26.0406Z" fill="#00552A"/>
<path d="M23.8455 25.1436C23.8482 25.1436 23.8513 25.1436 23.8543 25.1432C24.0607 25.1345 24.2671 25.1261 24.4738 25.1188C24.5818 25.115 24.6661 25.0246 24.6623 24.9166C24.6581 24.8091 24.5608 24.721 24.4601 24.7282C24.2526 24.7354 24.0447 24.7438 23.8368 24.7534C23.7292 24.758 23.6456 24.8491 23.6506 24.9571C23.6552 25.0616 23.7414 25.1436 23.8455 25.1436Z" fill="#00552A"/>
<path d="M19.866 32.4026C19.3174 32.4026 18.8711 32.8489 18.8711 33.3975C18.8711 33.946 19.3174 34.392 19.866 34.392C20.4145 34.392 20.8605 33.946 20.8605 33.3975C20.8605 32.8489 20.4145 32.4026 19.866 32.4026ZM19.866 34.0013C19.5329 34.0013 19.2617 33.7305 19.2617 33.3975C19.2617 33.0644 19.5329 32.7932 19.866 32.7932C20.199 32.7932 20.4698 33.0644 20.4698 33.3975C20.4698 33.7305 20.199 34.0013 19.866 34.0013Z" fill="#00552A"/>
<path d="M33.5652 34.392C34.1137 34.392 34.5597 33.946 34.5597 33.3975C34.5597 32.8489 34.1137 32.4026 33.5652 32.4026C33.0166 32.4026 32.5703 32.8489 32.5703 33.3975C32.5703 33.946 33.0166 34.392 33.5652 34.392ZM33.5652 32.7932C33.8982 32.7932 34.1691 33.0644 34.1691 33.3975C34.1691 33.7305 33.8982 34.0013 33.5652 34.0013C33.2322 34.0013 32.9609 33.7305 32.9609 33.3975C32.9609 33.0644 33.2322 32.7932 33.5652 32.7932Z" fill="#00552A"/>
<path d="M25.4477 32.3833H24.6211C24.5131 32.3833 24.4258 32.4707 24.4258 32.5786C24.4258 32.6866 24.5131 32.7739 24.6211 32.7739H25.4477C25.5557 32.7739 25.6431 32.6866 25.6431 32.5786C25.6431 32.4707 25.5557 32.3833 25.4477 32.3833Z" fill="#00552A"/>
<path d="M28.8982 32.3833H26.5762C26.4682 32.3833 26.3809 32.4707 26.3809 32.5786C26.3809 32.6866 26.4682 32.7739 26.5762 32.7739H28.8982C29.0061 32.7739 29.0935 32.6866 29.0935 32.5786C29.0935 32.4707 29.0061 32.3833 28.8982 32.3833Z" fill="#00552A"/>
<path d="M29.3066 31.4395H28.3857C28.2778 31.4395 28.1904 31.5268 28.1904 31.6348C28.1904 31.7427 28.2778 31.8301 28.3857 31.8301H29.3066C29.4146 31.8301 29.5019 31.7427 29.5019 31.6348C29.5019 31.5268 29.4146 31.4395 29.3066 31.4395Z" fill="#00552A"/>
<path d="M27.4005 31.6348C27.4005 31.5268 27.3131 31.4395 27.2051 31.4395H24.2129C24.1049 31.4395 24.0176 31.5268 24.0176 31.6348C24.0176 31.7427 24.1049 31.8301 24.2129 31.8301H27.2051C27.3131 31.8301 27.4005 31.7427 27.4005 31.6348Z" fill="#00552A"/>
<path d="M30.9426 33.459H29.9023L31.1219 30.6365C31.1478 30.5762 31.1421 30.5068 31.1058 30.4519C31.0696 30.397 31.0082 30.3638 30.9426 30.3638H22.5762C22.5106 30.3638 22.4491 30.397 22.4129 30.4519C22.3767 30.5068 22.3709 30.5762 22.3969 30.6365L23.6161 33.459H22.5762C22.4682 33.459 22.3809 33.5464 22.3809 33.6543C22.3809 33.7623 22.4682 33.8496 22.5762 33.8496H23.9132H29.6051H30.9426C31.0505 33.8496 31.1379 33.7623 31.1379 33.6543C31.1379 33.5464 31.0505 33.459 30.9426 33.459ZM24.0418 33.459L22.8733 30.7544H30.6454L29.4766 33.459H24.0418Z" fill="#00552A"/>
<path d="M37.5687 26.5486L35.6133 26.0698C35.4385 26.0214 35.2547 26.0553 35.1101 26.1652C34.9648 26.2754 34.8812 26.4437 34.8812 26.6271V27.1742H34.3945C34.2125 26.7041 35.0538 28.8771 32.6145 22.5767C32.3914 22.0178 31.8634 21.6265 31.2695 21.5803C28.2482 21.343 25.1835 21.343 22.1607 21.5803C21.5668 21.6265 21.0392 22.0178 20.8164 22.5767C18.3765 28.8771 19.218 26.7041 19.036 27.1742H18.549C18.5158 26.8169 18.6591 26.4223 18.3201 26.1652C18.1755 26.0553 17.992 26.0198 17.823 26.0683L15.8554 26.5501C15.6048 26.621 15.4297 26.8499 15.4297 27.1074V27.6132C15.4297 27.9322 15.6895 28.1919 16.0088 28.1919H17.6495L18.0951 29.0683L17.8551 29.4172C17.651 29.7636 17.5434 30.1588 17.5434 30.5601C17.5434 32.5933 17.5434 34.1491 17.5434 36.4633C17.5434 36.8826 17.8844 37.2236 18.3033 37.2236H20.6646C21.0835 37.2236 21.4245 36.8826 21.4245 36.4633V35.4475H32.0057V36.4633C32.0057 36.8826 32.3467 37.2236 32.7656 37.2236H35.1269C35.5457 37.2236 35.8868 36.8826 35.8868 36.4633V35.2522V31.6336V30.5616V30.5601C35.8868 30.5418 35.8835 30.5239 35.8831 30.5056C35.863 29.682 35.4755 29.3039 35.3354 29.0681L35.7807 28.1919H37.4218C37.7407 28.1919 38.0005 27.9322 38.0005 27.6132V27.1074C38.0005 26.8499 37.8258 26.621 37.5687 26.5486ZM35.2386 29.6156C35.2778 29.6819 35.3116 29.7509 35.3421 29.8212H32.7557C32.6145 29.8212 32.486 29.8986 32.4196 30.023C32.3536 30.1477 32.3612 30.2976 32.4398 30.4144L33.2409 31.603C33.3366 31.7446 33.4957 31.8289 33.6662 31.8289H35.4961V35.0569H32.201C25.5309 35.0569 21.7113 35.0569 17.934 35.0569V31.8289H19.7659C19.9364 31.8289 20.0954 31.7446 20.1916 31.6027L20.9919 30.4148C21.0709 30.298 21.0789 30.1481 21.0129 30.0234C20.9465 29.8986 20.8176 29.8212 20.6764 29.8212H18.0875C18.1163 29.7544 18.1479 29.689 18.1843 29.627L18.482 29.1946C18.4821 29.1945 18.4822 29.1945 18.4822 29.1945L18.8623 28.6459C20.049 28.6459 35.18 28.6459 34.5707 28.6459C34.5976 28.685 35.2656 29.6547 35.2386 29.6156ZM35.4961 30.5616V31.4382H33.6662C33.6254 31.4382 33.5873 31.418 33.5648 31.3845L32.7744 30.2118H35.4592C35.487 30.3591 35.4961 30.4657 35.4961 30.5616ZM17.9359 30.5616C17.9359 30.4458 17.949 30.3264 17.9708 30.2114L20.6612 30.2065L19.8677 31.3841C19.8448 31.418 19.8067 31.4382 19.7659 31.4382H17.9359V30.5616ZM20.668 30.1962C20.6684 30.1962 20.6684 30.1958 20.6684 30.1958C20.6293 30.2349 20.6289 30.2353 20.668 30.1962ZM20.5922 24.1954C22.4342 24.0201 24.5188 23.9137 26.5198 23.9077V24.6107H25.5886C25.4807 24.6107 25.3933 24.6981 25.3933 24.806C25.3933 24.914 25.4807 25.0013 25.5886 25.0013H27.8416C27.9495 25.0013 28.0369 24.914 28.0369 24.806C28.0369 24.6981 27.9495 24.6107 27.8416 24.6107H26.9104V23.9076C28.9512 23.9137 31.0572 24.0259 32.838 24.1954C33.0032 24.6276 34.4065 28.2996 34.3895 28.2553H32.9792C32.8785 26.8735 31.7246 25.7791 30.3177 25.7791C28.9108 25.7791 27.7569 26.8735 27.6561 28.2553H19.0425C20.7443 23.797 20.5768 24.2358 20.5922 24.1954ZM31.2334 28.2553C31.1432 27.8323 30.7672 27.5137 30.3177 27.5137C29.8682 27.5137 29.4925 27.8323 29.4023 28.2553H28.0453C28.1445 27.0887 29.126 26.1698 30.3177 26.1698C31.5094 26.1698 32.4909 27.0887 32.5901 28.2553H31.2334ZM30.8277 28.2553H29.808C29.8866 28.05 30.0854 27.9043 30.3177 27.9043C30.55 27.9043 30.7491 28.05 30.8277 28.2553ZM21.1792 22.7217C21.3474 22.2998 21.7445 22.0045 22.1912 21.9694C25.1942 21.7344 28.2383 21.7348 31.2389 21.9694C31.6856 22.0045 32.0831 22.2998 32.2514 22.7217L32.6767 23.7863C28.8004 23.4298 24.7875 23.4153 20.7535 23.7863L21.1792 22.7217ZM17.7692 27.8013H16.0088C15.905 27.8013 15.8203 27.717 15.8203 27.6132V27.1074C15.8203 27.0243 15.8783 26.9495 15.955 26.9277C17.921 26.4477 18.1583 26.2958 18.1583 26.6271C18.2015 27.0901 18.0354 27.5648 18.3537 27.5648H18.8867L18.5833 28.3588L18.3472 28.702C17.9641 28.0179 17.9755 27.8013 17.7692 27.8013ZM21.0339 36.4633C21.0339 36.667 20.8683 36.833 20.6646 36.833H18.3033C18.0996 36.833 17.934 36.667 17.934 36.4633V35.4475H21.0339V36.4633ZM35.4961 36.4633C35.4961 36.667 35.3306 36.833 35.1269 36.833H32.7656C32.5619 36.833 32.3963 36.667 32.3963 36.4633V35.4475H35.4961V36.4633ZM37.6099 27.6132C37.6099 27.717 37.5256 27.8013 37.4218 27.8013H35.6609C35.4577 27.8013 35.4779 27.997 35.0838 28.7016L34.8492 28.3605C34.8336 28.3201 34.5246 27.5147 34.5438 27.5648C34.8264 27.5309 35.2718 27.675 35.2718 27.3695V26.6271C35.2718 26.5673 35.2989 26.5123 35.3458 26.4765C35.3928 26.4417 35.4527 26.4307 35.5141 26.4475L37.4691 26.9262C37.5519 26.9495 37.6099 27.0243 37.6099 27.1074V27.6132Z" fill="#00552A"/>
<path d="M22.4608 19.3701C22.6027 19.3701 22.7179 19.2549 22.7179 19.113V14.4522C22.7179 14.3099 22.6024 14.1943 22.4601 14.1943H15.7344C15.6264 14.1943 15.5391 14.2817 15.5391 14.3896V19.1748C15.5391 19.5516 15.8116 19.2862 22.4608 19.3701ZM15.9297 14.585H22.3273V18.9795H15.9297V14.585Z" fill="#00552A"/>
<path d="M15.5848 35.3781H14.7578V20.542H22.4608C23.2489 20.542 23.8902 19.9011 23.8902 19.113V14.4522C23.8902 13.6637 23.2489 13.0225 22.4604 13.0225H14.5625C14.4545 13.0225 14.3672 13.1098 14.3672 13.2178C14.3672 18.1054 14.3672 30.4531 14.3672 35.3781H13.5402C13.2422 35.3781 13 35.6203 13 35.9183V37.0264C13 37.1344 13.0874 37.2218 13.1953 37.2218H15.9297C16.0376 37.2218 16.125 37.1344 16.125 37.0264V35.9183C16.125 35.6203 15.8828 35.3781 15.5848 35.3781ZM14.7578 13.4131H22.4604C23.0334 13.4131 23.4996 13.8792 23.4996 14.4522V19.113C23.4996 19.6856 23.0334 20.1514 22.4608 20.1514H14.7578C14.7578 19.4455 14.7578 15.0261 14.7578 13.4131ZM15.7344 36.8311H13.3906V35.9183C13.3906 35.8359 13.4578 35.7687 13.5402 35.7687H15.5848C15.6672 35.7687 15.7344 35.8359 15.7344 35.9183V36.8311Z" fill="#00552A"/>
<path d="M18.9318 15.1343C18.5922 15.1343 18.325 15.1635 18.1211 15.1975V18.4304H18.5436V17.1197C18.6405 17.1438 18.7571 17.1489 18.8836 17.1489C19.5852 17.1489 20.1358 16.8097 20.1358 16.0904C20.1358 15.5534 19.7873 15.1343 18.9318 15.1343ZM18.893 16.809C18.7523 16.809 18.6357 16.7991 18.5436 16.775V15.5031C18.6164 15.4837 18.7571 15.4691 18.9417 15.4691C19.4029 15.4691 19.7136 15.6782 19.7136 16.1149C19.7136 16.5564 19.4029 16.809 18.893 16.809Z" fill="#00552A"/>
<rect x="0.75" y="0.25" width="49.5" height="49.5" rx="4.75" stroke="#00552A" stroke-width="0.5"/>
</svg>
