<svg width="51" height="50" viewBox="0 0 51 50" fill="none" xmlns="http://www.w3.org/2000/svg">
<path d="M18.2384 12.3077L17.9861 13.2493H17.5833C16.1963 13.2493 15.0825 14.3715 15.0825 15.7493V22.4184C15.0825 23.1151 15.6488 23.6668 16.3341 23.6668C16.5591 23.6668 16.7492 23.8438 16.7492 24.0818V27.416C16.7492 27.654 16.5591 27.8342 16.3341 27.8342H15.8833C15.6843 26.6535 14.6706 25.7493 13.415 25.7493C13.1849 25.7502 12.9991 25.9375 13 26.1676V36.5818C12.9991 36.8119 13.1849 36.9992 13.415 37.0001C14.8123 37.0001 15.9158 35.8771 15.9158 34.4993V33.666H19.4693C19.9278 34.1759 20.5802 34.4993 21.3324 34.4993C22.7277 34.4993 23.8332 33.3751 23.8332 31.9993C23.8332 31.4929 23.6794 31.0118 23.4182 30.6174V24.4798L25.6024 25.0649C25.8247 25.1255 26.054 24.9943 26.1143 24.7719L26.4374 23.565C28.1944 24.034 29.9558 24.5123 31.7108 24.977C33.2606 25.3686 34.829 24.4419 35.241 22.9042C35.5782 21.6459 35.041 20.3542 33.987 19.6873L37.3634 17.7399C37.689 17.5548 37.6243 17.0677 37.2617 16.9741L18.7486 12.0156C18.7087 12.0044 18.6673 11.9991 18.6258 12.0001C18.4432 12.0066 18.2861 12.1314 18.2384 12.3077L18.2384 12.3077ZM18.9366 12.9262L36.0743 17.5185L33.0112 19.2869L23.5191 16.7429C23.4569 16.7264 23.3917 16.7244 23.3287 16.7373L21.6002 17.0905L18.0724 16.1465L18.9366 12.9262ZM17.5833 14.0826H17.7623L17.1585 16.3344C17.099 16.5569 17.2313 16.7854 17.4539 16.8447L17.8559 16.9521L16.8851 20.5727C16.8256 20.7952 16.9579 21.0237 17.1805 21.0829L18.3898 21.4068L18.0659 22.6153C18.0074 22.8368 18.1386 23.064 18.3597 23.124L20.0841 23.5862V29.8329C19.8565 29.9649 19.6456 30.1376 19.4705 30.3318H15.9158V28.6684H16.3341C17.0308 28.6684 17.5833 28.1013 17.5833 27.416V24.0818C17.5833 23.3965 17.0324 22.8334 16.3341 22.8334C16.0961 22.8334 15.9158 22.6434 15.9158 22.4184V15.7493C15.9158 14.8187 16.669 14.0826 17.5833 14.0826V14.0826ZM18.6624 17.1677L21.4797 17.9213C21.5422 17.938 21.6077 17.94 21.671 17.927L23.3995 17.5738L32.5612 20.0274L31.4821 24.0541C26.9208 22.8335 22.3581 21.6083 17.7981 20.3879L18.6624 17.1677ZM33.3555 20.2862C34.2276 20.7182 34.6956 21.7175 34.4354 22.6886C34.1733 23.6666 33.26 24.29 32.2991 24.2291L33.3555 20.2862ZM30.6276 20.8054C30.5681 21.0277 30.7 21.2561 30.9222 21.3157C31.1445 21.3752 31.3729 21.2433 31.4325 21.0211C31.492 20.7989 31.3601 20.5704 31.1379 20.5108C30.8863 20.4522 30.6832 20.5981 30.6276 20.8054ZM37.4708 21.4028L36.6652 21.6184C36.1292 21.7677 36.3424 22.5598 36.8808 22.4241L37.6865 22.206C38.2413 22.0346 37.9907 21.2645 37.4708 21.4028ZM19.1914 21.6241L25.6325 23.3502L25.4169 24.1551L18.9757 22.4298L19.1914 21.6241ZM36.6342 24.1404L37.4399 24.3561C37.9774 24.4997 38.1931 23.6932 37.6555 23.5496L36.8523 23.3347C36.3089 23.2168 36.1078 23.9702 36.6342 24.1404ZM20.9174 23.8092L22.5841 24.256V29.8346C22.2152 29.62 21.7882 29.5017 21.3324 29.5017C21.1907 29.5017 21.0528 29.5112 20.9174 29.5343V23.8092ZM35.6162 25.5336L36.2037 26.1245C36.5976 26.5184 37.1884 25.9276 36.7945 25.5336L36.2037 24.9461C36.1258 24.865 36.0265 24.819 35.8807 24.8223C35.5073 24.8605 35.3704 25.2909 35.6162 25.5336V25.5336ZM13.8341 26.6347C14.5688 26.8268 15.0825 27.4832 15.0825 28.2493V34.4993C15.0825 35.2657 14.5708 35.9244 13.8341 36.1131V26.6347ZM21.3324 30.3334C22.2351 30.3334 22.9991 31.0739 22.9991 31.9993C22.9991 32.9247 22.2463 33.666 21.3324 33.666C20.4186 33.666 19.665 32.9247 19.665 31.9993C19.665 31.0739 20.4298 30.3334 21.3324 30.3334ZM15.9158 31.1651H18.9757C18.8823 31.4265 18.8316 31.7066 18.8316 31.9993C18.8316 32.2917 18.8841 32.5712 18.9773 32.8326H15.9158L15.9158 31.1651ZM21.3333 31.5834C21.1031 31.5834 20.9166 31.77 20.9166 32.0001C20.9166 32.2302 21.1031 32.4168 21.3333 32.4168C21.5634 32.4168 21.7499 32.2302 21.7499 32.0001C21.7499 31.77 21.5634 31.5834 21.3333 31.5834Z" fill="#00552A"/>
<rect x="0.75" y="0.25" width="49.5" height="49.5" rx="4.75" stroke="#00552A" stroke-width="0.5"/>
</svg>
