<svg width="51" height="50" viewBox="0 0 51 50" fill="none" xmlns="http://www.w3.org/2000/svg">
<path d="M15.4782 41.3112V41.9245C24.4224 41.9245 26.8565 41.9245 35.5218 41.9245V41.3112C35.5218 40.2829 36.3584 39.4463 37.3867 39.4463H38C38 25.7911 38 25.1342 38 11.4782H37.3867C36.3584 11.4782 35.5218 10.6416 35.5218 9.61326V9C26.5783 9 24.1431 9 15.4782 9V9.61326C15.4782 10.6416 14.6416 11.4782 13.6133 11.4782H13C13 25.1334 13 25.7903 13 39.4463H13.6133C14.6416 39.4463 15.4782 40.2829 15.4782 41.3112ZM19.9196 40.698V36.1087H31.081V40.698H19.9196ZM31.081 10.2265V14.8158H19.9196V10.2265H31.081ZM14.2265 12.6436C15.4405 12.3987 16.3987 11.4405 16.6436 10.2265H18.693V16.0423H21.8367C22.1313 17.8008 23.6626 19.1488 25.5 19.1488C27.3374 19.1488 28.8692 17.8008 29.1638 16.0423H32.3076V10.2265H34.3564C34.6013 11.4405 35.5595 12.3987 36.7735 12.6436V24.849H29.9114C29.6114 22.6828 27.7476 21.0089 25.5 21.0089C23.253 21.0089 21.3892 22.6828 21.0892 24.849H14.2265V12.6436ZM27.9117 16.0591C27.6314 17.1293 26.6547 17.9222 25.5 17.9222C24.3459 17.9222 23.3692 17.1293 23.0889 16.0591H27.9117ZM25.5 22.2354C27.2793 22.2354 28.7268 23.6829 28.7268 25.4622C28.7268 27.2409 27.2793 28.6885 25.5 28.6885C23.7213 28.6885 22.2738 27.2409 22.2738 25.4622C22.2738 23.6829 23.7213 22.2354 25.5 22.2354ZM21.0892 26.0755C21.3892 28.2417 23.253 29.915 25.5 29.915C27.7476 29.915 29.6114 28.2417 29.9114 26.0755H36.7735V38.2809C35.5595 38.5258 34.6013 39.484 34.3564 40.698H32.3076V34.8822H29.1638C28.8692 33.1237 27.3374 31.7757 25.5 31.7757C23.6626 31.7757 22.1313 33.1237 21.8367 34.8822H18.693V40.698H16.6436C16.3987 39.484 15.4405 38.5258 14.2265 38.2809V26.0755H21.0892ZM23.0889 34.8654C23.3692 33.7952 24.3459 33.0023 25.5 33.0023C26.6547 33.0023 27.6314 33.7952 27.9117 34.8654H23.0889Z" fill="#00552A"/>
<rect x="0.75" y="0.25" width="49.5" height="49.5" rx="4.75" stroke="#00552A" stroke-width="0.5"/>
</svg>
