<svg width="51" height="50" viewBox="0 0 51 50" fill="none" xmlns="http://www.w3.org/2000/svg">
<path d="M31.8828 24.5691V27.5478H34.5424V24.5691H31.8828ZM33.7445 26.7499H32.6807V25.367H33.7445V26.7499Z" fill="#00552A"/>
<path d="M31.8828 28.2925V31.2712H34.5424V28.2925H31.8828ZM33.7445 30.4733H32.6807V29.0904H33.7445V30.4733Z" fill="#00552A"/>
<path d="M36.6702 33.3457V22.8404H37.4681V20.7128H30.5532V19.516L30.5798 19.4628L26.0319 15.7128V15.1277H28.1596V13H25.234V15.5L20.4202 19.4628L20.4734 19.516V20.7128H13.5585V22.8404H14.3564V33.3457H13V36.0053H38V33.3457H36.6702ZM26.0319 13.7979H27.3617V14.3298H26.0319V13.7979ZM30.8191 21.5106H36.6702V22.0426H30.8191V21.5106ZM30.5532 22.9734H35.8457V33.3457H30.5532V22.9734ZM25.5 16.2979L29.383 19.516H21.617L25.5 16.2979ZM21.2447 20.3138H29.7553V33.3457H27.7606V28.8245C27.7606 27.5745 26.75 26.5638 25.5 26.5638C24.25 26.5638 23.2394 27.5745 23.2394 28.8245V33.3457H21.2447V20.3138ZM25.1011 33.3457H24.0372V28.8245C24.0372 28.1596 24.4894 27.6011 25.1011 27.4149V33.3457ZM26.9628 33.3457H25.8989V27.4149C26.5106 27.6011 26.9628 28.1596 26.9628 28.8245V33.3457ZM14.3298 21.5106H20.1809V22.0426H14.3298V21.5106ZM20.4468 22.9734V33.3457H15.1277V22.9734H20.4468ZM37.2021 35.2074H13.7979V34.1436H37.2021V35.2074Z" fill="#00552A"/>
<path d="M16.457 24.3032V27.2819H19.1166V24.3032H16.457ZM18.3187 26.4841H17.2549V25.1011H18.3187V26.4841Z" fill="#00552A"/>
<path d="M16.457 28.2925V31.2712H19.1166V28.2925H16.457ZM18.3187 30.4733H17.2549V29.0904H18.3187V30.4733Z" fill="#00552A"/>
<path d="M25.5002 20.9788C24.5428 20.9788 23.7715 21.75 23.7715 22.7075C23.7715 23.6649 24.5428 24.4362 25.5002 24.4362C26.4577 24.4362 27.2289 23.6649 27.2289 22.7075C27.2289 21.75 26.4577 20.9788 25.5002 20.9788ZM25.5002 23.6383C24.9949 23.6383 24.5694 23.2128 24.5694 22.7075C24.5694 22.2022 24.9949 21.7766 25.5002 21.7766C26.0055 21.7766 26.4311 22.2022 26.4311 22.7075C26.4311 23.2128 26.0321 23.6383 25.5002 23.6383Z" fill="#00552A"/>
<rect x="0.75" y="0.25" width="49.5" height="49.5" rx="4.75" stroke="#00552A" stroke-width="0.5"/>
</svg>
