<svg width="51" height="50" viewBox="0 0 51 50" fill="none" xmlns="http://www.w3.org/2000/svg">
<path d="M37.3873 33.8358H35.549L34.201 19.9265H36.9583C37.326 19.9265 37.5711 19.6814 37.5711 19.3137C37.5711 18.9461 37.326 18.701 36.9583 18.701H34.0784L33.7721 15.3922C33.7721 15.0858 33.4657 14.8407 33.1593 14.8407H28.8088V10.6127C28.8088 10.2451 28.5637 10 28.1961 10H22.9265C22.5588 10 22.3137 10.2451 22.3137 10.6127V14.8407H17.9632C17.6569 14.8407 17.4118 15.0858 17.3505 15.3922L17.0441 18.701H14.1029C13.7353 18.701 13.4902 18.9461 13.4902 19.3137C13.4902 19.6814 13.7353 19.9265 14.1029 19.9265H16.8603L15.5735 33.8358H13.6127C13.2451 33.8358 13 34.0809 13 34.4485C13 34.8162 13.2451 35.0613 13.6127 35.0613H15.451L15.0833 38.7377C15.0221 39.1054 15.3284 39.4118 15.6961 39.4118C26.7868 39.4118 24.3358 39.4118 35.4265 39.4118C35.7941 39.4118 36.1005 39.1054 36.0392 38.7377L35.6716 35.0613H37.3873C37.7549 35.0613 38 34.8162 38 34.4485C38 34.0809 37.7549 33.8358 37.3873 33.8358ZM27.5833 14.8407H26.174V11.2255H27.5833V14.8407ZM23.5392 11.2255H24.9485V14.8407H23.5392V11.2255ZM18.4534 16.0662H22.8652H28.1348H32.5466L32.7917 18.701H18.2083L18.4534 16.0662ZM18.0858 19.9265H32.9755L34.3235 33.8358H28.8088V30.5882C28.8088 30.2206 28.5637 29.9755 28.1961 29.9755H22.9265C22.5588 29.9755 22.3137 30.2206 22.3137 30.5882V33.8358H16.799L18.0858 19.9265ZM16.6765 35.0613H22.3137V38.1863H16.3701L16.6765 35.0613ZM23.5392 31.201H24.9485V38.1863H23.5392V31.201ZM26.174 38.1863V31.201H27.5833V34.4485V38.1863H26.174ZM34.7524 38.1863H28.8088V35.0613H34.4461L34.7524 38.1863Z" fill="#00552A"/>
<rect x="0.75" y="0.25" width="49.5" height="49.5" rx="4.75" stroke="#00552A" stroke-width="0.5"/>
</svg>
