<svg width="47" height="47" viewBox="0 0 47 47" fill="none" xmlns="http://www.w3.org/2000/svg">
<path d="M32.8107 11.4081H32.4877H32.8107Z" fill="black" stroke="#00552A"/>
<path d="M21.305 29.8642H21.3997H21.4013H21.4939H21.8026H21.817V30.1873V30.856L21.305 29.8642ZM25.0963 31.2691V31.2691ZM19.2818 29.5889L19.2863 29.5873L19.2818 29.5889ZM19.2838 29.5925L19.2873 29.5893L19.2838 29.5925ZM21.9074 31.679H25.0928H21.9074Z" fill="black" stroke="#00552A"/>
<mask id="path-4-inside-1" fill="white">
<path d="M23.4998 25.1667H23.509C23.8418 25.1655 24.1605 25.0323 24.3952 24.7963C24.6298 24.5603 24.7613 24.2409 24.7607 23.9081C24.7601 23.5753 24.6275 23.2563 24.3919 23.0212C24.1564 22.7861 23.8372 22.6541 23.5044 22.6541C23.1716 22.6541 22.8524 22.7861 22.6168 23.0212C22.3813 23.2563 22.2487 23.5753 22.248 23.9081C22.2474 24.2409 22.3789 24.5603 22.6136 24.7963C22.8483 25.0323 23.167 25.1655 23.4998 25.1667ZM23.4998 23.458C23.5874 23.458 23.673 23.484 23.7458 23.5326C23.8186 23.5813 23.8754 23.6504 23.9089 23.7314C23.9424 23.8123 23.9512 23.9013 23.9341 23.9872C23.917 24.0731 23.8748 24.152 23.8129 24.2139C23.751 24.2758 23.6721 24.318 23.5862 24.3351C23.5003 24.3522 23.4113 24.3434 23.3303 24.3099C23.2494 24.2764 23.1803 24.2196 23.1316 24.1468C23.083 24.074 23.057 23.9884 23.057 23.9008C23.06 23.7843 23.1076 23.6734 23.19 23.591C23.2724 23.5087 23.3833 23.4611 23.4998 23.4582V23.458Z"/>
</mask>
<path d="M23.4998 25.1667H23.509C23.8418 25.1655 24.1605 25.0323 24.3952 24.7963C24.6298 24.5603 24.7613 24.2409 24.7607 23.9081C24.7601 23.5753 24.6275 23.2563 24.3919 23.0212C24.1564 22.7861 23.8372 22.6541 23.5044 22.6541C23.1716 22.6541 22.8524 22.7861 22.6168 23.0212C22.3813 23.2563 22.2487 23.5753 22.248 23.9081C22.2474 24.2409 22.3789 24.5603 22.6136 24.7963C22.8483 25.0323 23.167 25.1655 23.4998 25.1667ZM23.4998 23.458C23.5874 23.458 23.673 23.484 23.7458 23.5326C23.8186 23.5813 23.8754 23.6504 23.9089 23.7314C23.9424 23.8123 23.9512 23.9013 23.9341 23.9872C23.917 24.0731 23.8748 24.152 23.8129 24.2139C23.751 24.2758 23.6721 24.318 23.5862 24.3351C23.5003 24.3522 23.4113 24.3434 23.3303 24.3099C23.2494 24.2764 23.1803 24.2196 23.1316 24.1468C23.083 24.074 23.057 23.9884 23.057 23.9008C23.06 23.7843 23.1076 23.6734 23.19 23.591C23.2724 23.5087 23.3833 23.4611 23.4998 23.4582V23.458Z" fill="black"/>
<path d="M23.4998 25.1667L23.4962 26.1667H23.4998V25.1667ZM23.509 25.1667V26.1667L23.5126 26.1667L23.509 25.1667ZM23.4998 23.458V22.458H22.4998V23.458H23.4998ZM23.057 23.9008L22.0573 23.8753L22.057 23.8881V23.9008H23.057ZM23.4998 23.4582L23.5249 24.4578L24.4998 24.4333V23.4582H23.4998ZM23.4998 26.1667H23.509V24.1667H23.4998V26.1667ZM23.5126 26.1667C24.1103 26.1645 24.6827 25.9253 25.1042 25.5015L23.6861 24.0911C23.6382 24.1393 23.5732 24.1665 23.5053 24.1667L23.5126 26.1667ZM25.1042 25.5015C25.5257 25.0777 25.7618 24.504 25.7607 23.9063L23.7607 23.9099C23.7608 23.9778 23.734 24.043 23.6861 24.0911L25.1042 25.5015ZM25.7607 23.9063C25.7596 23.3086 25.5214 22.7357 25.0984 22.3135L23.6855 23.729C23.7335 23.7769 23.7606 23.842 23.7607 23.9099L25.7607 23.9063ZM25.0984 22.3135C24.6754 21.8912 24.1021 21.6541 23.5044 21.6541V23.6541C23.5723 23.6541 23.6374 23.681 23.6855 23.729L25.0984 22.3135ZM23.5044 21.6541C22.9067 21.6541 22.3334 21.8912 21.9104 22.3135L23.3233 23.729C23.3713 23.681 23.4365 23.6541 23.5044 23.6541V21.6541ZM21.9104 22.3135C21.4873 22.7357 21.2491 23.3086 21.2481 23.9063L23.248 23.9099C23.2482 23.842 23.2752 23.7769 23.3233 23.729L21.9104 22.3135ZM21.2481 23.9063C21.247 24.504 21.4831 25.0777 21.9046 25.5015L23.3226 24.0911C23.2747 24.043 23.2479 23.9778 23.248 23.9099L21.2481 23.9063ZM21.9046 25.5015C22.326 25.9253 22.8985 26.1645 23.4962 26.1667L23.5034 24.1667C23.4355 24.1665 23.3705 24.1393 23.3226 24.0911L21.9046 25.5015ZM23.4998 24.458C23.3896 24.458 23.2819 24.4253 23.1902 24.3641L24.3014 22.7012C24.0641 22.5426 23.7851 22.458 23.4998 22.458V24.458ZM23.1902 24.3641C23.0986 24.3029 23.0272 24.2158 22.985 24.114L24.8328 23.3487C24.7236 23.085 24.5386 22.8597 24.3014 22.7012L23.1902 24.3641ZM22.985 24.114C22.9428 24.0122 22.9318 23.9002 22.9533 23.7921L24.9149 24.1823C24.9705 23.9024 24.942 23.6123 24.8328 23.3487L22.985 24.114ZM22.9533 23.7921C22.9748 23.684 23.0279 23.5847 23.1058 23.5068L24.52 24.921C24.7218 24.7192 24.8592 24.4622 24.9149 24.1823L22.9533 23.7921ZM23.1058 23.5068C23.1837 23.4289 23.283 23.3758 23.3911 23.3543L23.7813 25.3159C24.0612 25.2602 24.3182 25.1228 24.52 24.921L23.1058 23.5068ZM23.3911 23.3543C23.4992 23.3328 23.6112 23.3438 23.713 23.386L22.9477 25.2338C23.2113 25.343 23.5014 25.3716 23.7813 25.3159L23.3911 23.3543ZM23.713 23.386C23.8148 23.4282 23.9019 23.4996 23.9631 23.5912L22.3002 24.7024C22.4587 24.9396 22.684 25.1246 22.9477 25.2338L23.713 23.386ZM23.9631 23.5912C24.0243 23.6829 24.057 23.7906 24.057 23.9008H22.057C22.057 24.1862 22.1416 24.4651 22.3002 24.7024L23.9631 23.5912ZM24.0567 23.9263C24.0531 24.0662 23.9959 24.1993 23.897 24.2983L22.483 22.8838C22.2192 23.1475 22.0668 23.5024 22.0573 23.8753L24.0567 23.9263ZM23.897 24.2983C23.798 24.3972 23.6648 24.4543 23.5249 24.4578L23.4746 22.4585C23.1018 22.4679 22.7468 22.6201 22.483 22.8838L23.897 24.2983ZM24.4998 23.4582V23.458H22.4998V23.4582H24.4998Z" fill="#00552A" mask="url(#path-4-inside-1)"/>
<mask id="path-6-inside-2" fill="white">
<path d="M23.5004 32.0278C23.3912 32.0278 23.2866 32.0712 23.2094 32.1484C23.1322 32.2255 23.0889 32.3302 23.0889 32.4394V33.9394C23.0889 34.0485 23.1322 34.1532 23.2094 34.2304C23.2866 34.3076 23.3912 34.3509 23.5004 34.3509C23.6095 34.3509 23.7142 34.3076 23.7914 34.2304C23.8686 34.1532 23.9119 34.0485 23.9119 33.9394V32.4394C23.9119 32.3302 23.8686 32.2255 23.7914 32.1484C23.7142 32.0712 23.6095 32.0278 23.5004 32.0278Z"/>
</mask>
<path d="M23.5004 32.0278C23.3912 32.0278 23.2866 32.0712 23.2094 32.1484C23.1322 32.2255 23.0889 32.3302 23.0889 32.4394V33.9394C23.0889 34.0485 23.1322 34.1532 23.2094 34.2304C23.2866 34.3076 23.3912 34.3509 23.5004 34.3509C23.6095 34.3509 23.7142 34.3076 23.7914 34.2304C23.8686 34.1532 23.9119 34.0485 23.9119 33.9394V32.4394C23.9119 32.3302 23.8686 32.2255 23.7914 32.1484C23.7142 32.0712 23.6095 32.0278 23.5004 32.0278Z" fill="black"/>
<path d="M23.5004 31.0278C23.126 31.0278 22.767 31.1765 22.5023 31.4413L23.9165 32.8555C23.8061 32.9658 23.6565 33.0278 23.5004 33.0278V31.0278ZM22.5023 31.4413C22.2376 31.706 22.0889 32.065 22.0889 32.4394H24.0889C24.0889 32.5954 24.0269 32.7451 23.9165 32.8555L22.5023 31.4413ZM22.0889 32.4394V33.9394H24.0889V32.4394H22.0889ZM22.0889 33.9394C22.0889 34.3138 22.2376 34.6728 22.5023 34.9375L23.9165 33.5233C24.0269 33.6337 24.0889 33.7833 24.0889 33.9394H22.0889ZM22.5023 34.9375C22.767 35.2022 23.126 35.3509 23.5004 35.3509V33.3509C23.6565 33.3509 23.8061 33.4129 23.9165 33.5233L22.5023 34.9375ZM23.5004 35.3509C23.8747 35.3509 24.2338 35.2022 24.4985 34.9375L23.0843 33.5233C23.1946 33.4129 23.3443 33.3509 23.5004 33.3509V35.3509ZM24.4985 34.9375C24.7632 34.6728 24.9119 34.3138 24.9119 33.9394H22.9119C22.9119 33.7833 22.9739 33.6337 23.0843 33.5233L24.4985 34.9375ZM24.9119 33.9394V32.4394H22.9119V33.9394H24.9119ZM24.9119 32.4394C24.9119 32.065 24.7632 31.706 24.4985 31.4413L23.0843 32.8555C22.9739 32.7451 22.9119 32.5954 22.9119 32.4394H24.9119ZM24.4985 31.4413C24.2338 31.1765 23.8747 31.0278 23.5004 31.0278V33.0278C23.3443 33.0278 23.1946 32.9658 23.0843 32.8555L24.4985 31.4413Z" fill="#00552A" mask="url(#path-6-inside-2)"/>
<mask id="path-8-inside-3" fill="white">
<path d="M25.2018 32.2257C25.1451 32.1325 25.0537 32.0655 24.9477 32.0396C24.8417 32.0137 24.7297 32.031 24.6364 32.0876C24.5431 32.1443 24.4761 32.2357 24.4502 32.3417C24.4243 32.4477 24.4416 32.5597 24.4983 32.653L24.9545 33.404C24.9825 33.4502 25.0194 33.4904 25.063 33.5224C25.1066 33.5543 25.1561 33.5774 25.2086 33.5902C25.2611 33.603 25.3156 33.6054 25.369 33.5971C25.4224 33.5889 25.4737 33.5702 25.5199 33.5422C25.5661 33.5141 25.6063 33.4772 25.6382 33.4336C25.6702 33.39 25.6932 33.3406 25.706 33.2881C25.7189 33.2356 25.7212 33.1811 25.713 33.1276C25.7047 33.0742 25.686 33.023 25.658 32.9768L25.2018 32.2257Z"/>
</mask>
<path d="M25.2018 32.2257C25.1451 32.1325 25.0537 32.0655 24.9477 32.0396C24.8417 32.0137 24.7297 32.031 24.6364 32.0876C24.5431 32.1443 24.4761 32.2357 24.4502 32.3417C24.4243 32.4477 24.4416 32.5597 24.4983 32.653L24.9545 33.404C24.9825 33.4502 25.0194 33.4904 25.063 33.5224C25.1066 33.5543 25.1561 33.5774 25.2086 33.5902C25.2611 33.603 25.3156 33.6054 25.369 33.5971C25.4224 33.5889 25.4737 33.5702 25.5199 33.5422C25.5661 33.5141 25.6063 33.4772 25.6382 33.4336C25.6702 33.39 25.6932 33.3406 25.706 33.2881C25.7189 33.2356 25.7212 33.1811 25.713 33.1276C25.7047 33.0742 25.686 33.023 25.658 32.9768L25.2018 32.2257Z" fill="black"/>
<path d="M25.2018 32.2257L24.3471 32.7448L24.3471 32.7449L25.2018 32.2257ZM24.4983 32.653L23.6436 33.1721L23.6436 33.1722L24.4983 32.653ZM24.9545 33.404L25.8092 32.8849L25.8092 32.8849L24.9545 33.404ZM25.658 32.9768L26.5127 32.4577L26.5127 32.4576L25.658 32.9768ZM26.0565 31.7066C25.8621 31.3867 25.5487 31.157 25.185 31.0682L24.7104 33.011C24.5588 32.974 24.4281 32.8782 24.3471 32.7448L26.0565 31.7066ZM25.185 31.0682C24.8213 30.9793 24.4373 31.0386 24.1173 31.2329L25.1555 32.9423C25.0221 33.0234 24.862 33.0481 24.7104 33.011L25.185 31.0682ZM24.1173 31.2329C23.7973 31.4272 23.5676 31.7407 23.4788 32.1044L25.4217 32.579C25.3846 32.7306 25.2889 32.8613 25.1555 32.9423L24.1173 31.2329ZM23.4788 32.1044C23.39 32.4681 23.4492 32.8521 23.6436 33.1721L25.353 32.1339C25.434 32.2673 25.4587 32.4274 25.4217 32.579L23.4788 32.1044ZM23.6436 33.1722L24.0998 33.9232L25.8092 32.8849L25.3529 32.1338L23.6436 33.1722ZM24.0998 33.9231C24.196 34.0816 24.3225 34.2195 24.472 34.3291L25.654 32.7157C25.7164 32.7614 25.7691 32.8189 25.8092 32.8849L24.0998 33.9231ZM24.472 34.3291C24.6216 34.4386 24.7912 34.5176 24.9713 34.5616L25.4459 32.6188C25.521 32.6371 25.5917 32.67 25.654 32.7157L24.472 34.3291ZM24.9713 34.5616C25.1513 34.6056 25.3383 34.6137 25.5215 34.5854L25.2165 32.6088C25.2929 32.597 25.3708 32.6004 25.4459 32.6188L24.9713 34.5616ZM25.5215 34.5854C25.7047 34.5572 25.8805 34.4931 26.039 34.3969L25.0008 32.6874C25.0668 32.6473 25.1401 32.6206 25.2165 32.6088L25.5215 34.5854ZM26.039 34.3969C26.1974 34.3006 26.3353 34.1741 26.4449 34.0246L24.8316 32.8426C24.8772 32.7803 24.9347 32.7276 25.0008 32.6874L26.039 34.3969ZM26.4449 34.0246C26.5544 33.8751 26.6335 33.7054 26.6775 33.5254L24.7346 33.0508C24.7529 32.9757 24.7859 32.905 24.8316 32.8426L26.4449 34.0246ZM26.6775 33.5254C26.7215 33.3453 26.7295 33.1583 26.7013 32.9751L24.7247 33.2801C24.7129 33.2038 24.7163 33.1258 24.7346 33.0508L26.6775 33.5254ZM26.7013 32.9751C26.673 32.792 26.6089 32.6161 26.5127 32.4577L24.8033 33.4959C24.7632 33.4298 24.7365 33.3565 24.7247 33.2801L26.7013 32.9751ZM26.5127 32.4576L26.0564 31.7066L24.3471 32.7449L24.8033 33.496L26.5127 32.4576Z" fill="#00552A" mask="url(#path-8-inside-3)"/>
<mask id="path-10-inside-4" fill="white">
<path d="M22.3636 32.0876C22.3174 32.0596 22.2662 32.0409 22.2128 32.0326C22.1593 32.0244 22.1048 32.0268 22.0523 32.0396C21.9998 32.0524 21.9504 32.0755 21.9068 32.1074C21.8632 32.1393 21.8263 32.1796 21.7982 32.2257L21.342 32.9768C21.314 33.023 21.2953 33.0742 21.287 33.1276C21.2788 33.1811 21.2812 33.2356 21.294 33.2881C21.3068 33.3406 21.3298 33.39 21.3618 33.4336C21.3937 33.4772 21.4339 33.5141 21.4801 33.5422C21.5263 33.5702 21.5776 33.5889 21.631 33.5971C21.6844 33.6054 21.7389 33.603 21.7914 33.5902C21.8439 33.5774 21.8934 33.5543 21.937 33.5224C21.9806 33.4904 22.0175 33.4502 22.0455 33.404L22.5017 32.653C22.5298 32.6068 22.5485 32.5556 22.5567 32.5021C22.565 32.4487 22.5626 32.3942 22.5498 32.3417C22.537 32.2892 22.5139 32.2398 22.482 32.1962C22.45 32.1526 22.4098 32.1157 22.3636 32.0876Z"/>
</mask>
<path d="M22.3636 32.0876C22.3174 32.0596 22.2662 32.0409 22.2128 32.0326C22.1593 32.0244 22.1048 32.0268 22.0523 32.0396C21.9998 32.0524 21.9504 32.0755 21.9068 32.1074C21.8632 32.1393 21.8263 32.1796 21.7982 32.2257L21.342 32.9768C21.314 33.023 21.2953 33.0742 21.287 33.1276C21.2788 33.1811 21.2812 33.2356 21.294 33.2881C21.3068 33.3406 21.3298 33.39 21.3618 33.4336C21.3937 33.4772 21.4339 33.5141 21.4801 33.5422C21.5263 33.5702 21.5776 33.5889 21.631 33.5971C21.6844 33.6054 21.7389 33.603 21.7914 33.5902C21.8439 33.5774 21.8934 33.5543 21.937 33.5224C21.9806 33.4904 22.0175 33.4502 22.0455 33.404L22.5017 32.653C22.5298 32.6068 22.5485 32.5556 22.5567 32.5021C22.565 32.4487 22.5626 32.3942 22.5498 32.3417C22.537 32.2892 22.5139 32.2398 22.482 32.1962C22.45 32.1526 22.4098 32.1157 22.3636 32.0876Z" fill="black"/>
<path d="M22.3636 32.0876L21.8445 32.9423L21.8446 32.9424L22.3636 32.0876ZM21.7982 32.2257L22.6529 32.7449L22.653 32.7448L21.7982 32.2257ZM21.342 32.9768L20.4874 32.4576L20.4873 32.4577L21.342 32.9768ZM22.0455 33.404L21.1909 32.8849L21.1908 32.8849L22.0455 33.404ZM22.5017 32.653L23.3564 33.1722L23.3564 33.1722L22.5017 32.653ZM22.8828 31.2329C22.7243 31.1367 22.5485 31.0726 22.3653 31.0443L22.0602 33.0209C21.9838 33.0092 21.9105 32.9824 21.8445 32.9423L22.8828 31.2329ZM22.3653 31.0443C22.1821 31.0161 21.9951 31.0242 21.815 31.0682L22.2896 33.011C22.2146 33.0294 22.1366 33.0327 22.0602 33.0209L22.3653 31.0443ZM21.815 31.0682C21.6349 31.1121 21.4653 31.1912 21.3158 31.3007L22.4978 32.9141C22.4354 32.9597 22.3647 32.9927 22.2896 33.011L21.815 31.0682ZM21.3158 31.3007C21.1662 31.4103 21.0397 31.5482 20.9435 31.7067L22.653 32.7448C22.6129 32.8109 22.5601 32.8684 22.4978 32.9141L21.3158 31.3007ZM20.9436 31.7066L20.4874 32.4576L22.1967 33.496L22.6529 32.7449L20.9436 31.7066ZM20.4873 32.4577C20.3911 32.6161 20.327 32.7919 20.2987 32.9751L22.2753 33.2802C22.2636 33.3565 22.2368 33.4298 22.1967 33.4959L20.4873 32.4577ZM20.2987 32.9751C20.2705 33.1583 20.2786 33.3453 20.3225 33.5254L22.2654 33.0508C22.2838 33.1258 22.2871 33.2038 22.2753 33.2802L20.2987 32.9751ZM20.3225 33.5254C20.3665 33.7055 20.4456 33.8751 20.5551 34.0246L22.1685 32.8426C22.2141 32.905 22.2471 32.9757 22.2654 33.0508L20.3225 33.5254ZM20.5551 34.0246C20.6647 34.1742 20.8026 34.3006 20.961 34.3969L21.9992 32.6874C22.0653 32.7276 22.1228 32.7803 22.1685 32.8426L20.5551 34.0246ZM20.961 34.3969C21.1195 34.4931 21.2953 34.5572 21.4785 34.5854L21.7835 32.6088C21.8599 32.6206 21.9332 32.6473 21.9992 32.6874L20.961 34.3969ZM21.4785 34.5854C21.6617 34.6137 21.8487 34.6056 22.0287 34.5616L21.5541 32.6188C21.6292 32.6004 21.7071 32.597 21.7835 32.6088L21.4785 34.5854ZM22.0287 34.5616C22.2088 34.5176 22.3785 34.4386 22.528 34.3291L21.346 32.7157C21.4083 32.67 21.4791 32.6371 21.5541 32.6188L22.0287 34.5616ZM22.528 34.3291C22.6775 34.2195 22.804 34.0816 22.9002 33.9231L21.1908 32.8849C21.2309 32.8189 21.2837 32.7614 21.346 32.7157L22.528 34.3291ZM22.9002 33.9232L23.3564 33.1722L21.6471 32.1338L21.1909 32.8849L22.9002 33.9232ZM23.3564 33.1722C23.4527 33.0137 23.5167 32.8379 23.545 32.6547L21.5684 32.3496C21.5802 32.2732 21.6069 32.1999 21.6471 32.1339L23.3564 33.1722ZM23.545 32.6547C23.5733 32.4715 23.5652 32.2845 23.5212 32.1044L21.5784 32.579C21.56 32.504 21.5566 32.426 21.5684 32.3496L23.545 32.6547ZM23.5212 32.1044C23.4772 31.9243 23.3982 31.7547 23.2886 31.6051L21.6753 32.7872C21.6296 32.7248 21.5967 32.6541 21.5784 32.579L23.5212 32.1044ZM23.2886 31.6051C23.1791 31.4556 23.0411 31.3291 22.8827 31.2329L21.8446 32.9424C21.7785 32.9023 21.721 32.8495 21.6753 32.7872L23.2886 31.6051Z" fill="#00552A" mask="url(#path-10-inside-4)"/>
<rect x="0.25" y="0.25" width="46.5" height="46.5" rx="4.75" stroke="#00552A" stroke-width="0.5"/>
</svg>
