<svg width="51" height="50" viewBox="0 0 51 50" fill="none" xmlns="http://www.w3.org/2000/svg">
<path d="M34.7223 23.2723L33.8734 27.8555H32.7362V22.6576L27.5975 20.2443V27.7683L28.1511 30.0852L24.3703 31.1599L25.3383 32.9704L38 34.2184V23.2723H34.7223ZM25.1853 31.5063L28.8169 30.4738L28.153 27.7355V21.119L32.1807 23.0103V28.411H33.7601L32.7351 33.1412L25.6886 32.4468L25.1853 31.5063ZM37.4445 33.6054L33.2915 33.1962L34.3284 28.411H34.3354L35.1842 23.8278H37.4445V33.6054ZM22.5562 30.3899L26.6539 29.2252L25.5931 23.9875L26.1772 21.0984L26.1842 21.0626L25.6822 13L17.9999 13.478L18.7613 25.7108L16.6119 26.2428V22.8717L13 26.4836L13.0508 34.2245L23.9178 32.9365L22.5562 30.3899ZM13.5569 26.7119L16.056 24.2128V26.9525L19.3443 26.1389L18.5888 13.9978L25.1622 13.5889L25.625 21.0237L25.0258 23.9873L26.0069 28.831L21.7412 30.0435L23.0439 32.4804L13.6022 33.5995L13.5569 26.7119ZM18.4599 35.1603C18.4777 35.3126 18.369 35.4506 18.2166 35.4687L14.1297 35.9531C14.1189 35.9545 14.1078 35.955 14.0969 35.955C13.958 35.955 13.838 35.8512 13.8214 35.7098C13.8036 35.5576 13.9122 35.4195 14.0647 35.4014L18.1516 34.9173C18.301 34.8981 18.4415 35.0078 18.4599 35.1603ZM21.4659 17.5038L20.3915 17.5707L20.2843 15.8466L21.3587 15.7797L21.4659 17.5038ZM22.8148 17.4121L22.7076 15.688L23.782 15.6211L23.8892 17.3452L22.8148 17.4121ZM29.6513 24.1842L30.7268 24.2253L30.661 25.9514L29.5855 25.9103L29.6513 24.1842ZM21.7287 20.8309L20.6543 20.8979L20.5471 19.1738L21.6215 19.1068L21.7287 20.8309ZM21.9329 24.1125L20.8584 24.1795L20.7512 22.4553L21.8256 22.3884L21.9329 24.1125ZM22.9701 19.0149L24.0445 18.9479L24.1517 20.6721L23.0773 20.739L22.9701 19.0149ZM33.4345 35.8375C33.4132 35.9745 33.2948 36.0725 33.1604 36.0725C33.1462 36.0725 33.1318 36.0714 33.1173 36.0692L24.6 34.7398L19.7249 35.2964C19.5746 35.3159 19.4349 35.2045 19.4176 35.052C19.4001 34.8995 19.5096 34.762 19.6621 34.7448L24.6114 34.1795L24.6486 34.1854L33.2029 35.5203C33.3545 35.5437 33.4582 35.6859 33.4345 35.8375Z" fill="#00552A"/>
<rect x="0.75" y="0.25" width="49.5" height="49.5" rx="4.75" stroke="#00552A" stroke-width="0.5"/>
</svg>
