<svg width="51" height="50" viewBox="0 0 51 50" fill="none" xmlns="http://www.w3.org/2000/svg">
<path d="M18.497 38.0145H17.78C15.3903 38.0145 13.4102 36.0685 13.4102 33.6446V22.2761C13.4102 19.8863 15.3561 17.9062 17.78 17.9062H18.497C20.8867 17.9062 22.8668 19.8522 22.8668 22.2761V33.6446C22.8668 36.0685 20.9209 38.0145 18.497 38.0145ZM17.78 18.9304C15.9365 18.9304 14.4343 20.4326 14.4343 22.2761V33.6446C14.4343 35.4882 15.9365 36.9903 17.78 36.9903H18.497C20.3405 36.9903 21.8426 35.4882 21.8426 33.6446V22.2761C21.8426 20.4326 20.3405 18.9304 18.497 18.9304H17.78Z" fill="#00552A"/>
<path d="M19.6231 19.1352C19.35 19.1352 19.111 18.8962 19.111 18.6231V13.0242H17.3699V18.6231C17.3699 18.8962 17.1309 19.1352 16.8578 19.1352C16.5847 19.1352 16.3457 18.8962 16.3457 18.6231V12.5121C16.3457 12.239 16.5847 12 16.8578 12H19.6231C19.8962 12 20.1352 12.239 20.1352 12.5121V18.6231C20.1352 18.8962 19.8962 19.1352 19.6231 19.1352Z" fill="#00552A"/>
<path d="M22.5253 16.3356H19.6576C19.3845 16.3356 19.1455 16.0966 19.1455 15.8235V13.8434C19.1455 13.5703 19.3845 13.3313 19.6576 13.3313H22.5253C22.7984 13.3313 23.0374 13.5703 23.0374 13.8434V15.8235C23.0374 16.0966 22.7984 16.3356 22.5253 16.3356ZM20.1697 15.3114H22.0132V14.3555H20.1697V15.3114Z" fill="#00552A"/>
<path d="M13.5121 17.7012C13.239 17.7012 13 17.4623 13 17.1892V14.1166C13 13.8435 13.239 13.6045 13.5121 13.6045H16.5847C16.8578 13.6045 17.0968 13.8435 17.0968 14.1166C17.0968 14.3897 16.8578 14.6287 16.5847 14.6287H14.0242V17.1892C14.0242 17.4623 13.8194 17.7012 13.5121 17.7012Z" fill="#00552A"/>
<path d="M31.0944 34.6345C30.1044 34.6345 29.1485 34.3614 28.1926 33.8151C26.4514 32.8251 25.3248 31.3912 24.8469 29.5135C24.642 28.6942 24.6762 27.8407 24.9834 27.0214C25.3931 25.8947 25.9394 24.9388 26.6904 24.0853C27.2708 23.4367 27.6122 22.788 27.7488 22.0711C27.817 21.6956 27.817 21.2859 27.7488 20.8079C27.7146 20.6031 27.817 20.3641 28.0219 20.2617C28.2267 20.1593 28.4657 20.1934 28.6022 20.3641C29.3533 21.1152 29.6606 21.9687 29.7971 22.788C30.2409 21.6273 30.0702 20.33 29.285 19.1692C29.0461 18.8278 28.7729 18.5206 28.4657 18.1792C28.3291 18.0426 28.1926 17.8719 28.056 17.7354L28.0219 17.7012C27.9536 17.633 27.8512 17.5305 27.7829 17.394C27.6805 17.2233 27.7146 17.0184 27.8512 16.8477C27.9877 16.677 28.1584 16.6088 28.3633 16.677L28.6364 16.7453C28.8412 16.7795 29.0802 16.8477 29.285 16.8819C31.0262 17.3257 32.4259 18.0768 33.5525 19.1351C34.8157 20.33 35.5326 21.8321 35.7716 23.6074C35.874 24.4267 35.874 25.2802 35.7374 26.202C35.7716 26.0654 35.8057 25.9289 35.8057 25.7923C35.8398 25.4509 35.874 25.1095 35.9081 24.734C35.9081 24.5633 35.9423 24.3926 35.9423 24.256C35.9423 24.0512 36.113 23.8464 36.3178 23.8122C36.5226 23.7781 36.7616 23.8464 36.864 24.0171C36.8982 24.0853 36.9323 24.1195 36.9665 24.1878C37.8541 25.7582 38.1613 27.2945 37.9224 28.8649C37.7858 29.7525 37.4444 30.606 36.8982 31.3571C36.0447 32.5861 34.9181 33.5079 33.5866 34.1224C32.7673 34.4638 31.9138 34.6345 31.0944 34.6345ZM28.7047 22.5491C28.4998 23.3684 28.0901 24.0853 27.4756 24.8023C26.827 25.5534 26.3149 26.4068 25.9394 27.431C25.7004 28.0455 25.6662 28.6601 25.8369 29.3087C26.2466 30.8791 27.2025 32.1082 28.6705 32.9617C30.1385 33.781 31.6407 33.8493 33.1428 33.1665C34.3036 32.6544 35.2936 31.835 36.0447 30.7426C36.4885 30.0939 36.7616 29.4111 36.8982 28.6601C37.0347 27.8748 36.9665 27.0896 36.7616 26.2703C36.6251 26.9531 36.3519 27.4993 35.9423 27.9773C35.6691 28.2845 35.3619 28.4894 34.9864 28.6259C34.8157 28.6942 34.6108 28.6601 34.4743 28.5235C34.3377 28.3869 34.2694 28.2162 34.3036 28.0455L34.3377 27.9773C34.3377 27.909 34.3718 27.8748 34.3718 27.8407C34.7815 26.2703 34.9181 24.973 34.7474 23.7439C34.5767 22.1735 33.928 20.9104 32.8697 19.8862C32.0162 19.101 30.992 18.4864 29.7289 18.0768C29.8654 18.2475 30.0361 18.4523 30.1727 18.623C31.5041 20.6031 31.3676 22.9587 29.8313 24.7681C29.7971 24.8023 29.763 24.8706 29.7289 24.9047L29.6947 24.9388C29.5582 25.1095 29.3192 25.1437 29.1143 25.0413C28.9095 24.9388 28.8071 24.734 28.8071 24.495C28.8754 23.744 28.8412 23.0953 28.7047 22.5491Z" fill="#00552A"/>
<path d="M30.9236 29.9916C30.7529 29.9916 30.6163 29.9233 30.5139 29.7867C30.3432 29.5478 30.3774 29.2405 30.6163 29.0698C33.6889 26.7142 32.3575 23.3002 32.3575 23.2661C32.255 22.9929 32.3916 22.7198 32.6306 22.6174C32.9037 22.515 33.1768 22.6516 33.2792 22.8905C33.2792 22.9247 34.8838 27.0897 31.1967 29.8892C31.1284 29.9574 31.026 29.9916 30.9236 29.9916Z" fill="#00552A"/>
<rect x="0.75" y="0.25" width="49.5" height="49.5" rx="4.75" stroke="#00552A" stroke-width="0.5"/>
</svg>
