<svg width="51" height="50" viewBox="0 0 51 50" fill="none" xmlns="http://www.w3.org/2000/svg">
<path d="M37.5655 15.2647H35.8446V13.8264C35.8446 13.7145 35.8002 13.6072 35.7211 13.5281C35.642 13.449 35.5347 13.4046 35.4228 13.4046H33.7103V12.4218C33.7103 12.3099 33.6659 12.2026 33.5868 12.1235C33.5077 12.0444 33.4004 12 33.2885 12H31.1669C31.055 12 30.9477 12.0444 30.8686 12.1235C30.7895 12.2026 30.7451 12.3099 30.7451 12.4218V17.9263H29.8171C29.6878 17.7864 29.5467 17.658 29.3953 17.5424C28.189 16.6988 25.1309 15.695 23.9541 16.7368C23.5496 17.0968 23.1809 17.4952 22.8532 17.9263H20.2296V12.4218C20.2296 12.3099 20.1852 12.2026 20.1061 12.1235C20.027 12.0444 19.9197 12 19.8078 12H17.6862C17.5743 12 17.467 12.0444 17.3879 12.1235C17.3088 12.2026 17.2644 12.3099 17.2644 12.4218V13.4172H15.5519C15.44 13.4172 15.3327 13.4617 15.2536 13.5408C15.1745 13.6199 15.1301 13.7272 15.1301 13.839V15.2647H13.4218C13.3099 15.2647 13.2026 15.3092 13.1235 15.3883C13.0444 15.4674 13 15.5747 13 15.6865V22.8571C13 22.969 13.0444 23.0762 13.1235 23.1554C13.2026 23.2345 13.3099 23.2789 13.4218 23.2789H15.1427V24.713C15.1427 24.8249 15.1872 24.9322 15.2663 25.0113C15.3454 25.0904 15.4527 25.1348 15.5645 25.1348H17.2897V26.1429C17.2897 26.2548 17.3341 26.3621 17.4132 26.4412C17.4923 26.5203 17.5996 26.5647 17.7115 26.5647H19.8458C19.9577 26.5647 20.0649 26.5203 20.144 26.4412C20.2231 26.3621 20.2676 26.2548 20.2676 26.1429V20.592H22.0349C22.1702 21.04 22.4507 21.4303 22.8321 21.7014C23.5703 22.2666 24.2536 22.4817 24.8525 22.3425C25.1857 22.2633 25.4828 22.0747 25.6961 21.8068H27.6364L28.4463 22.6884C28.7921 24.7974 29.1465 27.712 29.3236 29.2473C28.2565 28.6104 26.7549 28.5598 24.9032 29.1166C23.8035 28.2042 22.4177 27.7084 20.9889 27.7162C17.7326 27.7162 15.0837 30.1922 15.0837 33.2376C15.0837 36.2829 17.7326 38.7589 20.9889 38.7589C21.8855 38.7591 22.7716 38.5664 23.5871 38.1937C25.0287 38.6671 26.5294 38.9368 28.0456 38.9951C28.6194 39.0095 29.1911 38.9195 29.7327 38.7294C32.3142 37.7297 37.2197 32.5922 37.2197 31.2551C37.2197 29.5215 36.0429 27.0371 34.9251 25.0968H35.4355C35.5473 25.0968 35.6546 25.0524 35.7337 24.9733C35.8128 24.8942 35.8573 24.7869 35.8573 24.675V23.2409H37.5782C37.6901 23.2409 37.7974 23.1965 37.8765 23.1174C37.9556 23.0383 38 22.931 38 22.8191V15.6486C37.9904 15.5412 37.94 15.4416 37.8592 15.3702C37.7784 15.2988 37.6733 15.2611 37.5655 15.2647ZM31.576 12.8183H32.892V25.6958H31.576V12.8183ZM30.7577 19.7737H24.8525C24.765 19.6164 24.7191 19.4392 24.7191 19.2592C24.7191 19.0791 24.765 18.9019 24.8525 18.7446H30.7577V19.7737ZM13.8309 22.4353V16.083H15.1427V22.4353H13.8309ZM15.961 24.2786V14.2355H17.277V24.2786H15.961ZM19.4113 25.6958H18.0953V12.8183H19.4113V25.6958ZM20.2296 18.7488H22.3386C22.168 19.07 22.0538 19.4181 22.0012 19.778H20.2296V18.7488ZM24.6501 21.5664C24.4063 21.5787 24.1627 21.5409 23.9341 21.4553C23.7056 21.3697 23.4971 21.2381 23.3214 21.0687C23.1635 20.9633 23.0322 20.8228 22.9378 20.6581C22.8434 20.4934 22.7884 20.3091 22.7773 20.1196C22.7478 19.217 23.6757 18.0655 24.4645 17.3484C25.0719 16.8169 27.1303 17.2261 28.4294 17.9263H24.6501C24.5919 17.927 24.5346 17.9397 24.4816 17.9637C24.4286 17.9876 24.3811 18.0223 24.3422 18.0655C24.0666 18.3965 23.9116 18.8113 23.9024 19.2419C23.8932 19.6725 24.0304 20.0935 24.2915 20.436C24.3122 20.4642 24.3363 20.4897 24.3633 20.5119L24.9875 21.4188C24.8894 21.4959 24.7733 21.5467 24.6501 21.5664ZM36.3929 31.2678C36.3255 32.0312 32.0569 36.9789 29.4375 37.9828C28.3619 38.4046 26.312 38.1853 23.6757 37.3796C23.5762 37.351 23.4696 37.36 23.3762 37.4049C22.6355 37.7715 21.8196 37.9607 20.9931 37.9575C18.1881 37.9575 15.9062 35.8485 15.9062 33.2544C15.9062 30.6604 18.1966 28.5345 21.0015 28.5345C22.3081 28.5264 23.571 29.0045 24.5446 29.8758C24.5984 29.9235 24.6634 29.9566 24.7335 29.9721C24.8036 29.9876 24.8765 29.985 24.9453 29.9644C26.4596 29.4751 28.4842 29.1756 29.5429 30.5001C29.6017 30.5611 29.6774 30.6029 29.7603 30.6203C29.8432 30.6376 29.9294 30.6296 30.0076 30.5973C30.0859 30.565 30.1526 30.5099 30.1991 30.4391C30.2457 30.3684 30.2698 30.2853 30.2684 30.2006C30.2684 30.1542 29.7412 25.4005 29.2477 22.4269C29.2333 22.348 29.1967 22.2748 29.1422 22.216L28.1215 21.1362C28.0828 21.0955 28.0363 21.0631 27.9849 21.0406C27.9335 21.0181 27.8781 21.0062 27.822 21.0054H25.713L25.4262 20.5836H30.7577V26.1049C30.7577 26.2168 30.8022 26.3241 30.8813 26.4032C30.9604 26.4823 31.0676 26.5267 31.1795 26.5267H33.3138C33.4257 26.5267 33.533 26.4823 33.6121 26.4032C33.6912 26.3241 33.7356 26.2168 33.7356 26.1049V25.0968H34.0013C35.562 27.7879 36.4014 29.918 36.4014 31.2509L36.3929 31.2678ZM35.0263 24.2786H33.7103V14.2355H35.0263V24.2786ZM37.1353 22.4353H35.8446V16.083H37.1564L37.1353 22.4353Z" fill="#00552A"/>
<rect x="0.75" y="0.25" width="49.5" height="49.5" rx="4.75" stroke="#00552A" stroke-width="0.5"/>
</svg>
