<svg width="51" height="50" viewBox="0 0 51 50" fill="none" xmlns="http://www.w3.org/2000/svg">
<path d="M32.8355 26.1951C32.3948 26.1949 31.9559 26.251 31.5295 26.3621L30.9745 24.6899V23.2553L31.1102 23.2707C31.1537 23.2755 31.1973 23.2779 31.2411 23.2778C31.5363 23.2778 31.8203 23.1648 32.0347 22.9619C32.2492 22.7591 32.3779 22.4818 32.3942 22.187C32.4106 21.8923 32.3135 21.6024 32.1229 21.377C31.9322 21.1516 31.6625 21.0078 31.3691 20.9751L28.0599 20.6018L27.2186 18.5345C27.7801 18.3773 28.2792 18.05 28.6469 17.5974C29.0146 17.1449 29.233 16.5894 29.2719 16.0076C29.3109 15.4258 29.1685 14.8462 28.8643 14.3487C28.5601 13.8512 28.1092 13.4603 27.5736 13.2297C27.038 12.9992 26.444 12.9404 25.8736 13.0614C25.3032 13.1824 24.7844 13.4774 24.3885 13.9056C23.9927 14.3338 23.7394 14.8742 23.6635 15.4523C23.5876 16.0305 23.6928 16.6179 23.9646 17.1338C23.0062 17.5717 21.7205 19.0435 19.9865 21.673C19.6795 22.1383 19.5515 22.6991 19.6264 23.2516C19.7013 23.804 19.9739 24.3105 20.3937 24.6773L19.7134 26.4289C18.688 26.1077 17.5879 26.1141 16.5663 26.4472C15.5447 26.7803 14.6523 27.4236 14.0133 28.2875C13.3743 29.1513 13.0204 30.1929 13.0009 31.2673C12.9813 32.3416 13.2971 33.3954 13.9043 34.2819C14.5116 35.1684 15.38 35.8437 16.3888 36.2137C17.3976 36.5837 18.4967 36.6301 19.5331 36.3464C20.5696 36.0627 21.4918 35.4631 22.1715 34.6309C22.8513 33.7987 23.2548 32.7753 23.3259 31.7031H23.3302C23.4592 31.8868 23.6304 32.0369 23.8295 32.1406C24.0286 32.2444 24.2497 32.2987 24.4742 32.2991C24.7293 32.2983 24.9794 32.2281 25.1977 32.096C25.416 31.9639 25.5943 31.7749 25.7134 31.5493L30.4967 25.425L30.8798 26.5799C29.6911 27.0651 28.7256 27.9754 28.1713 29.1335C27.6171 30.2916 27.5138 31.6145 27.8816 32.8446C28.2493 34.0747 29.0619 35.1238 30.1609 35.7876C31.2599 36.4514 32.5666 36.6822 33.8265 36.4353C35.0864 36.1883 36.2093 35.4811 36.9764 34.4516C37.7434 33.422 38.0997 32.1438 37.9759 30.8659C37.8521 29.588 37.2569 28.4019 36.3065 27.5388C35.356 26.6756 34.1183 26.1973 32.8344 26.1968L32.8355 26.1951ZM30.2881 24.355H25.3757L24.4884 23.737C24.4775 23.7293 24.4694 23.7182 24.4655 23.7054C24.4617 23.6926 24.4622 23.6789 24.4671 23.6664L26.038 21.6828L26.4605 22.3719C26.4676 22.3833 26.4752 22.3943 26.4835 22.4048C26.6753 22.6462 26.955 22.8017 27.2613 22.8372L30.2887 23.1809L30.2881 24.355ZM27.2525 25.6598L26.3587 25.0419H29.9296L27.1343 28.6193L27.7139 27.4234C27.8624 27.1232 27.8974 26.7794 27.8126 26.4554C27.7278 26.1314 27.529 25.8489 27.2525 25.6598ZM26.4556 13.6894C26.818 13.6883 27.1746 13.7796 27.492 13.9545C27.8094 14.1294 28.077 14.3822 28.2696 14.6891C28.4623 14.996 28.5736 15.3469 28.5932 15.7088C28.6128 16.0706 28.5399 16.4315 28.3814 16.7574C28.223 17.0833 27.9842 17.3635 27.6875 17.5716C27.3909 17.7797 27.0461 17.9088 26.6857 17.9469C26.3254 17.9849 25.9613 17.9306 25.6277 17.789C25.2941 17.6474 25.0021 17.4233 24.7791 17.1376C24.7714 17.1272 24.7632 17.1168 24.7544 17.107C24.5158 16.7903 24.3701 16.4134 24.3337 16.0186C24.2972 15.6237 24.3715 15.2265 24.5481 14.8715C24.7247 14.5165 24.9967 14.2177 25.3337 14.0086C25.6706 13.7995 26.0591 13.6884 26.4556 13.6877V13.6894ZM20.975 25.066L22.2766 25.8322L24.6652 27.2964L23.2197 30.2794C23.0505 29.4991 22.7035 28.7683 22.2056 28.144C21.7078 27.5197 21.0725 27.0187 20.3494 26.6801L20.975 25.066ZM22.6357 31.0211H18.6652L20.1015 27.3188C20.8113 27.6597 21.419 28.1812 21.8638 28.831C22.3086 29.4808 22.5748 30.236 22.6357 31.0211ZM18.1666 35.8471C17.5222 35.8472 16.8854 35.7085 16.2995 35.4404C15.7136 35.1723 15.1923 34.781 14.7713 34.2932C14.3502 33.8055 14.0392 33.2327 13.8595 32.614C13.6797 31.9952 13.6355 31.3449 13.7297 30.7075C13.8239 30.0701 14.0544 29.4604 14.4055 28.9201C14.7566 28.3798 15.22 27.9215 15.7641 27.5765C16.3083 27.2314 16.9205 27.0077 17.5589 26.9205C18.1973 26.8334 18.847 26.8848 19.4638 27.0714L17.8469 31.2395C17.8268 31.2913 17.8197 31.3473 17.8261 31.4026C17.8325 31.4578 17.8522 31.5106 17.8837 31.5565C17.9151 31.6024 17.9572 31.6399 18.0064 31.6659C18.0556 31.6918 18.1104 31.7053 18.166 31.7053H22.6357C22.5485 32.8313 22.04 33.8831 21.2116 34.6507C20.3833 35.4184 19.296 35.8456 18.1666 35.8471ZM24.16 31.5455C23.9895 31.4627 23.8588 31.3156 23.7967 31.1365C23.7346 30.9574 23.7461 30.7609 23.8289 30.5903L25.4162 27.3156C25.4535 27.2392 25.4609 27.1517 25.4372 27.0701C25.4134 26.9885 25.36 26.9188 25.2876 26.8744L22.6286 25.2455L21.0861 24.338C20.8967 24.2266 20.732 24.0779 20.6019 23.9008C20.4718 23.7237 20.3792 23.522 20.3295 23.308C20.2799 23.0939 20.2744 22.872 20.3133 22.6558C20.3522 22.4395 20.4347 22.2334 20.5557 22.0501C22.7643 18.7003 23.859 17.8645 24.3631 17.7074C24.627 18.0007 24.9498 18.2351 25.3103 18.3955C25.6708 18.5558 26.061 18.6384 26.4556 18.6379C26.4775 18.6379 26.4988 18.6379 26.5207 18.6379L27.501 21.0462C27.5242 21.1033 27.5623 21.153 27.6113 21.1902C27.6603 21.2274 27.7185 21.2506 27.7796 21.2575L31.2909 21.6533C31.3523 21.6602 31.4118 21.6792 31.4659 21.7091C31.5201 21.739 31.5678 21.7793 31.6063 21.8277C31.6449 21.876 31.6735 21.9315 31.6906 21.9909C31.7077 22.0504 31.713 22.1126 31.706 22.1741C31.6991 22.2355 31.6801 22.295 31.6502 22.3491C31.6203 22.4032 31.58 22.4509 31.5316 22.4895C31.4832 22.5281 31.4278 22.5567 31.3683 22.5738C31.3089 22.5909 31.2467 22.5962 31.1852 22.5892L30.6685 22.5307H30.6641L27.3374 22.1563C27.2185 22.1419 27.1095 22.0832 27.032 21.9921L25.5601 19.5958C25.5383 19.5545 25.5082 19.5182 25.4718 19.489C25.4354 19.4598 25.3934 19.4384 25.3484 19.426C25.3034 19.4137 25.2563 19.4107 25.2101 19.4172C25.1639 19.4237 25.1195 19.4396 25.0796 19.4639C25.0398 19.4882 25.0053 19.5204 24.9784 19.5586C24.9515 19.5967 24.9326 19.6399 24.9231 19.6856C24.9135 19.7313 24.9133 19.7784 24.9226 19.8242C24.9319 19.8699 24.9505 19.9133 24.9772 19.9516L25.657 21.0599L23.9137 23.263C23.9055 23.2734 23.8984 23.2838 23.8913 23.2942C23.7903 23.4561 23.7553 23.6507 23.7937 23.8376C23.8322 24.0246 23.941 24.1896 24.0976 24.2986L26.8612 26.222C27.0021 26.3185 27.1036 26.4626 27.1472 26.6278C27.1907 26.793 27.1733 26.9683 27.0982 27.1218L25.1179 31.2099C25.1176 31.2112 25.1176 31.2125 25.1179 31.2138C25.0334 31.3834 24.8857 31.5131 24.7067 31.5751C24.5276 31.6372 24.3313 31.6265 24.16 31.5455ZM32.8355 35.8471C31.8008 35.8461 30.7983 35.4874 29.998 34.8317C29.1976 34.176 28.6486 33.2637 28.4441 32.2495C28.2396 31.2352 28.3922 30.1815 28.8759 29.2669C29.3596 28.3523 30.1448 27.6331 31.0982 27.2313L32.5114 31.4732C32.5405 31.5593 32.6025 31.6303 32.6839 31.6707C32.7653 31.711 32.8594 31.7173 32.9455 31.6883C33.0316 31.6593 33.1026 31.5972 33.1429 31.5158C33.1833 31.4344 33.1896 31.3403 33.1606 31.2543L31.7473 27.0123C32.3633 26.8589 33.0048 26.8379 33.6294 26.9509C34.254 27.0639 34.8475 27.3082 35.3707 27.6677C35.8938 28.0271 36.3347 28.4936 36.6641 29.0362C36.9935 29.5787 37.204 30.1851 37.2816 30.8151C37.3592 31.4451 37.3021 32.0844 37.1142 32.6907C36.9263 33.2969 36.6118 33.8564 36.1915 34.3321C35.7712 34.8078 35.2547 35.1888 34.6762 35.45C34.0976 35.7111 33.4702 35.8465 32.8355 35.8471Z" fill="#00552A"/>
<rect x="0.75" y="0.25" width="49.5" height="49.5" rx="4.75" stroke="#00552A" stroke-width="0.5"/>
</svg>
