<svg width="51" height="50" viewBox="0 0 51 50" fill="none" xmlns="http://www.w3.org/2000/svg">
<path d="M18.1736 24.6862C19.7013 25.2336 21.0871 26.2671 22.1246 27.7111C22.1696 27.7705 22.2029 27.838 22.2227 27.9096C22.2424 27.9813 22.2482 28.0556 22.2396 28.1282C22.2311 28.2009 22.2084 28.2703 22.1729 28.3325C22.1374 28.3947 22.0899 28.4483 22.033 28.4903C21.9761 28.5322 21.9111 28.5616 21.8419 28.5768C21.7726 28.5919 21.7004 28.5924 21.6296 28.5784C21.5588 28.5643 21.4908 28.5359 21.4296 28.4948C21.3684 28.4538 21.3153 28.4009 21.2734 28.3393C19.4644 25.8217 16.5142 24.7652 13.7256 25.6325C13.6587 25.6554 13.5874 25.664 13.5159 25.6578C13.4444 25.6517 13.3741 25.6309 13.3093 25.5967C13.2444 25.5625 13.1863 25.5156 13.1383 25.4588C13.0903 25.4019 13.0535 25.3363 13.0299 25.2657C13.0063 25.1952 12.9965 25.1211 13.0011 25.0479C13.0056 24.9747 13.0244 24.9039 13.0564 24.8396C13.0884 24.7753 13.1328 24.7189 13.1871 24.6736C13.2415 24.6283 13.3046 24.5952 13.3728 24.576C14.9767 24.0771 16.6459 24.1388 18.1736 24.6862Z" fill="#00552A"/>
<path d="M20.5384 27.4969C24.5963 27.5072 28.606 28.8454 31.8076 31.4137C31.9191 31.5042 31.9903 31.6352 32.0055 31.778C32.0208 31.9208 31.9789 32.0639 31.8891 32.1759C31.7992 32.288 31.6687 32.3598 31.526 32.3759C31.3833 32.3919 31.2401 32.3509 31.1276 32.2616C26.3284 28.4117 19.547 27.4999 13.7682 29.9365C13.6354 29.9925 13.4858 29.9935 13.3523 29.9392C13.2188 29.8848 13.1123 29.7796 13.0564 29.6468C13.0004 29.514 12.9994 29.3644 13.0537 29.2308C13.108 29.0973 13.2132 28.9908 13.346 28.9348C15.6513 27.9627 18.1037 27.4908 20.5384 27.4969Z" fill="#00552A"/>
<path d="M27.2744 24.7803C25.0504 24.7858 22.815 25.2034 20.6877 26.0506C20.5547 26.1046 20.4485 26.209 20.3922 26.341C20.3359 26.4731 20.3341 26.622 20.3872 26.7554C20.4403 26.8888 20.5439 26.9957 20.6755 27.0529C20.8072 27.1101 20.9561 27.1129 21.0897 27.0607C26.42 24.9382 32.4648 25.6762 37.1252 29.0197C37.183 29.0642 37.2491 29.0967 37.3197 29.1151C37.3903 29.1335 37.4638 29.1375 37.536 29.1269C37.6081 29.1162 37.6774 29.0911 37.7397 29.0531C37.8019 29.0152 37.8559 28.965 37.8984 28.9057C37.9408 28.8464 37.9709 28.7792 37.9868 28.708C38.0028 28.6368 38.0042 28.5631 37.9911 28.4914C37.9779 28.4196 37.9505 28.3512 37.9103 28.2903C37.8702 28.2294 37.8182 28.1772 37.7575 28.1368C34.6572 25.9127 30.981 24.7719 27.2744 24.7803Z" fill="#00552A"/>
<path d="M28.3332 31.0287C24.2884 30.996 20.274 32.3329 17.0174 34.9464C16.9592 34.9902 16.9104 35.0452 16.874 35.1082C16.8375 35.1712 16.814 35.2409 16.805 35.3132C16.7959 35.3854 16.8015 35.4587 16.8214 35.5287C16.8412 35.5988 16.8749 35.6641 16.9205 35.7209C16.9661 35.7777 17.0226 35.8247 17.0867 35.8592C17.1508 35.8937 17.2211 35.9149 17.2936 35.9217C17.366 35.9284 17.4391 35.9205 17.5085 35.8984C17.5778 35.8764 17.6421 35.8406 17.6973 35.7933C22.5898 31.867 29.3047 31.0095 35.0461 33.5786C35.1777 33.6376 35.3272 33.6418 35.4619 33.5905C35.5966 33.5392 35.7054 33.4364 35.7643 33.3048C35.8233 33.1733 35.8275 33.0236 35.7762 32.8889C35.7249 32.7542 35.6222 32.6454 35.4906 32.5864C33.1987 31.5608 30.7601 31.0483 28.3332 31.0287Z" fill="#00552A"/>
<path d="M21.6584 21.7242C19.6006 21.7432 17.8866 23.296 17.8946 25.2494C17.894 25.3214 17.9077 25.3928 17.9349 25.4594C17.9621 25.526 18.0022 25.5866 18.053 25.6375C18.1038 25.6885 18.1642 25.7288 18.2307 25.7563C18.2972 25.7837 18.3685 25.7976 18.4405 25.7973C18.5124 25.7969 18.5835 25.7822 18.6498 25.7542C18.716 25.7261 18.776 25.6851 18.8263 25.6336C18.8766 25.5821 18.9161 25.5212 18.9426 25.4543C18.9692 25.3875 18.9822 25.3159 18.9808 25.244C18.9755 23.9324 20.1426 22.8228 21.6679 22.8086C23.1932 22.7945 24.3872 23.8838 24.4112 25.1952C24.4125 25.2666 24.4278 25.3371 24.4563 25.4025C24.4847 25.468 24.5259 25.5272 24.5772 25.5768C24.6286 25.6264 24.6892 25.6653 24.7557 25.6915C24.8221 25.7176 24.8931 25.7303 24.9644 25.729C25.0358 25.7277 25.1062 25.7123 25.1717 25.6838C25.2371 25.6552 25.2962 25.614 25.3458 25.5626C25.3953 25.5111 25.4341 25.4504 25.4602 25.384C25.4862 25.3175 25.4989 25.2464 25.4975 25.175C25.4617 23.2218 23.7161 21.7039 21.6584 21.7231V21.7242Z" fill="#00552A"/>
<path fill-rule="evenodd" clip-rule="evenodd" d="M21.688 17.9197C21.6167 17.9209 21.5463 17.936 21.4808 17.9643C21.4154 17.9927 21.3561 18.0336 21.3065 18.0849C21.2568 18.1361 21.2177 18.1967 21.1915 18.263C21.1652 18.3294 21.1523 18.4002 21.1534 18.4716V19.814C21.1524 19.886 21.1657 19.9575 21.1925 20.0243C21.2193 20.0911 21.2592 20.1519 21.3097 20.2032C21.3603 20.2544 21.4205 20.2951 21.4869 20.3229C21.5533 20.3507 21.6246 20.3651 21.6965 20.3651C21.7685 20.3651 21.8398 20.3507 21.9062 20.3229C21.9726 20.2951 22.0328 20.2544 22.0833 20.2032C22.1339 20.1519 22.1737 20.0911 22.2006 20.0243C22.2274 19.9575 22.2407 19.886 22.2397 19.814V18.4716C22.2408 18.3988 22.2273 18.3265 22.2 18.2591C22.1727 18.1916 22.1321 18.1303 22.0807 18.0788C22.0292 18.0274 21.9679 17.9867 21.9005 17.9594C21.8331 17.9321 21.7608 17.9186 21.688 17.9197Z" fill="#00552A"/>
<path fill-rule="evenodd" clip-rule="evenodd" d="M25.4818 19.279C25.3409 19.283 25.207 19.3416 25.1084 19.4425L24.0338 20.5185C23.9817 20.5686 23.9402 20.6285 23.9116 20.6948C23.883 20.7612 23.8679 20.8325 23.8672 20.9048C23.8665 20.977 23.8802 21.0487 23.9075 21.1156C23.9348 21.1824 23.9752 21.2432 24.0263 21.2943C24.0773 21.3453 24.1381 21.3857 24.2049 21.413C24.2718 21.4404 24.3434 21.4541 24.4156 21.4534C24.4878 21.4527 24.5592 21.4376 24.6255 21.409C24.6918 21.3804 24.7518 21.3388 24.8018 21.2868L25.8764 20.2118C25.9549 20.1355 26.0085 20.0373 26.0302 19.9299C26.052 19.8226 26.0407 19.7112 25.9981 19.6104C25.9554 19.5096 25.8833 19.424 25.7912 19.3649C25.6991 19.3057 25.5912 19.2758 25.4818 19.279Z" fill="#00552A"/>
<path fill-rule="evenodd" clip-rule="evenodd" d="M17.8937 19.2781C17.7855 19.2781 17.6798 19.3104 17.5901 19.3709C17.5004 19.4314 17.4308 19.5174 17.3902 19.6177C17.3497 19.718 17.34 19.8282 17.3624 19.934C17.3848 20.0399 17.4383 20.1367 17.5161 20.212L18.5907 21.2869C18.6407 21.339 18.7007 21.3805 18.767 21.4091C18.8333 21.4377 18.9047 21.4528 18.9769 21.4535C19.0491 21.4542 19.1207 21.4405 19.1876 21.4132C19.2544 21.3858 19.3152 21.3455 19.3662 21.2944C19.4173 21.2433 19.4577 21.1826 19.485 21.1157C19.5123 21.0488 19.526 20.9771 19.5253 20.9049C19.5246 20.8327 19.5095 20.7613 19.4809 20.695C19.4523 20.6286 19.4108 20.5687 19.3587 20.5186L18.2841 19.4426C18.2334 19.3904 18.1727 19.349 18.1056 19.3207C18.0385 19.2924 17.9665 19.2779 17.8937 19.2781Z" fill="#00552A"/>
<path fill-rule="evenodd" clip-rule="evenodd" d="M27.6667 21.9947C27.5809 21.9955 27.4966 22.0166 27.4206 22.0562L26.3481 22.5921C26.2837 22.6236 26.2262 22.6676 26.1789 22.7215C26.1316 22.7754 26.0954 22.8382 26.0725 22.9062C26.0496 22.9741 26.0403 23.0459 26.0452 23.1175C26.0502 23.189 26.0692 23.2589 26.1013 23.323C26.1334 23.3872 26.1778 23.4444 26.2321 23.4913C26.2863 23.5381 26.3493 23.5738 26.4174 23.5962C26.4855 23.6186 26.5574 23.6273 26.6289 23.6218C26.7004 23.6163 26.7701 23.5967 26.8339 23.5641L27.9064 23.0282C28.018 22.9749 28.108 22.885 28.1617 22.7736C28.2153 22.6621 28.2293 22.5357 28.2013 22.4152C28.1734 22.2947 28.1051 22.1873 28.0079 22.1109C27.9107 22.0344 27.7903 21.9934 27.6667 21.9947Z" fill="#00552A"/>
<path fill-rule="evenodd" clip-rule="evenodd" d="M15.7105 21.9935C15.5885 21.9961 15.4709 22.0397 15.3767 22.1172C15.2825 22.1948 15.2171 22.3018 15.1912 22.4211C15.1652 22.5404 15.1801 22.6649 15.2335 22.7746C15.2869 22.8843 15.3757 22.9729 15.4856 23.026L16.5644 23.5672C16.6284 23.6018 16.6987 23.6231 16.7711 23.63C16.8435 23.6369 16.9165 23.6292 16.9858 23.6073C17.0552 23.5855 17.1194 23.55 17.1748 23.5028C17.2302 23.4556 17.2755 23.3978 17.3081 23.3327C17.3407 23.2677 17.3599 23.1969 17.3646 23.1243C17.3693 23.0517 17.3594 22.9789 17.3355 22.9102C17.3115 22.8415 17.274 22.7784 17.2252 22.7244C17.1764 22.6705 17.1173 22.6269 17.0514 22.5963L15.9725 22.0551C15.8917 22.0129 15.8016 21.9917 15.7105 21.9935Z" fill="#00552A"/>
<path fill-rule="evenodd" clip-rule="evenodd" d="M34.7092 16.6304C34.5888 16.6352 34.4735 16.68 34.3813 16.7576C34.2891 16.8352 34.2253 16.9412 34.2 17.0591L32.5706 24.6655C32.5537 24.7448 32.5547 24.8268 32.5735 24.9056C32.5924 24.9844 32.6286 25.0579 32.6796 25.1209C32.7305 25.1839 32.7949 25.2347 32.868 25.2695C32.9411 25.3044 33.0211 25.3225 33.1021 25.3225H36.3609C36.4419 25.3225 36.5219 25.3044 36.595 25.2695C36.6681 25.2347 36.7325 25.1839 36.7834 25.1209C36.8344 25.0579 36.8706 24.9844 36.8895 24.9056C36.9083 24.8268 36.9093 24.7448 36.8924 24.6655L35.263 17.0591C35.236 16.9338 35.1657 16.822 35.0644 16.7435C34.963 16.6651 34.8372 16.625 34.7092 16.6304ZM34.7315 19.7683L35.6884 24.2358H33.7746L34.7315 19.7683H34.7315Z" fill="#00552A"/>
<path fill-rule="evenodd" clip-rule="evenodd" d="M34.7232 24.2359C34.6519 24.237 34.5815 24.2522 34.516 24.2806C34.4505 24.3089 34.3913 24.3499 34.3416 24.4011C34.292 24.4523 34.2529 24.5129 34.2266 24.5792C34.2004 24.6456 34.1874 24.7165 34.1885 24.7878V28.0318C34.1875 28.1038 34.2008 28.1753 34.2277 28.2421C34.2545 28.3089 34.2943 28.3697 34.3449 28.421C34.3954 28.4722 34.4556 28.5129 34.522 28.5407C34.5884 28.5685 34.6597 28.5828 34.7317 28.5828C34.8037 28.5828 34.8749 28.5685 34.9413 28.5407C35.0077 28.5129 35.068 28.4722 35.1185 28.421C35.169 28.3697 35.2089 28.3089 35.2357 28.2421C35.2626 28.1753 35.2758 28.1038 35.2748 28.0318V24.7878C35.276 24.715 35.2625 24.6427 35.2352 24.5753C35.2079 24.5078 35.1673 24.4465 35.1158 24.3951C35.0644 24.3436 35.0031 24.303 34.9356 24.2756C34.8682 24.2483 34.796 24.2348 34.7232 24.2359Z" fill="#00552A"/>
<path fill-rule="evenodd" clip-rule="evenodd" d="M31.4504 15.0005C31.33 15.0053 31.2147 15.05 31.1225 15.1277C31.0303 15.2053 30.9666 15.3113 30.9412 15.4292L29.3118 23.0356C29.2949 23.1148 29.2959 23.1969 29.3147 23.2756C29.3336 23.3544 29.3698 23.428 29.4208 23.491C29.4717 23.554 29.5361 23.6047 29.6092 23.6396C29.6823 23.6745 29.7623 23.6926 29.8433 23.6925H33.1021C33.1831 23.6926 33.2631 23.6745 33.3362 23.6396C33.4093 23.6047 33.4737 23.554 33.5246 23.491C33.5756 23.428 33.6118 23.3544 33.6307 23.2756C33.6495 23.1969 33.6505 23.1148 33.6336 23.0356L32.0042 15.4292C31.9772 15.3038 31.9069 15.1921 31.8056 15.1137C31.7042 15.0352 31.5784 14.9951 31.4504 15.0005ZM31.4727 18.1384L32.4296 22.6059H30.5158L31.4727 18.1384H31.4727Z" fill="#00552A"/>
<path fill-rule="evenodd" clip-rule="evenodd" d="M31.4644 22.606C31.3931 22.6071 31.3227 22.6223 31.2572 22.6506C31.1917 22.6789 31.1325 22.7199 31.0828 22.7712C31.0332 22.8224 30.9941 22.8829 30.9678 22.9493C30.9416 23.0156 30.9286 23.0865 30.9298 23.1579V26.4018C30.9287 26.4738 30.942 26.5453 30.9689 26.6122C30.9957 26.679 31.0356 26.7398 31.0861 26.7911C31.1366 26.8424 31.1968 26.883 31.2633 26.9108C31.3297 26.9386 31.4009 26.953 31.4729 26.953C31.5449 26.953 31.6161 26.9386 31.6825 26.9108C31.749 26.883 31.8092 26.8424 31.8597 26.7911C31.9102 26.7398 31.9501 26.679 31.9769 26.6122C32.0038 26.5453 32.0171 26.4738 32.016 26.4018V23.1579C32.0172 23.0851 32.0037 23.0128 31.9764 22.9454C31.9491 22.8779 31.9085 22.8166 31.857 22.7651C31.8056 22.7136 31.7443 22.673 31.6769 22.6457C31.6094 22.6184 31.5372 22.6049 31.4644 22.606Z" fill="#00552A"/>
<rect x="0.75" y="0.25" width="49.5" height="49.5" rx="4.75" stroke="#00552A" stroke-width="0.5"/>
</svg>
