<svg width="51" height="50" viewBox="0 0 51 50" fill="none" xmlns="http://www.w3.org/2000/svg">
<path d="M36.8612 16.1333H36.209V15.012C36.209 14.8952 36.1612 14.783 36.0784 14.7011C35.9938 14.6183 35.8825 14.5769 35.7638 14.5769C29.6256 14.7158 26.4392 16.746 25.5 17.4625C24.5608 16.746 21.3744 14.7158 15.2362 14.5769C15.1157 14.576 15.0062 14.6192 14.9216 14.7011C14.8388 14.783 14.791 14.8952 14.791 15.012V16.1333H14.1388C13.5105 16.1333 13 16.6457 13 17.274V32.6126C13 33.2418 13.5114 33.7533 14.1388 33.7533H21.6485C21.9898 34.3309 23.0201 35.5912 25.5 35.5912C27.9799 35.5912 29.0102 34.3309 29.3524 33.7533H36.8612C37.4895 33.7533 38 33.2409 38 32.6126V17.274C38 16.6457 37.4886 16.1333 36.8612 16.1333ZM35.3398 30.657C33.9885 30.5945 30.0211 30.6211 25.9342 32.5216V18.2278C26.5707 17.721 29.4812 15.6872 35.3398 15.46V30.657ZM15.6612 15.4609C21.4922 15.6881 24.4238 17.7256 25.0649 18.2297V32.5299C21.5759 30.9063 18.1825 30.6386 16.4136 30.6386C16.111 30.6386 15.858 30.6469 15.6612 30.657V15.4609ZM37.1317 32.6126C37.1317 32.7617 37.0093 32.884 36.8612 32.884H29.0875C28.9099 32.884 28.7499 32.9953 28.6827 33.16C28.6579 33.2234 28.0232 34.7219 25.5009 34.7219C22.9787 34.7219 22.3449 33.2234 22.32 33.1636C22.2556 32.9953 22.0947 32.884 21.9144 32.884H14.1388C13.9907 32.884 13.8693 32.7617 13.8693 32.6126V17.274C13.8693 17.1249 13.9907 17.0026 14.1388 17.0026H14.791V31.1206C14.791 31.2448 14.8443 31.3616 14.9345 31.4444C15.0274 31.5272 15.1497 31.5649 15.2711 31.5539C15.2757 31.5539 15.7007 31.5088 16.4127 31.5088C18.2101 31.5088 21.7571 31.7802 25.3004 33.5997C25.3629 33.6309 25.431 33.6466 25.4991 33.6466C25.5671 33.6466 25.6343 33.6309 25.6978 33.5997C29.2429 31.7793 32.7881 31.5088 34.5855 31.5088C35.2974 31.5088 35.7233 31.5539 35.727 31.5539C35.8494 31.5649 35.9726 31.5263 36.0646 31.4444C36.1557 31.3616 36.2072 31.2448 36.2072 31.1206V17.0026H36.8594C37.0075 17.0026 37.1298 17.1249 37.1298 17.274V32.6126H37.1317Z" fill="#00552A"/>
<path d="M17.2983 18.9057C17.336 18.9075 21.0485 19.1715 23.2663 21.1492C23.3491 21.2228 23.4531 21.2605 23.5552 21.2605C23.6747 21.2605 23.7943 21.2099 23.8799 21.1152C24.0399 20.9358 24.0243 20.6608 23.8449 20.5007C21.4064 18.3252 17.519 18.0484 17.3553 18.0373C17.1308 18.0217 16.9101 18.2029 16.8935 18.443C16.8779 18.6831 17.0582 18.8891 17.2983 18.9057Z" fill="#00552A"/>
<path d="M17.2981 23.1602C17.3358 23.1629 21.0484 23.426 23.2662 25.4046C23.3489 25.4782 23.4529 25.515 23.555 25.515C23.6746 25.515 23.7942 25.4653 23.8797 25.3697C24.0398 25.1903 24.0241 24.9153 23.8448 24.7561C21.4062 22.5807 17.5189 22.3029 17.3542 22.2918C17.1298 22.2753 16.909 22.4574 16.8924 22.6975C16.8777 22.9376 17.058 23.1436 17.2981 23.1602Z" fill="#00552A"/>
<path d="M17.2981 27.4144C17.3358 27.4181 21.0484 27.6803 23.2662 29.6589C23.3489 29.7334 23.4529 29.7693 23.555 29.7693C23.6746 29.7693 23.7942 29.7196 23.8797 29.6239C24.0398 29.4455 24.0241 29.1704 23.8448 29.0104C21.4062 26.8349 17.5189 26.558 17.3542 26.5461C17.1298 26.5286 16.909 26.7126 16.8924 26.9517C16.8777 27.1927 17.058 27.3979 17.2981 27.4144Z" fill="#00552A"/>
<path d="M27.4436 21.2606C27.5457 21.2606 27.6506 21.2229 27.7325 21.1493C29.9447 19.1762 33.6637 18.9067 33.7015 18.9058C33.9406 18.8892 34.1209 18.6832 34.1053 18.4431C34.0887 18.203 33.868 18.0245 33.6435 18.0383C33.4789 18.0494 29.5924 18.3263 27.153 20.5017C26.9745 20.6618 26.958 20.9368 27.118 21.1162C27.2054 21.2109 27.3241 21.2606 27.4436 21.2606Z" fill="#00552A"/>
<path d="M27.4436 25.5151C27.5457 25.5151 27.6506 25.4783 27.7325 25.4047C29.9447 23.4307 33.6637 23.1621 33.7015 23.1603C33.9406 23.1437 34.1209 22.9377 34.1053 22.6976C34.0887 22.4575 33.868 22.2781 33.6435 22.2928C33.4789 22.3039 29.5924 22.5808 27.153 24.7571C26.9745 24.9163 26.958 25.1913 27.118 25.3707C27.2054 25.4664 27.3241 25.5151 27.4436 25.5151Z" fill="#00552A"/>
<path d="M33.6445 26.5461C33.4798 26.5581 29.5934 26.834 27.1539 29.0104C26.9755 29.1705 26.9589 29.4455 27.119 29.624C27.2055 29.7196 27.3241 29.7693 27.4437 29.7693C27.5458 29.7693 27.6507 29.7334 27.7325 29.6589C29.9448 27.6849 33.6638 27.4172 33.7015 27.4145C33.9407 27.3979 34.121 27.1918 34.1053 26.9527C34.0906 26.7126 33.8699 26.5305 33.6445 26.5461Z" fill="#00552A"/>
<rect x="0.75" y="0.25" width="49.5" height="49.5" rx="4.75" stroke="#00552A" stroke-width="0.5"/>
</svg>
