<svg width="51" height="50" viewBox="0 0 51 50" fill="none" xmlns="http://www.w3.org/2000/svg">
<path d="M37.6094 32.4062H33.3125V28.1094H36.0469C36.2629 28.1094 36.4375 27.9344 36.4375 27.7188V23.0312C36.4375 22.8156 36.2629 22.6406 36.0469 22.6406H33.3125V16.3906C33.3125 16.175 33.1379 16 32.9219 16H18.0781C17.8621 16 17.6875 16.175 17.6875 16.3906V32.4062H13.3906C13.1746 32.4062 13 32.5812 13 32.7969V34.3594C13 34.575 13.1746 34.75 13.3906 34.75H37.6094C37.8254 34.75 38 34.575 38 34.3594V32.7969C38 32.5812 37.8254 32.4062 37.6094 32.4062ZM35.6562 23.4219V27.3281H33.3125V23.4219H35.6562ZM18.4688 16.7812H32.5312V32.4062H31.75V17.9531C31.75 17.7375 31.5754 17.5625 31.3594 17.5625H19.6406C19.4246 17.5625 19.25 17.7375 19.25 17.9531V32.4062H18.4688V16.7812ZM30.9688 18.3438V33.9688H25.8906V18.3438H30.9688ZM13.7812 33.1875H19.25V33.9688H13.7812V33.1875ZM20.0312 18.3438H25.1094V33.9688H20.0312V18.3438ZM37.2188 33.9688H31.75V33.1875H37.2188V33.9688Z" fill="#00552A"/>
<path d="M27.1771 26.4325C27.3298 26.5853 27.5767 26.5853 27.7294 26.4325L28.2345 25.9274L28.7396 26.4325C28.8157 26.5087 28.9157 26.547 29.0157 26.547C29.1157 26.547 29.2157 26.5087 29.2919 26.4325C29.4446 26.2798 29.4446 26.0329 29.2919 25.8802L28.5106 25.0989C28.3579 24.9462 28.111 24.9462 27.9583 25.0989L27.1771 25.8802C27.0243 26.0329 27.0243 26.2798 27.1771 26.4325Z" fill="#00552A"/>
<path d="M23.8231 25.4896C23.6704 25.3368 23.4235 25.3368 23.2708 25.4896L22.7657 25.9946L22.2606 25.4896C22.1079 25.3368 21.861 25.3368 21.7083 25.4896C21.5556 25.6423 21.5556 25.8892 21.7083 26.0419L22.4896 26.8231C22.5657 26.8993 22.6657 26.9376 22.7657 26.9376C22.8657 26.9376 22.9657 26.8993 23.0419 26.8231L23.8231 26.0419C23.9759 25.8892 23.9759 25.6423 23.8231 25.4896Z" fill="#00552A"/>
<path d="M34.0938 24.9844H34.875C35.091 24.9844 35.2656 24.8094 35.2656 24.5938C35.2656 24.3781 35.091 24.2031 34.875 24.2031H34.0938C33.8777 24.2031 33.7031 24.3781 33.7031 24.5938C33.7031 24.8094 33.8777 24.9844 34.0938 24.9844Z" fill="#00552A"/>
<path d="M34.875 25.7656H34.0938C33.8777 25.7656 33.7031 25.9406 33.7031 26.1562C33.7031 26.3719 33.8777 26.5469 34.0938 26.5469H34.875C35.091 26.5469 35.2656 26.3719 35.2656 26.1562C35.2656 25.9406 35.091 25.7656 34.875 25.7656Z" fill="#00552A"/>
<rect x="0.75" y="0.25" width="49.5" height="49.5" rx="4.75" stroke="#00552A" stroke-width="0.5"/>
</svg>
