<svg width="51" height="50" viewBox="0 0 51 50" fill="none" xmlns="http://www.w3.org/2000/svg">
<path d="M27.4501 33.4534C27.2984 33.4534 27.1465 33.5111 27.0301 33.627C26.7993 33.86 26.8004 34.2367 27.0304 34.4686C27.147 34.5845 27.299 34.6422 27.4512 34.6422C27.6034 34.6422 27.7554 34.5845 27.872 34.4681C28.1031 34.2367 28.1037 33.8603 27.8709 33.6289C27.7548 33.5117 27.6026 33.4534 27.4501 33.4534Z" fill="#00552A"/>
<path d="M28.719 35.3144C28.3815 35.6533 27.9318 35.8402 27.4529 35.8402C26.974 35.8402 26.5237 35.6539 26.1846 35.3153C25.846 34.9766 25.6596 34.5264 25.6601 34.0475C25.6604 33.5689 25.8468 33.1194 26.1849 32.7817L31.3904 27.5765C30.4084 26.8856 29.2434 26.4373 27.9818 26.322C27.9537 27.6095 26.0457 28.6481 23.6963 28.6481C21.3463 28.6481 19.4388 27.6095 19.4108 26.322C15.8161 26.6509 13 29.6725 13 33.3525C13 37.2525 16.1614 37.2425 20.0605 37.2425H27.3321C31.2312 37.2425 34.3925 37.2525 34.3925 33.3525C34.3925 32.2681 34.1464 31.2417 33.7095 30.3236L28.719 35.3144Z" fill="#00552A"/>
<path d="M23.6961 26.0998C21.3111 26.0998 19.34 23.5146 19.0233 20.1582H18.375C18.735 23.9807 20.9794 26.9256 23.6961 26.9256C26.4119 26.9256 28.6568 23.9807 29.0171 20.1582H28.3682C28.0516 23.5148 26.0813 26.0998 23.6961 26.0998Z" fill="#00552A"/>
<path d="M18.1219 19.363H29.2704C29.7048 19.363 30.0565 19.011 30.0565 18.5769C30.0565 18.1427 29.7048 17.7905 29.2704 17.7905H29.0562C29.0562 15.7013 27.8598 13.893 26.1163 13.0086L25.6718 15.5266C25.6368 15.7261 25.4635 15.8663 25.2677 15.8663C25.244 15.8663 25.2199 15.8644 25.1957 15.8602C24.9724 15.8208 24.8232 15.6077 24.8627 15.3841L25.3699 12.5069C25.1793 12.2025 24.8418 12 24.456 12H22.9346C22.5496 12 22.2121 12.2025 22.0213 12.5069L22.5285 15.3841C22.568 15.6077 22.4191 15.8208 22.1955 15.8602C22.1713 15.8644 22.1471 15.8663 22.1238 15.8663C21.9277 15.8663 21.7538 15.7263 21.7194 15.5266L21.2752 13.0089C19.531 13.893 18.3352 15.7016 18.3352 17.7905H18.1211C17.6866 17.7905 17.335 18.1424 17.335 18.5769C17.3358 19.011 17.6875 19.363 18.1219 19.363Z" fill="#00552A"/>
<path d="M37.443 26.0287L36.0594 27.4118H34.9127L34.0863 26.5873L34.0858 25.4379L35.4688 24.0549L34.9124 23.499C34.193 23.5271 33.4822 23.816 32.9333 24.3657C32.083 25.2146 31.8578 26.4504 32.2533 27.5056L26.5812 33.1784C26.1014 33.6578 26.0998 34.4375 26.5809 34.9189C26.8217 35.1589 27.1373 35.2794 27.4528 35.2794C27.7672 35.2794 28.082 35.1592 28.3214 34.9189L33.9938 29.2456C34.3291 29.3709 34.6824 29.4337 35.0361 29.4337C35.7947 29.4337 36.5535 29.1448 37.133 28.5665C37.683 28.0154 37.9721 27.3059 37.9996 26.5859L37.443 26.0287ZM27.8717 34.4681C27.755 34.5845 27.6031 34.6422 27.4509 34.6422C27.2986 34.6422 27.1467 34.5845 27.03 34.4686C26.8 34.2367 26.7989 33.86 27.0298 33.627C27.1461 33.5111 27.2981 33.4534 27.4498 33.4534C27.6023 33.4534 27.7545 33.5117 27.8706 33.6289C28.1034 33.8603 28.1028 34.2367 27.8717 34.4681Z" fill="#00552A"/>
<rect x="0.75" y="0.25" width="49.5" height="49.5" rx="4.75" stroke="#00552A" stroke-width="0.5"/>
</svg>
