<svg width="47" height="47" viewBox="0 0 47 47" fill="none" xmlns="http://www.w3.org/2000/svg">
<path d="M34.8636 12.1364V13.9432L32.9205 15.875L32.5909 16.2159V17.8182H30.3182V20.0909H28.7159L28.375 20.4205L25.2159 23.5909L24.6364 24.1818L25.0227 24.9205C25.7704 26.3645 25.9774 28.0282 25.6063 29.6114C25.2352 31.1946 24.3104 32.5931 22.9989 33.5545C21.6874 34.5158 20.0755 34.9768 18.454 34.8542C16.8325 34.7316 15.3082 34.0335 14.1562 32.8859C13.0041 31.7383 12.3001 30.2167 12.1713 28.5957C12.0424 26.9747 12.4972 25.361 13.4534 24.0458C14.4097 22.7306 15.8046 21.8005 17.3864 21.4232C18.9681 21.046 20.6326 21.2465 22.0795 21.9886L22.8182 22.375L23.4091 21.7841L33.0568 12.1364H34.8636ZM36 11H32.5909L22.6023 20.9886C21.06 20.1928 19.2998 19.9232 17.59 20.2209C15.8802 20.5186 14.3147 21.3673 13.1322 22.6377C11.9497 23.908 11.2151 25.5302 11.0404 27.2569C10.8657 28.9836 11.2605 30.72 12.1647 32.2014C13.0688 33.6828 14.4326 34.8279 16.0481 35.462C17.6636 36.0962 19.4422 36.1846 21.1126 35.7137C22.783 35.2429 24.2536 34.2387 25.3002 32.8542C26.3467 31.4697 26.9117 29.781 26.9091 28.0455C26.9085 26.7749 26.6005 25.5234 26.0114 24.3977L29.1818 21.2273H31.4545V18.9545H33.7273V16.6818L36 14.4091V11Z" fill="#00552A"/>
<rect x="0.25" y="0.25" width="46.5" height="46.5" rx="4.75" stroke="#00552A" stroke-width="0.5"/>
</svg>
