<svg width="51" height="50" viewBox="0 0 51 50" fill="none" xmlns="http://www.w3.org/2000/svg">
<path d="M35.8841 22.1416H17.6777C16.5122 22.1416 15.5618 23.092 15.5618 24.2575V30.8321C14.2046 30.617 13.5867 30.0421 13.5867 28.99V17.8198C13.5867 16.3101 14.8148 15.082 16.3245 15.082H27.5299C27.6629 16.3531 28.6485 17.3465 29.8414 17.3465H31.8791C31.9064 17.4795 32.0199 17.5773 32.1607 17.5773H33.4592C33.6195 17.5773 33.7525 17.4443 33.7525 17.2839V16.3922H35.7042C35.8645 16.3922 35.9975 16.2592 35.9975 16.0989C35.9975 15.9385 35.8645 15.8055 35.7042 15.8055H33.7525V13.5527H35.7042C35.8645 13.5527 35.9975 13.4197 35.9975 13.2594C35.9975 13.099 35.8645 12.9661 35.7042 12.9661H33.7525V12.2933C33.7525 12.133 33.6195 12 33.4592 12H32.1607C32.0199 12 31.9064 12.1017 31.8791 12.2347H29.8414C29.2117 12.2347 28.625 12.5045 28.183 12.9934C27.8154 13.408 27.5885 13.9321 27.5299 14.4953H16.3245C14.4941 14.4953 13 15.9855 13 17.8198V28.99C13 30.9299 14.7053 31.3171 15.5618 31.4305V34.0314C15.5618 35.197 16.5083 36.1474 17.6777 36.1474H19.5042L19.7506 37.3872C19.778 37.5241 19.8992 37.6219 20.0401 37.6219H21.581C21.7218 37.6219 21.8431 37.5202 21.8705 37.3833L22.0973 36.1474H31.4645L31.7148 37.3872C31.7422 37.5241 31.8634 37.6219 32.0042 37.6219H33.5452C33.686 37.6219 33.8073 37.5202 33.8346 37.3833L34.0615 36.1474H35.8841C36.9753 36.1474 37.8748 35.3182 37.9883 34.2583C37.9922 34.2387 38 34.2192 38 34.1957C38 34.184 37.9961 34.1722 37.9922 34.1644C37.9961 34.1214 38 34.0784 38 34.0354V24.2536C38 23.0881 37.0496 22.1416 35.8841 22.1416ZM32.454 12.5867H33.1658V16.9906H32.454V12.5867ZM28.6211 13.3845C28.9496 13.0208 29.3838 12.8213 29.8414 12.8213H31.8673V16.7599H29.8414C28.8792 16.7599 28.1009 15.8759 28.1009 14.7886C28.1009 14.2606 28.2847 13.76 28.6211 13.3845ZM21.3346 37.0313H20.2786L20.1026 36.1435H21.4989L21.3346 37.0313ZM33.2988 37.0313H32.2428L32.0629 36.1435H33.4631L33.2988 37.0313ZM35.8841 35.5568H33.8151H31.7031H17.6777C16.8368 35.5568 16.1485 34.8723 16.1485 34.0275V31.1998V31.1959V24.2536C16.1485 23.4127 16.8329 22.7243 17.6777 22.7243H35.8841C36.725 22.7243 37.4133 23.4088 37.4133 24.2536V24.4648H35.7276C35.5673 24.4648 35.4343 24.5978 35.4343 24.7581C35.4343 24.9185 35.5673 25.0515 35.7276 25.0515H37.4133V26.8193H35.7276C35.5673 26.8193 35.4343 26.9523 35.4343 27.1126C35.4343 27.273 35.5673 27.406 35.7276 27.406H37.4133V29.1816H35.7276C35.5673 29.1816 35.4343 29.3146 35.4343 29.475C35.4343 29.6353 35.5673 29.7683 35.7276 29.7683H37.4133V31.5361H35.7276C35.5673 31.5361 35.4343 31.6691 35.4343 31.8295C35.4343 31.9898 35.5673 32.1228 35.7276 32.1228H37.4133V33.8985H35.7276C35.5673 33.8985 35.4343 34.0314 35.4343 34.1918C35.4343 34.3522 35.5673 34.4851 35.7276 34.4851H37.3351C37.1396 35.1031 36.5685 35.5568 35.8841 35.5568Z" fill="black"/>
<path d="M17.4974 26.8193C17.3371 26.8193 17.2041 26.9523 17.2041 27.1127V32.8464C17.2041 33.0068 17.3371 33.1397 17.4974 33.1397C17.6578 33.1397 17.7908 33.0068 17.7908 32.8464V27.1127C17.7908 26.9523 17.6617 26.8193 17.4974 26.8193Z" fill="black"/>
<path d="M19.1215 26.8193C18.9611 26.8193 18.8281 26.9523 18.8281 27.1127V32.8464C18.8281 33.0068 18.9611 33.1397 19.1215 33.1397C19.2818 33.1397 19.4148 33.0068 19.4148 32.8464V27.1127C19.4148 26.9523 19.2857 26.8193 19.1215 26.8193Z" fill="black"/>
<path d="M20.7435 26.8193C20.5832 26.8193 20.4502 26.9523 20.4502 27.1127V32.8464C20.4502 33.0068 20.5832 33.1397 20.7435 33.1397C20.9039 33.1397 21.0369 33.0068 21.0369 32.8464V27.1127C21.0369 26.9523 20.9078 26.8193 20.7435 26.8193Z" fill="black"/>
<path d="M29.2352 28.7319H27.5769L28.191 24.0033C28.2066 23.8664 28.1284 23.7374 28.0032 23.6904C27.8742 23.6435 27.7294 23.6904 27.6551 23.8038L24.0764 29.2521C24.0178 29.342 24.0139 29.4593 24.0647 29.5532C24.1156 29.6471 24.2133 29.7057 24.3228 29.7057H25.7348L24.757 33.8907C24.7257 34.0236 24.7883 34.1566 24.9095 34.2192C24.9525 34.2388 24.9956 34.2505 25.0425 34.2505C25.1246 34.2505 25.2068 34.2153 25.2654 34.1488L29.4543 29.2169C29.5286 29.1308 29.5442 29.0057 29.4973 28.904C29.4503 28.8023 29.3526 28.7319 29.2352 28.7319ZM25.6096 32.8425L26.3957 29.4789C26.4153 29.3929 26.3957 29.299 26.341 29.2286C26.2862 29.1582 26.2002 29.1191 26.1102 29.1191H24.8743L27.4518 25.1923L26.9589 28.9861C26.9472 29.0682 26.9746 29.1543 27.0293 29.2169C27.0841 29.2794 27.1662 29.3146 27.2484 29.3146H28.6055L25.6096 32.8425Z" fill="black"/>
<rect x="0.75" y="0.25" width="49.5" height="49.5" rx="4.75" stroke="#00552A" stroke-width="0.5"/>
</svg>
