<svg width="47" height="47" viewBox="0 0 47 47" fill="none" xmlns="http://www.w3.org/2000/svg">
<path d="M13.9318 27.3158L14.3249 26.9788L14.3738 27.0277L13.0701 28.2285L11.7267 27.0229L11.7567 26.993L12.2014 27.4081L13.0426 28.1932V27.0426V12.4149V11.3199L12.2151 12.037L11.7823 12.4121L11.7612 12.3894L13.0788 11.1757L14.4222 12.3813L14.3799 12.4236L13.9338 12.037L13.1064 11.3199V12.4149V26.9362V28.0233L13.9318 27.3158Z" stroke="#00552A"/>
<path d="M33.2582 34.7599L33.2228 34.7292L33.5878 34.3642L34.4413 33.5106H33.2342H18.2342H17.0383L17.0125 33.4834L18.2634 32.1976L18.3136 32.2411L17.9742 32.6066L17.194 33.4468H18.3406H33.2342H34.3848L33.5998 32.6057L33.209 32.187L33.2534 32.1486L34.5092 33.4741L33.2582 34.7599ZM18.2682 34.8089L17.2399 33.7234L17.8807 34.3642L18.2988 34.7824L18.2682 34.8089Z" stroke="#00552A"/>
<path d="M29.8989 14.3122L29.8375 13.883H29.4039H25.0635V11.6915H34.4146L34.8803 18.7234H30.529L29.8989 14.3122Z" stroke="#00552A"/>
<path d="M22.9998 24.2766V24.7766H23.4998H29.8588L30.1777 27.7659H18.7123L19.236 19.2447H24.0317H24.5317V18.7447V17.6808V17.1808H24.0317H19.3528L19.7128 11.6915H22.9998V15.3936V15.8936H23.4998H28.0177L28.6971 20.31L28.7623 20.734H29.1913H34.9999L35.4656 27.7659H32.2478L31.763 23.1604L31.7159 22.7127H31.2658H25.0636V21.1383V20.6383H24.5636H23.4998H22.9998V21.1383V24.2766Z" stroke="#00552A"/>
<rect x="0.25" y="0.25" width="46.5" height="46.5" rx="4.75" stroke="#00552A" stroke-width="0.5"/>
</svg>
