<svg width="47" height="47" viewBox="0 0 47 47" fill="none" xmlns="http://www.w3.org/2000/svg">
<path d="M23.6943 8.67723C23.6782 8.74705 23.6621 15.4817 23.6621 23.6504V38.5L26.6857 38.4893L29.704 38.4785L29.7201 23.6396L29.7309 8.80075L29.6664 8.67723L29.6073 8.55908H26.6643H23.7266L23.6943 8.67723ZM29.1347 10.6267L29.1132 11.2444H29.2099H29.3066L29.226 11.3249L29.1455 11.4055H26.7019H24.2582L24.2314 11.3088C24.2206 11.2605 24.2099 10.9436 24.2153 10.6106L24.2206 10.0091H26.6857H29.1508L29.1347 10.6267ZM24.2905 12.1412C24.269 12.1574 24.2368 12.1574 24.2153 12.1412C24.1992 12.1198 24.2153 12.1037 24.2529 12.1037C24.2905 12.1037 24.3066 12.1198 24.2905 12.1412ZM29.1831 12.485L29.1347 12.5172V13.1939V13.8759H26.6643H24.1938L24.226 13.8222L24.2582 13.7685L24.1347 13.7632L24.0112 13.7578L24.0971 13.7309L24.1884 13.7095L24.2206 13.5107C24.2368 13.4033 24.2529 13.1241 24.2529 12.8985V12.4903L24.3066 12.4688C24.4032 12.4366 29.2368 12.4527 29.1831 12.485ZM29.516 13.8706C29.516 13.9028 29.4945 13.9404 29.4623 13.9565L29.4086 13.9887V13.9082C29.4086 13.8598 29.4355 13.8222 29.4623 13.8222C29.4945 13.8222 29.516 13.8437 29.516 13.8706ZM29.2475 13.9511C29.2475 14.0102 29.1455 14.0317 29.1132 13.9834L29.081 13.9296H29.1616C29.2099 13.9296 29.2475 13.9404 29.2475 13.9511ZM29.1293 15.5892L29.1455 16.196L29.081 16.2712L29.0219 16.3464H26.675C25.3861 16.3464 24.3119 16.3249 24.2797 16.3034L24.226 16.2658V15.5945V14.9232L26.6696 14.9501L29.1132 14.9769L29.1293 15.5892ZM29.1938 17.9844V18.7095H26.7233H24.2529V18.21V17.7105L24.1884 17.6461L24.1186 17.5763L24.1777 17.5387C24.2099 17.5172 24.2475 17.4581 24.269 17.4098L24.3012 17.3131L26.7341 17.297C28.0713 17.2916 29.1723 17.2809 29.1831 17.2701C29.1884 17.2648 29.1938 17.587 29.1938 17.9844ZM29.4999 17.3507C29.4784 17.3668 29.4623 17.3507 29.4623 17.3131C29.4623 17.2755 29.4784 17.2594 29.4999 17.2755C29.516 17.297 29.516 17.3292 29.4999 17.3507ZM29.1938 20.4925V21.2068L26.7502 21.1907L24.3012 21.1799L24.269 21.0832C24.2475 21.0349 24.2099 20.9705 24.1777 20.949L24.1186 20.9006L24.1884 20.8738L24.2529 20.8469V20.3153V19.7836H26.7233H29.1938V20.4925ZM29.4999 21.2175C29.4784 21.2336 29.4623 21.2175 29.4623 21.1799C29.4623 21.1423 29.4784 21.1262 29.4999 21.1423C29.516 21.1638 29.516 21.196 29.4999 21.2175ZM29.2045 22.775C29.1938 23.1563 29.1777 23.4946 29.1669 23.5269L29.1455 23.5967L26.7287 23.5913H24.3173L24.2314 23.4624L24.1455 23.3281H24.1992H24.2582L24.2475 22.775L24.2368 22.2272L26.675 22.2164L29.1132 22.2003L29.1293 22.1466C29.1401 22.1198 29.1669 22.0929 29.1831 22.0929C29.2045 22.0929 29.2153 22.399 29.2045 22.775ZM29.1831 25.1971L29.1669 25.8792L26.7126 25.8953L24.2582 25.906L24.2368 25.4388C24.226 25.1756 24.1938 24.9017 24.1723 24.8265L24.1347 24.6869L24.226 24.5956L24.3173 24.5097H26.7556L29.1992 24.515L29.1831 25.1971ZM25.6492 27.834L25.7835 27.8878H25.6922L25.5955 27.8931V28.6182V29.3432H26.3205H27.0456V29.2895C27.0456 29.2143 27.1906 29.2197 27.2174 29.3002L27.2389 29.3593L27.3839 29.3217L27.5289 29.2895V28.5913V27.8931H27.4645L27.3947 27.8878L27.4806 27.8394C27.5558 27.7965 28.1197 27.7589 28.4043 27.7803L28.4956 27.7857V29.7728V31.7599L28.3775 31.8083C28.3077 31.8298 28.0928 31.8405 27.8941 31.8244L27.5289 31.8029L27.5235 31.7385C27.5235 31.7062 27.5235 31.3733 27.5289 31.0027C27.5343 30.6267 27.5182 30.2562 27.4967 30.181L27.4645 30.0414L26.5622 30.0467H25.66L25.6224 30.1917C25.6063 30.2669 25.5901 30.6321 25.5955 31.0027C25.6009 31.3733 25.6009 31.7116 25.6009 31.7438L25.5955 31.8136H25.4613C25.3861 31.8136 25.327 31.8405 25.327 31.8727V31.9318L25.2464 31.8673C25.2035 31.8351 25.0799 31.8083 24.9672 31.8136C24.8544 31.8244 24.7309 31.8244 24.6986 31.819L24.6288 31.8136V29.8802V27.9468H24.5697C24.4892 27.9468 24.5697 27.8394 24.6825 27.7965C24.8222 27.7427 25.4935 27.7696 25.6492 27.834ZM25.9016 31.9586C25.8802 31.9748 25.864 31.9586 25.864 31.9211C25.864 31.8835 25.8802 31.8673 25.9016 31.8835C25.9177 31.9049 25.9177 31.9372 25.9016 31.9586ZM27.1154 32.6192C27.3785 32.6461 27.6202 32.689 27.6524 32.7213C27.69 32.7481 27.8082 32.7857 27.921 32.8072C28.0284 32.8287 28.1197 32.8663 28.1197 32.8931C28.1197 32.9146 28.211 32.9522 28.3238 32.9737C28.4312 32.9952 28.4903 33.022 28.458 33.0328C28.4204 33.0489 28.3882 33.0918 28.3882 33.1348V33.21H28.5171C28.5869 33.21 28.6567 33.2422 28.6675 33.2744C28.6782 33.312 28.6943 33.5644 28.7051 33.833C28.7158 34.3002 28.646 34.7675 28.5601 34.7675C28.5386 34.7675 28.4741 34.8373 28.4258 34.9232C28.3721 35.0145 28.2862 35.1004 28.2217 35.1165L28.1143 35.1541L28.1519 35.3367L28.1841 35.5193H28.1304H28.0767L28.1036 35.4119L28.1304 35.3045H28.023H27.9156L27.8834 35.4441L27.8458 35.5784L27.9693 35.7395C28.0391 35.8308 28.1412 35.9543 28.2056 36.0188C28.2647 36.0832 28.356 36.2551 28.4151 36.4055C28.4688 36.5505 28.5493 36.7116 28.5977 36.7546C28.646 36.7975 28.6836 36.8835 28.6836 36.9425V37.0499L28.8071 37.0446C28.8716 37.0446 28.9253 37.0607 28.9253 37.0875C28.9253 37.109 28.9038 37.1305 28.8716 37.1305C28.8017 37.1305 28.8017 37.3292 28.8662 37.3561C28.936 37.3776 29.0649 37.8716 29.0112 37.92C28.9897 37.9415 28.7319 37.9683 28.4365 37.9791L27.8995 38.0005L27.7974 37.8824C27.7437 37.8179 27.6793 37.6944 27.6632 37.6085C27.6417 37.5226 27.6095 37.4527 27.5826 37.4527C27.5611 37.4527 27.5235 37.3668 27.5021 37.2594C27.486 37.152 27.4215 37.0124 27.3624 36.9533C27.3087 36.8942 27.2604 36.7868 27.2604 36.717C27.2604 36.6472 27.2389 36.5934 27.2121 36.5934C27.1852 36.5934 27.1315 36.5075 27.0939 36.4055C27.0563 36.3034 27.008 36.2175 26.9865 36.2175C26.965 36.2175 26.9328 36.1584 26.9167 36.0886L26.8845 35.9651L26.6428 35.8953C26.5085 35.8577 26.385 35.804 26.3689 35.7825C26.3528 35.7556 26.2454 35.7342 26.1272 35.7342H25.9177V35.8147C25.9177 35.8577 25.8963 35.8953 25.864 35.8953H25.8103V36.8136V37.7266L25.864 37.8287L25.9177 37.9253L25.5794 37.9629C25.3968 37.9791 25.1175 37.9898 24.9672 37.9791L24.6825 37.9629V35.3206V32.6783L24.8597 32.6246C25.0853 32.5602 26.5139 32.5548 27.1154 32.6192ZM26.6535 36.094C26.632 36.1101 26.5998 36.1101 26.5783 36.094C26.5622 36.0725 26.5783 36.0564 26.6159 36.0564C26.6535 36.0564 26.6696 36.0725 26.6535 36.094Z" fill="#00552A"/>
<path d="M25.9717 33.5054C25.9717 33.5537 25.9341 33.6021 25.8911 33.6182L25.8105 33.6504V34.1982L25.8159 34.7406L25.8857 34.8373L25.9609 34.934L26.4228 34.9178C26.6752 34.9125 26.8847 34.8856 26.8847 34.8641C26.8847 34.8427 26.933 34.8212 26.9867 34.8212C27.1317 34.8212 27.368 34.5902 27.368 34.4506C27.368 34.3915 27.3895 34.3378 27.411 34.3378C27.4378 34.3378 27.4593 34.2304 27.4593 34.0962C27.4593 33.9619 27.4378 33.8545 27.411 33.8545C27.3841 33.8545 27.3358 33.7954 27.3036 33.7202C27.2713 33.645 27.2015 33.5859 27.1532 33.5859C27.1049 33.5859 27.0189 33.5484 26.9598 33.5054L26.8578 33.4302L26.4174 33.4248H25.9717V33.5054Z" fill="#00552A"/>
<path d="M11.1758 26.9586L11.2734 38.4731H12.0619C12.0619 38.3325 12.0619 37.9839 12.0619 37.8018V35.3582C12.0619 34.0156 12.0727 32.8555 12.0834 32.7857C12.121 32.6085 12.2123 32.5172 12.3358 32.5387C12.3895 32.5494 12.4379 32.5387 12.4379 32.5064V32.4581L13.1522 32.4635C13.5388 32.4635 14.0651 32.485 14.3176 32.5118C14.8331 32.5601 15.2843 32.6622 15.2843 32.7266C15.2843 32.7481 15.3648 32.7965 15.4615 32.834C15.628 32.8985 15.9287 33.1778 15.9287 33.2691C15.9287 33.2905 15.9717 33.3496 16.02 33.4033L16.1167 33.4946L16.1328 33.8867L16.1543 34.2734L16.0899 34.4667C16.0576 34.5741 16.0039 34.66 15.9717 34.66H15.918L15.9448 34.7675L15.9717 34.8749H15.875H15.7784L15.7085 35.0736C15.6709 35.1864 15.6334 35.2454 15.6226 35.2078C15.6065 35.1756 15.5528 35.1434 15.4937 35.1434H15.3917V35.224V35.3045L15.2574 35.3367C15.1822 35.3528 15.1231 35.4012 15.1231 35.4441V35.5193H15.2359H15.3487L15.3756 35.6267L15.4024 35.7342H15.5045H15.6065V35.8684C15.6065 35.9436 15.628 36.0027 15.6495 36.0027C15.6763 36.0027 15.7247 36.0618 15.7569 36.1369C15.7891 36.2121 15.8589 36.2712 15.9073 36.2712H15.9932L15.961 36.3947C15.9234 36.5612 15.9771 36.7546 16.0684 36.7546C16.1113 36.7546 16.1436 36.7975 16.1436 36.8459C16.1436 36.8996 16.1812 37.0553 16.2349 37.1949L16.3208 37.4474L16.4121 37.4688L16.5034 37.4903L16.4765 37.6568L16.4551 37.8233L16.2886 37.877C16.2026 37.9092 15.9502 37.9361 15.7354 37.9361H15.338L15.2306 37.8448C15.1715 37.7911 15.1231 37.7105 15.1231 37.6622C15.1231 37.6139 15.0856 37.544 15.0426 37.5064C14.9996 37.4688 14.962 37.4044 14.962 37.3668C14.962 37.3238 14.9406 37.2916 14.9137 37.2916C14.8868 37.2916 14.8546 37.2003 14.8331 37.0929C14.817 36.9801 14.7633 36.8298 14.7204 36.7546C14.6774 36.6794 14.6183 36.5559 14.5807 36.4753C14.5485 36.3894 14.5002 36.3249 14.4733 36.3249C14.4465 36.3249 14.425 36.2658 14.425 36.1907V36.0564L14.2907 35.9919C14.2155 35.9597 14.1564 35.9114 14.1564 35.8845C14.1564 35.863 14.1189 35.8416 14.0759 35.8416C14.0329 35.8416 13.9953 35.8201 13.9953 35.7932C13.9953 35.7127 13.6946 35.6697 13.4583 35.7073L13.2435 35.7449V35.8684C13.2435 35.9382 13.2757 36.0081 13.3133 36.0242L13.3777 36.0564L13.3133 36.0886L13.2435 36.1208V36.9962V37.8663L13.077 37.9039C12.9857 37.92 12.846 37.9361 12.7762 37.9361H12.6419H12.6133H12.5781H12.4766C12.266 37.9361 12.2344 37.9361 12.0619 37.9361C12.0619 38.1289 12.0619 38.1367 12.0619 38.2046V38.1875V38.2812V38.4731H14.7687H17.2714L17.2606 27.2862L17.2445 16.1047L14.2102 16.0886L11.1758 16.0779V26.9586ZM14.0866 18.3818L14.0974 18.9404L14.0383 19.0478L13.9846 19.1552L13.9416 19.0908L13.904 19.0209L13.0071 19.0263L12.1156 19.0371V18.4194V17.8018L12.8836 17.7857C13.3025 17.775 13.7429 17.7803 13.8611 17.7965L14.0759 17.8233L14.0866 18.3818ZM16.6001 17.7965C16.6591 17.8233 16.686 17.8448 16.6538 17.8448L16.6001 17.8502V18.4248V19.0048L15.6226 19.0209L14.6505 19.0371L14.6291 18.9458C14.6183 18.8974 14.6183 18.6182 14.6291 18.3281L14.6452 17.7965L15.5152 17.7803C15.9932 17.775 16.4121 17.7642 16.4389 17.7589C16.4712 17.7535 16.541 17.7696 16.6001 17.7965ZM14.0329 20.0628L14.092 20.1327L14.0974 20.7073L14.1081 21.2873H13.1092H12.1156V20.6482V20.0091L13.0501 19.9984L13.9792 19.993L14.0329 20.0628ZM16.6269 20.6482V21.2873H15.6387H14.6452L14.6291 20.6805L14.6129 20.0789L14.6667 20.036C14.6989 20.0145 15.15 19.9984 15.6763 20.0038L16.6269 20.0145V20.6482ZM14.0866 23.0005L14.0974 23.5591L14.0383 23.6665L13.9846 23.7739L13.9416 23.7094L13.904 23.6396L13.0071 23.645L12.1156 23.6557V23.0381V22.4205L12.8836 22.4044C13.3025 22.3937 13.7429 22.399 13.8611 22.4151L14.0759 22.442L14.0866 23.0005ZM16.6001 22.4151C16.6591 22.442 16.686 22.4635 16.6538 22.4635L16.6001 22.4688V23.0435V23.6235L15.6226 23.6396L14.6505 23.6557L14.6291 23.5644C14.6183 23.5161 14.6183 23.2368 14.6291 22.9468L14.6452 22.4151L15.5152 22.399C15.9932 22.3937 16.4121 22.3829 16.4389 22.3776C16.4712 22.3722 16.541 22.3883 16.6001 22.4151ZM14.0329 24.6815L14.092 24.7513L14.0974 25.326L14.1081 25.906H13.1092H12.1156V25.2669V24.6278L13.0501 24.6171L13.9792 24.6117L14.0329 24.6815ZM16.6269 25.2669V25.906H15.6387H14.6452L14.6291 25.2991L14.6129 24.6976L14.6667 24.6547C14.6989 24.6332 15.15 24.6171 15.6763 24.6224L16.6269 24.6332V25.2669ZM15.8535 27.7857H16.3047V27.732C16.3047 27.6353 16.396 27.6783 16.4443 27.7965L16.4926 27.92L16.4765 29.7997L16.4658 31.6794L16.3154 31.7438C16.2349 31.776 16.1167 31.819 16.0523 31.8405L15.9287 31.8727V31.7922C15.9287 31.7438 15.8911 31.7062 15.8482 31.7062H15.7676V30.1756V28.645H15.6924H15.6226L15.5904 28.9243C15.5689 29.08 15.5313 29.2143 15.4991 29.225C15.4722 29.2358 15.4454 29.3002 15.4454 29.37C15.4454 29.4398 15.4293 29.5043 15.4024 29.515C15.3326 29.5419 15.1124 30.2508 15.1446 30.3367L15.1769 30.4227L15.0963 30.4495C15.0533 30.471 15.0157 30.5408 15.0157 30.6106C15.0157 30.6804 14.9943 30.7395 14.962 30.7395C14.9352 30.7395 14.9083 30.7879 14.9083 30.8469C14.9083 30.906 14.8815 30.9543 14.8493 30.9543H14.7848L14.817 31.1638L14.8439 31.3679L14.7418 31.4592C14.6828 31.5075 14.6398 31.5773 14.6398 31.6203C14.6398 31.6579 14.5968 31.7062 14.5485 31.7277C14.425 31.7653 14.2477 31.8781 14.1994 31.9479L14.1564 32.0016V31.9103V31.819L13.9631 31.7814L13.7751 31.7492L13.8074 31.6042L13.8396 31.4592L13.7537 31.2981C13.7107 31.2121 13.6731 31.0994 13.6731 31.051C13.6731 31.0027 13.6516 30.9436 13.6194 30.9275C13.5925 30.9114 13.5657 30.8362 13.5657 30.7664C13.5657 30.6966 13.5335 30.6053 13.4959 30.573L13.426 30.5032L13.4475 30.3528L13.469 30.2025H13.4099C13.3777 30.2025 13.3509 30.1702 13.3509 30.1273C13.3509 30.0843 13.324 29.9823 13.2918 29.8963C13.2542 29.8158 13.2273 29.6923 13.222 29.6224C13.2166 29.5526 13.1844 29.4774 13.1468 29.456L13.077 29.413L13.0447 29.1122L13.0125 28.8061H12.9158H12.8138V30.2562V31.7062H12.7332C12.6849 31.7062 12.6366 31.7385 12.6205 31.776L12.5936 31.8459L12.411 31.8244C12.309 31.8136 12.2016 31.7707 12.1693 31.7331L12.1156 31.6686L12.0995 29.7513L12.0888 27.8394L12.1854 27.8072C12.2392 27.7911 12.4862 27.775 12.7386 27.775L13.1951 27.7696L13.2972 27.8824C13.3562 27.9468 13.4046 28.0435 13.4046 28.1079C13.4046 28.167 13.4207 28.2154 13.4475 28.2154C13.469 28.2154 13.5281 28.3657 13.5818 28.5537C13.6355 28.7363 13.7107 28.9458 13.7537 29.0209C13.7912 29.0961 13.8396 29.2358 13.8611 29.3271L13.8987 29.5043H13.9846H14.0759L14.0061 29.5526L13.9309 29.5956L14.0007 29.8212C14.0383 29.9393 14.0866 30.0414 14.1081 30.0414C14.1296 30.0414 14.1618 30.138 14.1833 30.2562L14.2209 30.471H14.2961H14.3713L14.4035 30.3206C14.4196 30.2401 14.4572 30.1219 14.4894 30.0575C14.5216 29.993 14.5324 29.8802 14.5109 29.805L14.4787 29.6654H14.5485C14.6398 29.6654 14.7257 29.4989 14.8009 29.1821C14.8868 28.833 15.0104 28.5 15.1822 28.1348C15.2682 27.9576 15.3433 27.7374 15.3433 27.6514L15.3541 27.4903L15.3756 27.6353L15.397 27.7857H15.8535Z" fill="#00552A"/>
<path d="M17.6475 18.6557C17.6475 18.8759 17.6475 38.3496 17.6475 38.4302V38.5H20.4133H23.1791V38.4463C23.1791 38.4141 23.1845 33.9296 23.1953 28.4731L23.206 18.5483L23.1362 18.5215C23.0932 18.5054 21.8419 18.4946 20.3542 18.4946H17.6475V18.6557ZM20.1609 20.0467L20.2522 20.0951L20.2683 20.6912L20.2898 21.282H19.3177H18.3456V20.6966V20.1112L18.4423 20.0575L18.5336 20.0038L19.3016 19.9984C19.7259 19.9984 20.1126 20.0199 20.1609 20.0467ZM22.6797 20.0467C22.7012 20.0628 22.7173 20.3528 22.7065 20.6805L22.6904 21.2873H21.7559H20.8215L20.8054 20.6805C20.7946 20.3528 20.8 20.0575 20.8054 20.036C20.8268 19.9876 22.6152 19.9984 22.6797 20.0467ZM18.6518 22.0768C18.6303 22.0929 18.6142 22.0768 18.6142 22.0392C18.6142 22.0016 18.6303 21.9855 18.6518 22.0016C18.6679 22.0231 18.6679 22.0553 18.6518 22.0768ZM19.9944 22.0768C19.9729 22.0929 19.9568 22.0768 19.9568 22.0392C19.9568 22.0016 19.9729 21.9855 19.9944 22.0016C20.0105 22.0231 20.0105 22.0553 19.9944 22.0768ZM20.8 22.1305C20.7785 22.1466 20.7624 22.1305 20.7624 22.0929C20.7624 22.0553 20.7785 22.0392 20.8 22.0553C20.8161 22.0768 20.8161 22.109 20.8 22.1305ZM18.5605 22.2003V22.2487L19.409 22.2648L20.2522 22.2809L20.2629 22.8824L20.2683 23.4893L20.2146 23.5269C20.134 23.5752 18.4853 23.5698 18.4101 23.5215L18.3456 23.4839V22.92V22.3614L18.4101 22.254C18.4853 22.1412 18.5605 22.1144 18.5605 22.2003ZM22.5938 22.254H22.6958V22.8985V23.543H21.7828H20.8644L20.7087 23.6235L20.5476 23.7095V23.6504C20.5476 23.6235 20.6066 23.5859 20.6818 23.5644L20.8161 23.5322V22.8931V22.254H21.6217H22.4273L22.4326 22.1842L22.438 22.1198L22.4649 22.1842C22.4756 22.2218 22.5347 22.254 22.5938 22.254ZM18.684 24.4882C18.7269 24.5311 19.8816 24.5311 19.9514 24.4882C19.9837 24.4667 20.0105 24.4774 20.0105 24.5097C20.0105 24.5419 20.0427 24.5634 20.0803 24.558C20.1126 24.5526 20.1877 24.5526 20.2414 24.558L20.3327 24.5634V24.6654C20.3327 24.7245 20.3113 24.7836 20.2844 24.7997L20.2361 24.8319L20.2629 25.1917C20.2737 25.3958 20.3059 25.6214 20.3327 25.7019L20.3811 25.8523H20.3005C20.2629 25.8523 20.2253 25.8308 20.2253 25.7986V25.7449L20.0964 25.7986C20.0266 25.8255 19.9568 25.8308 19.9407 25.8201C19.9192 25.7932 18.7538 25.7771 18.7108 25.7986C18.7001 25.804 18.6142 25.8093 18.5175 25.8147L18.3403 25.8255L18.351 25.2347C18.3617 24.6708 18.4101 24.4774 18.5121 24.5419C18.539 24.558 18.5605 24.5419 18.5605 24.515C18.5605 24.4506 18.6303 24.4345 18.684 24.4882ZM22.6958 25.1004C22.6958 25.4227 22.6958 25.7073 22.6958 25.7288C22.6958 25.7556 22.2662 25.7771 21.7452 25.7825L20.7892 25.7932V25.1541V24.5204L21.7452 24.5097L22.6958 24.5043V25.1004ZM20.3113 27.6783C20.5476 27.6676 20.7624 27.6676 20.8 27.6729C20.8376 27.6729 20.8913 27.775 20.9289 27.8878C20.9611 28.0005 21.0417 28.1563 21.1115 28.2261C21.1759 28.2959 21.2189 28.3818 21.2028 28.4194C21.192 28.4624 21.2296 28.5376 21.2887 28.5913L21.3961 28.6933L21.4337 28.9672C21.4552 29.1176 21.5035 29.268 21.5411 29.3056C21.5733 29.3378 21.5948 29.4076 21.5841 29.456L21.5572 29.5419L21.6754 29.5741L21.7935 29.6063L21.7559 29.6654C21.7022 29.7513 21.8365 30.2078 21.9224 30.2401L21.9976 30.2669L21.9654 30.3958L21.9332 30.5247H21.9923C22.0245 30.5247 22.0513 30.5516 22.0513 30.5838C22.0513 30.616 22.0836 30.6751 22.1265 30.718L22.2017 30.7932L22.1749 30.9006L22.148 31.0081H22.2178H22.293L22.3091 31.2873C22.3145 31.4431 22.3467 31.5827 22.3789 31.6042L22.438 31.6364L22.336 31.674C22.25 31.7116 21.8043 31.7331 21.5572 31.7116L21.4713 31.7062L21.4069 31.5183L21.3424 31.3303L21.2296 31.3249L21.1115 31.3195L21.2081 31.2927C21.3048 31.2658 21.337 31.1155 21.2457 31.1155C21.2189 31.1155 21.1813 31.0295 21.1598 30.9275L21.1276 30.7395H20.3327C19.8924 30.7395 19.5003 30.7556 19.452 30.7718C19.4036 30.7879 19.366 30.8362 19.366 30.8792C19.366 30.9221 19.3446 30.9543 19.3177 30.9543C19.2909 30.9543 19.2479 31.0349 19.2318 31.1262C19.2103 31.2229 19.1458 31.3947 19.0921 31.5021L18.9901 31.7062H18.6249C18.4262 31.7062 18.2382 31.6847 18.2006 31.6633L18.1362 31.6203L18.2275 31.3571C18.2758 31.2068 18.3349 31.0779 18.3617 31.0725C18.3832 31.0618 18.3993 31.0134 18.3993 30.9705C18.3993 30.9275 18.4638 30.7718 18.539 30.6267L18.684 30.369L18.6571 30.2347L18.6303 30.0951L18.7001 30.036C18.7431 30.0038 18.7753 29.9286 18.7753 29.8749C18.7753 29.8158 18.8021 29.7728 18.829 29.7728C18.8612 29.7728 18.8827 29.7245 18.8827 29.6708C18.8827 29.6117 18.9149 29.5311 18.9525 29.4936C18.9955 29.456 19.0707 29.2895 19.1244 29.1284C19.1781 28.9672 19.2479 28.7739 19.2855 28.6987C19.4359 28.398 19.5272 28.1509 19.5272 28.0542C19.5272 27.8985 19.5862 27.7857 19.6614 27.7857C19.7044 27.7857 19.7527 27.732 19.7688 27.6729L19.8064 27.5548L19.8494 27.6246L19.8924 27.689L20.3113 27.6783ZM21.7291 28.8813C21.7291 28.8974 21.7022 28.9243 21.6646 28.9458L21.6056 28.9834L21.6432 28.9243C21.6808 28.8598 21.7291 28.8383 21.7291 28.8813ZM20.9611 31.0994C20.9396 31.1155 20.9235 31.0994 20.9235 31.0618C20.9235 31.0242 20.9396 31.0081 20.9611 31.0242C20.9772 31.0456 20.9772 31.0779 20.9611 31.0994ZM22.25 32.6461C22.3252 32.7642 22.336 33.022 22.2876 33.3281L22.25 33.5322H22.1802C22.1373 33.5322 22.105 33.5054 22.105 33.4785C22.105 33.4463 22.0674 33.4248 22.0245 33.4248C21.9815 33.4248 21.9439 33.457 21.9439 33.4893V33.5591L21.901 33.4893L21.858 33.4248L20.8107 33.4356L19.7688 33.4517L19.7527 34.08L19.7366 34.7137H20.8054H21.8741L21.9224 34.8319C21.9493 34.9017 21.9654 35.0897 21.9547 35.2508L21.9385 35.5516L20.9718 35.5301C20.4402 35.5193 19.9461 35.5247 19.8709 35.5408L19.7366 35.5784L19.7527 36.3142L19.7688 37.0499L20.8859 37.0661L22.003 37.0768L22.105 37.0231L22.2124 36.964L22.2715 37.109C22.2984 37.1896 22.3199 37.4044 22.3091 37.5816L22.293 37.9092L20.3918 37.9253L18.4906 37.9361L18.3886 37.834L18.2919 37.7266V35.3421C18.2919 34.0263 18.308 32.877 18.3242 32.7857L18.3617 32.6192H18.5121C18.5981 32.6192 18.6679 32.6031 18.6679 32.5763C18.6679 32.5548 19.4573 32.5387 20.424 32.5387H22.1856L22.25 32.6461Z" fill="#00552A"/>
<path d="M20.1718 28.6665C20.1718 28.7094 20.1396 28.7792 20.0966 28.8168C20.059 28.8598 20.0053 28.9457 19.9839 29.0155L19.9463 29.1391L20.0161 29.1874L20.0913 29.2357H20.0268C19.9892 29.2357 19.957 29.268 19.957 29.3109C19.957 29.3485 19.9248 29.413 19.8818 29.4452C19.8442 29.4774 19.7959 29.5741 19.7798 29.66C19.7637 29.7459 19.7314 29.8748 19.71 29.9554L19.6777 30.095L20.2202 30.0897L20.7626 30.0843V29.9339C20.7626 29.7674 20.6605 29.5043 20.6015 29.5043C20.58 29.5043 20.5424 29.3969 20.5263 29.268C20.5048 29.1391 20.4565 28.9887 20.4135 28.935C20.3705 28.8759 20.3329 28.7792 20.3329 28.7094V28.5913H20.2524C20.2094 28.5913 20.1718 28.6235 20.1718 28.6665ZM20.2631 29.3754C20.247 29.3915 20.1987 29.3969 20.1611 29.3807L20.0913 29.3539L20.1933 29.3485C20.2524 29.3432 20.2846 29.3593 20.2631 29.3754Z" fill="#00552A"/>
<path d="M30.3921 23.0435L30.3223 23.0704V30.7825V38.5L32.5886 38.4893C33.84 38.4839 34.9302 38.4624 35.0215 38.4409C35.293 38.4409 35.7841 38.4409 35.7841 38.4409L35.7906 37.9952L35.0913 37.9898C34.9947 37.9952 34.8604 38.0005 34.7959 37.9952L34.6778 37.9898L34.5919 37.6944C34.5435 37.5333 34.4791 37.3883 34.4522 37.3722C34.4254 37.3507 34.4039 37.2863 34.4039 37.2164C34.4039 37.152 34.3717 37.0338 34.3395 36.9533L34.2696 36.8083H33.1848H32.0946V36.9372C32.0946 37.0124 32.0731 37.0822 32.0516 37.0983C32.0301 37.1144 31.9764 37.2487 31.9334 37.3937C31.8958 37.544 31.8421 37.6676 31.8207 37.6676C31.7992 37.6676 31.7669 37.7427 31.7455 37.8287L31.7079 37.9898H31.6327C31.5897 37.9898 31.5575 38.0274 31.5575 38.0757V38.1563L31.4716 38.0757L31.391 37.9898H31.0849H30.7788L30.7143 37.8878L30.6499 37.7803L30.6982 37.7642C30.7304 37.7535 30.7627 37.63 30.7734 37.4796C30.7841 37.3346 30.8217 37.2057 30.854 37.195C30.8862 37.1842 30.913 37.1037 30.913 37.0177C30.913 36.8727 30.9721 36.7277 31.1064 36.5397C31.1923 36.4216 31.2997 36.0081 31.2621 35.949C31.246 35.9168 31.2567 35.8953 31.2836 35.8953C31.3158 35.8953 31.3427 35.8362 31.3427 35.761V35.6267H31.4179C31.4984 35.6267 31.5575 35.4656 31.5575 35.2347V35.0897H31.6381H31.7186V34.8212V34.5526H31.7992H31.8797V34.3915C31.8797 34.3002 31.9066 34.2304 31.9334 34.2304C31.9657 34.2304 31.9871 34.1821 31.9871 34.123C31.9871 34.0639 32.014 34.0156 32.0408 34.0156C32.0731 34.0156 32.0946 33.9458 32.0946 33.8598C32.0946 33.7739 32.116 33.6933 32.1483 33.6826C32.1751 33.6719 32.2234 33.5376 32.2557 33.3765L32.3094 33.0811L32.2449 33.0381L32.1751 32.9952H32.2342C32.2879 32.9952 32.3631 32.9415 32.6155 32.7266L32.6799 32.6729H33.2707H33.8615L33.9313 32.7535C34.1031 32.9468 34.1246 32.9898 34.0978 33.0972L34.0709 33.21H34.173H34.2804L34.2589 33.3335L34.232 33.4624L34.3072 33.5376C34.3502 33.5806 34.3985 33.7417 34.42 33.8974C34.4361 34.0532 34.4898 34.2143 34.5328 34.2626C34.5758 34.3056 34.6295 34.4237 34.6509 34.5258C34.6671 34.6278 34.7046 34.7137 34.7261 34.7137C34.7476 34.7137 34.7959 34.8212 34.8282 34.9501C34.8604 35.0843 34.9195 35.2186 34.9517 35.2615C34.9893 35.2991 35.0269 35.4173 35.0323 35.5193C35.0376 35.6214 35.0645 35.7127 35.0967 35.7234C35.1289 35.7342 35.1558 35.7718 35.1558 35.804C35.1611 35.8416 35.2041 35.9651 35.2632 36.0832C35.3223 36.2014 35.3652 36.3625 35.3706 36.4431C35.3706 36.529 35.3867 36.5934 35.4136 36.5934C35.435 36.5934 35.4995 36.7438 35.5532 36.9318C35.6123 37.1144 35.6821 37.2809 35.7036 37.297C35.7304 37.3131 35.768 37.4313 35.7841 37.5548C35.8002 37.6729 35.7841 38.4409 35.7841 38.4409C35.7841 38.4409 35.9375 38.4409 36.0352 38.4409H36.1601V30.326L36.1762 23.0918L36.1064 23.0489C36.0366 23.0059 30.4995 22.9952 30.3921 23.0435ZM32.8572 25.4495L32.8733 26.1208L32.8088 26.1423C32.7766 26.1584 32.3201 26.1692 31.8045 26.1692H30.8593L30.8217 26.094C30.7949 26.0564 30.7841 25.7395 30.7949 25.4012L30.811 24.7782H31.826H32.8411L32.8572 25.4495ZM35.4404 25.4334C35.435 25.7986 35.4297 26.1101 35.4243 26.1316C35.4243 26.1584 34.9893 26.1745 34.463 26.1745H33.4963L33.4802 25.4979C33.4694 25.1273 33.4748 24.8104 33.4855 24.7997C33.4963 24.7889 33.9474 24.7782 34.4791 24.7782H35.4512L35.4404 25.4334ZM35.6767 26.051C35.6552 26.0671 35.6391 26.051 35.6391 26.0134C35.6391 25.9758 35.6552 25.9597 35.6767 25.9758C35.6928 25.9973 35.6928 26.0295 35.6767 26.051ZM33.8937 27.7374L33.8561 27.8448L33.9581 27.9361L34.0548 28.0274L34.0602 28.2637L34.0656 28.5L34.1461 28.5591C34.1944 28.5913 34.2482 28.7202 34.2696 28.8491C34.2911 28.9726 34.3287 29.0747 34.3556 29.0747C34.3824 29.0747 34.42 29.1713 34.4361 29.2895L34.4737 29.5043H34.5382H34.6026L34.6348 29.7567C34.6509 29.8963 34.6939 30.036 34.7315 30.0628C34.8121 30.1219 34.9947 30.5999 34.9947 30.7395C34.9947 30.7825 35.043 30.8792 35.1021 30.9544C35.1611 31.0295 35.2095 31.1316 35.2095 31.1799C35.2095 31.2336 35.2417 31.2766 35.2847 31.2766C35.3276 31.2766 35.376 31.2336 35.3921 31.1799C35.4082 31.1316 35.4082 31.1853 35.3975 31.3034C35.3813 31.4216 35.3706 31.5881 35.3706 31.6794V31.8405L34.9302 31.8351L34.4898 31.8298L34.4683 31.7707C34.4576 31.7331 34.42 31.7062 34.3878 31.7062H34.3233L34.2535 31.4216C34.2159 31.2712 34.1622 31.1316 34.1354 31.1262C34.1031 31.1155 34.0817 31.0618 34.0817 31.0027V30.9006H34.0011C33.9581 30.9006 33.9205 30.9329 33.9152 30.9651L33.9098 31.0349L33.883 30.9651L33.8561 30.9006H33.0989H32.3362L32.2073 31.3195C32.1321 31.5451 32.0408 31.7868 31.9979 31.8566L31.9173 31.9801L31.8797 31.9264C31.8636 31.8942 31.7723 31.8512 31.6756 31.8351L31.5038 31.7975V31.8727V31.9425L31.4393 31.8781C31.4018 31.8405 31.3319 31.8136 31.2782 31.8136C31.2245 31.8136 31.1816 31.7814 31.1816 31.7438C31.1816 31.6096 31.3964 30.9329 31.4501 30.9006C31.4823 30.8792 31.5199 30.7718 31.5414 30.6536C31.5575 30.5408 31.6058 30.4227 31.6488 30.4012C31.6864 30.3797 31.7186 30.2884 31.7186 30.2025C31.7186 30.1165 31.7508 30.0145 31.7884 29.9769C31.826 29.9393 31.8958 29.7943 31.9334 29.6493C31.9764 29.5097 32.0247 29.3969 32.0462 29.3969C32.0677 29.3969 32.1375 29.2304 32.1966 29.0209C32.261 28.8169 32.3577 28.5698 32.4114 28.4731C32.4705 28.3765 32.5403 28.1939 32.5779 28.065C32.6101 27.9361 32.6638 27.8287 32.7014 27.8179C32.739 27.8072 32.8464 27.775 32.9431 27.7428L33.115 27.689V27.7374C33.115 27.7642 33.26 27.7857 33.4318 27.7857H33.7487L33.7809 27.7052C33.797 27.6622 33.8346 27.6246 33.8668 27.6246H33.9259L33.8937 27.7374ZM31.9871 29.1498C31.9871 29.2411 31.912 29.3056 31.8636 29.2573C31.8207 29.2143 31.8797 29.0747 31.9388 29.0747C31.9657 29.0747 31.9871 29.1069 31.9871 29.1498Z" fill="#00552A"/>
<path d="M32.959 29.2196C32.8623 29.5419 32.7549 29.8158 32.728 29.8319C32.7012 29.8534 32.6743 29.95 32.6689 30.0467L32.6582 30.2293L33.2382 30.2454L33.8129 30.2615V30.1219C33.8129 30.0467 33.7914 29.9876 33.7699 29.9876C33.7431 29.9876 33.6894 29.891 33.6518 29.7728C33.6142 29.6547 33.5605 29.558 33.539 29.558C33.5121 29.558 33.5068 29.5258 33.5229 29.4828C33.5605 29.3808 33.4047 29.0209 33.3188 29.0209H33.2436L33.2651 28.833L33.2866 28.645H33.2114H33.1362L32.959 29.2196Z" fill="#00552A"/>
<path d="M13.3506 33.4517C13.3506 33.4946 13.3291 33.5322 13.2969 33.5322H13.2432V34.08C13.2432 34.3862 13.2593 34.6869 13.2754 34.7514L13.3076 34.8749H13.7534H14.1991L14.226 34.7997L14.2582 34.7191L14.4891 34.703L14.7201 34.6869L14.7416 34.5795C14.7523 34.5204 14.7845 34.456 14.8114 34.4399C14.8436 34.4184 14.8812 34.2949 14.8919 34.1552L14.9242 33.9082L14.8329 33.876L14.7469 33.8437V33.7148V33.5859H14.6771C14.6341 33.5859 14.5482 33.5376 14.4784 33.4785L14.3549 33.3711H13.9843H13.6191V33.4624L13.6137 33.5591L13.5439 33.4624C13.458 33.3496 13.3506 33.3443 13.3506 33.4517Z" fill="#00552A"/>
<path d="M33.1143 33.935C33.1143 33.978 33.1519 34.0156 33.1948 34.0156C33.2378 34.0156 33.2754 33.978 33.2754 33.935C33.2754 33.892 33.2378 33.8544 33.1948 33.8544C33.1519 33.8544 33.1143 33.892 33.1143 33.935Z" fill="#00552A"/>
<path d="M33.0444 34.1069C33.0336 34.1337 32.9799 34.2841 32.9262 34.4452C32.8725 34.6063 32.8081 34.7728 32.7758 34.805C32.749 34.8426 32.7383 34.9232 32.7544 34.9769L32.7812 35.0843L32.706 35.1112C32.6631 35.1273 32.6308 35.1917 32.6308 35.2508C32.6308 35.3099 32.604 35.3582 32.5771 35.3582H32.5181L32.5288 35.5301C32.5288 35.6267 32.5181 35.761 32.4966 35.8255L32.459 35.949H33.1894H33.9198V35.8953C33.9198 35.804 33.7909 35.3314 33.7587 35.3045C33.7211 35.2723 33.517 34.6493 33.4633 34.4023C33.4472 34.311 33.4042 34.2304 33.3774 34.2304C33.3505 34.2304 33.329 34.1928 33.329 34.1498V34.0693H33.2001C33.1249 34.0693 33.0551 34.0854 33.0444 34.1069Z" fill="#00552A"/>
<rect x="0.25" y="0.25" width="46.5" height="46.5" rx="4.75" stroke="#00552A" stroke-width="0.5"/>
</svg>
