<svg width="51" height="50" viewBox="0 0 51 50" fill="none" xmlns="http://www.w3.org/2000/svg">
<path d="M36.6111 13.8853L35.2303 12.5041L13 34.0174V34.3117C13 36.077 14.0125 37.0895 15.7778 37.0895H16.0653L24.8056 28.3493L26.1944 29.7382L26.6854 29.2472C34.0117 21.9209 36.6111 16.5481 36.6111 14.1728V13.8853ZM26.1924 27.7718L24.8056 26.3853L15.5015 35.6891C14.7944 35.6264 14.4652 35.2995 14.4008 34.5945L35.2039 14.4628C34.993 16.2639 32.9212 20.9237 26.1924 27.7718ZM22.6331 18.5378L17.3701 13.2749L18.3521 12.293L24.2101 18.1507L24.0761 18.5576C23.775 19.4717 23.7248 20.4523 23.8947 20.6137L24.6258 21.3082L23.6695 22.3153L22.9385 21.6208C22.1539 20.8758 22.4103 19.37 22.6331 18.5378ZM38 34.0137V34.3117C38 36.077 36.9875 37.0895 35.2222 37.0895H34.9242L27.7742 29.5635L28.7813 28.6066L35.5088 35.6885C36.2076 35.6233 36.5338 35.2971 36.5989 34.5983L29.5171 27.8709L30.474 26.8638L38 34.0137ZM19.0625 23.2996L13.2035 17.4416L14.1854 16.4596L19.4483 21.7222C20.2699 21.5021 21.7534 21.2498 22.5188 22.0152L23.2132 22.7096L22.2312 23.6916L21.5368 22.9971C21.3408 22.8012 20.3165 22.8842 19.4687 23.1653L19.0625 23.2996ZM19.4535 20.9138L14.5924 16.0527L15.5743 15.0707L20.4354 19.9319L19.4535 20.9138ZM20.8424 19.5249L15.9813 14.6638L16.9632 13.6819L21.8243 18.543L20.8424 19.5249Z" fill="#00552A"/>
<rect x="0.75" y="0.25" width="49.5" height="49.5" rx="4.75" stroke="#00552A" stroke-width="0.5"/>
</svg>
