<svg width="51" height="50" viewBox="0 0 51 50" fill="none" xmlns="http://www.w3.org/2000/svg">
<path d="M33.1549 14.8852C33.1549 13.2397 29.8668 12 25.5052 12C21.1436 12 17.8555 13.2397 17.8555 14.8852V18.0071C17.8555 18.9763 18.9825 19.8019 20.8167 20.3203L21.4028 22.425C21.507 23.3464 23.516 23.8338 25.5052 23.8338C27.4944 23.8338 29.5033 23.352 29.6076 22.425L30.1964 20.3118C32.0166 19.7962 33.1549 18.9679 33.1549 18.0014V14.8852ZM20.8928 18.5142L20.8449 18.3142C20.8675 18.1564 21.09 17.9113 21.6592 17.6746C21.9105 17.5734 22.1684 17.4896 22.4312 17.4238V17.4464L22.7975 21.2191C22.6398 21.2645 22.4847 21.3181 22.3326 21.3797C22.1321 21.4568 21.9426 21.5601 21.7691 21.6868L20.8928 18.5142ZM25.5052 23.2703C23.2089 23.2703 21.9579 22.6673 21.9579 22.3574C21.9569 22.3461 21.9569 22.3348 21.9579 22.3236C21.967 22.3018 21.9783 22.2811 21.9917 22.2616C22.0981 22.138 22.2323 22.0415 22.3833 21.9798C22.434 21.9573 22.4847 21.9319 22.5439 21.9094C22.6954 21.8471 22.8507 21.7944 23.0088 21.7516L23.1525 21.7122L23.2596 21.6868L23.4962 21.6333H23.5329L23.7329 21.5967L23.9076 21.5685L24.1246 21.5403C24.1978 21.5403 24.2711 21.5206 24.3472 21.5149C24.4232 21.5093 24.4655 21.5149 24.5275 21.498C24.6317 21.498 24.736 21.4811 24.843 21.4755H24.9445C25.1276 21.4755 25.3192 21.4755 25.508 21.4755H25.6291C25.7785 21.4755 25.9306 21.4755 26.0743 21.4755H26.1786C26.2856 21.4755 26.3871 21.4755 26.4913 21.498L26.6745 21.5149L26.8942 21.5403L27.1112 21.5685L27.2887 21.5967L27.4775 21.6305H27.5141L27.7536 21.684L27.855 21.7065L27.9959 21.746C28.155 21.7888 28.3112 21.8415 28.4636 21.9038C28.9313 22.0982 29.0553 22.2813 29.0553 22.3602C29.0525 22.6673 27.8015 23.2703 25.5052 23.2703ZM22.9947 17.4097C22.9947 17.3731 22.9947 17.3337 22.9947 17.297C23.5089 17.2033 24.0283 17.1412 24.55 17.1111L24.6007 20.9148C24.1796 20.9422 23.7607 20.9977 23.3469 21.081L23.0257 17.7845L22.9947 17.4097ZM25.1164 17.0716C25.3587 17.0716 25.6517 17.0716 25.894 17.0716L25.8433 20.8838H25.5052H25.1671L25.1164 17.0716ZM26.4068 20.9035L26.4575 17.0998C26.9793 17.1299 27.4987 17.192 28.0128 17.2858C28.0128 17.3224 28.0128 17.3562 28.0128 17.3844L27.6606 21.081C27.2469 20.9977 26.828 20.9422 26.4068 20.9148V20.9035ZM29.2244 21.6755C29.0509 21.5488 28.8614 21.4455 28.6609 21.3684C28.5088 21.3068 28.3536 21.2532 28.196 21.2078L28.5284 17.8267L28.5622 17.4182C28.8249 17.4845 29.0828 17.5682 29.3343 17.669C29.8978 17.9056 30.126 18.1508 30.1485 18.3085L29.2244 21.6755ZM30.3768 19.6469L30.6585 18.6354L30.7177 18.3959C30.7206 18.3744 30.7206 18.3526 30.7177 18.3311C30.7177 18.0099 30.5148 17.5422 29.554 17.1421C29.1551 16.9878 28.7429 16.8699 28.3227 16.7899C28.1396 16.7504 27.9508 16.7194 27.7592 16.6884L27.5085 16.6518L27.1563 16.6095L26.8463 16.5786L26.5505 16.5588C26.4124 16.5588 26.2687 16.5391 26.1363 16.5335C25.9447 16.5081 25.739 16.5081 25.5052 16.5081H25.1389H24.8797C24.736 16.5081 24.5979 16.525 24.4599 16.5335L24.1781 16.5532L23.8597 16.5842L23.516 16.6265L23.2596 16.6631C23.068 16.6913 22.8792 16.7251 22.6961 16.7617C22.2715 16.8466 21.8556 16.9701 21.4535 17.1308C20.4927 17.5309 20.2899 17.9986 20.2899 18.3198C20.2869 18.3413 20.2869 18.3631 20.2899 18.3846L20.6392 19.6384C19.2445 19.1876 18.4218 18.5678 18.4218 17.9845C18.4295 17.801 18.4967 17.6249 18.6134 17.483C18.9206 17.1303 19.3068 16.8552 19.7404 16.68C20.6721 16.2762 21.6555 16.0041 22.6622 15.8713C23.604 15.74 24.5543 15.6788 25.5052 15.6882C27.7592 15.6882 29.9259 16.0658 31.2784 16.7025C32.1237 17.0998 32.5914 17.5647 32.5914 18.0071C32.5914 18.5903 31.7715 19.2073 30.3824 19.6582L30.3768 19.6469ZM32.5857 16.8716C32.2656 16.5875 31.9035 16.3547 31.5122 16.1813C30.0696 15.5022 27.8776 15.1134 25.4995 15.1134C23.1215 15.1134 20.9294 15.5022 19.4868 16.1813C19.0956 16.3547 18.7335 16.5875 18.4133 16.8716V14.8852C18.419 13.7863 21.3295 12.5635 25.5052 12.5635C29.6808 12.5635 32.5914 13.7863 32.5914 14.8852L32.5857 16.8716Z" fill="#00552A"/>
<path d="M22.7896 37.2511C22.6995 37.3441 22.6318 37.3976 22.6234 37.4061C22.564 37.4505 22.5244 37.5165 22.5134 37.5898C22.5023 37.6631 22.5206 37.7378 22.5642 37.7977C22.5902 37.8332 22.6241 37.8622 22.6632 37.8823C22.7023 37.9023 22.7456 37.9129 22.7896 37.9133C22.8493 37.9135 22.9075 37.8947 22.9559 37.8597C23.2796 37.5825 23.5394 37.2385 23.7176 36.8514C23.8957 36.4642 23.988 36.0431 23.988 35.6169C23.988 35.1908 23.8957 34.7696 23.7176 34.3825C23.5394 33.9953 23.2796 33.6514 22.9559 33.3741C22.8951 33.3275 22.8385 33.2757 22.7868 33.2192C22.3771 32.7736 22.1498 32.1903 22.1498 31.585C22.1498 30.9797 22.3771 30.3964 22.7868 29.9508C22.8389 29.8957 22.8944 29.8439 22.953 29.7958C23.0129 29.7519 23.053 29.6861 23.0646 29.6128C23.0762 29.5394 23.0584 29.4645 23.015 29.4042C22.9932 29.3742 22.9657 29.3487 22.9341 29.3293C22.9025 29.31 22.8673 29.297 22.8307 29.2913C22.794 29.2855 22.7566 29.287 22.7205 29.2958C22.6845 29.3045 22.6505 29.3203 22.6206 29.3422C22.2964 29.6191 22.0362 29.9631 21.8578 30.3502C21.6793 30.7374 21.5869 31.1587 21.5869 31.585C21.5869 32.0113 21.6793 32.4326 21.8578 32.8198C22.0362 33.2069 22.2964 33.5508 22.6206 33.8278C22.6796 33.8754 22.7352 33.9272 22.7868 33.9827C23.1965 34.4284 23.4238 35.0116 23.4238 35.6169C23.4238 36.2223 23.1965 36.8055 22.7868 37.2511H22.7896Z" fill="#00552A"/>
<path d="M25.5055 29.9508C25.5576 29.8956 25.6131 29.8439 25.6718 29.7958C25.7042 29.775 25.732 29.7478 25.7535 29.7159C25.7749 29.684 25.7897 29.648 25.7967 29.6102C25.8037 29.5724 25.803 29.5335 25.7944 29.496C25.7858 29.4585 25.7697 29.4231 25.747 29.3921C25.7242 29.361 25.6953 29.335 25.6621 29.3155C25.6289 29.2961 25.5921 29.2836 25.5539 29.2789C25.5157 29.2743 25.477 29.2775 25.4401 29.2883C25.4032 29.2992 25.3689 29.3175 25.3393 29.3422C25.0152 29.6191 24.755 29.963 24.5765 30.3502C24.3981 30.7374 24.3057 31.1586 24.3057 31.585C24.3057 32.0113 24.3981 32.4325 24.5765 32.8197C24.755 33.2069 25.0152 33.5508 25.3393 33.8277C25.3982 33.8735 25.4537 33.9234 25.5055 33.9771C25.9152 34.4227 26.1426 35.0059 26.1426 35.6113C26.1426 36.2166 25.9152 36.7998 25.5055 37.2455C25.4154 37.3384 25.3478 37.392 25.3393 37.4004C25.2842 37.4463 25.2487 37.5115 25.24 37.5826C25.2313 37.6538 25.2501 37.7256 25.2924 37.7834C25.3348 37.8412 25.3976 37.8807 25.4681 37.8939C25.5386 37.907 25.6114 37.8927 25.6718 37.8541C25.9959 37.5771 26.2561 37.2332 26.4346 36.846C26.613 36.4588 26.7054 36.0376 26.7054 35.6113C26.7054 35.1849 26.613 34.7637 26.4346 34.3765C26.2561 33.9893 25.9959 33.6454 25.6718 33.3685C25.6123 33.3214 25.5567 33.2696 25.5055 33.2135C25.0959 32.7679 24.8685 32.1846 24.8685 31.5793C24.8685 30.974 25.0959 30.3908 25.5055 29.9451V29.9508Z" fill="#00552A"/>
<path d="M28.2223 37.2511C28.1696 37.3066 28.1131 37.3583 28.0533 37.4061C28.006 37.4416 27.971 37.491 27.9534 37.5475C27.9358 37.6039 27.9363 37.6645 27.955 37.7206C27.9737 37.7767 28.0096 37.8255 28.0576 37.8601C28.1056 37.8946 28.1632 37.9132 28.2223 37.9132C28.282 37.9134 28.3402 37.8947 28.3886 37.8597C28.7127 37.5828 28.9729 37.2389 29.1514 36.8517C29.3298 36.4645 29.4222 36.0432 29.4222 35.6169C29.4222 35.1906 29.3298 34.7693 29.1514 34.3822C28.9729 33.995 28.7127 33.6511 28.3886 33.3741C28.3291 33.327 28.2735 33.2752 28.2223 33.2192C27.8127 32.7735 27.5853 32.1903 27.5853 31.585C27.5853 30.9796 27.8127 30.3964 28.2223 29.9508C28.2744 29.8956 28.3299 29.8439 28.3886 29.7958C28.4437 29.7499 28.4792 29.6848 28.4879 29.6136C28.4966 29.5424 28.4778 29.4706 28.4355 29.4128C28.3931 29.355 28.3302 29.3155 28.2598 29.3024C28.1893 29.2892 28.1165 29.3035 28.0561 29.3422C27.732 29.6191 27.4717 29.963 27.2933 30.3502C27.1149 30.7374 27.0225 31.1586 27.0225 31.585C27.0225 32.0113 27.1149 32.4325 27.2933 32.8197C27.4717 33.2069 27.732 33.5508 28.0561 33.8278C28.1152 33.8754 28.1707 33.9271 28.2223 33.9827C28.632 34.4284 28.8594 35.0116 28.8594 35.6169C28.8594 36.2222 28.632 36.8055 28.2223 37.2511Z" fill="#00552A"/>
<path d="M17.912 30.4241C17.9366 30.4667 17.9719 30.5021 18.0144 30.5268C18.0569 30.5516 18.1052 30.5647 18.1543 30.565C18.2048 30.5642 18.2542 30.5506 18.298 30.5256L19.5096 29.8099C19.5416 29.7913 19.5697 29.7665 19.5921 29.737C19.6146 29.7075 19.631 29.6738 19.6404 29.638C19.6499 29.6021 19.6521 29.5647 19.6471 29.528C19.642 29.4913 19.6298 29.4559 19.611 29.4239C19.5729 29.3596 19.5108 29.3132 19.4384 29.2947C19.366 29.2762 19.2893 29.2872 19.225 29.3253L18.0106 30.0325C17.9781 30.0514 17.9496 30.0766 17.9269 30.1066C17.9043 30.1367 17.8878 30.171 17.8786 30.2075C17.8695 30.244 17.8677 30.282 17.8734 30.3192C17.8791 30.3564 17.8923 30.3921 17.912 30.4241Z" fill="#00552A"/>
<path d="M20.3389 28.9956C20.377 29.0598 20.4391 29.1063 20.5115 29.1248C20.5839 29.1433 20.6606 29.1323 20.7249 29.0942L21.9393 28.3785C22.0035 28.3404 22.05 28.2783 22.0685 28.2059C22.087 28.1335 22.076 28.0568 22.0379 27.9925C21.9998 27.9282 21.9377 27.8818 21.8653 27.8633C21.7929 27.8448 21.7161 27.8558 21.6519 27.8939L20.4347 28.6236C20.3746 28.662 20.3314 28.7217 20.3136 28.7907C20.2958 28.8598 20.3049 28.9329 20.3389 28.9956Z" fill="#00552A"/>
<path d="M24.0799 26.4626L22.8655 27.1782C22.8013 27.2164 22.7548 27.2784 22.7363 27.3508C22.7178 27.4232 22.7288 27.5 22.7669 27.5643C22.7919 27.6063 22.8273 27.6412 22.8698 27.6654C22.9123 27.6896 22.9603 27.7023 23.0092 27.7023C23.0598 27.7023 23.1094 27.6887 23.1529 27.6629L24.3786 26.9472C24.4145 26.931 24.4466 26.9074 24.4729 26.8779C24.4991 26.8485 24.5189 26.8139 24.5309 26.7764C24.5429 26.7388 24.5469 26.6992 24.5426 26.66C24.5384 26.6208 24.5259 26.5829 24.5061 26.5488C24.4863 26.5147 24.4596 26.4852 24.4276 26.4621C24.3957 26.439 24.3592 26.4229 24.3206 26.4147C24.2821 26.4066 24.2422 26.4067 24.2037 26.4149C24.1651 26.4232 24.1287 26.4394 24.0968 26.4626H24.0799Z" fill="#00552A"/>
<path d="M13.283 27.9165C13.3118 27.9174 13.3405 27.9126 13.3675 27.9024L14.7115 27.4798C14.7823 27.4572 14.8413 27.4074 14.8756 27.3414C14.9099 27.2755 14.9168 27.1986 14.8947 27.1276C14.8846 27.0915 14.8675 27.0578 14.8442 27.0284C14.821 26.999 14.7922 26.9746 14.7594 26.9565C14.7266 26.9384 14.6905 26.927 14.6533 26.923C14.616 26.919 14.5783 26.9225 14.5425 26.9332L13.1985 27.3671C13.1271 27.3892 13.0675 27.4387 13.0326 27.5047C12.9977 27.5708 12.9905 27.6479 13.0125 27.7193C13.0306 27.7768 13.0666 27.827 13.1153 27.8624C13.164 27.8979 13.2228 27.9169 13.283 27.9165Z" fill="#00552A"/>
<path d="M17.2272 26.0879L15.8832 26.5105C15.8478 26.5217 15.815 26.5398 15.7866 26.5637C15.7583 26.5877 15.7349 26.617 15.7179 26.6499C15.7009 26.6829 15.6905 26.719 15.6875 26.756C15.6844 26.793 15.6887 26.8302 15.7001 26.8655C15.7187 26.9249 15.7564 26.9764 15.8074 27.0121C15.8584 27.0478 15.9197 27.0656 15.9819 27.0628C16.0105 27.062 16.039 27.0572 16.0664 27.0487L17.4075 26.626C17.4432 26.6151 17.4763 26.5972 17.505 26.5734C17.5337 26.5496 17.5574 26.5204 17.5747 26.4874C17.592 26.4543 17.6025 26.4182 17.6058 26.3811C17.609 26.3439 17.6048 26.3065 17.5935 26.271C17.5824 26.2343 17.5639 26.2003 17.5392 26.171C17.5145 26.1417 17.4841 26.1177 17.4498 26.1005C17.4155 26.0834 17.3781 26.0734 17.3398 26.0713C17.3015 26.0691 17.2632 26.0747 17.2272 26.0879Z" fill="#00552A"/>
<path d="M18.6564 26.223C18.6843 26.2284 18.713 26.2284 18.7409 26.223L20.0849 25.8004C20.1563 25.7783 20.2159 25.7288 20.2508 25.6628C20.2857 25.5967 20.2929 25.5196 20.2709 25.4482C20.2621 25.4108 20.2458 25.3756 20.2229 25.3447C20.2 25.3138 20.171 25.2879 20.1378 25.2687C20.1045 25.2494 20.0677 25.2371 20.0295 25.2327C19.9914 25.2282 19.9527 25.2315 19.9159 25.2425L18.5719 25.668C18.5011 25.6906 18.4421 25.7404 18.4078 25.8063C18.3734 25.8723 18.3666 25.9492 18.3887 26.0202C18.4057 26.0782 18.4408 26.1293 18.489 26.1658C18.5372 26.2024 18.5959 26.2224 18.6564 26.223Z" fill="#00552A"/>
<path d="M22.6032 24.3974L21.2592 24.8201C21.2238 24.8313 21.191 24.8493 21.1626 24.8733C21.1342 24.8972 21.1109 24.9265 21.0939 24.9595C21.0768 24.9925 21.0665 25.0285 21.0635 25.0655C21.0604 25.1025 21.0647 25.1397 21.0761 25.1751C21.094 25.2321 21.1296 25.2819 21.1777 25.3174C21.2258 25.3528 21.284 25.3721 21.3437 25.3723C21.3718 25.3765 21.4003 25.3765 21.4283 25.3723L22.7723 24.9497C22.8455 24.9272 22.9068 24.8766 22.9427 24.809C22.9787 24.7414 22.9863 24.6622 22.9638 24.589C22.9414 24.5158 22.8908 24.4544 22.8232 24.4185C22.7556 24.3826 22.6764 24.375 22.6032 24.3974Z" fill="#00552A"/>
<path d="M33.0736 30.4241C33.0934 30.3921 33.1065 30.3564 33.1122 30.3192C33.1179 30.282 33.1162 30.244 33.107 30.2075C33.0978 30.171 33.0814 30.1367 33.0587 30.1066C33.036 30.0766 33.0076 30.0514 32.975 30.0325L31.7606 29.3253C31.6963 29.2872 31.6196 29.2762 31.5472 29.2947C31.4748 29.3132 31.4127 29.3596 31.3746 29.4239C31.3559 29.4559 31.3436 29.4913 31.3386 29.528C31.3335 29.5647 31.3358 29.6021 31.3452 29.638C31.3546 29.6738 31.371 29.7075 31.3935 29.737C31.4159 29.7665 31.444 29.7913 31.476 29.8099L32.6876 30.5256C32.7314 30.5506 32.7808 30.5642 32.8313 30.565C32.8805 30.5647 32.9287 30.5516 32.9712 30.5268C33.0137 30.5021 33.049 30.4667 33.0736 30.4241Z" fill="#00552A"/>
<path d="M26.5203 26.5612C26.502 26.5939 26.4904 26.6299 26.4862 26.6671C26.4819 26.7043 26.4852 26.742 26.4957 26.7779C26.5062 26.8138 26.5237 26.8473 26.5473 26.8764C26.5709 26.9055 26.6 26.9296 26.633 26.9472L27.8446 27.6629C27.8881 27.6887 27.9377 27.7023 27.9883 27.7024C28.0372 27.7024 28.0852 27.6896 28.1277 27.6654C28.1702 27.6412 28.2056 27.6064 28.2306 27.5643C28.2687 27.5 28.2797 27.4233 28.2612 27.3509C28.2427 27.2785 28.1962 27.2164 28.132 27.1783L26.9148 26.4626C26.8826 26.4424 26.8467 26.4289 26.8092 26.4229C26.7717 26.417 26.7334 26.4186 26.6965 26.4278C26.6597 26.4371 26.6251 26.4536 26.5948 26.4765C26.5645 26.4995 26.5392 26.5283 26.5203 26.5612Z" fill="#00552A"/>
<path d="M30.4024 29.1337C30.4518 29.1342 30.5004 29.1217 30.5435 29.0974C30.5865 29.0732 30.6224 29.0381 30.6476 28.9956C30.6811 28.9323 30.6892 28.8587 30.6704 28.7896C30.6516 28.7205 30.6071 28.6612 30.5461 28.6237L29.3346 27.908C29.2703 27.8699 29.1935 27.8589 29.1212 27.8774C29.0488 27.8959 28.9867 27.9424 28.9486 28.0067C28.9105 28.0709 28.8995 28.1477 28.9179 28.2201C28.9364 28.2925 28.9829 28.3545 29.0472 28.3927L30.2616 29.1083C30.3055 29.1288 30.3541 29.1375 30.4024 29.1337Z" fill="#00552A"/>
<path d="M32.2459 26.2089C32.2739 26.2143 32.3026 26.2143 32.3305 26.2089C32.3926 26.2118 32.454 26.194 32.5049 26.1583C32.5559 26.1226 32.5936 26.0711 32.6122 26.0117C32.6344 25.9407 32.6275 25.8638 32.5932 25.7979C32.5589 25.7319 32.4999 25.6822 32.4291 25.6595L31.071 25.2425C30.9996 25.2205 30.9225 25.2277 30.8564 25.2626C30.7904 25.2974 30.7409 25.3571 30.7188 25.4285C30.6967 25.4994 30.7035 25.5763 30.7378 25.6423C30.7721 25.7083 30.8311 25.758 30.902 25.7806L32.2459 26.2089Z" fill="#00552A"/>
<path d="M37.6208 27.9022C37.6478 27.9124 37.6765 27.9172 37.7054 27.9163C37.7675 27.9192 37.8289 27.9014 37.8798 27.8657C37.9308 27.83 37.9685 27.7785 37.9871 27.7191C38.0091 27.6477 38.0019 27.5706 37.967 27.5045C37.9322 27.4385 37.8725 27.389 37.8012 27.3669L36.4459 26.933C36.4104 26.9217 36.373 26.9175 36.3358 26.9207C36.2987 26.924 36.2626 26.9345 36.2296 26.9518C36.1965 26.9691 36.1673 26.9928 36.1435 27.0215C36.1197 27.0502 36.1018 27.0833 36.0909 27.119C36.0688 27.1899 36.0756 27.2668 36.1099 27.3328C36.1442 27.3988 36.2032 27.4485 36.274 27.4712L37.6208 27.9022Z" fill="#00552A"/>
<path d="M33.3952 26.2795C33.3838 26.315 33.3797 26.3524 33.3829 26.3895C33.3861 26.4267 33.3967 26.4628 33.414 26.4958C33.4313 26.5288 33.455 26.5581 33.4837 26.5819C33.5123 26.6057 33.5455 26.6236 33.5811 26.6345L34.9251 27.0571C34.9524 27.0661 34.9809 27.0709 35.0096 27.0712C35.0694 27.071 35.1275 27.0518 35.1757 27.0163C35.2238 26.9808 35.2594 26.931 35.2773 26.874C35.2887 26.8387 35.293 26.8014 35.2899 26.7644C35.2869 26.7274 35.2765 26.6914 35.2595 26.6584C35.2425 26.6254 35.2191 26.5961 35.1907 26.5722C35.1624 26.5483 35.1295 26.5302 35.0942 26.519L33.7586 26.0879C33.7222 26.0753 33.6836 26.0704 33.6452 26.0733C33.6069 26.0763 33.5695 26.0871 33.5354 26.105C33.5014 26.123 33.4713 26.1477 33.4472 26.1777C33.4231 26.2077 33.4054 26.2424 33.3952 26.2795Z" fill="#00552A"/>
<path d="M29.7318 24.8255L28.3822 24.3972C28.3108 24.3748 28.2335 24.3817 28.1672 24.4163C28.1009 24.4509 28.051 24.5104 28.0286 24.5818C28.0062 24.6532 28.013 24.7305 28.0476 24.7968C28.0822 24.8631 28.1418 24.913 28.2131 24.9354L29.5571 25.358C29.5851 25.3623 29.6136 25.3623 29.6416 25.358C29.7014 25.3578 29.7596 25.3386 29.8077 25.3031C29.8558 25.2677 29.8914 25.2178 29.9093 25.1608C29.9268 25.0928 29.9183 25.0208 29.8855 24.9588C29.8526 24.8968 29.7978 24.8493 29.7318 24.8255Z" fill="#00552A"/>
<rect x="0.75" y="0.25" width="49.5" height="49.5" rx="4.75" stroke="#00552A" stroke-width="0.5"/>
</svg>
