<svg width="51" height="50" viewBox="0 0 51 50" fill="none" xmlns="http://www.w3.org/2000/svg">
<path d="M37.6094 25.0264H37.0012C37.1359 24.7955 37.2188 24.5311 37.2188 24.2451C37.2188 23.4396 36.6039 22.7826 35.8203 22.699C35.9609 22.4646 36.0469 22.1939 36.0469 21.9014C36.0469 21.0396 35.3461 20.3389 34.4844 20.3389C33.6227 20.3389 32.9219 21.0396 32.9219 21.9014C32.9219 22.1939 33.0078 22.4646 33.1484 22.699C32.3648 22.7826 31.75 23.4396 31.75 24.2451C31.75 24.5311 31.8328 24.7955 31.9676 25.0264H29.0156V24.6357C29.0156 23.9896 28.4898 23.4639 27.8438 23.4639H23.1562C22.5102 23.4639 21.9844 23.9896 21.9844 24.6357V25.0264H19.0324C19.1672 24.7955 19.25 24.5311 19.25 24.2451C19.25 23.4396 18.6352 22.7826 17.8516 22.699C17.9922 22.4646 18.0781 22.1939 18.0781 21.9014C18.0781 21.0396 17.3773 20.3389 16.5156 20.3389C15.6539 20.3389 14.9531 21.0396 14.9531 21.9014C14.9531 22.1939 15.0391 22.4646 15.1797 22.699C14.3961 22.7826 13.7812 23.4396 13.7812 24.2451C13.7812 24.5311 13.8641 24.7955 13.9988 25.0264H13.3906C13.175 25.0264 13 25.2014 13 25.417V32.4482C13 32.6639 13.175 32.8389 13.3906 32.8389H37.6094C37.825 32.8389 38 32.6639 38 32.4482V25.417C38 25.2014 37.825 25.0264 37.6094 25.0264ZM36.4375 24.2451C36.4375 24.676 36.0871 25.0264 35.6562 25.0264C35.2254 25.0264 34.875 24.676 34.875 24.2451C34.875 23.8143 35.2254 23.4639 35.6562 23.4639C36.0871 23.4639 36.4375 23.8143 36.4375 24.2451ZM34.4844 21.1201C34.9152 21.1201 35.2656 21.4705 35.2656 21.9014C35.2656 22.3322 34.9152 22.6826 34.4844 22.6826C34.0535 22.6826 33.7031 22.3322 33.7031 21.9014C33.7031 21.4705 34.0535 21.1201 34.4844 21.1201ZM32.5312 24.2451C32.5312 23.8143 32.8816 23.4639 33.3125 23.4639C33.7434 23.4639 34.0938 23.8143 34.0938 24.2451C34.0938 24.676 33.7434 25.0264 33.3125 25.0264C32.8816 25.0264 32.5312 24.676 32.5312 24.2451ZM31.3594 25.8076V26.4775C31.2594 26.5381 31.1309 26.5889 30.9688 26.5889C30.7262 26.5889 30.5523 26.4779 30.4488 26.385C30.3 26.251 30.0746 26.251 29.9258 26.385C29.8227 26.4779 29.6488 26.5889 29.4059 26.5889C29.1633 26.5889 28.9895 26.4779 28.8859 26.385C28.7371 26.251 28.5117 26.251 28.3629 26.385C28.2598 26.4779 28.0859 26.5889 27.843 26.5889C27.6004 26.5889 27.4266 26.4779 27.323 26.385C27.1742 26.251 26.9488 26.251 26.8 26.385C26.6969 26.4779 26.523 26.5889 26.2801 26.5889C26.0375 26.5889 25.8637 26.4779 25.7602 26.385C25.6113 26.251 25.3859 26.251 25.2371 26.385C25.134 26.4779 24.9602 26.5889 24.7172 26.5889C24.4746 26.5889 24.3008 26.4779 24.1973 26.385C24.0484 26.251 23.823 26.251 23.6742 26.385C23.5711 26.4779 23.3973 26.5889 23.1543 26.5889C22.9117 26.5889 22.7379 26.4779 22.6344 26.385C22.4855 26.251 22.2602 26.251 22.1113 26.385C22.0082 26.4779 21.8344 26.5889 21.5914 26.5889C21.3488 26.5889 21.175 26.4779 21.0715 26.385C20.9227 26.251 20.6973 26.251 20.5484 26.385C20.4453 26.4779 20.2715 26.5889 20.0285 26.5889C19.8664 26.5889 19.7379 26.5385 19.6379 26.4775V25.8076H31.3594ZM25.8906 25.0264V24.2451H26.6719V25.0264H25.8906ZM25.1094 25.0264H24.3281V24.2451H25.1094V25.0264ZM19.6406 27.3193C20.0305 27.4217 20.4609 27.3623 20.8125 27.1568C21.2867 27.4346 21.9008 27.4346 22.375 27.1568C22.8492 27.4346 23.4633 27.4346 23.9375 27.1568C24.4117 27.4346 25.0258 27.4346 25.5 27.1568C25.9742 27.4346 26.5883 27.4346 27.0625 27.1568C27.5367 27.4346 28.1508 27.4346 28.625 27.1568C29.0992 27.4346 29.7133 27.4346 30.1875 27.1568C30.5383 27.3623 30.9688 27.4217 31.3594 27.3193V28.4307C31.2594 28.4912 31.1309 28.542 30.9688 28.542C30.7262 28.542 30.5523 28.4311 30.4488 28.3381C30.3 28.2041 30.0746 28.2041 29.9258 28.3381C29.8227 28.4311 29.6488 28.542 29.4059 28.542C29.1633 28.542 28.9895 28.4311 28.8859 28.3381C28.7371 28.2041 28.5117 28.2041 28.3629 28.3381C28.2598 28.4311 28.0859 28.542 27.843 28.542C27.6004 28.542 27.4266 28.4311 27.323 28.3381C27.1742 28.2041 26.9488 28.2041 26.8 28.3381C26.6969 28.4311 26.523 28.542 26.2801 28.542C26.0375 28.542 25.8637 28.4311 25.7602 28.3381C25.6113 28.2041 25.3859 28.2041 25.2371 28.3381C25.134 28.4311 24.9602 28.542 24.7172 28.542C24.4746 28.542 24.3008 28.4311 24.1973 28.3381C24.0484 28.2041 23.823 28.2041 23.6742 28.3381C23.5711 28.4311 23.3973 28.542 23.1543 28.542C22.9117 28.542 22.7379 28.4311 22.6344 28.3381C22.4855 28.2041 22.2602 28.2041 22.1113 28.3381C22.0082 28.4311 21.8344 28.542 21.5914 28.542C21.3488 28.542 21.175 28.4311 21.0715 28.3381C20.9227 28.2041 20.6973 28.2041 20.5484 28.3381C20.4453 28.4311 20.2715 28.542 20.0285 28.542C19.8664 28.542 19.7379 28.4916 19.6379 28.4307V27.3193H19.6406ZM19.6406 29.2646C20.0328 29.365 20.4598 29.3166 20.8125 29.11C21.2867 29.3877 21.9008 29.3877 22.375 29.11C22.8492 29.3877 23.4633 29.3877 23.9375 29.11C24.4117 29.3877 25.0258 29.3877 25.5 29.11C25.9742 29.3877 26.5883 29.3877 27.0625 29.11C27.5367 29.3877 28.1508 29.3877 28.625 29.11C29.0992 29.3877 29.7133 29.3877 30.1875 29.11C30.4246 29.2486 30.6934 29.3232 30.9688 29.3232C31.102 29.3232 31.232 29.2998 31.3594 29.2662V30.3838C31.2594 30.4443 31.1309 30.4951 30.9688 30.4951C30.7262 30.4951 30.5523 30.3842 30.4488 30.2912C30.3 30.1572 30.0746 30.1572 29.9258 30.2912C29.8227 30.3842 29.6488 30.4951 29.4059 30.4951C29.1633 30.4951 28.9895 30.3842 28.8859 30.2912C28.7371 30.1572 28.5117 30.1572 28.3629 30.2912C28.2598 30.3842 28.0859 30.4951 27.843 30.4951C27.6004 30.4951 27.4266 30.3842 27.323 30.2912C27.1742 30.1572 26.9488 30.1572 26.8 30.2912C26.6969 30.3842 26.523 30.4951 26.2801 30.4951C26.0375 30.4951 25.8637 30.3842 25.7602 30.2912C25.6113 30.1572 25.3859 30.1572 25.2371 30.2912C25.134 30.3842 24.9602 30.4951 24.7172 30.4951C24.4746 30.4951 24.3008 30.3842 24.1973 30.2912C24.0484 30.1572 23.823 30.1572 23.6742 30.2912C23.5711 30.3842 23.3973 30.4951 23.1543 30.4951C22.9117 30.4951 22.7379 30.3842 22.6344 30.2912C22.4855 30.1572 22.2602 30.1572 22.1113 30.2912C22.0082 30.3842 21.8344 30.4951 21.5914 30.4951C21.3488 30.4951 21.175 30.3842 21.0715 30.2912C20.9227 30.1572 20.6973 30.1572 20.5484 30.2912C20.4453 30.3842 20.2715 30.4951 20.0285 30.4951C19.8664 30.4951 19.7379 30.4447 19.6379 30.3838V29.2646H19.6406ZM28.2344 24.6357V25.0264H27.4531V24.2451H27.8438C28.059 24.2451 28.2344 24.4201 28.2344 24.6357ZM22.7656 24.6357C22.7656 24.4205 22.941 24.2451 23.1562 24.2451H23.5469V25.0264H22.7656V24.6357ZM18.4688 24.2451C18.4688 24.676 18.1184 25.0264 17.6875 25.0264C17.2566 25.0264 16.9062 24.676 16.9062 24.2451C16.9062 23.8143 17.2566 23.4639 17.6875 23.4639C18.1184 23.4639 18.4688 23.8143 18.4688 24.2451ZM16.5156 21.1201C16.9465 21.1201 17.2969 21.4705 17.2969 21.9014C17.2969 22.3322 16.9465 22.6826 16.5156 22.6826C16.0848 22.6826 15.7344 22.3322 15.7344 21.9014C15.7344 21.4705 16.0848 21.1201 16.5156 21.1201ZM14.5625 24.2451C14.5625 23.8143 14.9129 23.4639 15.3438 23.4639C15.7746 23.4639 16.125 23.8143 16.125 24.2451C16.125 24.676 15.7746 25.0264 15.3438 25.0264C14.9129 25.0264 14.5625 24.676 14.5625 24.2451ZM13.7812 25.8076H18.8594V26.6752V32.0576H13.7812V25.8076ZM19.6406 31.2178C20.0328 31.3182 20.4598 31.2697 20.8125 31.0631C21.2867 31.3408 21.9008 31.3408 22.375 31.0631C22.8492 31.3408 23.4633 31.3408 23.9375 31.0631C24.4117 31.3408 25.0258 31.3408 25.5 31.0631C25.9742 31.3408 26.5883 31.3408 27.0625 31.0631C27.5367 31.3408 28.1508 31.3408 28.625 31.0631C29.0992 31.3408 29.7133 31.3408 30.1875 31.0631C30.4246 31.2018 30.6934 31.2764 30.9688 31.2764C31.102 31.2764 31.232 31.2529 31.3594 31.2193V32.0576H19.6406V31.2178ZM37.2188 32.0576H32.1406V26.6752V25.8076H37.2188V32.0576Z" fill="#00552A"/>
<path d="M16.5156 22.292C16.6172 22.292 16.7188 22.249 16.793 22.1787C16.8633 22.1045 16.9062 22.0029 16.9062 21.9014C16.9062 21.7998 16.8633 21.6982 16.793 21.624C16.6445 21.4795 16.3828 21.4795 16.2383 21.624C16.168 21.6982 16.125 21.7994 16.125 21.9014C16.125 22.0068 16.168 22.1045 16.2383 22.1787C16.3125 22.2486 16.4102 22.292 16.5156 22.292Z" fill="#00552A"/>
<path d="M15.0664 23.9678C14.9961 24.042 14.9531 24.1432 14.9531 24.2451C14.9531 24.3467 14.9961 24.4482 15.0664 24.5225C15.1406 24.5928 15.2422 24.6357 15.3438 24.6357C15.4453 24.6357 15.5469 24.5928 15.6211 24.5225C15.6914 24.4482 15.7344 24.3467 15.7344 24.2451C15.7344 24.1436 15.6914 24.042 15.6211 23.9678C15.4727 23.8232 15.2148 23.8232 15.0664 23.9678Z" fill="#00552A"/>
<path d="M17.4102 23.9678C17.3398 24.042 17.2969 24.1436 17.2969 24.2451C17.2969 24.3467 17.3398 24.4482 17.4102 24.5225C17.4844 24.5928 17.5859 24.6357 17.6875 24.6357C17.7891 24.6357 17.8906 24.5928 17.9648 24.5225C18.0352 24.4482 18.0781 24.3506 18.0781 24.2451C18.0781 24.1396 18.0352 24.042 17.9648 23.9678C17.8203 23.8232 17.5547 23.8232 17.4102 23.9678Z" fill="#00552A"/>
<path d="M34.4844 22.292C34.5859 22.292 34.6875 22.249 34.7617 22.1787C34.832 22.1045 34.875 22.0029 34.875 21.9014C34.875 21.7998 34.832 21.6982 34.7617 21.624C34.6133 21.4795 34.3516 21.4795 34.207 21.624C34.1367 21.6982 34.0938 21.7998 34.0938 21.9014C34.0938 22.0029 34.1367 22.1045 34.207 22.1787C34.2813 22.2486 34.3828 22.292 34.4844 22.292Z" fill="#00552A"/>
<path d="M33.0352 23.9678C32.9648 24.042 32.9219 24.1436 32.9219 24.2451C32.9219 24.3467 32.9648 24.4482 33.0352 24.5225C33.1094 24.5928 33.2109 24.6357 33.3125 24.6357C33.4141 24.6357 33.5156 24.5928 33.5898 24.5225C33.6602 24.4482 33.7031 24.3467 33.7031 24.2451C33.7031 24.1436 33.6602 24.042 33.5898 23.9678C33.4414 23.8232 33.1797 23.8232 33.0352 23.9678Z" fill="#00552A"/>
<path d="M35.2656 24.2451C35.2656 24.3467 35.3086 24.4482 35.3789 24.5225C35.4531 24.5928 35.5547 24.6357 35.6562 24.6357C35.7578 24.6357 35.8594 24.5928 35.9336 24.5225C36.0039 24.4482 36.0469 24.3467 36.0469 24.2451C36.0469 24.1436 36.0039 24.042 35.9336 23.9678C35.7891 23.8232 35.5273 23.8232 35.3789 23.9678C35.3086 24.042 35.2656 24.1432 35.2656 24.2451Z" fill="#00552A"/>
<path d="M25.5 22.6826C25.7156 22.6826 25.8906 22.5076 25.8906 22.292V19.5576C25.8906 19.342 25.7156 19.167 25.5 19.167C25.2844 19.167 25.1094 19.342 25.1094 19.5576V22.292C25.1094 22.5076 25.2844 22.6826 25.5 22.6826Z" fill="#00552A"/>
<path d="M23.1562 22.292C23.3719 22.292 23.5469 22.117 23.5469 21.9014V21.1201C23.5469 20.9045 23.3719 20.7295 23.1562 20.7295C22.9406 20.7295 22.7656 20.9045 22.7656 21.1201V21.9014C22.7656 22.117 22.9406 22.292 23.1562 22.292Z" fill="#00552A"/>
<path d="M30.1875 23.8545C30.4031 23.8545 30.5781 23.6795 30.5781 23.4639V20.7295C30.5781 20.5139 30.4031 20.3389 30.1875 20.3389C29.9719 20.3389 29.7969 20.5139 29.7969 20.7295V23.4639C29.7969 23.6795 29.9719 23.8545 30.1875 23.8545Z" fill="#00552A"/>
<path d="M27.8438 22.292C28.0594 22.292 28.2344 22.117 28.2344 21.9014V21.1201C28.2344 20.9045 28.0594 20.7295 27.8438 20.7295C27.6281 20.7295 27.4531 20.9045 27.4531 21.1201V21.9014C27.4531 22.117 27.6281 22.292 27.8438 22.292Z" fill="#00552A"/>
<path d="M20.8125 23.8545C21.0281 23.8545 21.2031 23.6795 21.2031 23.4639V20.7295C21.2031 20.5139 21.0281 20.3389 20.8125 20.3389C20.5969 20.3389 20.4219 20.5139 20.4219 20.7295V23.4639C20.4219 23.6795 20.5969 23.8545 20.8125 23.8545Z" fill="#00552A"/>
<path d="M20.8125 19.9482C20.918 19.9482 21.0156 19.9053 21.0898 19.835C21.1602 19.7607 21.2031 19.6592 21.2031 19.5576C21.2031 19.4561 21.1602 19.3545 21.0898 19.2803C20.9453 19.1357 20.6797 19.1357 20.5352 19.2803C20.4648 19.3545 20.4219 19.4561 20.4219 19.5576C20.4219 19.6631 20.4648 19.7607 20.5352 19.835C20.6094 19.9049 20.7109 19.9482 20.8125 19.9482Z" fill="#00552A"/>
<path d="M23.1562 20.3389C23.2578 20.3389 23.3594 20.2959 23.4336 20.2256C23.5039 20.1514 23.5469 20.0498 23.5469 19.9482C23.5469 19.8467 23.5039 19.7451 23.4336 19.6709C23.2891 19.5264 23.0234 19.5264 22.8789 19.6709C22.8086 19.7451 22.7656 19.8428 22.7656 19.9482C22.7656 20.0498 22.8086 20.1514 22.8789 20.2256C22.9531 20.2955 23.0547 20.3389 23.1562 20.3389Z" fill="#00552A"/>
<path d="M25.5 18.7764C25.6016 18.7764 25.7031 18.7334 25.7773 18.6631C25.8477 18.5889 25.8906 18.4873 25.8906 18.3857C25.8906 18.2842 25.8477 18.1826 25.7773 18.1084C25.6328 17.9639 25.3711 17.9639 25.2227 18.1084C25.1523 18.1826 25.1094 18.2842 25.1094 18.3857C25.1094 18.4873 25.1523 18.5889 25.2227 18.6631C25.2969 18.733 25.3984 18.7764 25.5 18.7764Z" fill="#00552A"/>
<path d="M27.8438 20.3389C27.9453 20.3389 28.0469 20.2959 28.1211 20.2256C28.1914 20.1514 28.2344 20.0498 28.2344 19.9482C28.2344 19.8467 28.1914 19.7451 28.1211 19.6709C27.9766 19.5264 27.7148 19.5264 27.5664 19.6709C27.4961 19.7451 27.4531 19.8467 27.4531 19.9482C27.4531 20.0498 27.4961 20.1514 27.5664 20.2256C27.6406 20.2955 27.7422 20.3389 27.8438 20.3389Z" fill="#00552A"/>
<path d="M30.1875 19.9482C30.2891 19.9482 30.3906 19.9053 30.4648 19.835C30.5352 19.7607 30.5781 19.6592 30.5781 19.5576C30.5781 19.4561 30.5352 19.3545 30.4648 19.2803C30.3164 19.1357 30.0547 19.1357 29.9102 19.2803C29.8398 19.3545 29.7969 19.4561 29.7969 19.5576C29.7969 19.6592 29.8398 19.7607 29.9102 19.835C29.9844 19.9049 30.0859 19.9482 30.1875 19.9482Z" fill="#00552A"/>
<rect x="0.75" y="0.25" width="49.5" height="49.5" rx="4.75" stroke="#00552A" stroke-width="0.5"/>
</svg>
