<svg width="51" height="50" viewBox="0 0 51 50" fill="none" xmlns="http://www.w3.org/2000/svg">
<path fill-rule="evenodd" clip-rule="evenodd" d="M19.7007 12.4719L19.7428 20.3063L14.9854 21.9867C14.3303 22.4264 14.7795 23.4335 15.3536 23.3411L19.7039 21.8131V23.993L13.0009 23.9591L13 24.3514L19.879 24.3758L20.643 24.8848C20.6802 24.9368 20.6802 24.9885 20.643 25.0439L14.3642 35.3001C13.7777 36.2636 15.0211 37.1232 15.8597 36.1161L20.6741 28.2283C20.7867 28.17 20.9093 28.131 21.0455 28.1197L25.3519 30.7846L25.3795 35.8989C25.5253 36.6011 26.7728 36.5589 26.9479 35.8972L27.012 30.0496L26.767 29.7514L23.8285 27.766L24.2098 27.1672L38 35.7348V35.321L24.4108 26.8057L26.4075 23.5017C26.7742 23.3588 27.0318 23.4497 27.1308 23.7691C27.1381 24.8203 27.1465 25.8713 27.1535 26.9222C27.1584 27.1542 27.2217 27.3554 27.3262 27.5323L31.2224 30.0885L31.6855 30.079C31.9501 29.8893 32.0439 29.646 32.1153 29.4317C32.0877 29.1268 31.9919 28.8962 31.6277 28.713L33.8376 25.1366C35.0389 25.5016 36.0355 25.1688 36.6032 24.0302C37.3931 22.4456 36.7542 21.7091 36.1044 21.2419C35.0282 20.4648 33.8692 20.7633 33.1012 22.129C32.4376 23.3083 32.7556 24.3316 33.488 24.9336L31.279 28.4792L28.5174 26.7067L28.4881 22.4052L28.2845 21.8813L23.8053 19.0283L23.1389 19.0591L20.1209 20.1588L20.1531 12.4801L19.7007 12.4719ZM34.847 21.1885C35.7486 21.2178 36.5698 21.7919 36.6297 22.7098C36.6898 23.628 35.7051 24.9223 34.7991 24.958C33.8933 24.9952 32.985 24.3999 33.019 23.3896C33.053 22.3808 33.945 21.1577 34.847 21.1885ZM20.1377 21.7045L22.6266 20.8627C22.8488 20.8627 22.852 21.0961 22.7352 21.2974L20.895 24.5398L20.1107 24.0372L20.1377 21.7045ZM34.576 16.4555C35.0578 16.4555 35.4504 16.8481 35.4504 17.3295C35.4504 17.8113 35.0578 18.2039 34.576 18.2039C34.0943 18.2039 33.7017 17.8113 33.7017 17.3295C33.7017 16.8481 34.0943 16.4555 34.576 16.4555ZM27.1067 16.7331C27.9665 16.7331 28.6673 17.4338 28.6673 18.2936C28.6673 19.1531 27.9665 19.8539 27.1067 19.8539C26.2472 19.8539 25.5465 19.1531 25.5465 18.2936C25.5465 17.4338 26.2472 16.7331 27.1067 16.7331Z" fill="#00552A"/>
<rect x="0.75" y="0.25" width="49.5" height="49.5" rx="4.75" stroke="#00552A" stroke-width="0.5"/>
</svg>
