<svg width="51" height="50" viewBox="0 0 51 50" fill="none" xmlns="http://www.w3.org/2000/svg">
<path d="M38 25.7097C37.1206 25.7097 36.6593 25.9476 36.2516 26.1577C36.2395 26.1641 36.2262 26.1698 36.2141 26.1762L35.7129 25.675C35.4786 25.4407 35.1544 25.3065 34.823 25.3065C34.25 25.3065 33.7706 25.694 33.619 26.219C33.5778 26.1984 33.5363 26.179 33.4948 26.1577C33.0875 25.948 32.6262 25.7097 31.7464 25.7097C30.8669 25.7097 30.406 25.948 29.9988 26.1577C29.7323 26.2956 29.4927 26.419 29.129 26.4782V17.2419C29.129 15.2411 27.5012 13.6129 25.5 13.6129H25.0968V13.2097C25.0968 12.5427 24.554 12 23.8871 12H23.0806C22.5556 12 22.1121 12.3383 21.9452 12.8065H13V20.4677H21.9452C22.1121 20.9359 22.5556 21.2742 23.0806 21.2742H23.8871C24.029 21.2742 24.1637 21.2452 24.2903 21.2V25.9097C24.0843 25.9867 23.9081 26.0754 23.7488 26.1577C23.3762 26.35 23.0548 26.5161 22.3714 26.5161C21.6879 26.5161 21.3665 26.35 20.9944 26.1577C20.754 26.0339 20.4847 25.8988 20.1234 25.8097C19.8359 25.0468 19.104 24.5 18.2419 24.5V23.6194C18.7101 23.4524 19.0484 23.0089 19.0484 22.4839C19.0484 21.8169 18.5056 21.2742 17.8387 21.2742H16.2258C15.5589 21.2742 15.0161 21.8169 15.0161 22.4839C15.0161 23.0089 15.3544 23.4524 15.8226 23.6194V24.5C14.954 24.5 14.219 25.0552 13.9359 25.8266C13.6492 25.7496 13.348 25.7097 13 25.7097V26.5161C13.3589 26.5161 13.6089 26.5645 13.8065 26.6262V30.1452H13V30.9516H21.0645V30.1452H20.2581V26.6996C20.3827 26.7516 20.5004 26.8105 20.6242 26.8746C21.0315 27.0843 21.4927 27.3226 22.3714 27.3226C23.25 27.3226 23.7117 27.0843 24.1185 26.8746C24.1758 26.8452 24.2335 26.8185 24.2903 26.7907V31.3548C24.2903 31.5774 24.1097 31.7581 23.8871 31.7581H18.6452C17.9782 31.7581 17.4355 32.3008 17.4355 32.9677C17.4355 33.6347 17.9782 34.1774 18.6452 34.1774H21.0363C21.1714 34.1774 21.2968 34.2444 21.3718 34.3569L21.6996 34.8484C21.9242 35.1859 22.3004 35.3871 22.7056 35.3871H23.4839V34.5806H22.7056C22.5706 34.5806 22.4452 34.5137 22.3702 34.4012L22.0423 33.9097C21.8177 33.5722 21.4415 33.371 21.0363 33.371H18.6452C18.4226 33.371 18.2419 33.1903 18.2419 32.9677C18.2419 32.7452 18.4226 32.5645 18.6452 32.5645H23.8871C24.554 32.5645 25.0968 32.0218 25.0968 31.3548V20.0645V18.8548V14.4194H25.5C27.056 14.4194 28.3226 15.6855 28.3226 17.2419V30.3815L26.544 32.1601L28.1435 33.7742H27.5161V34.5806H34.7742V33.7742H34.1085L34.8883 33.0036C35.3282 32.569 35.5806 31.9649 35.5806 31.3464C35.5806 30.9415 35.4685 30.5573 35.2758 30.2137L35.9972 29.4923C36.2121 29.6504 36.473 29.7419 36.7415 29.7419C37.4355 29.7419 38 29.1774 38 28.4835C38 28.152 37.8657 27.8278 37.6315 27.5935L36.8153 26.7774C37.1185 26.6298 37.4363 26.5161 38 26.5161V25.7097ZM16.2258 22.0806H17.8387C18.0613 22.0806 18.2419 22.2617 18.2419 22.4839C18.2419 22.706 18.0613 22.8871 17.8387 22.8871H16.2258C16.0032 22.8871 15.8226 22.706 15.8226 22.4839C15.8226 22.2617 16.0032 22.0806 16.2258 22.0806ZM16.629 23.6935H17.4355V24.5H16.629V23.6935ZM14.6129 30.1452V26.5161C14.6129 25.8492 15.1556 25.3065 15.8226 25.3065H18.2419C18.9089 25.3065 19.4516 25.8492 19.4516 26.5161V30.1452H14.6129ZM13.8065 13.6129H21.871V19.6613H13.8065V13.6129ZM24.2903 20.0645C24.2903 20.2867 24.1097 20.4677 23.8871 20.4677H23.0806C22.8581 20.4677 22.6774 20.2867 22.6774 20.0645V13.2097C22.6774 12.9875 22.8581 12.8065 23.0806 12.8065H23.8871C24.1097 12.8065 24.2903 12.9875 24.2903 13.2097V18.8548V20.0645ZM29.129 27.2907C29.6923 27.2202 30.0496 27.0391 30.3685 26.8742C30.7411 26.6823 31.0629 26.5161 31.7464 26.5161C32.4302 26.5161 32.752 26.6823 33.125 26.8746C33.3032 26.9665 33.4875 27.0601 33.7101 27.1391C33.7407 27.1984 33.7742 27.2556 33.8137 27.3093L33.0919 28.031C32.7472 27.8379 32.3593 27.7258 31.9431 27.7258C31.3206 27.7258 30.7355 27.9681 30.2956 28.4081L29.129 29.575V27.2907ZM34.3214 32.4298L32.9605 33.7742H29.279L27.6819 32.1625L30.8657 28.9786C31.1536 28.6907 31.5363 28.5323 31.9601 28.5323C32.3673 28.5323 32.7496 28.6907 33.0375 28.9782L34.3282 30.269C34.6157 30.5569 34.7742 30.9395 34.7742 31.3464C34.7742 31.7508 34.6093 32.146 34.3214 32.4298ZM34.7742 29.575L33.7315 28.5323L34.371 27.8927L35.4137 28.9355L34.7742 29.575ZM37.1935 28.4835C37.1935 28.7327 36.9907 28.9355 36.7415 28.9355C36.6226 28.9355 36.506 28.8875 36.4218 28.8032L34.5032 26.8847C34.419 26.8004 34.371 26.6839 34.371 26.5649C34.371 26.3157 34.5738 26.1129 34.823 26.1129C34.9419 26.1129 35.0585 26.1609 35.1427 26.2452L37.0613 28.1637C37.1456 28.248 37.1935 28.3645 37.1935 28.4835Z" fill="#00552A"/>
<path d="M34.873 36.1937C34.1895 36.1937 33.8673 36.0275 33.4944 35.8352C33.0871 35.6255 32.6262 35.3872 31.7464 35.3872C30.8669 35.3872 30.406 35.6255 29.9988 35.8352C29.6262 36.0275 29.3048 36.1937 28.6214 36.1937C27.9379 36.1937 27.6161 36.0275 27.2435 35.8352C26.8363 35.6255 26.3754 35.3872 25.496 35.3872C24.6165 35.3872 24.1556 35.6255 23.7484 35.8352C23.3758 36.0275 23.0548 36.1937 22.3714 36.1937C21.6879 36.1937 21.3665 36.0275 20.9944 35.8352C20.5875 35.6255 20.1266 35.3872 19.2476 35.3872C18.3685 35.3872 17.9073 35.6255 17.5004 35.8352C17.1282 36.0275 16.8065 36.1937 16.1238 36.1937C15.4407 36.1937 15.119 36.0275 14.7468 35.8352C14.3399 35.6255 13.879 35.3872 13 35.3872V36.1937C13.6827 36.1937 14.0044 36.3598 14.3766 36.5521C14.7835 36.7618 15.2448 37.0001 16.1238 37.0001C17.0028 37.0001 17.4637 36.7618 17.8706 36.5521C18.2427 36.3598 18.5645 36.1937 19.2476 36.1937C19.9302 36.1937 20.252 36.3598 20.6242 36.5521C21.031 36.7618 21.4927 37.0001 22.3714 37.0001C23.25 37.0001 23.7113 36.7618 24.1185 36.5521C24.4911 36.3598 24.8129 36.1937 25.496 36.1937C26.179 36.1937 26.5008 36.3598 26.8734 36.5521C27.2806 36.7618 27.7423 37.0001 28.6214 37.0001C29.5004 37.0001 29.9617 36.7618 30.369 36.5521C30.7415 36.3598 31.0633 36.1937 31.7464 36.1937C32.4298 36.1937 32.752 36.3598 33.125 36.5521C33.5323 36.7618 33.9931 37.0001 34.873 37.0001C35.7528 37.0001 36.2141 36.7618 36.6214 36.5521C36.9944 36.3598 37.3165 36.1937 38 36.1937V35.3872C37.1206 35.3872 36.6593 35.6251 36.252 35.8352C35.879 36.0275 35.5569 36.1937 34.873 36.1937Z" fill="#00552A"/>
<path d="M26.7098 20.4678H25.9033V23.6936H26.7098V20.4678Z" fill="#00552A"/>
<path d="M27.5164 24.5H26.71V28.129H27.5164V24.5Z" fill="#00552A"/>
<rect x="0.75" y="0.25" width="49.5" height="49.5" rx="4.75" stroke="#00552A" stroke-width="0.5"/>
</svg>
