<svg width="51" height="50" viewBox="0 0 51 50" fill="none" xmlns="http://www.w3.org/2000/svg">
<path d="M13.6157 28.4879L14.8265 27.6965C15.1221 27.4972 15.4666 27.3912 15.8187 27.3912C16.1707 27.3912 16.5152 27.4972 16.8108 27.6965C17.2373 27.9784 17.7318 28.1281 18.2367 28.1281C18.7416 28.1281 19.2361 27.9784 19.6625 27.6965C19.9582 27.4974 20.3027 27.3915 20.6547 27.3915C21.0067 27.3915 21.3512 27.4974 21.6469 27.6965C22.0734 27.9784 22.5679 28.1281 23.0728 28.1281C23.5777 28.1281 24.0722 27.9784 24.4986 27.6965C24.7943 27.4974 25.1388 27.3915 25.4908 27.3915C25.8428 27.3915 26.1873 27.4974 26.483 27.6965C26.9094 27.9784 27.4039 28.1281 27.9088 28.1281C28.4137 28.1281 28.9082 27.9784 29.3347 27.6965C29.6304 27.4974 29.9749 27.3915 30.3269 27.3915C30.6789 27.3915 31.0234 27.4974 31.3191 27.6965C31.7455 27.9784 32.24 28.1281 32.7449 28.1281C33.2498 28.1281 33.7443 27.9784 34.1707 27.6965C34.4664 27.4974 34.8109 27.3915 35.1629 27.3915C35.5149 27.3915 35.8594 27.4974 36.1551 27.6965L37.3659 28.4879C37.4574 28.5428 37.5658 28.5585 37.6682 28.5318C37.7706 28.5052 37.8591 28.4382 37.9153 28.345C37.9714 28.2518 37.9907 28.1395 37.9692 28.0317C37.9477 27.924 37.887 27.8291 37.7999 27.767L36.5891 26.9755C36.1625 26.6937 35.6679 26.544 35.1629 26.544C34.6579 26.544 34.1633 26.6937 33.7368 26.9755C33.4412 27.1746 33.0968 27.2805 32.7449 27.2805C32.393 27.2805 32.0486 27.1746 31.753 26.9755C31.3265 26.6937 30.8319 26.544 30.3269 26.544C29.8219 26.544 29.3273 26.6937 28.9007 26.9755C28.6051 27.1746 28.2607 27.2805 27.9088 27.2805C27.5569 27.2805 27.2125 27.1746 26.917 26.9755C26.5767 26.7521 26.1928 26.6109 25.7935 26.5622L27.14 25.1003L30.3721 26.1781C30.4344 26.1987 30.5006 26.2033 30.565 26.1918C30.6294 26.1802 30.6902 26.1527 30.7423 26.1117L35.7275 22.2037C35.9026 22.0784 36.0524 21.9183 36.1681 21.7326C36.2839 21.5469 36.3635 21.3393 36.4023 21.1215C36.4411 20.9038 36.4384 20.6802 36.3944 20.4635C36.3503 20.2468 36.2658 20.0413 36.1456 19.8587C36.0254 19.6761 35.8718 19.52 35.6938 19.3993C35.5157 19.2785 35.3165 19.1956 35.1077 19.1551C34.8989 19.1146 34.6845 19.1174 34.4767 19.1634C34.2689 19.2093 34.0718 19.2975 33.8967 19.4228L30.1918 22.1785L27.9009 20.9611C28.6018 20.8371 29.247 20.4846 29.7437 19.9541C30.2404 19.4237 30.5631 18.7427 30.6652 18.009C30.7674 17.2753 30.6439 16.5268 30.3124 15.8709C29.9809 15.215 29.4585 14.6857 28.8203 14.3589C28.1822 14.0321 27.4611 13.9247 26.7607 14.0522C26.0603 14.1797 25.4167 14.5354 24.9224 15.0683C24.4282 15.6012 24.1086 16.2838 24.0098 17.018C23.911 17.7522 24.0379 18.5001 24.3724 19.1543L19.8556 17.7097C19.644 17.6278 19.4183 17.5931 19.1931 17.6079C18.9678 17.6226 18.7481 17.6865 18.548 17.7954L14.0656 20.0581C13.878 20.1622 13.7119 20.3038 13.5768 20.4749C13.4417 20.646 13.3404 20.8432 13.2784 21.0552C13.2165 21.2672 13.1953 21.4899 13.216 21.7105C13.2367 21.931 13.2989 22.1452 13.399 22.3406C13.5987 22.7332 13.9392 23.0275 14.3461 23.1593C14.7531 23.2912 15.1935 23.2498 15.5714 23.0443L19.3872 21.1405L21.5227 22.1672L17.0014 26.8353C16.5912 26.6218 16.1351 26.5226 15.6773 26.5471C15.2195 26.5717 14.7756 26.7193 14.3887 26.9755L13.1779 27.767C13.0908 27.8291 13.0301 27.924 13.0086 28.0317C12.9871 28.1395 13.0064 28.2518 13.0625 28.345C13.1186 28.4382 13.2072 28.5052 13.3096 28.5318C13.412 28.5585 13.5203 28.5428 13.6119 28.4879H13.6157ZM24.8516 16.9389C24.9598 16.427 25.211 15.96 25.5737 15.597C25.9363 15.234 26.3941 14.9914 26.889 14.8997C27.384 14.808 27.8939 14.8715 28.3542 15.082C28.8146 15.2925 29.2047 15.6407 29.4753 16.0825C29.7459 16.5242 29.8847 17.0398 29.8743 17.5638C29.8639 18.0879 29.7046 18.597 29.4167 19.0267C29.1288 19.4564 28.7252 19.7874 28.2568 19.9778C27.7885 20.1683 27.2765 20.2096 26.7857 20.0966C26.1282 19.9444 25.5554 19.5265 25.1928 18.9346C24.8303 18.3426 24.7076 17.625 24.8516 16.9389ZM19.5548 20.2853C19.5006 20.2586 19.4414 20.2447 19.3815 20.2447C19.3216 20.2447 19.2624 20.2586 19.2082 20.2853L15.2031 22.2848C15.1103 22.3368 15.0086 22.3691 14.9038 22.3799C14.799 22.3906 14.6932 22.3797 14.5925 22.3476C14.4918 22.3156 14.3982 22.263 14.3171 22.1931C14.2359 22.1231 14.1689 22.0371 14.1197 21.9399C14.07 21.8432 14.0391 21.7371 14.029 21.6278C14.0188 21.5186 14.0295 21.4083 14.0605 21.3033C14.119 21.0958 14.254 20.9209 14.4358 20.8169L18.9182 18.5576C19.0327 18.4939 19.1606 18.4608 19.2904 18.4613C19.3944 18.4616 19.4975 18.4812 19.595 18.5191L23.7683 19.8507L22.1427 21.5293L19.5548 20.2853ZM22.4639 22.3938C22.5053 22.3646 22.5412 22.3277 22.5696 22.2848L24.6171 20.171L30.042 23.0536C30.1086 23.089 30.1831 23.1047 30.2576 23.0989C30.3321 23.0932 30.4037 23.0663 30.4645 23.0211L34.3638 20.1192C34.4514 20.0559 34.5502 20.0115 34.6544 19.9885C34.7586 19.9655 34.8662 19.9644 34.9708 19.9852C35.0754 20.0061 35.175 20.0485 35.2638 20.1099C35.3525 20.1714 35.4287 20.2506 35.4877 20.3431C35.5467 20.4356 35.5875 20.5394 35.6076 20.6485C35.6277 20.7575 35.6268 20.8697 35.6049 20.9784C35.5829 21.0871 35.5404 21.1902 35.4799 21.2816C35.4193 21.373 35.3419 21.4508 35.2521 21.5107L30.418 25.303L27.1457 24.2112C27.0732 24.1867 26.9954 24.1841 26.9215 24.2036C26.8475 24.2231 26.7804 24.264 26.7277 24.3215L24.5878 26.6413C24.5627 26.6694 24.5412 26.7009 24.5241 26.735C24.364 26.7999 24.2102 26.8804 24.0646 26.9755C23.769 27.1746 23.4246 27.2805 23.0728 27.2805C22.7209 27.2805 22.3765 27.1746 22.0809 26.9755C21.6543 26.6937 21.1597 26.544 20.6547 26.544C20.1497 26.544 19.6551 26.6937 19.2286 26.9755C19.0178 27.1172 18.7814 27.2121 18.5339 27.2543C18.2865 27.2965 18.0333 27.285 17.7903 27.2207L22.4639 22.3938Z" fill="#00552A"/>
<path d="M13.6249 32.081L14.8356 31.2902C15.1313 31.091 15.4758 30.985 15.8278 30.985C16.1799 30.985 16.5244 31.091 16.82 31.2902C17.2465 31.5721 17.741 31.7218 18.2459 31.7218C18.7508 31.7218 19.2453 31.5721 19.6717 31.2902C19.9674 31.0911 20.3119 30.9852 20.6639 30.9852C21.0159 30.9852 21.3604 31.0911 21.6561 31.2902C22.0825 31.5721 22.577 31.7218 23.0819 31.7218C23.5868 31.7218 24.0813 31.5721 24.5078 31.2902C24.8035 31.0911 25.148 30.9852 25.5 30.9852C25.852 30.9852 26.1965 31.0911 26.4922 31.2902C26.9186 31.5721 27.4131 31.7218 27.918 31.7218C28.4229 31.7218 28.9174 31.5721 29.3439 31.2902C29.6395 31.0911 29.9841 30.9852 30.336 30.9852C30.688 30.9852 31.0326 31.0911 31.3282 31.2902C31.7547 31.5721 32.2492 31.7218 32.7541 31.7218C33.259 31.7218 33.7535 31.5721 34.1799 31.2902C34.4756 31.0911 34.8201 30.9852 35.1721 30.9852C35.5241 30.9852 35.8686 31.0911 36.1643 31.2902L37.3751 32.081C37.4204 32.1107 37.471 32.1308 37.5238 32.1402C37.5766 32.1495 37.6306 32.1479 37.6829 32.1355C37.7351 32.1231 37.7844 32.1 37.8281 32.0677C37.8718 32.0354 37.909 31.9944 37.9375 31.9471C37.9659 31.8998 37.9852 31.8471 37.9942 31.7921C38.0032 31.737 38.0016 31.6806 37.9897 31.6262C37.9778 31.5717 37.9557 31.5202 37.9247 31.4747C37.8937 31.4291 37.8544 31.3904 37.809 31.3607L36.5983 30.5693C36.1718 30.2874 35.6773 30.1377 35.1724 30.1377C34.6675 30.1377 34.173 30.2874 33.7466 30.5693C33.4509 30.7684 33.1064 30.8743 32.7544 30.8743C32.4024 30.8743 32.0579 30.7684 31.7622 30.5693C31.3356 30.2874 30.841 30.1377 30.336 30.1377C29.831 30.1377 29.3364 30.2874 28.9099 30.5693C28.6143 30.7683 28.2699 30.8742 27.918 30.8742C27.5661 30.8742 27.2217 30.7683 26.9261 30.5693C26.4996 30.2874 26.005 30.1377 25.5 30.1377C24.995 30.1377 24.5004 30.2874 24.0738 30.5693C23.7782 30.7683 23.4338 30.8742 23.0819 30.8742C22.7301 30.8742 22.3857 30.7683 22.0901 30.5693C21.6635 30.2874 21.1689 30.1377 20.6639 30.1377C20.1589 30.1377 19.6643 30.2874 19.2377 30.5693C18.9422 30.7683 18.5978 30.8742 18.2459 30.8742C17.894 30.8742 17.5496 30.7683 17.254 30.5693C16.8274 30.2874 16.3328 30.1377 15.8278 30.1377C15.3228 30.1377 14.8282 30.2874 14.4017 30.5693L13.1909 31.3607C13.1456 31.3904 13.1063 31.4291 13.0753 31.4747C13.0443 31.5202 13.0222 31.5717 13.0102 31.6262C12.9983 31.6806 12.9968 31.737 13.0058 31.7921C13.0147 31.8471 13.034 31.8998 13.0625 31.9471C13.091 31.9944 13.1281 32.0354 13.1718 32.0677C13.2155 32.1 13.2649 32.1231 13.3171 32.1355C13.3693 32.1479 13.4234 32.1495 13.4762 32.1402C13.529 32.1308 13.5795 32.1107 13.6249 32.081Z" fill="#00552A"/>
<path d="M37.8084 34.9628L36.5976 34.1714C36.1713 33.8892 35.6768 33.7393 35.1718 33.7393C34.6668 33.7393 34.1723 33.8892 33.746 34.1714C33.4504 34.3705 33.106 34.4764 32.7541 34.4764C32.4022 34.4764 32.0578 34.3705 31.7622 34.1714C31.3357 33.8893 30.8411 33.7395 30.336 33.7395C29.831 33.7395 29.3364 33.8893 28.9099 34.1714C28.6143 34.3705 28.2699 34.4764 27.918 34.4764C27.5661 34.4764 27.2217 34.3705 26.9261 34.1714C26.4997 33.8891 26.0051 33.7393 25.5 33.7393C24.9949 33.7393 24.5002 33.8891 24.0738 34.1714C23.7782 34.3705 23.4338 34.4764 23.0819 34.4764C22.7301 34.4764 22.3857 34.3705 22.0901 34.1714C21.6636 33.8891 21.169 33.7393 20.6639 33.7393C20.1588 33.7393 19.6642 33.8891 19.2377 34.1714C18.9422 34.3705 18.5978 34.4764 18.2459 34.4764C17.894 34.4764 17.5496 34.3705 17.254 34.1714C16.8275 33.8893 16.3329 33.7395 15.8278 33.7395C15.3228 33.7395 14.8282 33.8893 14.4017 34.1714L13.1909 34.9628C13.1456 34.9925 13.1063 35.0313 13.0753 35.0768C13.0443 35.1224 13.0222 35.1739 13.0102 35.2283C12.9983 35.2828 12.9968 35.3391 13.0058 35.3942C13.0147 35.4493 13.034 35.502 13.0625 35.5493C13.091 35.5965 13.1281 35.6375 13.1718 35.6699C13.2155 35.7022 13.2649 35.7252 13.3171 35.7377C13.3693 35.7501 13.4234 35.7517 13.4762 35.7423C13.529 35.733 13.5795 35.7129 13.6249 35.6831L14.8356 34.8917C15.1313 34.6926 15.4758 34.5867 15.8278 34.5867C16.1798 34.5867 16.5243 34.6926 16.82 34.8917C17.2464 35.1739 17.7409 35.3238 18.2459 35.3238C18.7508 35.3238 19.2454 35.1739 19.6717 34.8917C19.9674 34.6926 20.3119 34.5867 20.6639 34.5867C21.0159 34.5867 21.3604 34.6926 21.6561 34.8917C22.0824 35.1739 22.577 35.3238 23.0819 35.3238C23.5869 35.3238 24.0815 35.1739 24.5078 34.8917C24.8035 34.6926 25.148 34.5867 25.5 34.5867C25.852 34.5867 26.1965 34.6926 26.4922 34.8917C26.9185 35.1739 27.413 35.3238 27.918 35.3238C28.423 35.3238 28.9175 35.1739 29.3439 34.8917C29.6395 34.6926 29.9841 34.5867 30.336 34.5867C30.688 34.5867 31.0326 34.6926 31.3282 34.8917C31.7546 35.1739 32.2491 35.3238 32.7541 35.3238C33.2591 35.3238 33.7536 35.1739 34.1799 34.8917C34.4756 34.6926 34.8201 34.5867 35.1721 34.5867C35.5241 34.5867 35.8686 34.6926 36.1643 34.8917L37.3751 35.6831C37.4398 35.7263 37.5149 35.7494 37.5917 35.7496C37.6803 35.7497 37.7664 35.7198 37.8372 35.6643C37.9079 35.6088 37.9595 35.5309 37.984 35.4422C38.0086 35.3535 38.0048 35.2589 37.9732 35.1727C37.9416 35.0864 37.884 35.0132 37.809 34.9642L37.8084 34.9628Z" fill="#00552A"/>
<rect x="0.75" y="0.25" width="49.5" height="49.5" rx="4.75" stroke="#00552A" stroke-width="0.5"/>
</svg>
