<svg width="47" height="47" viewBox="0 0 47 47" fill="none" xmlns="http://www.w3.org/2000/svg">
<path fill-rule="evenodd" clip-rule="evenodd" d="M35.9996 31.4491C35.9996 35.394 32.8016 38.5919 28.8567 38.5919C24.9118 38.5919 21.7139 35.394 21.7139 31.4491C21.7139 27.5042 24.9118 24.3062 28.8567 24.3062C32.8016 24.3062 35.9996 27.5042 35.9996 31.4491Z" stroke="#00552A" stroke-width="2" stroke-linecap="round" stroke-linejoin="round"/>
<path d="M28.8574 30.4286V35.0205" stroke="#00552A" stroke-width="2" stroke-linecap="round" stroke-linejoin="round"/>
<path d="M28.5918 28.1327C28.5918 27.988 28.7123 27.8674 28.8571 27.8674C29.0019 27.8674 29.1224 27.988 29.1224 28.1327C29.1224 28.2775 29.0019 28.398 28.8571 28.398C28.7123 28.398 28.5918 28.2775 28.5918 28.1327Z" fill="black" stroke="#00552A"/>
<path d="M21.7143 37.0613H11V32.4695" stroke="#00552A" stroke-width="2" stroke-linecap="round" stroke-linejoin="round"/>
<path d="M11 29.4082V9H23.2449V17.1633H31.4082V22.2653V17.1633L23.2449 9" stroke="#00552A" stroke-width="2" stroke-linecap="round" stroke-linejoin="round"/>
<path d="M11.0051 30.9388H11" stroke="#00552A" stroke-width="2" stroke-linecap="round"/>
<rect x="0.25" y="0.25" width="46.5" height="46.5" rx="4.75" stroke="#00552A" stroke-width="0.5"/>
</svg>
