<svg width="51" height="50" viewBox="0 0 51 50" fill="none" xmlns="http://www.w3.org/2000/svg">
<path d="M25.8912 13H25.1699V15.0302H25.8912V13Z" fill="#00552A"/>
<path d="M22.076 16.035L20.8828 14.3928L20.2993 14.8168L21.4925 16.4589L22.076 16.035Z" fill="#00552A"/>
<path d="M19.5813 19.0917L17.6504 18.4644L17.4275 19.1503L19.3584 19.7776L19.5813 19.0917Z" fill="#00552A"/>
<path d="M33.707 19.1275L33.4844 18.4414L31.5536 19.0678L31.7761 19.7539L33.707 19.1275Z" fill="#00552A"/>
<path d="M30.8067 14.757L30.2236 14.333L29.0299 15.9748L29.613 16.3988L30.8067 14.757Z" fill="#00552A"/>
<path d="M14.2873 27.1592H13V27.8804H14.2873V27.1592Z" fill="#00552A"/>
<path d="M38.0005 27.1592H36.7129V27.8804H38.0005V27.1592Z" fill="#00552A"/>
<path d="M33.0638 34.0467C33.9218 33.4405 34.1272 32.2496 33.5214 31.3919C32.9152 30.5339 31.7243 30.3291 30.8666 30.9344L28.9265 32.3044L29.509 29.0606L30.1416 27.8803H35.9698V27.1591H30.5285L33.1691 22.2342C33.2153 22.1482 33.2245 22.0469 33.1948 21.9537C33.1648 21.8605 33.0987 21.7838 33.011 21.7402L31.5746 21.03C31.3626 17.8458 28.7473 15.3774 25.5309 15.3774C22.3239 15.3774 19.7156 17.8314 19.4897 21.002L17.9965 21.7405C17.9088 21.7838 17.8427 21.8608 17.813 21.954C17.783 22.0469 17.7925 22.1482 17.8387 22.2344L20.4793 27.1594H15.0302V27.8806H20.8662L21.4988 29.0609L22.0816 32.3047L20.1415 30.9346C19.2838 30.3294 18.0928 30.5342 17.4867 31.3922C16.8809 32.2502 17.086 33.4411 17.944 34.047L18.1202 34.1716H13V34.8928H19.1418L22.0028 36.9132H13V37.6344H38V36.9132H29.0047L31.866 34.8928H38V34.1716H32.8875L33.0638 34.0467ZM25.5312 16.099C28.2205 16.099 30.4353 18.057 30.8144 20.6543L27.083 18.8091C26.7379 17.5435 25.828 17.0178 25.7213 16.9598C25.689 16.9422 25.6379 16.9146 25.573 16.9019C25.549 16.897 25.5263 16.8952 25.5043 16.8952H25.5038C25.4818 16.8952 25.459 16.8972 25.4351 16.9019C25.3702 16.9146 25.3194 16.9425 25.2868 16.9598C25.1801 17.0178 24.2704 17.5432 23.9251 18.8091L20.2537 20.6246C20.6452 18.0423 22.8519 16.099 25.5312 16.099ZM24.3951 19.3812C24.4931 19.3327 24.5638 19.2424 24.5875 19.1354C24.7707 18.3022 25.2634 17.8527 25.5043 17.6771C25.7449 17.8525 26.2377 18.3022 26.4212 19.1354C26.4445 19.2424 26.5152 19.3327 26.6136 19.3812L32.3579 22.222L30.7971 25.1324L30.0055 24.6855L30.9849 22.9254C31.079 22.756 31.0227 22.5426 30.8571 22.4419L25.6913 19.3016C25.5762 19.2315 25.4319 19.2315 25.3165 19.3016L20.1516 22.4422C19.986 22.5428 19.9294 22.7563 20.0237 22.9257L20.9876 24.6581L20.1963 25.1047L18.6508 22.222L24.3951 19.3812ZM23.7944 23.5012C23.7944 22.5437 24.5733 21.7645 25.5312 21.7645C26.489 21.7645 27.2682 22.5437 27.2682 23.5012C27.2682 24.4847 26.4503 25.7322 25.5312 25.7322C24.612 25.7322 23.7944 24.4847 23.7944 23.5012ZM26.7478 26.0166C27.4958 25.4506 27.9892 24.4256 27.9892 23.5012C27.9892 22.1459 26.8865 21.0432 25.5309 21.0432C24.1755 21.0432 23.0729 22.1459 23.0729 23.5012C23.0729 24.4028 23.5428 25.3987 24.2598 25.9728V26.5651L23.1017 26.975L20.8223 22.8781L25.504 20.0318L30.1855 22.8781L27.9058 26.975L26.748 26.5651V26.0166H26.7478ZM20.537 25.7403L21.3381 25.2882L22.6199 27.5918C22.6851 27.709 22.8072 27.7773 22.935 27.7773C22.9751 27.7773 23.0158 27.7707 23.0553 27.7569L24.741 27.1602C24.8852 27.1092 24.9813 26.973 24.9813 26.8201V26.3663C25.1576 26.4211 25.341 26.4537 25.5309 26.4537C25.7014 26.4537 25.867 26.4292 26.0265 26.3845V26.8204C26.0265 26.973 26.1229 27.1095 26.2668 27.1605L27.9522 27.7571C28.117 27.8145 28.3019 27.7465 28.3879 27.5924L29.6546 25.3162L30.4561 25.7685L28.8463 28.7706C28.8281 28.8041 28.816 28.8399 28.8091 28.8774L28.1146 32.7461H22.8934L22.1987 28.8774C22.1921 28.8399 22.1794 28.8041 22.1615 28.7706L20.537 25.7403ZM23.2538 36.9129L18.3603 33.4573C17.8271 33.0808 17.6996 32.3408 18.0761 31.8076C18.4526 31.2751 19.1926 31.1473 19.7257 31.5238L22.3839 33.401C22.3987 33.4111 22.4151 33.4166 22.4307 33.4244C22.4419 33.4301 22.4517 33.4365 22.4636 33.4411C22.504 33.4567 22.5458 33.4659 22.5885 33.4665C22.5896 33.4665 22.5908 33.4671 22.592 33.4671H28.4164C28.4176 33.4671 28.4184 33.4665 28.4199 33.4665C28.4626 33.4659 28.5047 33.4567 28.5454 33.4411C28.5569 33.4365 28.5667 33.4301 28.5777 33.4247C28.5936 33.4169 28.6097 33.4114 28.6244 33.401L31.2826 31.5238C31.8161 31.147 32.5558 31.2751 32.9323 31.8076C33.3088 32.3408 33.1812 33.0808 32.6484 33.4573L27.7543 36.9129H23.2538Z" fill="#00552A"/>
<rect x="0.75" y="0.25" width="49.5" height="49.5" rx="4.75" stroke="#00552A" stroke-width="0.5"/>
</svg>
