<svg width="58" height="77" viewBox="0 0 58 77" fill="none" xmlns="http://www.w3.org/2000/svg">
<path d="M41.906 76.989V13.583H0V76.989H8.406V66.645C8.406 65.264 9.525 64.145 10.906 64.145H31C32.381 64.145 33.5 65.264 33.5 66.645V76.989H41.906V76.989ZM27.5 20.395H34.187V31.02H27.5V20.395ZM14.437 53.208H7.718V42.583H14.437V53.208ZM14.437 31.02H7.718V20.395H14.437V31.02ZM27.5 53.208V42.583H34.187V53.208H27.5Z" fill="#00552A"/>
<path d="M53.0096 0H13.5886L4.01855 8.59H43.4336L53.0096 0Z" fill="#00552A"/>
<path d="M46.9199 73.902L57.0699 64.803V3.07401L46.9199 12.179V73.902Z" fill="#00552A"/>
<path d="M18.4604 69.153H13.4004V77H18.4604V69.153Z" fill="#00552A"/>
<path d="M28.51 69.153H23.46V77H28.51V69.153Z" fill="#00552A"/>
</svg>
