<svg width="89" height="96" viewBox="0 0 89 96" fill="none" xmlns="http://www.w3.org/2000/svg">
<path d="M16.608 63.4C22.6279 63.4 27.508 58.5199 27.508 52.5C27.508 46.4801 22.6279 41.6 16.608 41.6C10.5881 41.6 5.70801 46.4801 5.70801 52.5C5.70801 58.5199 10.5881 63.4 16.608 63.4Z" fill="#00552A"/>
<path d="M30.5084 71.9C28.5084 68.6 24.8084 66.4 20.6084 66.4H12.5084C6.70844 66.4 1.80844 70.8 1.10844 76.6L0.00843919 86C-0.0915608 87.2 0.708439 88.4 1.80844 88.6C6.50844 89.6 11.4084 90.1 16.6084 90.1C19.2084 90.1 21.7084 90 24.2084 89.7L25.2084 81.6C25.7084 77.6 27.7084 74.2 30.5084 71.9Z" fill="#00552A"/>
<path d="M71.608 63.4C77.6279 63.4 82.508 58.5199 82.508 52.5C82.508 46.4801 77.6279 41.6 71.608 41.6C65.5881 41.6 60.708 46.4801 60.708 52.5C60.708 58.5199 65.5881 63.4 71.608 63.4Z" fill="#00552A"/>
<path d="M87.1086 76.5C86.4086 70.7 81.5086 66.3 75.7086 66.3H67.6086C63.5086 66.3 59.8086 68.5 57.8086 71.8C60.6086 74.2 62.6086 77.6 63.1086 81.5L64.1086 89.6C66.6086 89.9 69.1086 90 71.7086 90C76.9086 90 81.8086 89.5 86.5086 88.5C87.7086 88.2 88.5086 87.1 88.3086 85.9L87.1086 76.5Z" fill="#00552A"/>
<path d="M48.1081 71.8H40.1081C34.3081 71.8 29.4081 76.2 28.7081 82L27.6081 91.4C27.5081 92.6 28.2081 93.8 29.4081 94C34.1081 95 39.0081 95.5 44.2081 95.5C49.4081 95.5 54.2081 95 58.9081 94C60.1081 93.7 60.9081 92.6 60.7081 91.4L59.6081 82C58.9081 76.2 54.0081 71.8 48.1081 71.8Z" fill="#00552A"/>
<path d="M44.108 68.9C50.1279 68.9 55.008 64.0199 55.008 58C55.008 51.9801 50.1279 47.1 44.108 47.1C38.0881 47.1 33.208 51.9801 33.208 58C33.208 64.0199 38.0881 68.9 44.108 68.9Z" fill="#00552A"/>
<path d="M20.5088 35.7H67.6088C69.8088 35.7 71.6088 33.9 71.6088 31.7V4.5C71.6088 2.3 69.8088 0.5 67.6088 0.5H20.5088C18.3088 0.5 16.5088 2.3 16.5088 4.5V31.7C16.5088 33.9 18.3088 35.7 20.5088 35.7ZM49.0088 7.7H63.0088C63.9088 7.7 64.6088 8.4 64.6088 9.3C64.6088 10.2 63.9088 10.9 63.0088 10.9H49.0088C48.1088 10.9 47.4088 10.2 47.4088 9.3C47.4088 8.4 48.1088 7.7 49.0088 7.7ZM49.0088 16.5H63.0088C63.9088 16.5 64.6088 17.2 64.6088 18.1C64.6088 19 63.9088 19.7 63.0088 19.7H49.0088C48.1088 19.7 47.4088 19 47.4088 18.1C47.4088 17.2 48.1088 16.5 49.0088 16.5ZM49.0088 25.3H63.0088C63.9088 25.3 64.6088 26 64.6088 26.9C64.6088 27.8 63.9088 28.5 63.0088 28.5H49.0088C48.1088 28.5 47.4088 27.8 47.4088 26.9C47.4088 26 48.1088 25.3 49.0088 25.3ZM24.1088 14.6L29.1088 14.2C29.6088 14.2 30.0088 13.9 30.1088 13.4L32.0088 8.7C32.4088 7.7 33.9088 7.7 34.3088 8.7L36.2088 13.4C36.4088 13.8 36.8088 14.1 37.2088 14.2L42.2088 14.6C43.3088 14.7 43.7088 16.1 42.9088 16.8L39.3088 20C39.0088 20.3 38.8088 20.8 38.9088 21.2L40.1088 26.1C40.4088 27.2 39.2088 28 38.3088 27.4L34.0088 24.8C33.6088 24.6 33.1088 24.6 32.7088 24.8L28.4088 27.4C27.5088 28 26.3088 27.1 26.6088 26.1L27.8088 21.2C27.9088 20.8 27.8088 20.3 27.4088 20L23.6088 16.7C22.6088 16 23.0088 14.7 24.1088 14.6Z" fill="#00552A"/>
</svg>
