<svg width="98" height="82" viewBox="0 0 98 82" fill="none" xmlns="http://www.w3.org/2000/svg">
<path d="M40 50.85V38.25C39.996 37.8263 40.0757 37.406 40.2345 37.0132C40.3933 36.6203 40.6281 36.2627 40.9254 35.9608C41.2227 35.6589 41.5766 35.4186 41.9669 35.2537C42.3573 35.0888 42.7763 35.0026 43.2 35H55.13C55.984 35 56.803 35.3393 57.4069 35.9431C58.0108 36.547 58.35 37.366 58.35 38.22V50.82C58.35 51.674 58.0108 52.493 57.4069 53.0969C56.803 53.7008 55.984 54.04 55.13 54.04H43.2C42.3546 54.0348 41.5452 53.6974 40.9465 53.1005C40.3478 52.5037 40.0079 51.6953 40 50.85V50.85ZM79.75 35H67.68C66.826 35 66.007 35.3393 65.4031 35.9431C64.7992 36.547 64.46 37.366 64.46 38.22V38.22C64.46 39.074 64.7992 39.893 65.4031 40.4969C66.007 41.1008 66.826 41.44 67.68 41.44H79.75C80.5989 41.4481 81.4166 41.1206 82.0253 40.5288C82.6339 39.937 82.9842 39.1288 83 38.28V38.28C83.008 37.8496 82.9297 37.4219 82.7696 37.0223C82.6095 36.6227 82.3709 36.2593 82.0679 35.9535C81.7649 35.6477 81.4036 35.4057 81.0055 35.242C80.6074 35.0782 80.1805 34.9959 79.75 35V35ZM79.75 47.57H67.68C66.826 47.57 66.007 47.9093 65.4031 48.5131C64.7992 49.117 64.46 49.936 64.46 50.79V50.79C64.46 51.644 64.7992 52.463 65.4031 53.0669C66.007 53.6708 66.826 54.01 67.68 54.01H79.75C80.5989 54.0181 81.4166 53.6906 82.0253 53.0988C82.6339 52.507 82.9842 51.6988 83 50.85V50.85C83.0053 50.4213 82.925 49.9958 82.7637 49.5985C82.6024 49.2012 82.3634 48.8402 82.0606 48.5365C81.7579 48.2328 81.3976 47.9927 81.0008 47.8302C80.604 47.6676 80.1788 47.586 79.75 47.59V47.57ZM43.2 66.71H79.75C80.6053 66.71 81.4256 66.3702 82.0304 65.7654C82.6352 65.1606 82.975 64.3403 82.975 63.485C82.975 62.6297 82.6352 61.8094 82.0304 61.2046C81.4256 60.5998 80.6053 60.26 79.75 60.26H43.2C42.3447 60.26 41.5244 60.5998 40.9196 61.2046C40.3148 61.8094 39.975 62.6297 39.975 63.485C39.975 64.3403 40.3148 65.1606 40.9196 65.7654C41.5244 66.3702 42.3447 66.71 43.2 66.71V66.71ZM43.2 28.94H79.75C80.1762 28.944 80.599 28.8633 80.9938 28.7026C81.3886 28.542 81.7475 28.3045 82.0499 28.0041C82.3522 27.7036 82.5918 27.3461 82.7549 26.9523C82.918 26.5585 83.0013 26.1362 83 25.71V19.16C83 18.306 82.6608 17.487 82.0569 16.8831C81.453 16.2793 80.634 15.94 79.78 15.94H43.2C42.3495 15.9453 41.5356 16.2869 40.936 16.8902C40.3365 17.4935 40 18.3095 40 19.16V25.71C39.9973 26.5623 40.3327 27.3809 40.9325 27.9863C41.5323 28.5918 42.3477 28.9347 43.2 28.94V28.94ZM16.63 25.83C16.1441 25.83 15.663 25.9257 15.2141 26.1117C14.7652 26.2976 14.3573 26.5701 14.0137 26.9137C13.6701 27.2573 13.3976 27.6652 13.2116 28.1141C13.0257 28.563 12.93 29.0441 12.93 29.53V65.15C12.911 66.1225 13.2617 67.0659 13.9114 67.7898C14.561 68.5137 15.4612 68.9641 16.43 69.05C16.9316 69.0772 17.4335 69.0019 17.9051 68.8288C18.3767 68.6557 18.808 68.3883 19.1729 68.0431C19.5378 67.6978 19.8286 67.2819 20.0275 66.8206C20.2265 66.3593 20.3294 65.8624 20.33 65.36V29.52C20.33 28.5387 19.9402 27.5976 19.2463 26.9037C18.5524 26.2098 17.6113 25.82 16.63 25.82V25.83ZM98 3.21002V65.39C97.9921 69.7963 96.2368 74.0195 93.1192 77.1334C90.0016 80.2472 85.7763 81.9974 81.37 82H16.62C12.2138 82 7.98799 80.2504 4.87142 77.1357C1.75485 74.021 0.00265112 69.7962 0 65.39V30.08C0.0531862 28.9794 0.527859 27.9414 1.32562 27.1812C2.12339 26.4211 3.18307 25.9971 4.285 25.9971C5.38693 25.9971 6.44661 26.4211 7.24438 27.1812C8.04214 27.9414 8.51681 28.9794 8.57 30.08V65.39C8.57563 66.4913 8.8069 67.5798 9.24955 68.5883C9.69219 69.5967 10.3368 70.5038 11.1436 71.2534C11.9504 72.0031 12.9023 72.5794 13.9405 72.9469C14.9787 73.3144 16.0812 73.4652 17.18 73.39C19.2486 73.2037 21.1705 72.2431 22.5611 70.7004C23.9518 69.1577 24.7085 67.1468 24.68 65.07V25.8V3.21002C24.6813 2.78716 24.7659 2.3687 24.9289 1.97853C25.092 1.58837 25.3302 1.23413 25.6302 0.936056C25.9301 0.63798 26.2858 0.401898 26.677 0.241292C27.0682 0.0806862 27.4871 -0.00129968 27.91 1.55775e-05H94.78C95.6323 1.14676e-05 96.4498 0.337888 97.0534 0.939594C97.6569 1.5413 97.9974 2.35775 98 3.21002V3.21002ZM89.43 8.56001H33.25V34.37V65.37C33.2534 68.1911 32.5338 70.966 31.16 73.43H81.37C83.5076 73.43 85.5577 72.5808 87.0693 71.0693C88.5808 69.5578 89.43 67.5077 89.43 65.37V8.56001Z" fill="#00552A"/>
</svg>
