<svg width="64" height="62" viewBox="0 0 64 62" fill="none" xmlns="http://www.w3.org/2000/svg">
<path d="M33.324 54.237H27.373C26.544 54.237 25.873 54.909 25.873 55.737C25.873 56.565 26.544 57.237 27.373 57.237H33.324C34.152 57.237 34.824 56.565 34.824 55.737C34.824 54.909 34.152 54.237 33.324 54.237Z" fill="#00552A"/>
<path d="M60.7796 14.725H49.5186V7.881V3.463C49.5186 1.553 47.9646 0 46.0546 0H14.6426C12.7326 0 11.1786 1.554 11.1786 3.463V7.88V10.551C10.7886 10.445 10.3876 10.373 9.97164 10.373C9.63964 10.373 9.30564 10.409 8.97964 10.479L8.36164 10.613C7.14364 10.877 6.36664 12.083 6.62964 13.303C6.97864 14.914 6.87164 17.678 6.21664 18.694C5.75364 19.412 5.30464 19.771 4.63464 20.303L1.18364 21.048C0.794642 21.132 0.454642 21.367 0.239642 21.701C0.0246418 22.035 -0.0503582 22.442 0.0336418 22.831L2.35764 33.592C2.50964 34.295 3.13064 34.776 3.82264 34.776C3.92764 34.776 4.03364 34.765 4.14064 34.742L7.66364 33.981C7.95564 34.021 8.25464 34.069 8.58764 34.13C9.31364 34.262 10.1886 34.415 11.1786 34.471V51.811V57.702C11.1786 59.611 12.7326 61.165 14.6426 61.165H46.0546C47.9646 61.165 49.5186 59.611 49.5186 57.702V51.811V30.601L49.7976 30.426H60.7796C62.1476 30.426 63.2606 29.313 63.2606 27.945V17.207C63.2616 15.838 62.1486 14.725 60.7796 14.725ZM14.6426 3H46.0546C46.3106 3 46.5186 3.208 46.5186 3.463V6.38H14.1786V3.463C14.1786 3.208 14.3866 3 14.6426 3ZM3.28264 23.665L4.14464 23.479L5.83664 31.307L4.97364 31.493L3.28264 23.665ZM8.86864 31.131L6.95664 22.286C7.56464 21.785 8.15164 21.228 8.73764 20.321C9.87464 18.557 9.98064 15.457 9.69064 13.398C10.5566 13.248 11.4156 13.823 11.6056 14.656C11.8466 15.709 12.0106 17.892 11.8386 18.455C11.6836 18.964 11.8096 19.517 12.1696 19.909C12.5296 20.301 13.0706 20.47 13.5906 20.36L19.4046 19.103C19.7896 19.022 20.3266 19.156 20.4696 19.58C20.5706 19.878 20.4756 20.117 20.4096 20.232C20.0326 20.896 20.2146 21.737 20.8316 22.186C21.1526 22.419 21.1636 22.752 21.1536 22.884C21.1436 23.016 21.0826 23.342 20.7336 23.523C20.3546 23.719 20.0766 24.068 19.9696 24.482C19.8636 24.896 19.9386 25.335 20.1756 25.69C20.2316 25.773 20.2696 25.863 20.2916 25.965C20.3666 26.312 20.1996 26.669 19.8856 26.831C19.5066 27.028 19.2296 27.376 19.1236 27.79C19.0176 28.204 19.0926 28.643 19.3306 28.997C19.4786 29.219 19.5066 29.436 19.4156 29.662C19.3006 29.947 19.0206 30.169 18.6866 30.241L13.8056 31.295C13.1726 31.432 12.5486 31.498 11.8966 31.498C10.8746 31.498 9.94564 31.329 9.12564 31.179C9.03864 31.162 8.95364 31.146 8.86864 31.131ZM46.0546 58.164H14.6426C14.3866 58.164 14.1786 57.956 14.1786 57.701V53.31H46.5186V57.701C46.5186 57.956 46.3106 58.164 46.0546 58.164ZM26.6336 28.925C26.6336 26.877 28.3006 25.21 30.3486 25.21C32.3966 25.21 34.0636 26.877 34.0636 28.925C34.0636 30.974 32.3966 32.64 30.3486 32.64C28.3006 32.64 26.6336 30.974 26.6336 28.925ZM35.2566 35.641C37.1356 35.641 38.6646 37.17 38.6646 39.049V50.311H22.0316V39.049C22.0316 37.17 23.5606 35.641 25.4396 35.641H35.2566ZM46.5186 50.311H41.6646V39.049C41.6646 35.738 39.1406 33.006 35.9166 32.675C36.6406 31.604 37.0626 30.313 37.0626 28.925C37.0626 25.222 34.0496 22.21 30.3476 22.21C26.6446 22.21 23.6326 25.222 23.6326 28.925C23.6326 30.312 24.0556 31.603 24.7786 32.675C21.5536 33.006 19.0306 35.738 19.0306 39.049V50.311H14.1766V34.268C14.2636 34.251 14.3506 34.245 14.4376 34.226L19.3176 33.172C20.6306 32.889 21.7056 31.995 22.1946 30.784C22.4796 30.077 22.5386 29.329 22.3786 28.615C23.1426 27.733 23.4796 26.521 23.2226 25.336C23.2216 25.331 23.2206 25.326 23.2196 25.321C23.7506 24.716 24.0796 23.947 24.1426 23.111C24.2116 22.195 23.9546 21.311 23.4336 20.596C23.5656 19.945 23.5266 19.263 23.3086 18.619C22.7936 17.1 21.3136 16.079 19.6256 16.079C19.3356 16.079 19.0466 16.11 18.7656 16.171L14.8906 17.009C14.8416 15.761 14.6436 14.502 14.5266 13.988C14.4496 13.65 14.3226 13.334 14.1756 13.03V9.382H46.5156V14.726H43.9656C42.5976 14.726 41.4846 15.839 41.4846 17.207V27.944V32.913C41.4846 32.947 41.4926 32.978 41.4946 33.012C41.4986 33.071 41.5016 33.127 41.5126 33.185C41.5216 33.232 41.5346 33.275 41.5476 33.32C41.5626 33.369 41.5736 33.419 41.5936 33.466C41.6136 33.516 41.6386 33.561 41.6626 33.608C41.6806 33.641 41.6916 33.676 41.7126 33.709C41.7166 33.716 41.7236 33.721 41.7276 33.728C41.7906 33.825 41.8636 33.914 41.9466 33.993C41.9696 34.015 41.9946 34.032 42.0186 34.053C42.0826 34.108 42.1506 34.157 42.2236 34.2C42.2556 34.22 42.2876 34.237 42.3216 34.254C42.3966 34.291 42.4736 34.32 42.5536 34.345C42.5836 34.354 42.6136 34.366 42.6436 34.372C42.7536 34.398 42.8676 34.415 42.9856 34.415C42.9856 34.415 42.9856 34.415 42.9866 34.415C42.9876 34.415 42.9886 34.415 42.9896 34.415C43.1146 34.414 43.2346 34.394 43.3506 34.365C43.3836 34.356 43.4146 34.345 43.4466 34.335C43.5466 34.303 43.6406 34.262 43.7306 34.21C43.7466 34.2 43.7646 34.197 43.7806 34.188L46.5166 32.478V50.311H46.5186ZM60.2616 27.425H49.3676C49.3306 27.425 49.2956 27.433 49.2586 27.436C49.2056 27.439 49.1526 27.442 49.0996 27.452C49.0486 27.461 48.9996 27.477 48.9516 27.491C48.9066 27.504 48.8616 27.515 48.8176 27.533C48.7636 27.554 48.7136 27.582 48.6626 27.61C48.6336 27.626 48.6016 27.636 48.5736 27.654L44.4876 30.207V27.944V17.725H60.2616V27.425Z" fill="#00552A"/>
<path d="M46.5186 20.55C46.5186 21.379 47.1906 22.05 48.0186 22.05H56.9756C57.8036 22.05 58.4756 21.379 58.4756 20.55C58.4756 19.721 57.8036 19.05 56.9756 19.05H48.0186C47.1906 19.05 46.5186 19.722 46.5186 20.55Z" fill="#00552A"/>
<path d="M53.6626 23.1H48.0176C47.1896 23.1 46.5176 23.771 46.5176 24.6C46.5176 25.429 47.1896 26.1 48.0176 26.1H53.6626C54.4906 26.1 55.1626 25.429 55.1626 24.6C55.1626 23.771 54.4906 23.1 53.6626 23.1Z" fill="#00552A"/>
</svg>
