<svg width="572" height="617" viewBox="0 0 572 617" fill="none" xmlns="http://www.w3.org/2000/svg">
  <g clip-path="url(#clip0)">
    <path
      d="M410.89 613.272L194.553 488.359C192.65 487.262 191.069 485.684 189.97 483.782C188.871 481.881 188.292 479.723 188.292 477.527C188.292 475.33 188.871 473.173 189.97 471.271C191.069 469.369 192.65 467.791 194.553 466.694L215.894 453.237C219.578 451.115 223.755 449.998 228.006 449.998C232.257 449.998 236.434 451.115 240.118 453.237L456.485 578.165C458.388 579.261 459.968 580.84 461.067 582.742C462.166 584.643 462.745 586.801 462.745 588.997C462.745 591.194 462.166 593.351 461.067 595.253C459.968 597.154 458.388 598.733 456.485 599.829L435.144 613.272C431.458 615.405 427.275 616.529 423.017 616.529C418.759 616.529 414.576 615.405 410.89 613.272Z"
      fill="#EBFFF5" />
    <path
      d="M81.9498 499.39C107.878 499.39 128.897 487.32 128.897 472.43C128.897 457.541 107.878 445.471 81.9498 445.471C56.0215 445.471 35.0024 457.541 35.0024 472.43C35.0024 487.32 56.0215 499.39 81.9498 499.39Z"
      fill="#EBFFF5" />
    <path
      d="M487.606 505.567L508.197 517.407C508.197 517.407 497.681 484.358 503.285 451.045C505.403 438.455 509.947 432.204 511.536 428.836C513.124 425.468 525.435 404.657 514.477 395.126C503.52 385.595 478.031 404.76 479.414 456.046C480.042 472.833 482.795 489.472 487.606 505.567Z"
      fill="#00A352" />
    <path opacity="0.5"
      d="M487.606 505.567L508.197 517.407C508.197 517.407 497.681 484.358 503.285 451.045C505.403 438.455 509.947 432.204 511.536 428.836C513.124 425.468 525.435 404.657 514.477 395.126C503.52 385.595 478.031 404.76 479.414 456.046C480.042 472.833 482.795 489.472 487.606 505.567Z"
      fill="black" />
    <path
      d="M497.181 511.803C497.031 511.807 496.884 511.763 496.76 511.679C496.636 511.594 496.542 511.473 496.49 511.333C496.416 511.112 488.547 489.609 488.797 455.046C489.047 420.482 507.211 401.715 507.388 401.539C507.456 401.47 507.538 401.415 507.627 401.378C507.717 401.341 507.813 401.321 507.91 401.321C508.007 401.321 508.103 401.341 508.193 401.378C508.283 401.415 508.364 401.47 508.432 401.539C508.501 401.607 508.556 401.689 508.593 401.778C508.631 401.868 508.65 401.964 508.65 402.061C508.65 402.158 508.631 402.254 508.593 402.344C508.556 402.433 508.501 402.515 508.432 402.583C508.256 402.76 490.518 420.968 490.268 455.061C490.018 489.153 497.784 510.627 497.872 510.833C497.938 511.016 497.929 511.218 497.846 511.395C497.764 511.571 497.614 511.708 497.431 511.774C497.35 511.799 497.265 511.809 497.181 511.803Z"
      fill="white" />
    <path
      d="M496.196 510.627L524.347 526.805C527.28 528.539 530.759 529.104 534.09 528.387C537.421 527.67 540.359 525.724 542.319 522.937C544.183 520.038 544.969 516.576 544.54 513.156C543.187 498.537 536.834 495.169 544.614 488.653C552.394 482.138 554.424 481.682 553.983 475.416C553.542 469.151 549.262 466.415 547.232 463.944C545.202 461.473 539.584 456.296 543.408 448.648C547.232 441 552.453 433.602 544.54 430.219C539.819 428.189 531.95 430.895 526.773 436.514C521.596 442.132 517.331 446.177 512.374 447.53C507.418 448.883 497.093 449.104 497.534 457.649C497.975 466.194 500.24 469.121 498.211 472.93C494.387 480.049 477.752 484.094 496.196 510.627Z"
      fill="#00A352" />
    <path
      d="M510.109 519.334C509.926 519.328 509.751 519.256 509.616 519.132C509.481 519.008 509.395 518.839 509.374 518.657C509.374 518.157 505.05 467.68 539.76 434.087C539.903 433.969 540.086 433.909 540.271 433.92C540.456 433.931 540.631 434.012 540.759 434.146C540.887 434.28 540.96 434.457 540.963 434.643C540.966 434.828 540.899 435.008 540.775 435.146C506.565 468.253 510.8 518.025 510.844 518.525C510.861 518.718 510.801 518.909 510.677 519.058C510.553 519.206 510.375 519.3 510.183 519.319L510.109 519.334Z"
      fill="white" />
    <path
      d="M515.684 475.887C515.498 475.887 515.32 475.818 515.183 475.692C515.047 475.567 514.963 475.395 514.948 475.21C514.64 471.298 513.538 467.49 511.71 464.018C509.882 460.546 507.365 457.483 504.314 455.016C504.235 454.96 504.167 454.889 504.115 454.807C504.063 454.725 504.028 454.634 504.012 454.538C503.995 454.442 503.998 454.344 504.02 454.25C504.041 454.155 504.081 454.066 504.138 453.987C504.192 453.908 504.262 453.84 504.343 453.788C504.423 453.737 504.514 453.701 504.608 453.685C504.703 453.669 504.8 453.671 504.893 453.693C504.987 453.714 505.075 453.754 505.153 453.81C508.404 456.389 511.084 459.614 513.024 463.283C514.963 466.951 516.119 470.983 516.419 475.122C516.435 475.318 516.373 475.514 516.247 475.665C516.12 475.817 515.939 475.912 515.742 475.931L515.684 475.887Z"
      fill="white" />
    <path
      d="M513.286 484.55C513.108 484.551 512.936 484.489 512.801 484.373C512.655 484.243 512.565 484.061 512.552 483.866C512.538 483.671 512.601 483.478 512.727 483.329C513.08 482.917 521.772 473.328 542.143 475.872C542.336 475.898 542.511 475.999 542.629 476.153C542.748 476.308 542.8 476.503 542.775 476.696C542.75 476.89 542.649 477.066 542.495 477.187C542.341 477.308 542.146 477.364 541.952 477.343C522.39 474.887 513.904 484.211 513.816 484.3C513.749 484.375 513.667 484.435 513.576 484.478C513.485 484.521 513.387 484.546 513.286 484.55Z"
      fill="white" />
    <path
      d="M404.301 598.344L214.041 488.491C200.612 480.74 189.729 459.943 189.729 442.044V34.6372C189.729 16.7378 200.612 8.51615 214.041 16.2672L404.301 126.12C417.729 133.871 428.613 154.668 428.613 172.567V579.974C428.613 597.859 417.729 606.095 404.301 598.344Z"
      fill="#455A64" />
    <path
      d="M426.215 113.309L235.94 3.45663C230.204 0.147367 224.939 -0.235038 220.777 1.79464C220.267 2.04983 219.776 2.33977 219.306 2.6624L197.979 15.0611C202.274 12.4872 207.893 12.6784 214.055 16.2377L404.316 126.09C417.744 133.841 428.628 154.638 428.628 172.538V579.944C428.628 589.416 425.583 596.123 420.729 599.3L441.776 587.048C447.145 584.195 450.601 577.209 450.601 567.193V159.786C450.601 141.857 439.644 121.06 426.215 113.309Z"
      fill="#37474F" />
    <path
      d="M428.613 172.538V579.944C428.613 589.416 425.568 596.123 420.715 599.3L441.776 587.048C447.145 584.195 450.601 577.209 450.601 567.193V159.786L428.686 172.508L428.613 172.538Z"
      fill="#263238" />
    <path d="M450.527 191.393L428.613 204.042V213.925L450.527 201.262V191.393Z" fill="#37474F" />
    <path
      d="M440.923 257.122C438.967 258.255 437.379 257.049 437.379 254.446V233.193C437.399 231.864 437.73 230.559 438.345 229.381C438.961 228.204 439.844 227.187 440.923 226.413C442.88 225.28 444.468 226.413 444.468 229.089V250.342C444.448 251.671 444.117 252.976 443.502 254.154C442.886 255.331 442.003 256.348 440.923 257.122Z"
      fill="#37474F" />
    <path
      d="M437.364 254.504V233.193C437.384 231.864 437.715 230.559 438.331 229.381C438.946 228.204 439.829 227.187 440.909 226.413C441.231 226.187 441.607 226.049 441.999 226.013C442.391 225.977 442.786 226.044 443.144 226.207L440.482 224.839C440.118 224.664 439.714 224.588 439.311 224.619C438.908 224.65 438.521 224.786 438.188 225.015C437.107 225.79 436.223 226.806 435.605 227.984C434.987 229.161 434.652 230.466 434.629 231.796V253.034C434.573 253.57 434.655 254.112 434.866 254.608C435.077 255.105 435.41 255.54 435.835 255.872L438.614 257.343C438.172 257.024 437.823 256.593 437.603 256.094C437.383 255.595 437.301 255.046 437.364 254.504Z"
      fill="#455A64" />
    <path
      d="M440.923 308.556C438.967 309.688 437.379 308.556 437.379 305.879V284.626C437.4 283.298 437.731 281.993 438.347 280.816C438.962 279.638 439.845 278.621 440.923 277.846C442.88 276.713 444.468 277.846 444.468 280.537V301.775C444.45 303.104 444.121 304.411 443.505 305.589C442.889 306.766 442.005 307.783 440.923 308.556Z"
      fill="#37474F" />
    <path
      d="M437.364 305.879V284.626C437.385 283.298 437.717 281.993 438.332 280.815C438.947 279.638 439.83 278.621 440.909 277.846C441.233 277.624 441.608 277.489 442 277.453C442.391 277.417 442.785 277.481 443.144 277.64L440.482 276.257C440.12 276.074 439.715 275.994 439.31 276.025C438.906 276.056 438.517 276.198 438.188 276.434C437.104 277.206 436.218 278.222 435.6 279.4C434.981 280.577 434.649 281.884 434.628 283.214V304.511C434.572 305.048 434.653 305.59 434.864 306.086C435.075 306.583 435.409 307.018 435.834 307.349L438.614 308.82C438.154 308.494 437.793 308.046 437.572 307.527C437.351 307.007 437.279 306.437 437.364 305.879Z"
      fill="#455A64" />
    <path
      d="M397.653 137.548L210.688 29.563C209.907 29.1141 209.023 28.877 208.123 28.8754C207.223 28.8737 206.338 29.1075 205.556 29.5535C204.774 29.9995 204.122 30.6422 203.665 31.4178C203.208 32.1935 202.962 33.0752 202.951 33.9753V442.044C202.951 455.663 212.614 472.386 224.41 479.196L406.787 584.548C407.652 585.046 408.632 585.307 409.63 585.306C410.628 585.306 411.608 585.042 412.472 584.543C413.336 584.044 414.054 583.327 414.554 582.463C415.053 581.599 415.316 580.619 415.317 579.621V168.184C415.391 156.947 407.419 143.166 397.653 137.548Z"
      fill="#00A352" />
    <path opacity="0.9"
      d="M397.653 137.548L210.688 29.563C209.907 29.1141 209.023 28.877 208.123 28.8754C207.223 28.8737 206.338 29.1075 205.556 29.5535C204.774 29.9995 204.122 30.6422 203.665 31.4178C203.208 32.1935 202.962 33.0752 202.951 33.9753V442.044C202.951 455.663 212.614 472.386 224.41 479.196L406.787 584.548C407.652 585.046 408.632 585.307 409.63 585.306C410.628 585.306 411.608 585.042 412.472 584.543C413.336 584.044 414.054 583.327 414.554 582.463C415.053 581.599 415.316 580.619 415.317 579.621V168.184C415.391 156.947 407.419 143.166 397.653 137.548Z"
      fill="white" />
    <path d="M266.606 57.7579L269.504 69.9507L331.483 105.691L342.19 99.9841L266.606 57.7579Z" fill="#455A64" />
    <path
      d="M284.829 69.5389C284.829 71.5686 283.358 72.3775 281.652 71.3774C280.736 70.7693 279.976 69.9549 279.432 68.9996C278.888 68.0442 278.575 66.9746 278.52 65.8767C278.52 63.8617 279.99 63.0381 281.696 64.0529C282.612 64.6578 283.373 65.4695 283.917 66.4224C284.461 67.3754 284.773 68.4429 284.829 69.5389Z"
      fill="#263238" />
    <path
      d="M326.585 95.3511C326.246 95.3484 325.912 95.2625 325.614 95.1011L293.963 77.4517C293.516 77.1893 293.19 76.7625 293.053 76.2625C292.917 75.7626 292.981 75.2291 293.232 74.7759C293.484 74.3228 293.903 73.986 294.399 73.8374C294.896 73.6888 295.431 73.7402 295.89 73.9807L327.556 91.63C327.941 91.844 328.243 92.1798 328.417 92.5847C328.59 92.9896 328.624 93.4406 328.512 93.8668C328.401 94.2929 328.152 94.67 327.803 94.9387C327.454 95.2074 327.025 95.3525 326.585 95.3511Z"
      fill="#263238" />
    <path
      d="M242.162 114.486C240.235 113.368 238.838 114.339 238.838 116.795C238.838 118.023 239.141 119.233 239.721 120.315C240.301 121.398 241.14 122.321 242.162 123.002C242.709 123.334 243.338 123.51 243.978 123.51C244.619 123.51 245.247 123.334 245.795 123.002L248.869 128.561C247.787 129.158 246.561 129.442 245.328 129.383C244.094 129.323 242.901 128.921 241.882 128.223C239.385 126.695 237.303 124.575 235.82 122.051C234.337 119.527 233.5 116.676 233.381 113.751C233.381 108.294 237.044 106.397 242.088 109.338C244.937 111.173 247.271 113.704 248.869 116.692L245.795 119.134C245.037 117.278 243.779 115.67 242.162 114.486Z"
      fill="#00A352" />
    <path
      d="M266.562 132.915C266.562 138.416 262.841 140.269 257.738 137.327C255.169 135.792 253.02 133.646 251.48 131.081C249.941 128.515 249.059 125.608 248.913 122.619C248.913 117.119 252.634 115.265 257.738 118.207C260.313 119.735 262.467 121.879 264.007 124.447C265.548 127.014 266.426 129.924 266.562 132.915ZM254.37 125.899C254.395 127.162 254.721 128.401 255.319 129.513C255.918 130.625 256.772 131.58 257.811 132.297C259.635 133.356 261.106 132.297 261.106 129.797C261.101 128.562 260.799 127.347 260.226 126.254C259.652 125.161 258.824 124.222 257.811 123.517C255.958 122.443 254.37 123.355 254.37 125.899Z"
      fill="#00A352" />
    <path
      d="M272.489 127.076L278.843 140.313V130.782L283.653 133.562V152.109L279.24 149.549L272.916 136.43V145.902L268.077 143.107V124.517L272.489 127.076Z"
      fill="#00A352" />
    <path
      d="M299.375 142.593V147.446L294.786 144.799V158.507L289.477 155.433V141.725L284.917 139.092V134.253L299.375 142.593Z"
      fill="#00A352" />
    <path
      d="M309.73 164.507L303.7 161.022L302.876 163.169L297.434 160.021L304.214 145.387L309.671 148.535L316.201 170.861L310.539 167.596L309.73 164.507ZM308.421 159.36L306.774 153.021L305.082 157.433L308.421 159.36Z"
      fill="#00A352" />
    <path
      d="M324.629 162.095C322.702 160.992 321.305 161.948 321.305 164.419C321.307 165.647 321.612 166.855 322.192 167.938C322.771 169.02 323.608 169.943 324.629 170.626C325.18 170.955 325.81 171.129 326.452 171.129C327.095 171.129 327.725 170.955 328.276 170.626L331.35 176.185C330.264 176.775 329.037 177.056 327.802 176.996C326.568 176.936 325.373 176.539 324.349 175.847C321.85 174.318 319.767 172.196 318.284 169.669C316.801 167.141 315.964 164.288 315.848 161.36C315.848 155.903 319.525 154.006 324.555 156.948C327.4 158.791 329.737 161.32 331.35 164.301L328.276 166.728C327.501 164.883 326.241 163.282 324.629 162.095Z"
      fill="#00A352" />
    <path
      d="M345.852 169.434V174.273L341.263 171.626V185.378L335.953 182.304V168.596L331.394 165.963V161.125L345.852 169.434Z"
      fill="#00A352" />
    <path
      d="M361.545 192.202C362.854 192.952 363.854 192.364 363.854 190.525V179.833L369.179 182.892V193.585C369.179 198.512 366.237 199.983 361.53 197.291C359.263 196.032 357.357 194.212 355.995 192.005C354.632 189.798 353.859 187.278 353.75 184.686V173.994L359.074 177.068V187.76C359.095 188.646 359.33 189.513 359.761 190.287C360.191 191.06 360.804 191.718 361.545 192.202Z"
      fill="#00A352" />
    <path
      d="M377.753 192.261C377.15 191.923 376.768 191.908 376.768 192.467C376.768 194.791 385.078 198.144 385.078 204.865C385.078 208.984 381.945 208.998 378.327 206.91C375.146 204.961 372.407 202.371 370.282 199.306L372.253 195.835C373.87 198.339 375.946 200.515 378.371 202.247C379.151 202.703 379.651 202.703 379.651 202.042C379.651 199.63 371.326 196.423 371.326 189.908C371.326 186.201 374.032 185.495 378.209 187.849C380.9 189.476 383.268 191.585 385.195 194.07L383.269 197.629C381.677 195.602 379.822 193.797 377.753 192.261Z"
      fill="#00A352" />
    <path
      d="M215.409 205.88C221.376 198.551 224.38 189.251 223.828 179.816C223.276 170.38 219.207 161.494 212.425 154.911C205.643 148.328 196.64 144.526 187.192 144.255C177.744 143.984 168.538 147.264 161.39 153.447C154.241 159.63 149.67 168.268 148.577 177.656C147.485 187.045 149.95 196.501 155.488 204.161C161.025 211.821 169.233 217.127 178.49 219.032C187.748 220.938 197.383 219.305 205.496 214.455L223.91 222.456L215.409 205.88Z"
      fill="#00A352" />
    <path opacity="0.4"
      d="M215.409 205.88C221.376 198.551 224.38 189.251 223.828 179.816C223.276 170.38 219.207 161.494 212.425 154.911C205.643 148.328 196.64 144.526 187.192 144.255C177.744 143.984 168.538 147.264 161.39 153.447C154.241 159.63 149.67 168.268 148.577 177.656C147.485 187.045 149.95 196.501 155.488 204.161C161.025 211.821 169.233 217.127 178.49 219.032C187.748 220.938 197.383 219.305 205.496 214.455L223.91 222.456L215.409 205.88Z"
      fill="black" />
    <path
      d="M172.109 179.995C172.109 179.421 171.697 179.097 170.947 179.097C169.207 179.325 167.582 180.092 166.299 181.289L164.211 177.23C166.409 175.575 169.065 174.64 171.815 174.553C175.345 174.553 178.022 176.406 178.022 179.171C178.022 181.142 176.551 183.039 174.668 184.936L172.036 187.54H178.257V191.864H164.888V188.319L170.844 182.157C171.486 181.589 171.929 180.832 172.109 179.995Z"
      fill="white" />
    <path
      d="M189.141 174.803L185.081 184.539H186.743V181.259H191.862V184.539H193.803V188.555H191.862V191.864H186.743V188.555H179.463V184.907L183.875 174.803H189.141Z"
      fill="white" />
    <path
      d="M209.599 183.377V191.864H204.128V184.951C204.159 184.726 204.142 184.497 204.078 184.279C204.013 184.061 203.902 183.859 203.753 183.688C203.604 183.517 203.42 183.379 203.213 183.285C203.006 183.191 202.781 183.142 202.554 183.142C201.48 183.142 200.804 183.98 200.804 185.275V191.864H195.333V173.832H200.804V180.465C201.232 179.789 201.828 179.235 202.535 178.859C203.241 178.482 204.034 178.296 204.834 178.318C205.49 178.301 206.142 178.423 206.747 178.675C207.353 178.927 207.898 179.305 208.348 179.782C208.798 180.26 209.141 180.827 209.357 181.446C209.573 182.066 209.655 182.724 209.599 183.377Z"
      fill="white" />
    <path
      d="M388.004 320.042V502.787C388.007 504.854 387.466 506.885 386.434 508.676C385.403 510.467 383.918 511.955 382.129 512.99C380.339 514.025 378.309 514.57 376.242 514.571C374.176 514.571 372.145 514.028 370.355 512.994L271.93 456.163L254.487 446.103C248.48 442.63 243.49 437.641 240.016 431.635C236.542 425.629 234.706 418.816 234.69 411.878V229.119C234.687 227.052 235.228 225.02 236.26 223.229C237.291 221.438 238.776 219.95 240.566 218.916C242.355 217.881 244.385 217.336 246.452 217.335C248.519 217.334 250.549 217.878 252.339 218.911L368.237 285.817C374.246 289.285 379.237 294.273 382.706 300.281C386.176 306.289 388.004 313.104 388.004 320.042Z"
      fill="#00A352" />
    <path opacity="0.5"
      d="M388.004 320.042V502.787C388.007 504.854 387.466 506.885 386.434 508.676C385.403 510.467 383.918 511.955 382.129 512.99C380.339 514.025 378.309 514.57 376.242 514.571C374.176 514.571 372.145 514.028 370.355 512.994L271.93 456.163L254.487 446.103C248.48 442.63 243.49 437.641 240.016 431.635C236.542 425.629 234.706 418.816 234.69 411.878V229.119C234.687 227.052 235.228 225.02 236.26 223.229C237.291 221.438 238.776 219.95 240.566 218.916C242.355 217.881 244.385 217.336 246.452 217.335C248.519 217.334 250.549 217.878 252.339 218.911L368.237 285.817C374.246 289.285 379.237 294.273 382.706 300.281C386.176 306.289 388.004 313.104 388.004 320.042Z"
      fill="white" />
    <path d="M331.306 428.174C331.306 428.174 349.735 458.737 336.424 493.198L271.886 456.163L331.306 428.174Z"
      fill="#263238" />
    <path
      d="M360.696 290.858C362.091 279.531 354.039 269.218 342.712 267.823C331.385 266.428 321.072 274.48 319.677 285.807C318.282 297.134 326.334 307.447 337.661 308.842C348.988 310.237 359.301 302.185 360.696 290.858Z"
      fill="#263238" />
    <path
      d="M340.292 230.369C340.292 230.369 346.632 220.073 348.573 220.824C350.514 221.574 347.308 231.384 347.308 231.384C347.308 231.384 356.898 233.384 355.118 235.796C353.338 238.208 341.616 237.635 341.616 237.635L340.292 230.369Z"
      fill="#263238" />
    <path
      d="M344.705 256.902C340.293 290.053 312.348 290.053 312.348 290.053L253.811 264.285C253.811 264.285 249.398 260.417 248.045 251.534C247.526 247.895 247.526 244.2 248.045 240.562C248.045 240.562 248.045 240.488 248.045 240.459C249.913 226.516 260.341 211.528 283.05 206.925C288.026 205.92 293.093 205.427 298.169 205.454C300.626 205.445 303.08 205.568 305.523 205.822C323.173 207.557 335.542 215.794 341.44 228.604C342.766 231.495 343.754 234.531 344.381 237.649C345.578 244.002 345.688 250.512 344.705 256.902Z"
      fill="#263238" />
    <path
      d="M204.171 321.028C204.171 321.028 183.389 320.307 175.388 340.56C175.388 340.56 184.213 346.517 195.788 340.56C207.363 334.603 204.171 321.028 204.171 321.028Z"
      fill="#00A352" />
    <path opacity="0.5"
      d="M204.171 321.028C204.171 321.028 183.389 320.307 175.388 340.56C175.388 340.56 184.213 346.517 195.788 340.56C207.363 334.603 204.171 321.028 204.171 321.028Z"
      fill="black" />
    <path
      d="M203.583 330.779C203.583 330.779 197.7 305.217 194.597 304.908C191.493 304.6 190.89 312.704 191.14 317.278L183.786 301.452C183.553 300.96 183.222 300.522 182.812 300.163C182.403 299.804 181.924 299.533 181.406 299.366C180.888 299.199 180.341 299.141 179.8 299.193C179.258 299.246 178.733 299.409 178.256 299.672C170.902 303.717 158.004 316.013 185.198 346.414L203.583 330.779Z"
      fill="#945959" />
    <path
      d="M278.887 313.1L274.475 312.527C270.028 311.937 265.505 312.542 261.369 314.279C257.233 316.016 253.635 318.823 250.943 322.411L224.689 357.356L204.098 321.028C204.098 321.028 201.627 345.737 175.315 340.56L203.569 388.11C205.357 391.121 207.845 393.654 210.823 395.496C213.801 397.338 217.179 398.433 220.671 398.689C224.163 398.945 227.665 398.353 230.879 396.964C234.094 395.576 236.925 393.431 239.132 390.714L263.312 360.989L278.887 313.1Z"
      fill="#00A352" />
    <path
      d="M334.924 394.655C329.041 409.569 328.394 412.481 331.983 419.938C334.482 425.445 336.452 431.178 337.866 437.058C337.866 437.058 310.598 467.621 271.784 456.178L254.34 446.118C250.713 444.026 247.445 441.364 244.662 438.235L249.972 398.641C250.239 396.557 250.028 394.439 249.354 392.449L243.78 376.109C241.06 368.128 240.655 359.54 242.612 351.338C244.57 343.137 248.809 335.657 254.84 329.764L273.578 311.453L322.79 317.748L330.144 319.851C334.959 321.244 339.109 324.327 341.832 328.533C344.556 332.74 345.67 337.789 344.97 342.751C342.558 360.107 338.616 385.286 334.924 394.655Z"
      fill="#00A352" />
    <path opacity="0.5"
      d="M334.924 394.655C329.041 409.569 328.394 412.481 331.983 419.938C334.482 425.445 336.452 431.178 337.866 437.058C337.866 437.058 310.598 467.621 271.784 456.178L254.34 446.118C250.713 444.026 247.445 441.364 244.662 438.235L249.972 398.641C250.239 396.557 250.028 394.439 249.354 392.449L243.78 376.109C241.06 368.128 240.655 359.54 242.612 351.338C244.57 343.137 248.809 335.657 254.84 329.764L273.578 311.453L322.79 317.748L330.144 319.851C334.959 321.244 339.109 324.327 341.832 328.533C344.556 332.74 345.67 337.789 344.97 342.751C342.558 360.107 338.616 385.286 334.924 394.655Z"
      fill="black" />
    <path
      d="M305.244 350.105L295.39 341.707C294.346 340.814 293.088 340.209 291.739 339.951C290.39 339.693 288.997 339.791 287.697 340.236L275.784 344.34L274.181 337.662C273.931 336.624 273.473 335.646 272.834 334.789C272.196 333.932 271.391 333.213 270.467 332.676C269.544 332.138 268.521 331.794 267.461 331.662C266.4 331.531 265.324 331.616 264.297 331.912L259.135 333.382L267.871 316.645C270.724 311.194 275.118 306.703 280.505 303.731L283.932 301.849L312.245 303.32C312.245 303.32 322.79 307.732 322.79 317.66L305.244 350.017"
      fill="#00A352" />
    <path d="M312.362 315.865L283.976 337.986V267.55H312.362V315.865Z" fill="#945959" />
    <path d="M284.417 310.056L275.784 344.399L312.244 315.865L284.417 310.056Z" fill="#945959" />
    <path
      d="M283.976 304.952C290.288 302.609 296.058 299.006 300.935 294.364C305.812 289.722 309.695 284.137 312.348 277.949V267.55H283.961L283.976 304.952Z"
      fill="#703838" />
    <path
      d="M290.095 215.352C279.329 215.352 256.443 221.353 253.796 249.533C251.148 277.713 253.708 299.54 268.239 301.658C282.77 303.776 316.539 293.23 321.069 256.755C325.599 220.279 300.581 215.352 290.095 215.352Z"
      fill="#945959" />
    <path d="M273.151 261.461V278.066L263.415 275.081L273.151 261.461Z" fill="#703838" />
    <path
      d="M283.976 267.712C285.844 267.712 287.359 266.198 287.359 264.329C287.359 262.461 285.844 260.947 283.976 260.947C282.108 260.947 280.593 262.461 280.593 264.329C280.593 266.198 282.108 267.712 283.976 267.712Z"
      fill="#263238" />
    <path
      d="M265.091 261.976C265.088 262.645 264.887 263.297 264.514 263.851C264.141 264.406 263.611 264.837 262.993 265.091C262.374 265.345 261.695 265.41 261.04 265.277C260.384 265.145 259.783 264.822 259.311 264.348C258.84 263.875 258.519 263.272 258.39 262.616C258.26 261.96 258.328 261.281 258.585 260.663C258.841 260.046 259.275 259.519 259.831 259.148C260.387 258.777 261.04 258.579 261.708 258.579C262.154 258.579 262.595 258.667 263.006 258.838C263.418 259.008 263.791 259.259 264.106 259.575C264.42 259.89 264.669 260.265 264.838 260.677C265.007 261.089 265.093 261.531 265.091 261.976Z"
      fill="#263238" />
    <path
      d="M257.576 254.916L264.194 250.989C264.194 250.989 261.664 248.357 259.135 249.93C256.605 251.504 257.576 254.916 257.576 254.916Z"
      fill="#263238" />
    <path
      d="M268.577 284.803C271.8 285.038 275.008 284.178 277.681 282.361C277.681 282.361 278.314 287.171 274.284 288.082C270.254 288.994 268.577 284.803 268.577 284.803Z"
      fill="#703838" />
    <path
      d="M262.797 224.942C262.797 224.942 266.842 263.844 319.746 265.065C319.746 265.065 335.733 226.398 304.141 213.837C272.548 201.277 262.797 224.942 262.797 224.942Z"
      fill="#263238" />
    <path
      d="M335.321 259.24L328.82 255.475C326.35 254.004 322.937 254.21 319.157 256.387C311.656 260.711 305.567 271.257 305.567 279.92C305.567 284.258 307.038 287.273 309.568 288.744L315.951 292.421L316.319 292.627L316.539 292.76C318.951 293.936 322.172 293.657 325.717 291.612C333.218 287.2 339.307 276.743 339.307 268.08C339.263 263.697 337.748 260.667 335.321 259.24Z"
      fill="#00A352" />
    <path
      d="M335.27 281.393C340.574 272.206 340.574 262.276 335.27 259.214C329.966 256.151 321.366 261.117 316.062 270.304C310.757 279.491 310.757 289.421 316.061 292.484C321.366 295.546 329.965 290.581 335.27 281.393Z"
      fill="#00A352" />
    <path opacity="0.5"
      d="M335.27 281.393C340.574 272.206 340.574 262.276 335.27 259.214C329.966 256.151 321.366 261.117 316.062 270.304C310.757 279.491 310.757 289.421 316.061 292.484C321.366 295.546 329.965 290.581 335.27 281.393Z"
      fill="black" />
    <path
      d="M337.924 267.403L333.512 264.829C331.835 263.829 329.497 263.962 326.908 265.447C324.204 267.214 321.954 269.593 320.339 272.391C318.724 275.188 317.79 278.327 317.613 281.552C317.613 284.494 318.657 286.597 320.348 287.568L324.761 290.083C324.839 290.14 324.923 290.189 325.011 290.23L325.158 290.318C326.192 290.71 327.307 290.843 328.404 290.705C329.502 290.566 330.548 290.161 331.453 289.524C334.155 287.758 336.404 285.382 338.019 282.587C339.633 279.792 340.568 276.656 340.748 273.433C340.631 270.448 339.601 268.374 337.924 267.403Z"
      fill="#00A352" />
    <path
      d="M340.631 273.404C340.451 276.627 339.516 279.762 337.901 282.557C336.287 285.352 334.038 287.729 331.335 289.494C326.188 292.436 322.025 290.053 322.025 284.126C322.2 280.9 323.134 277.761 324.752 274.965C326.37 272.169 328.626 269.794 331.335 268.036C336.468 265.065 340.631 267.462 340.631 273.404Z"
      fill="#00A352" />
    <path opacity="0.3"
      d="M340.631 273.404C340.451 276.627 339.516 279.762 337.901 282.557C336.287 285.352 334.038 287.729 331.335 289.494C326.188 292.436 322.025 290.053 322.025 284.126C322.2 280.9 323.134 277.761 324.752 274.965C326.37 272.169 328.626 269.794 331.335 268.036C336.468 265.065 340.631 267.462 340.631 273.404Z"
      fill="black" />
    <path
      d="M315.127 207.763C310.911 204.506 305.747 202.714 300.419 202.659H299.11C293.716 202.601 288.329 203.094 283.035 204.13C284.005 204.13 284.976 204.13 285.976 204.13H283.035V206.866H285.77C295.198 207.187 304.132 211.161 310.684 217.948C317.235 224.736 320.891 233.805 320.878 243.238V254.813C320.877 255.271 320.973 255.723 321.159 256.142C321.345 256.56 321.616 256.934 321.956 257.241C322.296 257.547 322.696 257.779 323.131 257.921C323.566 258.062 324.026 258.111 324.481 258.064H324.82L327.761 257.152C327.565 257.214 327.363 257.253 327.158 257.27C328.035 257.151 328.838 256.713 329.413 256.04C329.988 255.368 330.295 254.507 330.276 253.622V242.885C330.247 223.456 321.849 213.014 315.127 207.763Z"
      fill="#00A352" />
    <path
      d="M296.61 300.849C295.397 300.849 294.198 300.588 293.095 300.084L283.903 295.833C283.759 295.782 283.627 295.701 283.516 295.597C283.405 295.492 283.317 295.365 283.258 295.224C283.198 295.084 283.169 294.932 283.171 294.779C283.173 294.627 283.207 294.476 283.27 294.337C283.334 294.198 283.425 294.074 283.539 293.972C283.653 293.87 283.787 293.793 283.932 293.746C284.077 293.699 284.23 293.682 284.382 293.697C284.534 293.712 284.681 293.758 284.815 293.833L294.007 298.084C295.179 298.629 296.493 298.795 297.764 298.557C299.034 298.32 300.2 297.692 301.096 296.76L309.921 287.641C310.128 287.435 310.408 287.319 310.7 287.319C310.993 287.319 311.273 287.435 311.48 287.641C311.683 287.85 311.797 288.13 311.797 288.421C311.797 288.712 311.683 288.992 311.48 289.2L302.655 298.319C301.87 299.126 300.929 299.766 299.891 300.2C298.852 300.635 297.736 300.856 296.61 300.849Z"
      fill="#00A352" />
    <path opacity="0.5"
      d="M296.61 300.849C295.397 300.849 294.198 300.588 293.095 300.084L283.903 295.833C283.759 295.782 283.627 295.701 283.516 295.597C283.405 295.492 283.317 295.365 283.258 295.224C283.198 295.084 283.169 294.932 283.171 294.779C283.173 294.627 283.207 294.476 283.27 294.337C283.334 294.198 283.425 294.074 283.539 293.972C283.653 293.87 283.787 293.793 283.932 293.746C284.077 293.699 284.23 293.682 284.382 293.697C284.534 293.712 284.681 293.758 284.815 293.833L294.007 298.084C295.179 298.629 296.493 298.795 297.764 298.557C299.034 298.32 300.2 297.692 301.096 296.76L309.921 287.641C310.128 287.435 310.408 287.319 310.7 287.319C310.993 287.319 311.273 287.435 311.48 287.641C311.683 287.85 311.797 288.13 311.797 288.421C311.797 288.712 311.683 288.992 311.48 289.2L302.655 298.319C301.87 299.126 300.929 299.766 299.891 300.2C298.852 300.635 297.736 300.856 296.61 300.849Z"
      fill="black" />
    <path
      d="M286.315 292.745C286.315 293.594 286.063 294.425 285.591 295.131C285.119 295.837 284.449 296.388 283.664 296.713C282.879 297.038 282.016 297.123 281.182 296.957C280.349 296.791 279.584 296.382 278.983 295.782C278.383 295.181 277.974 294.416 277.808 293.583C277.642 292.75 277.727 291.886 278.052 291.101C278.378 290.317 278.928 289.646 279.634 289.174C280.341 288.702 281.171 288.45 282.02 288.45C283.159 288.45 284.252 288.903 285.057 289.708C285.862 290.513 286.315 291.606 286.315 292.745Z"
      fill="#00A352" />
    <path opacity="0.5"
      d="M286.315 292.745C286.315 293.594 286.063 294.425 285.591 295.131C285.119 295.837 284.449 296.388 283.664 296.713C282.879 297.038 282.016 297.123 281.182 296.957C280.349 296.791 279.584 296.382 278.983 295.782C278.383 295.181 277.974 294.416 277.808 293.583C277.642 292.75 277.727 291.886 278.052 291.101C278.378 290.317 278.928 289.646 279.634 289.174C280.341 288.702 281.171 288.45 282.02 288.45C283.159 288.45 284.252 288.903 285.057 289.708C285.862 290.513 286.315 291.606 286.315 292.745Z"
      fill="black" />
    <path
      d="M330.247 242.885V253.622C330.266 254.507 329.958 255.368 329.383 256.04C328.808 256.713 328.006 257.151 327.129 257.27C326.644 257.321 326.154 257.27 325.691 257.12C325.227 256.97 324.8 256.724 324.438 256.398C324.076 256.072 323.787 255.673 323.589 255.228C323.391 254.782 323.289 254.301 323.29 253.813V242.885C323.298 237.67 322.251 232.507 320.212 227.706C318.173 222.906 315.184 218.568 311.425 214.953C307.665 211.338 303.214 208.52 298.337 206.671C293.461 204.821 288.26 203.977 283.049 204.189C288.344 203.153 293.73 202.66 299.125 202.718H300.405C305.732 202.773 310.896 204.565 315.112 207.822C321.849 213.014 330.247 223.456 330.247 242.885Z"
      fill="#00A352" />
    <path opacity="0.5"
      d="M330.247 242.885V253.622C330.266 254.507 329.958 255.368 329.383 256.04C328.808 256.713 328.006 257.151 327.129 257.27C326.644 257.321 326.154 257.27 325.691 257.12C325.227 256.97 324.8 256.724 324.438 256.398C324.076 256.072 323.787 255.673 323.589 255.228C323.391 254.782 323.289 254.301 323.29 253.813V242.885C323.298 237.67 322.251 232.507 320.212 227.706C318.173 222.906 315.184 218.568 311.425 214.953C307.665 211.338 303.214 208.52 298.337 206.671C293.461 204.821 288.26 203.977 283.049 204.189C288.344 203.153 293.73 202.66 299.125 202.718H300.405C305.732 202.773 310.896 204.565 315.112 207.822C321.849 213.014 330.247 223.456 330.247 242.885Z"
      fill="black" />
    <path
      d="M313.715 445.221C313.715 445.221 306.597 464.826 332.041 473.651C332.041 473.651 340.351 461.444 332.041 451.457C323.731 441.47 313.715 445.221 313.715 445.221Z"
      fill="#00A352" />
    <path opacity="0.7"
      d="M313.715 445.221C313.715 445.221 306.597 464.826 332.041 473.651C332.041 473.651 340.351 461.444 332.041 451.457C323.731 441.47 313.715 445.221 313.715 445.221Z"
      fill="black" />
    <path
      d="M322.643 446.118C322.643 446.118 297.787 455.222 297.919 458.752C298.052 462.282 308.479 459.87 308.479 459.87L304.67 462.37C300.659 464.988 297.552 468.778 295.772 473.225C295.384 474.205 295.37 475.295 295.734 476.285C296.097 477.275 296.812 478.096 297.743 478.593L307.185 483.594C307.718 483.877 308.303 484.05 308.904 484.103C309.505 484.156 310.111 484.088 310.686 483.903C311.26 483.717 311.792 483.419 312.249 483.025C312.706 482.631 313.08 482.149 313.348 481.608C313.874 480.568 314.601 479.643 315.487 478.885C316.374 478.128 317.401 477.554 318.51 477.196C323.643 475.49 333.218 470.577 337.057 457.134L322.643 446.118Z"
      fill="#945959" />
    <path
      d="M330.1 319.822C330.1 319.822 316.863 327.176 323.893 349.502C330.923 371.829 344.116 406.466 344.116 406.466L313.715 445.221C316.963 445.613 320.092 446.685 322.898 448.368C325.703 450.05 328.122 452.306 329.997 454.987C331.793 457.713 332.915 460.827 333.27 464.072C333.626 467.318 333.204 470.601 332.041 473.651L369.782 425.115C373.272 420.63 375.589 415.345 376.524 409.74C377.458 404.134 376.981 398.383 375.135 393.008L358.957 345.767C356.979 339.996 353.693 334.761 349.355 330.472C345.017 326.183 339.746 322.955 333.953 321.043L330.1 319.822Z"
      fill="#00A352" />
    <path
      d="M106.659 187.937L48.1657 154.109C47.4926 153.642 46.7138 153.351 45.8997 153.261C45.0857 153.171 44.2621 153.286 43.5034 153.594C43.3435 153.668 43.1908 153.757 43.0474 153.859L30.3252 161.316H30.4134C28.8102 162.228 27.7954 164.346 27.7954 167.375V232.443C27.7954 237.944 31.1341 244.342 35.267 246.724L93.76 280.552C94.5022 281.089 95.3856 281.396 96.3008 281.435C97.2159 281.474 98.1224 281.244 98.9077 280.773C98.868 280.789 98.8326 280.814 98.8048 280.846L111.439 273.492C113.086 272.61 114.13 270.463 114.13 267.389V202.218C114.13 196.718 110.85 190.32 106.659 187.937Z"
      fill="#00A352" />
    <path
      d="M112.042 194.1C110.858 191.583 108.994 189.448 106.659 187.937L48.1658 154.109C47.4927 153.642 46.7138 153.351 45.8998 153.261C45.0857 153.171 44.2621 153.286 43.5034 153.594C43.3435 153.668 43.1909 153.757 43.0475 153.859L30.3252 161.316C31.1034 160.918 31.9761 160.742 32.8477 160.807C33.7193 160.872 34.5562 161.175 35.267 161.684L93.76 195.512C96.1743 197.09 98.0878 199.325 99.2755 201.954L112.042 194.1Z"
      fill="#00A352" />
    <path
      d="M101.231 274.831C101.231 277.772 100.29 279.817 98.8047 280.714L111.439 273.36C113.086 272.478 114.13 270.33 114.13 267.256V202.218C114.068 199.387 113.353 196.609 112.042 194.1L99.2753 201.954C100.501 204.389 101.169 207.067 101.231 209.793V274.831Z"
      fill="#00A352" />
    <path opacity="0.3"
      d="M112.042 194.1C110.858 191.583 108.994 189.448 106.659 187.937L48.1658 154.109C47.4927 153.642 46.7138 153.351 45.8998 153.261C45.0857 153.171 44.2621 153.286 43.5034 153.594C43.3435 153.668 43.1909 153.757 43.0475 153.859L30.3252 161.316C31.1034 160.918 31.9761 160.742 32.8477 160.807C33.7193 160.872 34.5562 161.175 35.267 161.684L93.76 195.512C96.1743 197.09 98.0878 199.325 99.2755 201.954L112.042 194.1Z"
      fill="black" />
    <path opacity="0.6"
      d="M101.231 274.831C101.231 277.772 100.29 279.817 98.8047 280.714L111.439 273.36C113.086 272.478 114.13 270.33 114.13 267.256V202.218C114.068 199.387 113.353 196.609 112.042 194.1L99.2753 201.954C100.501 204.389 101.169 207.067 101.231 209.793V274.831Z"
      fill="black" />
    <path
      d="M84.0822 228.428C84.0822 236.855 80.7435 239.723 75.7428 236.826C74.3634 236.04 73.1571 234.984 72.1966 233.72C71.2361 232.456 70.5412 231.011 70.1539 229.472C68.6831 231.281 66.4034 231.399 63.1971 229.545C57.9317 226.501 53.784 219.25 53.784 212.205C53.784 205.16 57.8875 202.733 63.1971 205.792C65.8913 207.38 68.0676 209.715 69.4626 212.514V209.734L75.0074 212.94V228.178C74.9249 228.979 75.0635 229.789 75.4084 230.517C75.7532 231.246 76.2911 231.866 76.9636 232.31C78.8315 233.399 79.9787 231.56 79.9787 226.104C79.9787 216.558 73.8602 206.439 64.8149 201.218C55.7696 195.997 49.6659 199.63 49.6659 209.454C49.7844 214.668 51.2209 219.766 53.8415 224.275C56.4622 228.783 60.1816 232.554 64.6531 235.237C67.081 236.733 69.8381 237.611 72.6836 237.796L73.9926 242.871C70.6793 242.603 67.4775 241.549 64.6531 239.797C52.8869 232.987 45.1064 219.279 45.1064 206.866C45.1064 194.452 52.9604 189.952 64.8149 196.806C76.2723 203.41 84.0822 216.632 84.0822 228.428ZM69.5508 221.353C69.5794 219.488 69.1244 217.647 68.2299 216.011C67.3355 214.374 66.0323 212.997 64.4472 212.014C61.5057 210.293 59.4024 211.499 59.4024 215.499C59.3646 217.367 59.809 219.214 60.6927 220.86C61.5763 222.506 62.8694 223.897 64.4472 224.898C67.3888 226.56 69.5508 225.486 69.5508 221.353Z"
      fill="#00A352" />
    <g opacity="0.9">
      <path opacity="0.9"
        d="M84.0822 228.428C84.0822 236.855 80.7435 239.723 75.7428 236.826C74.3634 236.04 73.1571 234.984 72.1966 233.72C71.2361 232.456 70.5412 231.011 70.1539 229.472C68.6831 231.281 66.4034 231.399 63.1971 229.545C57.9317 226.501 53.784 219.25 53.784 212.205C53.784 205.16 57.8875 202.733 63.1971 205.792C65.8913 207.38 68.0676 209.715 69.4626 212.514V209.734L75.0074 212.94V228.178C74.9249 228.979 75.0635 229.789 75.4084 230.517C75.7532 231.246 76.2911 231.866 76.9636 232.31C78.8315 233.399 79.9787 231.56 79.9787 226.104C79.9787 216.558 73.8602 206.439 64.8149 201.218C55.7696 195.997 49.6659 199.63 49.6659 209.454C49.7844 214.668 51.2209 219.766 53.8415 224.275C56.4622 228.783 60.1816 232.554 64.6531 235.237C67.081 236.733 69.8381 237.611 72.6836 237.796L73.9926 242.871C70.6793 242.603 67.4775 241.549 64.6531 239.797C52.8869 232.987 45.1064 219.279 45.1064 206.866C45.1064 194.452 52.9604 189.952 64.8149 196.806C76.2723 203.41 84.0822 216.632 84.0822 228.428ZM69.5508 221.353C69.5794 219.488 69.1244 217.647 68.2299 216.011C67.3355 214.374 66.0323 212.997 64.4472 212.014C61.5057 210.293 59.4024 211.499 59.4024 215.499C59.3646 217.367 59.809 219.214 60.6927 220.86C61.5763 222.506 62.8694 223.897 64.4472 224.898C67.3888 226.56 69.5508 225.486 69.5508 221.353Z"
        fill="white" />
    </g>
    <path
      d="M106.659 303.805L48.1657 269.977C47.4935 269.508 46.7138 269.216 45.8987 269.129C45.0837 269.041 44.2598 269.161 43.5034 269.477C43.3435 269.551 43.1908 269.64 43.0474 269.742L30.3252 277.199H30.4134C28.8102 278.111 27.7954 280.229 27.7954 283.244V348.282C27.7954 353.797 31.1341 360.18 35.267 362.563L93.76 396.391C94.5006 396.931 95.3845 397.241 96.3005 397.28C97.2165 397.319 98.1236 397.087 98.9077 396.612L98.8048 396.7L111.439 389.272C113.086 388.405 114.13 386.331 114.13 383.169V318.072C114.13 312.571 110.85 306.188 106.659 303.805Z"
      fill="#00A352" />
    <path
      d="M112.042 309.968C110.862 307.448 108.997 305.312 106.659 303.805L48.1658 269.977C47.4936 269.508 46.7138 269.216 45.8988 269.129C45.0837 269.041 44.2598 269.161 43.5034 269.477C43.3435 269.551 43.1909 269.64 43.0475 269.742L30.3252 277.199C31.1017 276.797 31.9738 276.618 32.8458 276.68C33.7177 276.742 34.5555 277.044 35.267 277.552L93.76 311.38C96.1781 312.96 98.0922 315.201 99.2755 317.836L112.042 309.968Z"
      fill="#00A352" />
    <path
      d="M101.231 390.684C101.231 393.626 100.29 395.67 98.8047 396.641L111.439 389.213C113.086 388.346 114.13 386.272 114.13 383.11V318.072C114.068 315.246 113.353 312.472 112.042 309.968L99.2753 317.822C100.501 320.252 101.169 322.925 101.231 325.646V390.684Z"
      fill="#00A352" />
    <path opacity="0.3"
      d="M112.042 309.968C110.862 307.448 108.997 305.312 106.659 303.805L48.1658 269.977C47.4936 269.508 46.7138 269.216 45.8988 269.129C45.0837 269.041 44.2598 269.161 43.5034 269.477C43.3435 269.551 43.1909 269.64 43.0475 269.742L30.3252 277.199C31.1017 276.797 31.9738 276.618 32.8458 276.68C33.7177 276.742 34.5555 277.044 35.267 277.552L93.76 311.38C96.1781 312.96 98.0922 315.201 99.2755 317.836L112.042 309.968Z"
      fill="black" />
    <path opacity="0.6"
      d="M101.231 390.684C101.231 393.626 100.29 395.67 98.8047 396.641L111.439 389.213C113.086 388.346 114.13 386.272 114.13 383.11V318.072C114.068 315.246 113.353 312.472 112.042 309.968L99.2753 317.822C100.501 320.252 101.169 322.925 101.231 325.646V390.684Z"
      fill="black" />
    <path d="M57.9759 332.883L43.8711 309.968V341.016L57.9759 332.883Z" fill="#00A352" />
    <path d="M71.0806 339.486L85.156 363.857V332.853L71.0806 339.486Z" fill="#00A352" />
    <path
      d="M46.0039 308.924L60.4911 332.456C60.5524 332.508 60.6068 332.567 60.6529 332.633C60.6657 332.691 60.6657 332.751 60.6529 332.809L64.9623 339.81L68.6098 338.089C68.6666 338.028 68.7309 337.973 68.801 337.927C68.9448 337.843 69.1057 337.793 69.2717 337.78L83.9795 330.882L46.0039 308.924Z"
      fill="#00A352" />
    <path
      d="M68.9481 340.486L65.0064 342.34C64.8545 342.41 64.6885 342.446 64.521 342.443C64.318 342.445 64.1178 342.395 63.94 342.297C63.7622 342.199 63.6127 342.057 63.5062 341.884L59.1968 334.883L45.0479 343.06L83.1264 365.034L68.9481 340.486Z"
      fill="#00A352" />
    <g opacity="0.9">
      <path opacity="0.9" d="M57.9759 332.883L43.8711 309.968V341.016L57.9759 332.883Z" fill="white" />
      <path opacity="0.9" d="M71.0806 339.487L85.156 363.857V332.853L71.0806 339.487Z" fill="white" />
      <path opacity="0.9"
        d="M46.0039 308.924L60.4911 332.456C60.5524 332.508 60.6068 332.567 60.6529 332.633C60.6657 332.691 60.6657 332.751 60.6529 332.809L64.9623 339.81L68.6098 338.089C68.6666 338.028 68.7309 337.973 68.801 337.927C68.9448 337.843 69.1057 337.793 69.2717 337.78L83.9795 330.882L46.0039 308.924Z"
        fill="white" />
      <path opacity="0.9"
        d="M68.9481 340.486L65.0064 342.34C64.8545 342.41 64.6885 342.446 64.521 342.443C64.318 342.445 64.1178 342.395 63.94 342.297C63.7622 342.199 63.6127 342.057 63.5062 341.884L59.1968 334.883L45.0479 343.06L83.1264 365.034L68.9481 340.486Z"
        fill="white" />
    </g>
    <path
      d="M106.659 72.1276L48.1657 38.2996C47.4935 37.8305 46.7138 37.5386 45.8987 37.4512C45.0837 37.3638 44.2598 37.4836 43.5034 37.7995C43.3435 37.8734 43.1908 37.962 43.0474 38.0643L30.3252 45.5211H30.4134C28.8102 46.4183 27.7954 48.5509 27.7954 51.566V116.604C27.7954 122.105 31.1341 128.503 35.267 130.885L93.76 164.713C94.5006 165.254 95.3845 165.563 96.3005 165.602C97.2165 165.642 98.1236 165.409 98.9077 164.934L98.8048 165.007L111.439 157.654C113.086 156.786 114.13 154.712 114.13 151.55V86.35C114.13 80.8493 110.85 74.4514 106.659 72.1276Z"
      fill="#00A352" />
    <path
      d="M112.042 78.246C110.863 75.7226 108.997 73.5819 106.659 72.0687L48.1658 38.2996C47.4936 37.8304 46.7138 37.5386 45.8988 37.4512C45.0837 37.3638 44.2598 37.4836 43.5034 37.7995C43.3435 37.8734 43.1909 37.962 43.0475 38.0643L30.3252 45.5211C31.1017 45.1196 31.9738 44.9401 32.8458 45.0024C33.7177 45.0647 34.5555 45.3663 35.267 45.8741L93.76 79.7021C96.1781 81.2826 98.0922 83.5234 99.2755 86.1588L112.042 78.246Z"
      fill="#00A352" />
    <path
      d="M101.231 158.904C101.231 161.845 100.29 163.89 98.8047 164.787L111.439 157.433C113.086 156.565 114.13 154.491 114.13 151.329V86.3501C114.068 83.5239 113.353 80.7504 112.042 78.2461L99.2753 86.1001C100.501 88.5304 101.169 91.2035 101.231 93.9246V158.904Z"
      fill="#00A352" />
    <path opacity="0.3"
      d="M112.042 78.246C110.863 75.7226 108.997 73.5819 106.659 72.0687L48.1658 38.2996C47.4936 37.8304 46.7138 37.5386 45.8988 37.4512C45.0837 37.3638 44.2598 37.4836 43.5034 37.7995C43.3435 37.8734 43.1909 37.962 43.0475 38.0643L30.3252 45.5211C31.1017 45.1196 31.9738 44.9401 32.8458 45.0024C33.7177 45.0647 34.5555 45.3663 35.267 45.8741L93.76 79.7021C96.1781 81.2826 98.0922 83.5234 99.2755 86.1588L112.042 78.246Z"
      fill="black" />
    <path opacity="0.6"
      d="M101.231 158.904C101.231 161.845 100.29 163.89 98.8047 164.787L111.439 157.433C113.086 156.565 114.13 154.491 114.13 151.329V86.3501C114.068 83.5239 113.353 80.7504 112.042 78.2461L99.2753 86.1001C100.501 88.5304 101.169 91.2035 101.231 93.9246V158.904Z"
      fill="black" />
    <path
      d="M82.0969 130.959C79.8466 127.252 77.5816 123.605 75.3313 119.869C74.9743 119.162 74.4754 118.535 73.8655 118.029C73.2556 117.523 72.548 117.148 71.7867 116.928C70.6983 116.707 69.6099 116.457 68.4921 116.133C68.094 115.967 67.7592 115.679 67.5361 115.31C63.8539 109.008 60.9265 102.294 58.8144 95.3071C58.7695 95.1577 58.7567 95.0005 58.777 94.8458C58.7973 94.6912 58.8501 94.5426 58.932 94.4099C59.6233 93.7186 60.4028 93.0862 61.1088 92.4684C61.8148 91.8507 62.1825 90.4241 61.6677 88.5709C60.5793 84.6439 59.5351 80.7169 58.4467 76.8046C58.2361 75.693 57.7364 74.6564 56.998 73.7993C56.2596 72.9421 55.3084 72.2945 54.2403 71.9216C51.8684 71.2622 49.3505 71.3547 47.0334 72.1864C46.1362 72.5246 45.6656 73.3336 45.6509 74.7308C46.0333 77.4223 46.2833 80.0845 46.7981 82.8201C50.426 102.548 59.1527 120.688 72.978 137.239C73.339 137.788 73.8238 138.244 74.3936 138.571C74.9633 138.898 75.6019 139.087 76.2579 139.122C78.5467 139.067 80.7457 138.22 82.4793 136.724C83.7883 135.548 83.6559 133.459 82.0969 130.959Z"
      fill="#00A352" />
    <path
      d="M81.9202 110.912C81.6125 106.682 80.4465 102.558 78.4933 98.7929C77.035 95.8515 75.1791 93.1246 72.9779 90.6889C72.4043 90.0417 71.9189 89.8358 71.6248 90.3212C71.3306 90.8065 71.6248 91.4978 72.1837 92.1302L72.7573 92.7921C76.8225 97.4847 79.3845 103.29 80.1112 109.456C80.104 109.906 80.1484 110.355 80.2435 110.794C80.4283 111.3 80.7249 111.758 81.1113 112.133C81.4202 112.354 81.7732 112.133 82.0232 112.133C81.9349 111.53 81.9496 111.221 81.9202 110.912Z"
      fill="#00A352" />
    <path
      d="M68.5947 98.8369C70.4417 100.868 71.564 103.454 71.7863 106.191C71.8832 106.607 72.0366 107.008 72.2423 107.382C73.1395 108.118 73.5807 107.868 73.5807 106.941C73.2662 103.432 71.8151 100.122 69.4478 97.5132C68.8889 96.9396 68.433 96.7631 68.1682 97.2485C68.073 97.5256 68.0627 97.8249 68.1387 98.1079C68.2147 98.3909 68.3735 98.6448 68.5947 98.8369Z"
      fill="#00A352" />
    <g opacity="0.9">
      <path opacity="0.9"
        d="M82.0969 130.959C79.8466 127.252 77.5816 123.605 75.3313 119.869C74.9743 119.162 74.4754 118.535 73.8655 118.029C73.2556 117.523 72.548 117.148 71.7867 116.928C70.6983 116.707 69.6099 116.457 68.4921 116.133C68.094 115.967 67.7592 115.679 67.5361 115.31C63.8539 109.008 60.9265 102.294 58.8144 95.3071C58.7695 95.1577 58.7567 95.0005 58.777 94.8458C58.7973 94.6912 58.8501 94.5426 58.932 94.4099C59.6233 93.7186 60.4028 93.0862 61.1088 92.4684C61.8148 91.8507 62.1825 90.4241 61.6677 88.5709C60.5793 84.6439 59.5351 80.7169 58.4467 76.8046C58.2361 75.693 57.7364 74.6564 56.998 73.7993C56.2596 72.9421 55.3084 72.2945 54.2403 71.9216C51.8684 71.2622 49.3505 71.3547 47.0334 72.1864C46.1362 72.5246 45.6656 73.3336 45.6509 74.7308C46.0333 77.4223 46.2833 80.0845 46.7981 82.8201C50.426 102.548 59.1527 120.688 72.978 137.239C73.339 137.788 73.8238 138.244 74.3936 138.571C74.9633 138.898 75.6019 139.087 76.2579 139.122C78.5467 139.067 80.7457 138.22 82.4793 136.724C83.7883 135.548 83.6559 133.459 82.0969 130.959Z"
        fill="white" />
      <path opacity="0.9"
        d="M81.9202 110.912C81.6125 106.682 80.4465 102.558 78.4933 98.7928C77.035 95.8514 75.1791 93.1245 72.9779 90.6888C72.4043 90.0416 71.9189 89.8357 71.6248 90.3211C71.3306 90.8064 71.6248 91.4977 72.1837 92.1301L72.7573 92.792C76.8225 97.4846 79.3845 103.29 80.1112 109.456C80.104 109.906 80.1484 110.355 80.2435 110.794C80.4283 111.3 80.7249 111.758 81.1113 112.133C81.4202 112.353 81.7732 112.133 82.0232 112.133C81.9349 111.53 81.9496 111.221 81.9202 110.912Z"
        fill="white" />
      <path opacity="0.9"
        d="M68.5952 98.8369C70.4422 100.868 71.5645 103.454 71.7868 106.191C71.8837 106.607 72.0371 107.008 72.2428 107.382C73.14 108.118 73.5812 107.868 73.5812 106.941C73.2667 103.432 71.8156 100.122 69.4483 97.5132C68.8894 96.9396 68.4334 96.7631 68.1687 97.2485C68.0735 97.5256 68.0632 97.8249 68.1392 98.1079C68.2152 98.3909 68.374 98.6448 68.5952 98.8369Z"
        fill="white" />
    </g>
    <path
      d="M406.772 33.1224L420.553 40.9617V36.0787C420.553 35.7404 420.553 35.3874 420.553 35.0491C420.553 34.7108 420.553 34.3873 420.553 34.0637V33.8872C421.053 27.4305 425.951 24.9448 431.922 28.4012C434.626 30.064 436.943 32.2855 438.717 34.9168C440.056 26.0921 447.218 22.974 455.881 27.96C465.5 33.5195 473.295 47.0801 473.295 58.1404V68.583C473.282 69.4183 473.488 70.2425 473.893 70.9731C474.298 71.7036 474.889 72.3148 475.605 72.7453L483.723 77.4959C485.475 78.5348 486.928 80.0107 487.938 81.7793C488.949 83.5479 489.483 85.5485 489.489 87.5855C489.489 88.4306 489.267 89.2608 488.844 89.9926C488.421 90.7243 487.813 91.3318 487.081 91.7538C486.349 92.1758 485.518 92.3974 484.673 92.3964C483.828 92.3953 482.998 92.1716 482.267 91.7478L406.978 48.2273C404.981 47.0674 403.321 45.405 402.166 43.4054C401.01 41.4057 400.397 39.1384 400.389 36.8288C400.388 36.0812 400.584 35.3465 400.956 34.6984C401.329 34.0503 401.866 33.5115 402.512 33.1361C403.159 32.7607 403.893 32.5618 404.64 32.5594C405.388 32.557 406.123 32.7512 406.772 33.1224Z"
      fill="#8AD8B1" />
    <path
      d="M511.83 31.0779L521.846 36.8287V33.24C521.846 32.9899 521.846 32.7399 521.846 32.4899C521.846 32.2398 521.846 32.0045 521.846 31.7692V31.6809C522.214 26.9891 525.773 25.1801 530.112 27.6951C532.077 28.899 533.762 30.5086 535.054 32.4163C536.039 26.0331 541.246 23.724 547.541 27.3568C554.542 31.4015 560.204 41.2263 560.204 49.3009V56.9049C560.209 57.5009 560.369 58.0854 560.669 58.6011C560.968 59.1167 561.396 59.5459 561.91 59.8464L567.793 63.3028C569.074 64.0556 570.134 65.1307 570.87 66.4209C571.605 67.7112 571.99 69.1716 571.985 70.6567C571.984 71.2649 571.825 71.8625 571.523 72.3904C571.22 72.9182 570.786 73.3583 570.262 73.6671C569.738 73.9758 569.142 74.1428 568.534 74.1513C567.926 74.1599 567.326 74.0098 566.793 73.7159L511.977 42.0647C510.525 41.2244 509.319 40.0171 508.48 38.5638C507.641 37.1105 507.199 35.4622 507.197 33.7842C507.196 33.2411 507.338 32.7072 507.608 32.2359C507.878 31.7646 508.266 31.3724 508.735 31.0984C509.204 30.8245 509.737 30.6784 510.28 30.6748C510.823 30.6712 511.358 30.8102 511.83 31.0779Z"
      fill="#8AD8B1" />
  </g>
  <defs>
    <clipPath id="clip0">
      <rect width="571.465" height="617" fill="white" />
    </clipPath>
  </defs>
</svg>