<svg width="50" height="50" viewBox="0 0 50 50" fill="none" xmlns="http://www.w3.org/2000/svg">
    <path
        d="M33 23C35.7571 23 38 20.7571 38 18C38 15.2429 35.7571 13 33 13C30.9979 13 29.2717 14.1854 28.4738 15.8892L27.135 15.395C27.1508 15.2925 27.1667 15.19 27.1667 15.0833C27.1667 13.9346 26.2321 13 25.0833 13C23.9346 13 23 13.9346 23 15.0833C23 16.2321 23.9346 17.1667 25.0833 17.1667C25.8296 17.1667 26.4804 16.7688 26.8483 16.1775L28.185 16.6708C28.0675 17.095 28 17.5392 28 18C28 18.5458 28.0908 19.07 28.2533 19.5621L23.6708 21.5042C22.8317 19.9179 21.1663 18.8333 19.25 18.8333C18.6292 18.8333 18.0367 18.9525 17.4875 19.16L16.335 16.7379C16.8371 16.3571 17.1667 15.7604 17.1667 15.0833C17.1667 13.9346 16.2321 13 15.0833 13C13.9346 13 13 13.9346 13 15.0833C13 16.2321 13.9346 17.1667 15.0833 17.1667C15.2567 17.1667 15.4229 17.1392 15.5842 17.0987L16.7354 19.5183C15.2517 20.3867 14.25 21.9933 14.25 23.8333C14.25 25.5617 15.1317 27.0871 16.4683 27.9854L15.7062 29.3554C15.5079 29.2929 15.3017 29.25 15.0833 29.25C13.9346 29.25 13 30.1846 13 31.3333C13 32.4821 13.9346 33.4167 15.0833 33.4167C16.2321 33.4167 17.1667 32.4821 17.1667 31.3333C17.1667 30.7025 16.8787 30.1429 16.4346 29.7608L17.1983 28.3879C17.825 28.6717 18.5183 28.8333 19.25 28.8333C20.3933 28.8333 21.445 28.4433 22.2883 27.795L23.9283 29.5992C23.0967 30.4925 22.5833 31.6858 22.5833 33C22.5833 33.255 22.6087 33.5033 22.6454 33.7479L20.7158 34.2058C20.3837 33.4958 19.6675 33 18.8333 33C17.6846 33 16.75 33.9346 16.75 35.0833C16.75 36.2321 17.6846 37.1667 18.8333 37.1667C19.9821 37.1667 20.9167 36.2321 20.9167 35.0833C20.9167 35.0604 20.9104 35.0387 20.91 35.0158L22.8358 34.5592C23.4925 36.5546 25.3708 38 27.5833 38C30.3404 38 32.5833 35.7571 32.5833 33C32.5833 32.145 32.3671 31.34 31.9871 30.6358L34.4346 29.0446C34.8129 29.4279 35.3371 29.6667 35.9167 29.6667C37.0654 29.6667 38 28.7321 38 27.5833C38 26.4346 37.0654 25.5 35.9167 25.5C34.7679 25.5 33.8333 26.4346 33.8333 27.5833C33.8333 27.8525 33.8887 28.1083 33.9821 28.3446L31.5287 29.9396C31.0379 29.3083 30.4004 28.7987 29.6667 28.4604L31.7004 22.8225C32.1154 22.9346 32.55 23 33 23ZM25.0833 16.3333C24.3942 16.3333 23.8333 15.7725 23.8333 15.0833C23.8333 14.3942 24.3942 13.8333 25.0833 13.8333C25.7725 13.8333 26.3333 14.3942 26.3333 15.0833C26.3333 15.7725 25.7725 16.3333 25.0833 16.3333ZM13.8333 15.0833C13.8333 14.3942 14.3942 13.8333 15.0833 13.8333C15.7725 13.8333 16.3333 14.3942 16.3333 15.0833C16.3333 15.7725 15.7725 16.3333 15.0833 16.3333C14.3942 16.3333 13.8333 15.7725 13.8333 15.0833ZM15.0833 32.5833C14.3942 32.5833 13.8333 32.0225 13.8333 31.3333C13.8333 30.6442 14.3942 30.0833 15.0833 30.0833C15.7725 30.0833 16.3333 30.6442 16.3333 31.3333C16.3333 32.0225 15.7725 32.5833 15.0833 32.5833ZM18.8333 36.3333C18.1442 36.3333 17.5833 35.7725 17.5833 35.0833C17.5833 34.3942 18.1442 33.8333 18.8333 33.8333C19.5225 33.8333 20.0833 34.3942 20.0833 35.0833C20.0833 35.7725 19.5225 36.3333 18.8333 36.3333ZM35.9167 26.3333C36.6058 26.3333 37.1667 26.8942 37.1667 27.5833C37.1667 28.2725 36.6058 28.8333 35.9167 28.8333C35.2275 28.8333 34.6667 28.2725 34.6667 27.5833C34.6667 26.8942 35.2275 26.3333 35.9167 26.3333ZM30.5462 21.36C30.7321 20.3962 31.5817 19.6667 32.5833 19.6667H33.4167C34.4183 19.6667 35.2679 20.3962 35.4537 21.36C34.7646 21.8646 33.9179 22.1667 33 22.1667C32.0821 22.1667 31.2354 21.8646 30.5462 21.36ZM33 18.8333C32.3108 18.8333 31.75 18.2725 31.75 17.5833C31.75 16.8942 32.3108 16.3333 33 16.3333C33.6892 16.3333 34.25 16.8942 34.25 17.5833C34.25 18.2725 33.6892 18.8333 33 18.8333ZM33 13.8333C35.2975 13.8333 37.1667 15.7025 37.1667 18C37.1667 19.0417 36.7796 19.9933 36.145 20.7246C35.8529 19.9558 35.2442 19.3421 34.4858 19.0392C34.8546 18.6633 35.0833 18.15 35.0833 17.5833C35.0833 16.4346 34.1488 15.5 33 15.5C31.8512 15.5 30.9167 16.4346 30.9167 17.5833C30.9167 18.15 31.1454 18.6633 31.5142 19.0392C30.7558 19.3421 30.1471 19.9558 29.855 20.7246C29.2204 19.9933 28.8333 19.0417 28.8333 18C28.8333 15.7025 30.7025 13.8333 33 13.8333ZM15.0833 23.8333C15.0833 21.5358 16.9525 19.6667 19.25 19.6667C21.5475 19.6667 23.4167 21.5358 23.4167 23.8333C23.4167 24.8783 23.0271 25.8325 22.3892 26.5646C22.0983 25.7929 21.4883 25.1762 20.7279 24.8725C21.0963 24.4967 21.325 23.9833 21.325 23.4167C21.325 22.2679 20.3904 21.3333 19.2417 21.3333C18.0929 21.3333 17.1583 22.2679 17.1583 23.4167C17.1583 23.9833 17.3871 24.4967 17.7558 24.8725C16.9996 25.1742 16.3917 25.7854 16.0988 26.5512C15.4679 25.8208 15.0833 24.8721 15.0833 23.8333ZM17.9917 23.4167C17.9917 22.7275 18.5525 22.1667 19.2417 22.1667C19.9308 22.1667 20.4917 22.7275 20.4917 23.4167C20.4917 24.1058 19.9308 24.6667 19.2417 24.6667C18.5525 24.6667 17.9917 24.1058 17.9917 23.4167ZM16.7892 27.1879C16.9771 26.2267 17.8254 25.5 18.825 25.5H19.6583C20.6617 25.5 21.5129 26.2321 21.6962 27.1987C21.0083 27.7004 20.1646 28 19.25 28C18.3287 28 17.4796 27.6958 16.7892 27.1879ZM25.1225 36.3546C25.3104 35.3933 26.1587 34.6667 27.1583 34.6667H27.9917C28.995 34.6667 29.8462 35.3988 30.0296 36.3654C29.3417 36.8671 28.4979 37.1667 27.5833 37.1667C26.6621 37.1667 25.8129 36.8625 25.1225 36.3546ZM27.575 33.8333C26.8858 33.8333 26.325 33.2725 26.325 32.5833C26.325 31.8942 26.8858 31.3333 27.575 31.3333C28.2642 31.3333 28.825 31.8942 28.825 32.5833C28.825 33.2725 28.2642 33.8333 27.575 33.8333ZM31.75 33C31.75 34.045 31.3604 34.9992 30.7225 35.7312C30.4317 34.9596 29.8217 34.3429 29.0613 34.0392C29.4296 33.6633 29.6583 33.15 29.6583 32.5833C29.6583 31.4346 28.7237 30.5 27.575 30.5C26.4262 30.5 25.4917 31.4346 25.4917 32.5833C25.4917 33.15 25.7204 33.6633 26.0892 34.0392C25.3329 34.3408 24.725 34.9521 24.4321 35.7179C23.8012 34.9875 23.4167 34.0387 23.4167 33C23.4167 30.7025 25.2858 28.8333 27.5833 28.8333C29.8808 28.8333 31.75 30.7025 31.75 33ZM28.8829 28.1775C28.4679 28.0654 28.0333 28 27.5833 28C26.44 28 25.3883 28.39 24.545 29.0383L22.905 27.2342C23.7367 26.3408 24.25 25.1475 24.25 23.8333C24.25 23.2875 24.1592 22.7633 23.9967 22.2712L28.5792 20.3292C29.0925 21.2996 29.9163 22.0783 30.9171 22.5396L28.8829 28.1775Z"
        fill="#00552A" />
    <rect x="0.5" y="0.5" width="49" height="49" rx="4.5" stroke="#00552A" />
</svg>