<svg id="ezoCbtI67Gn1" xmlns="http://www.w3.org/2000/svg" xmlns:xlink="http://www.w3.org/1999/xlink"
  viewBox="0 0 2334 711" shape-rendering="geometricPrecision" text-rendering="geometricPrecision">
  <g id="ezoCbtI67Gn2" transform="matrix(1 0 0 1 -82.95813 0)" clip-rule="evenodd">
    <g id="ezoCbtI67Gn3" clip-rule="evenodd">
      <g id="ezoCbtI67Gn4" transform="matrix(0.994682 0 0 1 -902.59 2158.3)" clip-rule="evenodd"><text id="ezoCbtI67Gn5"
          dx="0" dy="0" font-family="&quot;Arial&quot;" font-size="212.931"
          transform="matrix(1 0 0 1 1254.000001 -1490)" clip-rule="evenodd" fill="rgb(137,137,137)" fill-rule="evenodd"
          stroke="none" stroke-width="1">
          <![CDATA[NAGPUR]]>
        </text><text id="ezoCbtI67Gn6" dx="0" dy="0" font-family="&quot;Arial&quot;" font-size="212.931"
          transform="matrix(1 0 0 1 2269.000001 -1490)" clip-rule="evenodd" fill="rgb(137,137,137)" fill-rule="evenodd"
          stroke="none" stroke-width="1">
          <![CDATA[METRO]]>
        </text><text id="ezoCbtI67Gn7" dx="0" dy="0" font-family="&quot;Arial&quot;" font-size="212.931"
          transform="matrix(1 0 0 1 2206 -1490)" clip-rule="evenodd" fill="rgb(137,137,137)" fill-rule="evenodd"
          stroke="none" stroke-width="1">
          <![CDATA[ ]]>
        </text></g>
      <g id="ezoCbtI67Gn8" clip-rule="evenodd">
        <path id="ezoCbtI67Gn9"
          d="M2267,64L2404,122C2414,127,2422,114,2413,108C2368,75,2324,41,2280,7C2268,-2,2247,-2,2235,7C2191,41,2147,75,2103,108C2094,114,2101,127,2112,122L2249,64C2255,61,2260,61,2267,64Z"
          clip-rule="evenodd" fill="rgb(170,41,59)" fill-rule="evenodd" stroke="none" stroke-width="1" />
        <path id="ezoCbtI67Gn10"
          d="M2307,426L2215,426L2215,126L2307,126L2307,426ZM373,234L373,231C373,220,369,211,361,206C353,200,341,197,324,197L251,197C219,197,199,201,190,209C181,216,177,232,177,256L177,298C177,320,182,335,192,343C201,351,221,355,251,355L304,355C333,355,352,352,361,346C370,340,375,330,375,314L375,311L468,311C468,311,468,312,468,313C469,321,469,328,469,332C469,351,466,367,461,380C457,392,449,402,439,410C429,417,416,422,399,425C383,428,359,430,328,430L225,430C194,430,171,428,156,425C141,422,129,416,118,408C106,398,97,387,92,373C86,359,83,341,83,320L83,238C83,195,94,165,114,148C134,131,172,122,225,122L328,122C360,122,385,124,400,127C416,130,428,135,437,142C447,149,454,159,458,171C463,184,465,199,465,217C465,222,465,225,465,228C465,230,465,232,464,234L373,234ZM759,201L613,201L613,274L759,274C771,274,779,271,784,266C789,260,792,250,792,235C792,223,789,214,784,209C779,204,770,201,759,201ZM762,126C810,126,842,133,859,147C876,161,885,187,885,224C885,250,881,270,873,282C866,295,853,303,835,308C851,312,863,318,871,328C879,337,883,350,883,365L883,426L791,426L791,380C791,369,788,361,782,356C777,352,766,349,749,349L613,349L613,426L521,426L521,126L762,126ZM1271,199L1034,199L1034,245L1257,245L1257,308L1034,308L1034,354L1274,354L1274,426L943,426L943,126L1271,126L1271,199ZM1563,200L1419,200L1419,353L1574,353C1594,353,1608,349,1617,341C1626,333,1631,321,1631,304L1631,251C1631,233,1625,221,1614,212C1603,204,1586,200,1563,200ZM1591,126C1637,126,1670,134,1691,150C1712,166,1722,192,1722,227L1722,330C1722,364,1714,388,1697,403C1681,419,1654,426,1618,426L1328,426L1328,126L1591,126ZM1839,426L1739,426L1903,126L2020,126L2181,426L2080,426L1960,198L1839,426Z"
          clip-rule="evenodd" fill="rgb(0,93,54)" stroke="none" stroke-width="1" />
      </g>
    </g>
  </g>
</svg>