<svg width="55" height="50" viewBox="0 0 55 50" fill="none" xmlns="http://www.w3.org/2000/svg">
  <path d="M3.90836 34.5012H0V49.9999H3.90836V34.5012Z" fill="#00552A" />
  <path
    d="M3.90836 29.8017C3.90836 29.2834 3.70247 28.7864 3.33599 28.4199C2.96951 28.0534 2.47246 27.8475 1.95418 27.8475C1.4359 27.8475 0.938845 28.0534 0.572365 28.4199C0.205886 28.7864 0 29.2834 0 29.8017V32.6147H3.90836V29.8017Z"
    fill="#00552A" />
  <path d="M54.1774 34.5012H50.269V49.9999H54.1774V34.5012Z" fill="#00552A" />
  <path
    d="M52.2234 27.8138C51.9642 27.8148 51.7078 27.8671 51.4689 27.9677C51.23 28.0684 51.0135 28.2153 50.8318 28.4002C50.6501 28.585 50.5068 28.804 50.4102 29.0446C50.3137 29.2851 50.2657 29.5424 50.2692 29.8016V32.6145H54.1776V29.8016C54.181 29.5424 54.1331 29.2851 54.0366 29.0446C53.94 28.804 53.7967 28.585 53.615 28.4002C53.4333 28.2153 53.2168 28.0684 52.9779 27.9677C52.739 27.8671 52.4826 27.8148 52.2234 27.8138Z"
    fill="#00552A" />
  <path
    d="M48.3831 33.4232C48.3831 36.1186 46.2509 38.7246 42.3793 40.7306C38.3111 42.8384 32.8809 43.9973 27.0893 43.9973C21.2976 43.9973 15.8675 42.8383 11.799 40.73C7.92743 38.724 5.79548 36.1186 5.79548 33.4232H3.90869C3.90869 36.9273 6.40195 40.0588 10.9312 42.4052C15.263 44.6495 21.0014 45.8829 27.0902 45.8829C33.179 45.8829 38.9158 44.6496 43.2483 42.4052C47.7766 40.0588 50.2699 36.9273 50.2699 33.4232H48.3831Z"
    fill="#00552A" />
  <path
    d="M40.2139 31.838C40.2139 32.2781 40.5504 32.6146 40.9905 32.6146C41.4305 32.6146 41.767 32.2781 41.767 31.838V0.776537C41.767 0.336499 41.4305 0 40.9905 0H22.8713C22.4312 0 22.0947 0.336499 22.0947 0.776537V31.838C22.0947 32.2781 22.4312 32.6146 22.8713 32.6146C23.3113 32.6146 23.6478 32.2781 23.6478 31.838V1.55307H40.2139V31.838Z"
    fill="#00552A" />
  <path
    d="M31.155 32.6146H32.708C33.1481 32.6146 33.4846 32.2781 33.4846 31.8381V27.1789C33.4846 26.7388 33.1481 26.4023 32.708 26.4023H31.155C30.7149 26.4023 30.3784 26.7388 30.3784 27.1789V31.8381C30.3784 32.2781 30.7149 32.6146 31.155 32.6146Z"
    fill="#00552A" />
  <path
    d="M16.4009 27.1789V31.8381C16.4009 32.2781 16.7374 32.6146 17.1774 32.6146H18.7305C19.1705 32.6146 19.507 32.2781 19.507 31.8381V27.1789C19.507 26.7388 19.1705 26.4023 18.7305 26.4023H17.1774C16.7374 26.4023 16.4009 26.7388 16.4009 27.1789Z"
    fill="#00552A" />
  <path
    d="M20.2313 8.77474C20.076 8.38647 19.6359 8.17939 19.2218 8.3347L12.4918 10.9232C12.2071 11.0267 12 11.3373 12 11.6479V31.8379C12 32.2779 12.3365 32.6144 12.7765 32.6144C13.2166 32.6144 13.5531 32.2779 13.5531 31.8379V12.1915L19.7913 9.78424C20.1795 9.62893 20.3866 9.18889 20.2313 8.77474Z"
    fill="#00552A" />
  <path
    d="M17.1768 22.0017C17.1768 22.4418 17.5133 22.7783 17.9533 22.7783C18.3933 22.7783 18.7298 22.4418 18.7298 22.0017V20.9664C18.7298 20.5263 18.3933 20.1898 17.9533 20.1898C17.5133 20.1898 17.1768 20.5263 17.1768 20.9664V22.0017Z"
    fill="#00552A" />
  <path
    d="M17.9533 17.6014C18.3933 17.6014 18.7298 17.2649 18.7298 16.8249V15.7895C18.7298 15.3494 18.3933 15.0129 17.9533 15.0129C17.5133 15.0129 17.1768 15.3494 17.1768 15.7895V16.8249C17.1768 17.2649 17.5133 17.6014 17.9533 17.6014Z"
    fill="#00552A" />
  <path
    d="M27.5304 20.1898C27.0904 20.1898 26.7539 20.5263 26.7539 20.9664V22.0017C26.7539 22.4418 27.0904 22.7783 27.5304 22.7783C27.9705 22.7783 28.307 22.4418 28.307 22.0017V20.9664C28.307 20.5263 27.9705 20.1898 27.5304 20.1898Z"
    fill="#00552A" />
  <path
    d="M28.307 15.7895C28.307 15.3494 27.9705 15.0129 27.5304 15.0129C27.0904 15.0129 26.7539 15.3494 26.7539 15.7895V16.8249C26.7539 17.2649 27.0904 17.6014 27.5304 17.6014C27.9705 17.6014 28.307 17.2649 28.307 16.8249V15.7895Z"
    fill="#00552A" />
  <path
    d="M31.9313 20.1898C31.4913 20.1898 31.1548 20.5263 31.1548 20.9664V22.0017C31.1548 22.4418 31.4913 22.7783 31.9313 22.7783C32.3714 22.7783 32.7079 22.4418 32.7079 22.0017V20.9664C32.7079 20.5263 32.3714 20.1898 31.9313 20.1898Z"
    fill="#00552A" />
  <path
    d="M32.7079 15.7895C32.7079 15.3494 32.3714 15.0129 31.9313 15.0129C31.4913 15.0129 31.1548 15.3494 31.1548 15.7895V16.8249C31.1548 17.2649 31.4913 17.6014 31.9313 17.6014C32.3714 17.6014 32.7079 17.2649 32.7079 16.8249V15.7895Z"
    fill="#00552A" />
  <path
    d="M36.3312 20.1898C35.8912 20.1898 35.5547 20.5263 35.5547 20.9664V22.0017C35.5547 22.4418 35.8912 22.7783 36.3312 22.7783C36.7713 22.7783 37.1078 22.4418 37.1078 22.0017V20.9664C37.1078 20.5263 36.7713 20.1898 36.3312 20.1898Z"
    fill="#00552A" />
  <path
    d="M37.1078 15.7895C37.1078 15.3494 36.7713 15.0129 36.3312 15.0129C35.8912 15.0129 35.5547 15.3494 35.5547 15.7895V16.8249C35.5547 17.2649 35.8912 17.6014 36.3312 17.6014C36.7713 17.6014 37.1078 17.2649 37.1078 16.8249V15.7895Z"
    fill="#00552A" />
  <path
    d="M28.307 10.6127C28.307 10.1727 27.9705 9.83618 27.5304 9.83618C27.0904 9.83618 26.7539 10.1727 26.7539 10.6127V11.6481C26.7539 12.0881 27.0904 12.4246 27.5304 12.4246C27.9705 12.4246 28.307 12.0881 28.307 11.6481V10.6127Z"
    fill="#00552A" />
  <path
    d="M28.307 5.43559C28.307 4.99556 27.9705 4.65906 27.5304 4.65906C27.0904 4.65906 26.7539 4.99556 26.7539 5.43559V6.47098C26.7539 6.91101 27.0904 7.24751 27.5304 7.24751C27.9705 7.24751 28.307 6.91101 28.307 6.47098V5.43559Z"
    fill="#00552A" />
  <path
    d="M32.7079 10.6127C32.7079 10.1727 32.3714 9.83618 31.9313 9.83618C31.4913 9.83618 31.1548 10.1727 31.1548 10.6127V11.6481C31.1548 12.0881 31.4913 12.4246 31.9313 12.4246C32.3714 12.4246 32.7079 12.0881 32.7079 11.6481V10.6127Z"
    fill="#00552A" />
  <path
    d="M32.7079 5.43559C32.7079 4.99556 32.3714 4.65906 31.9313 4.65906C31.4913 4.65906 31.1548 4.99556 31.1548 5.43559V6.47098C31.1548 6.91101 31.4913 7.24751 31.9313 7.24751C32.3714 7.24751 32.7079 6.91101 32.7079 6.47098V5.43559Z"
    fill="#00552A" />
  <path
    d="M37.1078 10.6127C37.1078 10.1727 36.7713 9.83618 36.3312 9.83618C35.8912 9.83618 35.5547 10.1727 35.5547 10.6127V11.6481C35.5547 12.0881 35.8912 12.4246 36.3312 12.4246C36.7713 12.4246 37.1078 12.0881 37.1078 11.6481V10.6127Z"
    fill="#00552A" />
  <path
    d="M37.1078 5.43559C37.1078 4.99556 36.7713 4.65906 36.3312 4.65906C35.8912 4.65906 35.5547 4.99556 35.5547 5.43559V6.47098C35.5547 6.91101 35.8912 7.24751 36.3312 7.24751C36.7713 7.24751 37.1078 6.91101 37.1078 6.47098V5.43559Z"
    fill="#00552A" />
</svg>