<svg width="50" height="50" viewBox="0 0 50 50" fill="none" xmlns="http://www.w3.org/2000/svg">
  <path
    d="M40 20C45.5142 20 50 15.5142 50 10C50 4.48583 45.5142 0 40 0C35.9958 0 32.5433 2.37083 30.9475 5.77833L28.27 4.79C28.3017 4.585 28.3333 4.38 28.3333 4.16667C28.3333 1.86917 26.4642 0 24.1667 0C21.8692 0 20 1.86917 20 4.16667C20 6.46417 21.8692 8.33333 24.1667 8.33333C25.6592 8.33333 26.9608 7.5375 27.6967 6.355L30.37 7.34167C30.135 8.19 30 9.07833 30 10C30 11.0917 30.1817 12.14 30.5067 13.1242L21.3417 17.0083C19.6633 13.8358 16.3325 11.6667 12.5 11.6667C11.2583 11.6667 10.0733 11.905 8.975 12.32L6.67 7.47583C7.67417 6.71417 8.33333 5.52083 8.33333 4.16667C8.33333 1.86917 6.46417 0 4.16667 0C1.86917 0 0 1.86917 0 4.16667C0 6.46417 1.86917 8.33333 4.16667 8.33333C4.51333 8.33333 4.84583 8.27833 5.16833 8.1975L7.47083 13.0367C4.50333 14.7733 2.5 17.9867 2.5 21.6667C2.5 25.1233 4.26333 28.1742 6.93667 29.9708L5.4125 32.7108C5.01583 32.5858 4.60333 32.5 4.16667 32.5C1.86917 32.5 0 34.3692 0 36.6667C0 38.9642 1.86917 40.8333 4.16667 40.8333C6.46417 40.8333 8.33333 38.9642 8.33333 36.6667C8.33333 35.405 7.7575 34.2858 6.86917 33.5217L8.39667 30.7758C9.65 31.3433 11.0367 31.6667 12.5 31.6667C14.7867 31.6667 16.89 30.8867 18.5767 29.59L21.8567 33.1983C20.1933 34.985 19.1667 37.3717 19.1667 40C19.1667 40.51 19.2175 41.0067 19.2908 41.4958L15.4317 42.4117C14.7675 40.9917 13.335 40 11.6667 40C9.36917 40 7.5 41.8692 7.5 44.1667C7.5 46.4642 9.36917 48.3333 11.6667 48.3333C13.9642 48.3333 15.8333 46.4642 15.8333 44.1667C15.8333 44.1208 15.8208 44.0775 15.82 44.0317L19.6717 43.1183C20.985 47.1092 24.7417 50 29.1667 50C34.6808 50 39.1667 45.5142 39.1667 40C39.1667 38.29 38.7342 36.68 37.9742 35.2717L42.8692 32.0892C43.6258 32.8558 44.6742 33.3333 45.8333 33.3333C48.1308 33.3333 50 31.4642 50 29.1667C50 26.8692 48.1308 25 45.8333 25C43.5358 25 41.6667 26.8692 41.6667 29.1667C41.6667 29.705 41.7775 30.2167 41.9642 30.6892L37.0575 33.8792C36.0758 32.6167 34.8008 31.5975 33.3333 30.9208L37.4008 19.645C38.2308 19.8692 39.1 20 40 20ZM24.1667 6.66667C22.7883 6.66667 21.6667 5.545 21.6667 4.16667C21.6667 2.78833 22.7883 1.66667 24.1667 1.66667C25.545 1.66667 26.6667 2.78833 26.6667 4.16667C26.6667 5.545 25.545 6.66667 24.1667 6.66667ZM1.66667 4.16667C1.66667 2.78833 2.78833 1.66667 4.16667 1.66667C5.545 1.66667 6.66667 2.78833 6.66667 4.16667C6.66667 5.545 5.545 6.66667 4.16667 6.66667C2.78833 6.66667 1.66667 5.545 1.66667 4.16667ZM4.16667 39.1667C2.78833 39.1667 1.66667 38.045 1.66667 36.6667C1.66667 35.2883 2.78833 34.1667 4.16667 34.1667C5.545 34.1667 6.66667 35.2883 6.66667 36.6667C6.66667 38.045 5.545 39.1667 4.16667 39.1667ZM11.6667 46.6667C10.2883 46.6667 9.16667 45.545 9.16667 44.1667C9.16667 42.7883 10.2883 41.6667 11.6667 41.6667C13.045 41.6667 14.1667 42.7883 14.1667 44.1667C14.1667 45.545 13.045 46.6667 11.6667 46.6667ZM45.8333 26.6667C47.2117 26.6667 48.3333 27.7883 48.3333 29.1667C48.3333 30.545 47.2117 31.6667 45.8333 31.6667C44.455 31.6667 43.3333 30.545 43.3333 29.1667C43.3333 27.7883 44.455 26.6667 45.8333 26.6667ZM35.0925 16.72C35.4642 14.7925 37.1633 13.3333 39.1667 13.3333H40.8333C42.8367 13.3333 44.5358 14.7925 44.9075 16.72C43.5292 17.7292 41.8358 18.3333 40 18.3333C38.1642 18.3333 36.4708 17.7292 35.0925 16.72ZM40 11.6667C38.6217 11.6667 37.5 10.545 37.5 9.16667C37.5 7.78833 38.6217 6.66667 40 6.66667C41.3783 6.66667 42.5 7.78833 42.5 9.16667C42.5 10.545 41.3783 11.6667 40 11.6667ZM40 1.66667C44.595 1.66667 48.3333 5.405 48.3333 10C48.3333 12.0833 47.5592 13.9867 46.29 15.4492C45.7058 13.9117 44.4883 12.6842 42.9717 12.0783C43.7092 11.3267 44.1667 10.3 44.1667 9.16667C44.1667 6.86917 42.2975 5 40 5C37.7025 5 35.8333 6.86917 35.8333 9.16667C35.8333 10.3 36.2908 11.3267 37.0283 12.0783C35.5117 12.6842 34.2942 13.9117 33.71 15.4492C32.4408 13.9867 31.6667 12.0833 31.6667 10C31.6667 5.405 35.405 1.66667 40 1.66667ZM4.16667 21.6667C4.16667 17.0717 7.905 13.3333 12.5 13.3333C17.095 13.3333 20.8333 17.0717 20.8333 21.6667C20.8333 23.7567 20.0542 25.665 18.7783 27.1292C18.1967 25.5858 16.9767 24.3525 15.4558 23.745C16.1925 22.9933 16.65 21.9667 16.65 20.8333C16.65 18.5358 14.7808 16.6667 12.4833 16.6667C10.1858 16.6667 8.31667 18.5358 8.31667 20.8333C8.31667 21.9667 8.77417 22.9933 9.51167 23.745C7.99917 24.3483 6.78333 25.5708 6.1975 27.1025C4.93583 25.6417 4.16667 23.7442 4.16667 21.6667ZM9.98333 20.8333C9.98333 19.455 11.105 18.3333 12.4833 18.3333C13.8617 18.3333 14.9833 19.455 14.9833 20.8333C14.9833 22.2117 13.8617 23.3333 12.4833 23.3333C11.105 23.3333 9.98333 22.2117 9.98333 20.8333ZM7.57833 28.3758C7.95417 26.4533 9.65083 25 11.65 25H13.3167C15.3233 25 17.0258 26.4642 17.3925 28.3975C16.0167 29.4008 14.3292 30 12.5 30C10.6575 30 8.95917 29.3917 7.57833 28.3758ZM24.245 46.7092C24.6208 44.7867 26.3175 43.3333 28.3167 43.3333H29.9833C31.99 43.3333 33.6925 44.7975 34.0592 46.7308C32.6833 47.7342 30.9958 48.3333 29.1667 48.3333C27.3242 48.3333 25.6258 47.725 24.245 46.7092ZM29.15 41.6667C27.7717 41.6667 26.65 40.545 26.65 39.1667C26.65 37.7883 27.7717 36.6667 29.15 36.6667C30.5283 36.6667 31.65 37.7883 31.65 39.1667C31.65 40.545 30.5283 41.6667 29.15 41.6667ZM37.5 40C37.5 42.09 36.7208 43.9983 35.445 45.4625C34.8633 43.9192 33.6433 42.6858 32.1225 42.0783C32.8592 41.3267 33.3167 40.3 33.3167 39.1667C33.3167 36.8692 31.4475 35 29.15 35C26.8525 35 24.9833 36.8692 24.9833 39.1667C24.9833 40.3 25.4408 41.3267 26.1783 42.0783C24.6658 42.6817 23.45 43.9042 22.8642 45.4358C21.6025 43.975 20.8333 42.0775 20.8333 40C20.8333 35.405 24.5717 31.6667 29.1667 31.6667C33.7617 31.6667 37.5 35.405 37.5 40ZM31.7658 30.355C30.9358 30.1308 30.0667 30 29.1667 30C26.88 30 24.7767 30.78 23.09 32.0767L19.81 28.4683C21.4733 26.6817 22.5 24.295 22.5 21.6667C22.5 20.575 22.3183 19.5267 21.9933 18.5425L31.1583 14.6583C32.185 16.5992 33.8325 18.1567 35.8342 19.0792L31.7658 30.355Z"
    fill="#00552A" />
</svg>