<svg width="1920" height="359" viewBox="0 0 1920 359" fill="none" xmlns="http://www.w3.org/2000/svg">
  <g clip-path="url(#clip0)">
    <path d="M2172.17 285.76C2036.24 285.52 1914.8 206.44 1634.74 203.19C1354.69 199.94 1243.71 -25.16 1097.32 -30.12"
      stroke="#01F078" stroke-opacity="0.15" stroke-width="2" />
    <path
      d="M2281.7 105.83C2135.62 105.8 1990.4 60.95 1699.1 60.95C1407.8 60.95 1409.14 105.96 1116.5 105.83C823.86 105.7 684.72 -49.57 533.9 -50.93"
      stroke="#01F078" stroke-opacity="0.15" stroke-width="2" />
    <path d="M2178.99 72.52C1937.96 72.75 1582.34 191.11 1222.16 190.99C861.99 190.87 877.8 -45.79 743.75 -52.67"
      stroke="#01F078" stroke-opacity="0.15" stroke-width="2" />
    <path d="M2099.35 330.44C1895.12 329.46 1709.88 160.27 1300.8 158.12C891.72 155.97 707.11 -24.66 502.25 -25.84"
      stroke="#01F078" stroke-opacity="0.15" stroke-width="2" />
    <path d="M2279.08 286.15C2128.8 284.43 2002.64 120.86 1702.07 117.42C1401.51 113.98 1275.36 -49.63 1125.07 -51.35"
      stroke="#01F078" stroke-opacity="0.15" stroke-width="2" />
    <path
      d="M1841 74.9193C1836.81 74.9193 1833.42 78.3333 1833.42 82.5C1833.42 86.6666 1836.81 90.0806 1841 90.0806C1845.19 90.0806 1848.58 86.6935 1848.58 82.5C1848.58 78.3064 1845.19 74.9193 1841 74.9193ZM1841 89.2741C1837.26 89.2741 1834.23 86.2365 1834.23 82.5C1834.23 78.7634 1837.26 75.7258 1841 75.7258C1844.74 75.7258 1847.77 78.7634 1847.77 82.5C1847.77 86.2365 1844.74 89.2741 1841 89.2741Z"
      fill="#EFEFEF" />
    <path
      d="M1836.05 82.0968H1835.38C1835.17 82.0968 1834.98 82.285 1834.98 82.5C1834.98 82.7151 1835.17 82.9033 1835.38 82.9033H1836.05C1836.27 82.9033 1836.46 82.7151 1836.46 82.5C1836.46 82.285 1836.3 82.0968 1836.05 82.0968Z"
      fill="#EFEFEF" />
    <path
      d="M1845.54 82.5C1845.54 82.7151 1845.73 82.9033 1845.95 82.9033H1846.62C1846.83 82.9033 1847.02 82.7151 1847.02 82.5C1847.02 82.285 1846.83 82.0968 1846.62 82.0968H1845.95C1845.7 82.0968 1845.54 82.285 1845.54 82.5Z"
      fill="#EFEFEF" />
    <path
      d="M1837.32 78.2258C1837.16 78.0645 1836.91 78.0645 1836.75 78.2258C1836.59 78.3871 1836.59 78.629 1836.75 78.7903L1837.24 79.2742C1837.32 79.3548 1837.42 79.3817 1837.53 79.3817C1837.64 79.3817 1837.75 79.3548 1837.83 79.2742C1837.99 79.1129 1837.99 78.8709 1837.83 78.7096L1837.32 78.2258Z"
      fill="#EFEFEF" />
    <path
      d="M1844.79 85.699C1844.63 85.5377 1844.39 85.5377 1844.23 85.699C1844.06 85.8603 1844.06 86.1022 1844.23 86.2635L1844.71 86.7474C1844.79 86.828 1844.9 86.8549 1845.01 86.8549C1845.11 86.8549 1845.22 86.828 1845.3 86.7474C1845.46 86.5861 1845.46 86.3441 1845.3 86.1828L1844.79 85.699Z"
      fill="#EFEFEF" />
    <path
      d="M1837.21 85.699L1836.73 86.1828C1836.56 86.3441 1836.56 86.5861 1836.73 86.7474C1836.81 86.828 1836.91 86.8549 1837.02 86.8549C1837.13 86.8549 1837.24 86.828 1837.32 86.7474L1837.8 86.2635C1837.96 86.1022 1837.96 85.8603 1837.8 85.699C1837.64 85.5377 1837.37 85.5377 1837.21 85.699Z"
      fill="#EFEFEF" />
    <path
      d="M1844.68 78.2258L1844.2 78.7097C1844.04 78.871 1844.04 79.1129 1844.2 79.2742C1844.28 79.3548 1844.39 79.3817 1844.49 79.3817C1844.6 79.3817 1844.71 79.3548 1844.79 79.2742L1845.27 78.7903C1845.44 78.629 1845.44 78.3871 1845.27 78.2258C1845.11 78.0645 1844.84 78.0914 1844.68 78.2258Z"
      fill="#EFEFEF" />
    <path
      d="M1841 77.957C1841.21 77.957 1841.4 77.7688 1841.4 77.5538V76.8817C1841.4 76.6667 1841.21 76.4785 1841 76.4785C1840.78 76.4785 1840.6 76.6667 1840.6 76.8817V77.5538C1840.6 77.7957 1840.78 77.957 1841 77.957Z"
      fill="#EFEFEF" />
    <path
      d="M1853.1 79.7849H1851.24C1851 78.871 1850.65 78.0108 1850.17 77.1774L1851.48 75.8602C1851.56 75.7796 1851.59 75.672 1851.59 75.5645C1851.59 75.457 1851.54 75.3495 1851.48 75.2688L1848.2 72.043C1848.04 71.8817 1847.8 71.8817 1847.64 72.043L1846.32 73.3602C1845.52 72.8763 1844.63 72.5269 1843.72 72.2849V70.4032C1843.72 70.1882 1843.53 70 1843.31 70H1838.69C1838.47 70 1838.28 70.1882 1838.28 70.4032V72.2581C1837.37 72.5 1836.51 72.8495 1835.68 73.3333L1834.36 72.0161C1834.2 71.8548 1833.96 71.8548 1833.8 72.0161L1830.54 75.2957C1830.46 75.3763 1830.44 75.4839 1830.44 75.5914C1830.44 75.6989 1830.49 75.8065 1830.54 75.8871L1831.86 77.2043C1831.38 78.0108 1831.03 78.8979 1830.78 79.8118H1828.9C1828.69 79.8118 1828.5 80 1828.5 80.2151V84.8387C1828.5 85.0538 1828.69 85.2419 1828.9 85.2419H1830.76C1831 86.1559 1831.35 87.0161 1831.83 87.8495L1830.52 89.1667C1830.35 89.328 1830.35 89.5699 1830.52 89.7312L1833.8 93.0108C1833.96 93.172 1834.2 93.172 1834.36 93.0108L1835.68 91.6935C1836.48 92.1774 1837.37 92.5269 1838.28 92.7688V94.5968C1838.28 94.8118 1838.47 95 1838.69 95H1843.31C1843.53 95 1843.72 94.8118 1843.72 94.5968V92.7419C1844.63 92.5 1845.49 92.1505 1846.32 91.6667L1847.64 92.9839C1847.8 93.1452 1848.04 93.1452 1848.2 92.9839L1851.48 89.7043C1851.65 89.543 1851.65 89.3011 1851.48 89.1398L1850.17 87.8226C1850.65 87.0161 1851 86.129 1851.24 85.2151H1853.1C1853.31 85.2151 1853.5 85.0269 1853.5 84.8118V80.1882C1853.5 79.9731 1853.31 79.7849 1853.1 79.7849ZM1852.69 84.4086H1850.92C1850.73 84.4086 1850.57 84.543 1850.52 84.7312C1850.27 85.7796 1849.87 86.7742 1849.31 87.6882C1849.2 87.8495 1849.23 88.0645 1849.36 88.1989L1850.62 89.4624L1847.94 92.1505L1846.67 90.8871C1846.54 90.7527 1846.32 90.7258 1846.16 90.8333C1845.25 91.3979 1844.25 91.8011 1843.2 92.043C1843.02 92.0968 1842.88 92.2581 1842.88 92.4462V94.2204H1839.09V92.4462C1839.09 92.2581 1838.96 92.0968 1838.77 92.043C1837.72 91.8011 1836.73 91.3979 1835.81 90.8333C1835.65 90.7258 1835.44 90.7527 1835.3 90.8871L1834.04 92.1505L1831.35 89.4624L1832.61 88.1989C1832.75 88.0645 1832.77 87.8495 1832.67 87.6882C1832.1 86.7742 1831.7 85.7796 1831.46 84.7312C1831.4 84.543 1831.24 84.4086 1831.05 84.4086H1829.31V80.5914H1831.08C1831.27 80.5914 1831.43 80.457 1831.48 80.2688C1831.73 79.2204 1832.13 78.2258 1832.69 77.3118C1832.8 77.1505 1832.77 76.9355 1832.64 76.8011L1831.38 75.5376L1834.06 72.8495L1835.33 74.1129C1835.46 74.2473 1835.68 74.2742 1835.84 74.1667C1836.75 73.6022 1837.75 73.1989 1838.8 72.957C1838.98 72.9032 1839.12 72.7419 1839.12 72.5538V70.8065H1842.94V72.5806C1842.94 72.7688 1843.07 72.9301 1843.26 72.9839C1844.31 73.2258 1845.3 73.629 1846.22 74.1935C1846.38 74.3011 1846.59 74.2742 1846.73 74.1398L1847.99 72.8763L1850.68 75.5645L1849.41 76.828C1849.28 76.9624 1849.25 77.1774 1849.36 77.3387C1849.92 78.2527 1850.33 79.2473 1850.57 80.2957C1850.62 80.4839 1850.78 80.6183 1850.97 80.6183H1852.75V84.4086H1852.69Z"
      fill="#EFEFEF" />
    <path
      d="M1843.2 77.1774C1842.99 77.0968 1842.77 77.1774 1842.67 77.3925L1841.22 80.914C1841.11 80.8871 1841.03 80.8871 1840.92 80.8871C1840.03 80.8871 1839.31 81.6129 1839.31 82.5C1839.31 83.3871 1840.03 84.1129 1840.92 84.1129C1841.81 84.1129 1842.53 83.3871 1842.53 82.5C1842.53 82.0161 1842.32 81.5591 1841.97 81.2634L1843.42 77.715C1843.5 77.5 1843.42 77.2849 1843.2 77.1774ZM1840.92 83.3064C1840.49 83.3064 1840.11 82.957 1840.11 82.5C1840.11 82.043 1840.46 81.6935 1840.92 81.6935C1841.38 81.6935 1841.73 82.043 1841.73 82.5C1841.73 82.957 1841.35 83.3064 1840.92 83.3064Z"
      fill="#EFEFEF" />
    <rect x="1817.25" y="59.25" width="46.5" height="46.5" rx="4.75" stroke="#EFEFEF" stroke-width="0.5" />
    <path
      d="M1851.33 160.078V157.75C1851.33 157.64 1851.29 157.534 1851.21 157.455C1851.13 157.377 1851.03 157.333 1850.92 157.333H1850.5V156.083C1850.5 155.973 1850.46 155.867 1850.38 155.789C1850.3 155.711 1850.19 155.667 1850.08 155.667V154.417H1849.25V155.667H1848.42V155.25H1847.58V155.667C1847.47 155.667 1847.37 155.711 1847.29 155.789C1847.21 155.867 1847.17 155.973 1847.17 156.083V157.333H1845.92C1845.81 157.333 1845.7 157.377 1845.62 157.455C1845.54 157.534 1845.5 157.64 1845.5 157.75V168.167H1842.58V169H1852.58C1852.69 169 1852.8 168.956 1852.88 168.878C1852.96 168.8 1853 168.694 1853 168.583V161.917C1853 161.806 1852.96 161.7 1852.88 161.622L1851.33 160.078ZM1848 156.5H1849.67V157.333H1848V156.5ZM1846.33 158.167H1850.5V168.167H1849.67V166.083C1849.67 165.752 1849.54 165.434 1849.3 165.199C1849.07 164.965 1848.75 164.833 1848.42 164.833C1848.09 164.833 1847.77 164.965 1847.53 165.199C1847.3 165.434 1847.17 165.752 1847.17 166.083V168.167H1846.33V158.167ZM1848 168.167V166.083C1848 165.973 1848.04 165.867 1848.12 165.789C1848.2 165.711 1848.31 165.667 1848.42 165.667C1848.53 165.667 1848.63 165.711 1848.71 165.789C1848.79 165.867 1848.83 165.973 1848.83 166.083V168.167H1848ZM1852.17 168.167H1851.33V161.256L1852.17 162.089V168.167Z"
      fill="#EFEFEF" />
    <path d="M1849.67 159H1848.83V159.833H1849.67V159Z" fill="#EFEFEF" />
    <path d="M1848 159H1847.17V159.833H1848V159Z" fill="#EFEFEF" />
    <path d="M1849.67 160.667H1848.83V161.5H1849.67V160.667Z" fill="#EFEFEF" />
    <path d="M1848 160.667H1847.17V161.5H1848V160.667Z" fill="#EFEFEF" />
    <path d="M1849.67 162.333H1848.83V163.167H1849.67V162.333Z" fill="#EFEFEF" />
    <path d="M1848 162.333H1847.17V163.167H1848V162.333Z" fill="#EFEFEF" />
    <path
      d="M1828.42 169H1838.42V168.167H1835.5V157.75C1835.5 157.64 1835.46 157.534 1835.38 157.455C1835.3 157.377 1835.19 157.333 1835.08 157.333H1833.83V156.083C1833.83 155.973 1833.79 155.867 1833.71 155.789C1833.63 155.711 1833.53 155.667 1833.42 155.667V155.25H1832.58V155.667H1831.75V154.417H1830.92V155.667C1830.81 155.667 1830.7 155.711 1830.62 155.789C1830.54 155.867 1830.5 155.973 1830.5 156.083V157.333H1830.08C1829.97 157.333 1829.87 157.377 1829.79 157.455C1829.71 157.534 1829.67 157.64 1829.67 157.75V160.078L1828.12 161.622C1828.04 161.7 1828 161.806 1828 161.917V168.583C1828 168.694 1828.04 168.8 1828.12 168.878C1828.2 168.956 1828.31 169 1828.42 169ZM1832.17 168.167V166.083C1832.17 165.973 1832.21 165.867 1832.29 165.789C1832.37 165.711 1832.47 165.667 1832.58 165.667C1832.69 165.667 1832.8 165.711 1832.88 165.789C1832.96 165.867 1833 165.973 1833 166.083V168.167H1832.17ZM1831.33 156.5H1833V157.333H1831.33V156.5ZM1830.5 158.167H1834.67V168.167H1833.83V166.083C1833.83 165.752 1833.7 165.434 1833.47 165.199C1833.23 164.965 1832.91 164.833 1832.58 164.833C1832.25 164.833 1831.93 164.965 1831.7 165.199C1831.47 165.434 1831.33 165.752 1831.33 166.083V168.167H1830.5V158.167ZM1828.83 162.089L1829.67 161.256V168.167H1828.83V162.089Z"
      fill="#EFEFEF" />
    <path d="M1832.17 159H1831.33V159.833H1832.17V159Z" fill="#EFEFEF" />
    <path d="M1833.83 159H1833V159.833H1833.83V159Z" fill="#EFEFEF" />
    <path d="M1832.17 160.667H1831.33V161.5H1832.17V160.667Z" fill="#EFEFEF" />
    <path d="M1833.83 160.667H1833V161.5H1833.83V160.667Z" fill="#EFEFEF" />
    <path d="M1832.17 162.333H1831.33V163.167H1832.17V162.333Z" fill="#EFEFEF" />
    <path d="M1833.83 162.333H1833V163.167H1833.83V162.333Z" fill="#EFEFEF" />
    <path
      d="M1843 166.917V164.589L1843.29 164.295C1843.37 164.216 1843.42 164.111 1843.42 164V162.75C1843.42 162.216 1843.27 161.692 1842.99 161.236C1842.71 160.78 1842.32 160.409 1841.84 160.163C1842.17 159.888 1842.4 159.519 1842.51 159.106C1842.62 158.694 1842.6 158.257 1842.46 157.856C1842.31 157.454 1842.04 157.108 1841.69 156.863C1841.34 156.618 1840.93 156.487 1840.5 156.487C1840.07 156.487 1839.66 156.618 1839.31 156.863C1838.96 157.108 1838.69 157.454 1838.54 157.856C1838.4 158.257 1838.38 158.694 1838.49 159.106C1838.6 159.519 1838.83 159.888 1839.16 160.163C1838.68 160.409 1838.29 160.78 1838.01 161.236C1837.73 161.692 1837.58 162.216 1837.58 162.75V164C1837.58 164.111 1837.63 164.216 1837.71 164.295L1838 164.589V166.917C1838 167.027 1838.04 167.133 1838.12 167.211C1838.2 167.289 1838.31 167.333 1838.42 167.333H1842.58C1842.69 167.333 1842.8 167.289 1842.88 167.211C1842.96 167.133 1843 167.027 1843 166.917ZM1839.25 158.583C1839.25 158.336 1839.32 158.094 1839.46 157.889C1839.6 157.683 1839.79 157.523 1840.02 157.429C1840.25 157.334 1840.5 157.309 1840.74 157.357C1840.99 157.406 1841.21 157.525 1841.38 157.699C1841.56 157.874 1841.68 158.097 1841.73 158.339C1841.77 158.582 1841.75 158.833 1841.66 159.062C1841.56 159.29 1841.4 159.485 1841.19 159.623C1840.99 159.76 1840.75 159.833 1840.5 159.833C1840.17 159.833 1839.85 159.702 1839.62 159.467C1839.38 159.233 1839.25 158.915 1839.25 158.583ZM1842.17 164.417V166.5H1838.83V164.417C1838.83 164.306 1838.79 164.2 1838.71 164.122L1838.42 163.828V162.75C1838.42 162.197 1838.64 161.668 1839.03 161.277C1839.42 160.886 1839.95 160.667 1840.5 160.667C1841.05 160.667 1841.58 160.886 1841.97 161.277C1842.36 161.668 1842.58 162.197 1842.58 162.75V163.828L1842.29 164.122C1842.21 164.2 1842.17 164.306 1842.17 164.417Z"
      fill="#EFEFEF" />
    <path
      d="M1842.65 148.93L1841.43 148.743L1840.88 147.573C1840.84 147.501 1840.79 147.441 1840.72 147.398C1840.66 147.356 1840.58 147.333 1840.5 147.333C1840.42 147.333 1840.34 147.356 1840.28 147.398C1840.21 147.441 1840.16 147.501 1840.12 147.573L1839.57 148.743L1838.35 148.93C1838.28 148.941 1838.21 148.973 1838.15 149.023C1838.09 149.072 1838.05 149.137 1838.02 149.209C1838 149.282 1837.99 149.36 1838.01 149.434C1838.03 149.509 1838.06 149.578 1838.12 149.632L1839.01 150.549L1838.8 151.849C1838.79 151.926 1838.8 152.006 1838.83 152.078C1838.86 152.15 1838.91 152.212 1838.97 152.257C1839.04 152.302 1839.11 152.328 1839.19 152.332C1839.27 152.337 1839.35 152.319 1839.41 152.281L1840.5 151.681L1841.59 152.281C1841.65 152.319 1841.73 152.337 1841.81 152.333C1841.89 152.328 1841.96 152.302 1842.03 152.257C1842.09 152.212 1842.14 152.15 1842.17 152.078C1842.2 152.006 1842.21 151.927 1842.2 151.85L1841.99 150.55L1842.88 149.633C1842.94 149.578 1842.97 149.51 1842.99 149.435C1843.01 149.36 1843 149.282 1842.98 149.21C1842.95 149.137 1842.91 149.072 1842.85 149.023C1842.79 148.974 1842.72 148.942 1842.65 148.93V148.93ZM1841.24 150.118C1841.2 150.165 1841.16 150.222 1841.14 150.284C1841.12 150.346 1841.12 150.412 1841.13 150.476L1841.24 151.137L1840.7 150.84C1840.64 150.806 1840.57 150.789 1840.5 150.789C1840.43 150.789 1840.36 150.806 1840.3 150.84L1839.76 151.137L1839.87 150.476C1839.88 150.412 1839.88 150.346 1839.86 150.284C1839.84 150.222 1839.8 150.165 1839.76 150.118L1839.28 149.631L1839.92 149.534C1839.99 149.523 1840.05 149.497 1840.11 149.456C1840.16 149.415 1840.2 149.361 1840.23 149.299L1840.5 148.731L1840.77 149.299C1840.8 149.361 1840.84 149.415 1840.89 149.456C1840.95 149.497 1841.01 149.523 1841.08 149.534L1841.72 149.631L1841.24 150.118Z"
      fill="#EFEFEF" />
    <path
      d="M1846.33 149.833C1846.33 148.68 1845.99 147.552 1845.35 146.593C1844.71 145.633 1843.8 144.886 1842.73 144.444C1841.67 144.003 1840.49 143.887 1839.36 144.112C1838.23 144.337 1837.19 144.893 1836.38 145.709C1835.56 146.524 1835 147.564 1834.78 148.695C1834.55 149.827 1834.67 151 1835.11 152.066C1835.55 153.132 1836.3 154.043 1837.26 154.684C1838.22 155.325 1839.35 155.667 1840.5 155.667C1842.05 155.665 1843.53 155.05 1844.62 153.956C1845.72 152.863 1846.33 151.38 1846.33 149.833ZM1840.5 154.833C1839.51 154.833 1838.54 154.54 1837.72 153.991C1836.9 153.441 1836.26 152.66 1835.88 151.747C1835.5 150.833 1835.4 149.828 1835.6 148.858C1835.79 147.888 1836.27 146.997 1836.96 146.298C1837.66 145.599 1838.55 145.122 1839.52 144.929C1840.49 144.736 1841.5 144.836 1842.41 145.214C1843.33 145.592 1844.11 146.233 1844.66 147.055C1845.21 147.878 1845.5 148.844 1845.5 149.833C1845.5 151.159 1844.97 152.43 1844.03 153.367C1843.1 154.305 1841.83 154.832 1840.5 154.833Z"
      fill="#EFEFEF" />
    <rect x="1817.25" y="133.25" width="46.5" height="46.5" rx="4.75" stroke="#EFEFEF" stroke-width="0.5" />
    <path fill-rule="evenodd" clip-rule="evenodd"
      d="M1856.21 229.166C1855.85 229.173 1855.46 229.263 1855.06 229.455L1846.9 233.374C1846.75 232.471 1845.91 231.777 1844.93 231.806C1844.93 231.806 1844.93 231.806 1844.93 231.806L1840.49 231.941C1839.33 231.941 1838.46 231.663 1837.42 231.364C1836.39 231.065 1835.21 230.754 1833.55 230.754C1832.08 230.754 1829.87 231.286 1828.29 231.877V230.326C1828.29 230.216 1828.25 230.112 1828.17 230.034C1828.09 229.957 1827.99 229.914 1827.88 229.914H1823.41C1823.3 229.914 1823.2 229.957 1823.12 230.034C1823.04 230.112 1823 230.216 1823 230.326V233.693V242.588C1823 242.697 1823.04 242.802 1823.12 242.879C1823.2 242.957 1823.3 243 1823.41 243H1827.88C1827.99 243 1828.09 242.957 1828.17 242.879C1828.25 242.802 1828.29 242.697 1828.29 242.588V241.19C1834.03 240.08 1837.36 241.796 1842.25 241.796C1842.25 241.796 1842.25 241.796 1842.25 241.796C1843.08 241.796 1844.15 241.338 1845.46 240.66C1846.76 239.982 1848.27 239.063 1849.8 238.076C1852.86 236.102 1856 233.85 1857.65 232.732C1857.65 232.732 1857.65 232.732 1857.65 232.732C1858.11 232.416 1858.38 231.94 1858.43 231.458C1858.49 230.975 1858.35 230.489 1858.08 230.087C1857.7 229.534 1857.02 229.151 1856.21 229.166L1856.21 229.166ZM1856.31 229.969C1856.81 229.973 1857.17 230.228 1857.4 230.554C1857.57 230.803 1857.65 231.1 1857.62 231.363C1857.58 231.627 1857.46 231.86 1857.18 232.049C1857.18 232.049 1857.18 232.049 1857.18 232.049C1855.51 233.183 1852.39 235.425 1849.35 237.384C1847.84 238.363 1846.34 239.271 1845.08 239.928C1843.81 240.585 1842.73 240.971 1842.25 240.972C1842.25 240.972 1842.25 240.972 1842.25 240.972C1837.6 240.972 1834.14 239.26 1828.29 240.351V239.15C1828.29 239.096 1828.28 239.041 1828.26 238.991C1828.24 238.94 1828.21 238.894 1828.17 238.855C1828.13 238.816 1828.09 238.785 1828.04 238.764C1827.99 238.743 1827.93 238.732 1827.88 238.732C1827.82 238.732 1827.77 238.743 1827.72 238.764C1827.67 238.785 1827.62 238.816 1827.59 238.855C1827.55 238.894 1827.52 238.94 1827.5 238.991C1827.48 239.041 1827.47 239.096 1827.47 239.15V242.176H1826.23V230.738H1827.47V233.759C1827.47 233.814 1827.48 233.868 1827.5 233.919C1827.52 233.969 1827.55 234.015 1827.59 234.054C1827.62 234.093 1827.67 234.124 1827.72 234.145C1827.77 234.166 1827.82 234.177 1827.88 234.177C1827.93 234.177 1827.99 234.166 1828.04 234.145C1828.09 234.124 1828.13 234.093 1828.17 234.054C1828.21 234.015 1828.24 233.969 1828.26 233.919C1828.28 233.868 1828.29 233.814 1828.29 233.759V232.76C1829.78 232.167 1832.2 231.579 1833.55 231.579C1835.11 231.579 1836.18 231.861 1837.2 232.156C1838.22 232.451 1839.2 232.766 1840.49 232.766C1840.5 232.766 1840.5 232.766 1840.5 232.766L1844.95 232.63C1844.95 232.63 1844.95 232.63 1844.96 232.63C1845.59 232.612 1846.1 233.114 1846.1 233.664C1846.1 234.22 1845.6 234.673 1844.93 234.699C1844.93 234.699 1844.93 234.699 1844.93 234.699L1836.46 235.062C1836.4 235.063 1836.35 235.076 1836.3 235.098C1836.25 235.121 1836.21 235.153 1836.17 235.193C1836.13 235.233 1836.1 235.28 1836.08 235.331C1836.06 235.382 1836.06 235.437 1836.06 235.492C1836.06 235.546 1836.07 235.6 1836.1 235.649C1836.12 235.699 1836.15 235.743 1836.19 235.78C1836.23 235.817 1836.28 235.845 1836.33 235.863C1836.39 235.881 1836.44 235.889 1836.49 235.885L1844.96 235.523L1844.96 235.523C1845.76 235.491 1846.49 235.027 1846.79 234.342C1846.8 234.337 1846.81 234.331 1846.83 234.324L1855.41 230.198C1855.75 230.035 1856.05 229.967 1856.32 229.969L1856.31 229.969ZM1823.82 230.738H1825.41V242.176H1823.82V233.693V230.738Z"
      fill="#EFEFEF" />
    <path fill-rule="evenodd" clip-rule="evenodd"
      d="M1842.92 223.152C1842.81 223.154 1842.7 223.199 1842.63 223.277C1842.55 223.356 1842.51 223.461 1842.51 223.57V225.948H1840.13C1840.08 225.948 1840.02 225.958 1839.97 225.978C1839.92 225.998 1839.88 226.029 1839.84 226.067C1839.8 226.105 1839.77 226.151 1839.75 226.201C1839.73 226.252 1839.71 226.306 1839.71 226.361C1839.71 226.415 1839.73 226.469 1839.75 226.52C1839.77 226.57 1839.8 226.616 1839.84 226.654C1839.88 226.692 1839.92 226.723 1839.97 226.743C1840.02 226.763 1840.08 226.774 1840.13 226.773H1842.51V229.151C1842.51 229.206 1842.52 229.26 1842.54 229.311C1842.56 229.361 1842.59 229.407 1842.63 229.446C1842.67 229.485 1842.71 229.516 1842.76 229.537C1842.81 229.558 1842.87 229.569 1842.92 229.569C1842.98 229.569 1843.03 229.558 1843.08 229.537C1843.13 229.516 1843.18 229.485 1843.22 229.446C1843.25 229.407 1843.28 229.361 1843.31 229.311C1843.33 229.26 1843.34 229.206 1843.33 229.151V226.773H1845.71C1845.77 226.774 1845.82 226.763 1845.87 226.743C1845.92 226.723 1845.97 226.692 1846.01 226.654C1846.05 226.616 1846.08 226.57 1846.1 226.52C1846.12 226.469 1846.13 226.415 1846.13 226.361C1846.13 226.306 1846.12 226.252 1846.1 226.201C1846.08 226.151 1846.05 226.105 1846.01 226.067C1845.97 226.029 1845.92 225.998 1845.87 225.978C1845.82 225.958 1845.77 225.948 1845.71 225.948H1843.33V223.57C1843.34 223.515 1843.33 223.46 1843.3 223.409C1843.28 223.358 1843.25 223.312 1843.21 223.273C1843.18 223.234 1843.13 223.203 1843.08 223.182C1843.03 223.162 1842.97 223.151 1842.92 223.152Z"
      fill="#EFEFEF" />
    <path fill-rule="evenodd" clip-rule="evenodd"
      d="M1846.29 218C1846.18 218.002 1846.08 218.047 1846 218.125C1845.92 218.203 1845.88 218.309 1845.88 218.418V219.617H1844.68C1844.63 219.617 1844.57 219.627 1844.52 219.647C1844.47 219.667 1844.43 219.698 1844.39 219.736C1844.35 219.774 1844.32 219.82 1844.3 219.871C1844.28 219.921 1844.27 219.975 1844.27 220.03C1844.27 220.084 1844.28 220.138 1844.3 220.189C1844.32 220.239 1844.35 220.285 1844.39 220.323C1844.43 220.362 1844.47 220.392 1844.52 220.412C1844.57 220.432 1844.63 220.443 1844.68 220.442H1845.88V221.637C1845.88 221.692 1845.89 221.746 1845.91 221.797C1845.93 221.847 1845.96 221.893 1846 221.932C1846.04 221.971 1846.09 222.002 1846.14 222.023C1846.19 222.044 1846.24 222.055 1846.29 222.055C1846.35 222.055 1846.4 222.044 1846.45 222.023C1846.5 222.002 1846.55 221.971 1846.59 221.932C1846.63 221.893 1846.66 221.847 1846.68 221.797C1846.7 221.746 1846.71 221.692 1846.71 221.637V220.442H1847.9C1847.96 220.443 1848.01 220.432 1848.06 220.412C1848.11 220.392 1848.16 220.362 1848.2 220.323C1848.24 220.285 1848.27 220.239 1848.29 220.189C1848.31 220.138 1848.32 220.084 1848.32 220.03C1848.32 219.975 1848.31 219.921 1848.29 219.871C1848.27 219.82 1848.24 219.774 1848.2 219.736C1848.16 219.698 1848.11 219.667 1848.06 219.647C1848.01 219.627 1847.96 219.617 1847.9 219.617H1846.71V218.418C1846.71 218.363 1846.7 218.308 1846.68 218.257C1846.66 218.206 1846.63 218.16 1846.59 218.121C1846.55 218.082 1846.5 218.051 1846.45 218.03C1846.4 218.009 1846.34 217.999 1846.29 218Z"
      fill="#EFEFEF" />
    <path fill-rule="evenodd" clip-rule="evenodd"
      d="M1839.54 218C1839.44 218.002 1839.33 218.047 1839.26 218.125C1839.18 218.203 1839.14 218.309 1839.14 218.418V219.617H1837.94C1837.88 219.617 1837.83 219.627 1837.78 219.647C1837.73 219.667 1837.68 219.698 1837.64 219.736C1837.61 219.774 1837.57 219.82 1837.55 219.871C1837.53 219.921 1837.52 219.975 1837.52 220.03C1837.52 220.084 1837.53 220.138 1837.55 220.189C1837.57 220.239 1837.61 220.285 1837.64 220.323C1837.68 220.362 1837.73 220.392 1837.78 220.412C1837.83 220.432 1837.88 220.443 1837.94 220.442H1839.14V221.637C1839.14 221.692 1839.15 221.746 1839.17 221.797C1839.19 221.847 1839.22 221.893 1839.26 221.932C1839.3 221.971 1839.34 222.002 1839.39 222.023C1839.44 222.044 1839.5 222.055 1839.55 222.055C1839.61 222.055 1839.66 222.044 1839.71 222.023C1839.76 222.002 1839.81 221.971 1839.84 221.932C1839.88 221.893 1839.91 221.847 1839.93 221.797C1839.95 221.746 1839.96 221.692 1839.96 221.637V220.442H1841.16C1841.21 220.443 1841.27 220.432 1841.32 220.412C1841.37 220.392 1841.41 220.362 1841.45 220.323C1841.49 220.285 1841.52 220.239 1841.54 220.189C1841.57 220.138 1841.58 220.084 1841.58 220.03C1841.58 219.975 1841.57 219.921 1841.54 219.871C1841.52 219.82 1841.49 219.774 1841.45 219.736C1841.41 219.698 1841.37 219.667 1841.32 219.647C1841.27 219.627 1841.21 219.617 1841.16 219.617H1839.96V218.418C1839.96 218.363 1839.95 218.308 1839.93 218.257C1839.91 218.206 1839.88 218.16 1839.84 218.121C1839.8 218.082 1839.76 218.051 1839.71 218.03C1839.65 218.009 1839.6 217.999 1839.54 218Z"
      fill="#EFEFEF" />
    <rect x="1817.25" y="207.25" width="46.5" height="46.5" rx="4.75" stroke="#EFEFEF" stroke-width="0.5" />
  </g>
  <defs>
    <clipPath id="clip0">
      <rect width="1920" height="359" fill="white" transform="translate(1920 359) rotate(-180)" />
    </clipPath>
  </defs>
</svg>