<svg width="48" height="47" viewBox="0 0 48 47" fill="none" xmlns="http://www.w3.org/2000/svg">
<path d="M24.5001 15.9194C20.3065 15.9194 16.9194 19.3334 16.9194 23.5001C16.9194 27.6667 20.3065 31.0807 24.5001 31.0807C28.6936 31.0807 32.0807 27.6936 32.0807 23.5001C32.0807 19.3065 28.6936 15.9194 24.5001 15.9194ZM24.5001 30.2743C20.7635 30.2743 17.7259 27.2366 17.7259 23.5001C17.7259 19.7635 20.7635 16.7259 24.5001 16.7259C28.2366 16.7259 31.2743 19.7635 31.2743 23.5001C31.2743 27.2366 28.2366 30.2743 24.5001 30.2743Z" fill="#EFEFEF"/>
<path d="M19.5538 23.0967H18.8817C18.6667 23.0967 18.4785 23.2849 18.4785 23.4999C18.4785 23.715 18.6667 23.9031 18.8817 23.9031H19.5538C19.7688 23.9031 19.957 23.715 19.957 23.4999C19.957 23.2849 19.7957 23.0967 19.5538 23.0967Z" fill="#EFEFEF"/>
<path d="M29.043 23.4999C29.043 23.715 29.2311 23.9031 29.4462 23.9031H30.1182C30.3333 23.9031 30.5215 23.715 30.5215 23.4999C30.5215 23.2849 30.3333 23.0967 30.1182 23.0967H29.4462C29.2043 23.0967 29.043 23.2849 29.043 23.4999Z" fill="#EFEFEF"/>
<path d="M20.8173 19.2259C20.656 19.0647 20.4141 19.0647 20.2528 19.2259C20.0915 19.3872 20.0915 19.6292 20.2528 19.7905L20.7367 20.2743C20.8173 20.355 20.9248 20.3819 21.0324 20.3819C21.1399 20.3819 21.2474 20.355 21.3281 20.2743C21.4894 20.113 21.4894 19.8711 21.3281 19.7098L20.8173 19.2259Z" fill="#EFEFEF"/>
<path d="M28.2905 26.6991C28.1292 26.5378 27.8872 26.5378 27.7259 26.6991C27.5647 26.8604 27.5647 27.1023 27.7259 27.2636L28.2098 27.7475C28.2905 27.8281 28.398 27.855 28.5055 27.855C28.613 27.855 28.7206 27.8281 28.8012 27.7475C28.9625 27.5862 28.9625 27.3443 28.8012 27.183L28.2905 26.6991Z" fill="#EFEFEF"/>
<path d="M20.7098 26.6991L20.2259 27.183C20.0647 27.3443 20.0647 27.5862 20.2259 27.7475C20.3066 27.8281 20.4141 27.855 20.5216 27.855C20.6292 27.855 20.7367 27.8281 20.8173 27.7475L21.3012 27.2636C21.4625 27.1023 21.4625 26.8604 21.3012 26.6991C21.1399 26.5378 20.8711 26.5378 20.7098 26.6991Z" fill="#EFEFEF"/>
<path d="M28.183 19.2259L27.6991 19.7097C27.5378 19.871 27.5378 20.113 27.6991 20.2742C27.7797 20.3549 27.8873 20.3818 27.9948 20.3818C28.1023 20.3818 28.2098 20.3549 28.2905 20.2742L28.7744 19.7904C28.9357 19.6291 28.9357 19.3872 28.7744 19.2259C28.6131 19.0646 28.3443 19.0915 28.183 19.2259Z" fill="#EFEFEF"/>
<path d="M24.4999 18.957C24.715 18.957 24.9031 18.7688 24.9031 18.5538V17.8817C24.9031 17.6667 24.715 17.4785 24.4999 17.4785C24.2849 17.4785 24.0967 17.6667 24.0967 17.8817V18.5538C24.0967 18.7957 24.2849 18.957 24.4999 18.957Z" fill="#EFEFEF"/>
<path d="M36.5968 20.7849H34.7419C34.5 19.871 34.1505 19.0108 33.6667 18.1774L34.9839 16.8602C35.0645 16.7796 35.0914 16.672 35.0914 16.5645C35.0914 16.457 35.0376 16.3495 34.9839 16.2688L31.7043 13.043C31.543 12.8817 31.3011 12.8817 31.1398 13.043L29.8226 14.3602C29.0161 13.8763 28.129 13.5269 27.2151 13.2849V11.4032C27.2151 11.1882 27.0269 11 26.8118 11H22.1882C21.9731 11 21.7849 11.1882 21.7849 11.4032V13.2581C20.871 13.5 20.0108 13.8495 19.1774 14.3333L17.8602 13.0161C17.6989 12.8548 17.457 12.8548 17.2957 13.0161L14.043 16.2957C13.9624 16.3763 13.9355 16.4839 13.9355 16.5914C13.9355 16.6989 13.9892 16.8065 14.043 16.8871L15.3602 18.2043C14.8763 19.0108 14.5269 19.8978 14.2849 20.8118H12.4032C12.1882 20.8118 12 21 12 21.2151V25.8387C12 26.0538 12.1882 26.2419 12.4032 26.2419H14.2581C14.5 27.1559 14.8495 28.0161 15.3333 28.8495L14.0161 30.1667C13.8548 30.328 13.8548 30.5699 14.0161 30.7312L17.2957 34.0108C17.457 34.172 17.6989 34.172 17.8602 34.0108L19.1774 32.6935C19.9839 33.1774 20.871 33.5269 21.7849 33.7688V35.5968C21.7849 35.8118 21.9731 36 22.1882 36H26.8118C27.0269 36 27.2151 35.8118 27.2151 35.5968V33.7419C28.129 33.5 28.9892 33.1505 29.8226 32.6667L31.1398 33.9839C31.3011 34.1452 31.543 34.1452 31.7043 33.9839L34.9839 30.7043C35.1452 30.543 35.1452 30.3011 34.9839 30.1398L33.6667 28.8226C34.1505 28.0161 34.5 27.129 34.7419 26.2151H36.5968C36.8118 26.2151 37 26.0269 37 25.8118V21.1882C37 20.9731 36.8118 20.7849 36.5968 20.7849ZM36.1935 25.4086H34.4194C34.2312 25.4086 34.0699 25.543 34.0161 25.7312C33.7742 26.7796 33.371 27.7742 32.8065 28.6882C32.6989 28.8495 32.7258 29.0645 32.8602 29.1989L34.1237 30.4624L31.4355 33.1505L30.172 31.8871C30.0376 31.7527 29.8226 31.7258 29.6613 31.8333C28.7473 32.3979 27.7527 32.8011 26.7043 33.043C26.5161 33.0968 26.3817 33.2581 26.3817 33.4462V35.2204H22.5914V33.4462C22.5914 33.2581 22.457 33.0968 22.2688 33.043C21.2204 32.8011 20.2258 32.3979 19.3118 31.8333C19.1505 31.7258 18.9355 31.7527 18.8011 31.8871L17.5376 33.1505L14.8495 30.4624L16.1129 29.1989C16.2473 29.0645 16.2742 28.8495 16.1667 28.6882C15.6022 27.7742 15.1989 26.7796 14.957 25.7312C14.9032 25.543 14.7419 25.4086 14.5538 25.4086H12.8065V21.5914H14.5806C14.7688 21.5914 14.9301 21.457 14.9839 21.2688C15.2258 20.2204 15.629 19.2258 16.1935 18.3118C16.3011 18.1505 16.2742 17.9355 16.1398 17.8011L14.8763 16.5376L17.5645 13.8495L18.828 15.1129C18.9624 15.2473 19.1774 15.2742 19.3387 15.1667C20.2527 14.6022 21.2473 14.1989 22.2957 13.957C22.4839 13.9032 22.6183 13.7419 22.6183 13.5538V11.8065H26.4355V13.5806C26.4355 13.7688 26.5699 13.9301 26.7581 13.9839C27.8065 14.2258 28.8011 14.629 29.7151 15.1935C29.8763 15.3011 30.0914 15.2742 30.2258 15.1398L31.4892 13.8763L34.1774 16.5645L32.914 17.828C32.7796 17.9624 32.7527 18.1774 32.8602 18.3387C33.4247 19.2527 33.828 20.2473 34.0699 21.2957C34.1237 21.4839 34.2849 21.6183 34.4731 21.6183H36.2473V25.4086H36.1935Z" fill="#EFEFEF"/>
<path d="M26.7045 18.1776C26.4894 18.097 26.2744 18.1776 26.1669 18.3927L24.7152 21.9142C24.6077 21.8873 24.5271 21.8873 24.4195 21.8873C23.5324 21.8873 22.8066 22.6131 22.8066 23.5002C22.8066 24.3873 23.5324 25.1131 24.4195 25.1131C25.3066 25.1131 26.0324 24.3873 26.0324 23.5002C26.0324 23.0164 25.8174 22.5594 25.4679 22.2637L26.9195 18.7153C27.0002 18.5002 26.9195 18.2852 26.7045 18.1776ZM24.4195 24.3067C23.9894 24.3067 23.6131 23.9572 23.6131 23.5002C23.6131 23.0432 23.9626 22.6938 24.4195 22.6938C24.8765 22.6938 25.226 23.0432 25.226 23.5002C25.226 23.9572 24.8497 24.3067 24.4195 24.3067Z" fill="#EFEFEF"/>
<rect x="0.75" y="0.25" width="46.5" height="46.5" rx="4.75" stroke="#EFEFEF" stroke-width="0.5"/>
</svg>
