<svg width="47" height="47" viewBox="0 0 47 47" fill="none" xmlns="http://www.w3.org/2000/svg">
<path d="M34.3335 27.0775V24.75C34.3335 24.6395 34.2896 24.5335 34.2115 24.4554C34.1333 24.3773 34.0273 24.3334 33.9168 24.3334H33.5002V23.0834C33.5002 22.9728 33.4563 22.8669 33.3781 22.7887C33.3 22.7106 33.194 22.6667 33.0835 22.6667V21.4167H32.2502V22.6667H31.4168V22.25H30.5835V22.6667C30.473 22.6667 30.367 22.7106 30.2889 22.7887C30.2107 22.8669 30.1668 22.9728 30.1668 23.0834V24.3334H28.9168C28.8063 24.3334 28.7003 24.3773 28.6222 24.4554C28.5441 24.5335 28.5002 24.6395 28.5002 24.75V35.1667H25.5835V36H35.5835C35.694 36 35.8 35.9561 35.8781 35.878C35.9563 35.7998 36.0002 35.6939 36.0002 35.5834V28.9167C36.0001 28.8062 35.9562 28.7002 35.8781 28.6221L34.3335 27.0775ZM31.0002 23.5H32.6668V24.3334H31.0002V23.5ZM29.3335 25.1667H33.5002V35.1667H32.6668V33.0834C32.6668 32.7518 32.5351 32.4339 32.3007 32.1995C32.0663 31.9651 31.7484 31.8334 31.4168 31.8334C31.0853 31.8334 30.7674 31.9651 30.5329 32.1995C30.2985 32.4339 30.1668 32.7518 30.1668 33.0834V35.1667H29.3335V25.1667ZM31.0002 35.1667V33.0834C31.0002 32.9728 31.0441 32.8669 31.1222 32.7887C31.2003 32.7106 31.3063 32.6667 31.4168 32.6667C31.5273 32.6667 31.6333 32.7106 31.7115 32.7887C31.7896 32.8669 31.8335 32.9728 31.8335 33.0834V35.1667H31.0002ZM35.1668 35.1667H34.3335V28.2559L35.1668 29.0892V35.1667Z" fill="#EFEFEF"/>
<path d="M32.6668 26H31.8335V26.8333H32.6668V26Z" fill="#EFEFEF"/>
<path d="M30.9998 26H30.1665V26.8333H30.9998V26Z" fill="#EFEFEF"/>
<path d="M32.6668 27.6667H31.8335V28.5H32.6668V27.6667Z" fill="#EFEFEF"/>
<path d="M30.9998 27.6667H30.1665V28.5H30.9998V27.6667Z" fill="#EFEFEF"/>
<path d="M32.6668 29.3333H31.8335V30.1666H32.6668V29.3333Z" fill="#EFEFEF"/>
<path d="M30.9998 29.3333H30.1665V30.1666H30.9998V29.3333Z" fill="#EFEFEF"/>
<path d="M11.4167 36H21.4167V35.1667H18.5V24.75C18.5 24.6395 18.4561 24.5335 18.378 24.4554C18.2998 24.3773 18.1938 24.3334 18.0833 24.3334H16.8333V23.0834C16.8333 22.9728 16.7894 22.8669 16.7113 22.7887C16.6332 22.7106 16.5272 22.6667 16.4167 22.6667V22.25H15.5833V22.6667H14.75V21.4167H13.9167V22.6667C13.8062 22.6667 13.7002 22.7106 13.622 22.7887C13.5439 22.8669 13.5 22.9728 13.5 23.0834V24.3334H13.0833C12.9728 24.3334 12.8668 24.3773 12.7887 24.4554C12.7106 24.5335 12.6667 24.6395 12.6667 24.75V27.0775L11.1221 28.6221C11.0439 28.7002 11 28.8062 11 28.9167V35.5834C11 35.6939 11.0439 35.7998 11.122 35.878C11.2002 35.9561 11.3062 36 11.4167 36ZM15.1667 35.1667V33.0834C15.1667 32.9728 15.2106 32.8669 15.2887 32.7887C15.3668 32.7106 15.4728 32.6667 15.5833 32.6667C15.6938 32.6667 15.7998 32.7106 15.878 32.7887C15.9561 32.8669 16 32.9728 16 33.0834V35.1667H15.1667ZM14.3333 23.5H16V24.3334H14.3333V23.5ZM13.5 25.1667H17.6667V35.1667H16.8333V33.0834C16.8333 32.7518 16.7016 32.4339 16.4672 32.1995C16.2328 31.9651 15.9149 31.8334 15.5833 31.8334C15.2518 31.8334 14.9339 31.9651 14.6994 32.1995C14.465 32.4339 14.3333 32.7518 14.3333 33.0834V35.1667H13.5V25.1667ZM11.8333 29.0892L12.6667 28.2559V35.1667H11.8333V29.0892Z" fill="#EFEFEF"/>
<path d="M15.1668 26H14.3335V26.8333H15.1668V26Z" fill="#EFEFEF"/>
<path d="M16.8333 26H16V26.8333H16.8333V26Z" fill="#EFEFEF"/>
<path d="M15.1668 27.6667H14.3335V28.5H15.1668V27.6667Z" fill="#EFEFEF"/>
<path d="M16.8333 27.6667H16V28.5H16.8333V27.6667Z" fill="#EFEFEF"/>
<path d="M15.1668 29.3333H14.3335V30.1666H15.1668V29.3333Z" fill="#EFEFEF"/>
<path d="M16.8333 29.3333H16V30.1666H16.8333V29.3333Z" fill="#EFEFEF"/>
<path d="M26.0002 33.9167V31.5892L26.2947 31.2946C26.3729 31.2165 26.4168 31.1105 26.4168 31V29.75C26.4163 29.216 26.2692 28.6925 25.9915 28.2363C25.7139 27.7802 25.3163 27.4091 24.8422 27.1634C25.169 26.8881 25.4033 26.5191 25.5133 26.1063C25.6233 25.6935 25.6037 25.2569 25.4572 24.8556C25.3107 24.4542 25.0444 24.1077 24.6943 23.8628C24.3443 23.6179 23.9274 23.4866 23.5002 23.4866C23.0729 23.4866 22.6561 23.6179 22.306 23.8628C21.9559 24.1077 21.6896 24.4542 21.5431 24.8556C21.3966 25.2569 21.3771 25.6935 21.4871 26.1063C21.5971 26.5191 21.8313 26.8881 22.1581 27.1634C21.684 27.4091 21.2864 27.7802 21.0088 28.2363C20.7311 28.6925 20.584 29.216 20.5835 29.75V31C20.5835 31.1105 20.6274 31.2165 20.7056 31.2946L21.0002 31.5892V33.9167C21.0002 34.0272 21.0441 34.1332 21.1222 34.2113C21.2003 34.2895 21.3063 34.3334 21.4168 34.3334H25.5835C25.694 34.3334 25.8 34.2895 25.8781 34.2113C25.9563 34.1332 26.0002 34.0272 26.0002 33.9167ZM22.2502 25.5834C22.2502 25.3361 22.3235 25.0945 22.4608 24.8889C22.5982 24.6833 22.7934 24.5231 23.0218 24.4285C23.2502 24.3339 23.5015 24.3091 23.744 24.3574C23.9865 24.4056 24.2092 24.5247 24.384 24.6995C24.5589 24.8743 24.6779 25.097 24.7261 25.3395C24.7744 25.582 24.7496 25.8333 24.655 26.0617C24.5604 26.2901 24.4002 26.4853 24.1946 26.6227C23.9891 26.76 23.7474 26.8334 23.5002 26.8334C23.1686 26.8334 22.8507 26.7017 22.6163 26.4672C22.3819 26.2328 22.2502 25.9149 22.2502 25.5834ZM25.1668 31.4167V33.5H21.8335V31.4167C21.8335 31.3062 21.7896 31.2002 21.7114 31.1221L21.4168 30.8275V29.75C21.4168 29.1975 21.6363 28.6676 22.027 28.2769C22.4177 27.8862 22.9476 27.6667 23.5002 27.6667C24.0527 27.6667 24.5826 27.8862 24.9733 28.2769C25.364 28.6676 25.5835 29.1975 25.5835 29.75V30.8275L25.2889 31.1221C25.2108 31.2002 25.1669 31.3062 25.1668 31.4167Z" fill="#EFEFEF"/>
<path d="M25.6464 15.9296L24.4268 15.7433L23.8772 14.5729C23.8436 14.5013 23.7902 14.4408 23.7235 14.3984C23.6567 14.356 23.5792 14.3335 23.5001 14.3335C23.421 14.3335 23.3436 14.356 23.2768 14.3984C23.21 14.4408 23.1567 14.5013 23.123 14.5729L22.5735 15.7433L21.3539 15.9296C21.2781 15.9411 21.207 15.9733 21.1484 16.0226C21.0898 16.072 21.0459 16.1365 21.0216 16.2092C20.9972 16.2818 20.9934 16.3598 21.0105 16.4344C21.0276 16.5091 21.065 16.5777 21.1185 16.6325L22.0135 17.5492L21.8014 18.8492C21.7888 18.9263 21.7982 19.0055 21.8285 19.0776C21.8588 19.1497 21.9088 19.2118 21.9727 19.2569C22.0366 19.3019 22.112 19.328 22.1901 19.3323C22.2682 19.3365 22.3459 19.3187 22.4143 19.2808L23.5001 18.6812L24.586 19.2812C24.6544 19.3191 24.7321 19.3369 24.8102 19.3327C24.8883 19.3285 24.9636 19.3023 25.0276 19.2573C25.0915 19.2123 25.1415 19.1501 25.1718 19.078C25.2021 19.0059 25.2115 18.9268 25.1989 18.8496L24.9868 17.5496L25.8818 16.6329C25.9353 16.5781 25.9727 16.5095 25.9898 16.4349C26.0068 16.3602 26.003 16.2822 25.9787 16.2096C25.9544 16.1369 25.9105 16.0724 25.8518 16.0231C25.7932 15.9737 25.7221 15.9415 25.6464 15.93V15.9296ZM24.2435 17.1183C24.198 17.165 24.164 17.2217 24.1444 17.2838C24.1248 17.346 24.1201 17.4119 24.1305 17.4762L24.238 18.1371L23.7014 17.8404C23.6398 17.8064 23.5705 17.7886 23.5001 17.7886C23.4297 17.7886 23.3605 17.8064 23.2989 17.8404L22.7622 18.1371L22.8697 17.4762C22.8802 17.4119 22.8754 17.346 22.8558 17.2838C22.8362 17.2217 22.8023 17.165 22.7568 17.1183L22.2814 16.6312L22.9193 16.5337C22.9869 16.5234 23.051 16.4965 23.1058 16.4555C23.1606 16.4145 23.2044 16.3607 23.2335 16.2987L23.5001 15.7308L23.7668 16.2987C23.7958 16.3607 23.8397 16.4145 23.8945 16.4555C23.9493 16.4965 24.0133 16.5234 24.081 16.5337L24.7189 16.6312L24.2435 17.1183Z" fill="#EFEFEF"/>
<path d="M29.3332 16.8333C29.3332 15.6796 28.9911 14.5518 28.3501 13.5925C27.7091 12.6332 26.7981 11.8855 25.7322 11.444C24.6663 11.0025 23.4934 10.887 22.3618 11.1121C21.2303 11.3372 20.1909 11.8927 19.3751 12.7085C18.5592 13.5244 18.0037 14.5638 17.7786 15.6953C17.5535 16.8269 17.669 17.9998 18.1105 19.0657C18.5521 20.1316 19.2997 21.0426 20.259 21.6836C21.2183 22.3246 22.3461 22.6667 23.4998 22.6667C25.0464 22.665 26.5292 22.0499 27.6228 20.9563C28.7164 19.8627 29.3315 18.3799 29.3332 16.8333V16.8333ZM23.4998 21.8333C22.5109 21.8333 21.5442 21.5401 20.722 20.9907C19.8997 20.4413 19.2589 19.6604 18.8804 18.7468C18.502 17.8331 18.403 16.8278 18.5959 15.8579C18.7888 14.888 19.265 13.9971 19.9643 13.2978C20.6636 12.5985 21.5545 12.1223 22.5244 11.9294C23.4943 11.7365 24.4996 11.8355 25.4133 12.2139C26.3269 12.5924 27.1078 13.2332 27.6572 14.0555C28.2066 14.8777 28.4998 15.8444 28.4998 16.8333C28.4984 18.159 27.9712 19.4299 27.0338 20.3673C26.0964 21.3047 24.8255 21.8319 23.4998 21.8333Z" fill="#EFEFEF"/>
<rect x="0.25" y="0.25" width="46.5" height="46.5" rx="4.75" stroke="#EFEFEF" stroke-width="0.5"/>
</svg>
