<svg width="47" height="47" viewBox="0 0 47 47" fill="none" xmlns="http://www.w3.org/2000/svg">
<path fill-rule="evenodd" clip-rule="evenodd" d="M39.2133 22.1664C38.848 22.1735 38.4568 22.2628 38.056 22.4555L29.9013 26.3744C29.751 25.4709 28.9115 24.7774 27.9308 24.8055C27.9306 24.8056 27.9303 24.8056 27.93 24.8056L23.4884 24.9414C22.3322 24.941 21.4566 24.6625 20.4246 24.3641C19.3917 24.0654 18.2125 23.7544 16.5543 23.7544C15.0762 23.7544 12.8731 24.2857 11.2908 24.8771V23.3257C11.2908 23.2164 11.2474 23.1116 11.1701 23.0343C11.0928 22.957 10.988 22.9135 10.8787 22.9135H6.41071C6.3014 22.9135 6.19657 22.957 6.11927 23.0343C6.04197 23.1116 5.99855 23.2164 5.99854 23.3257V26.6932V35.5878C5.99855 35.6971 6.04197 35.8019 6.11927 35.8792C6.19657 35.9565 6.3014 36 6.41071 36H10.8787C10.988 36 11.0928 35.9565 11.1701 35.8792C11.2474 35.8019 11.2908 35.6971 11.2908 35.5878V34.1899C17.0261 33.0798 20.3577 34.7964 25.247 34.7964C25.2472 34.7964 25.2475 34.7964 25.2477 34.7964C26.0838 34.7964 27.1494 34.3375 28.4559 33.6596C29.7624 32.9817 31.272 32.0633 32.801 31.0761C35.8588 29.1019 38.9963 26.8495 40.6456 25.7323C40.6456 25.7321 40.646 25.732 40.646 25.7319C41.1137 25.416 41.3783 24.9402 41.4341 24.4579C41.4899 23.9754 41.354 23.4894 41.0769 23.0869C40.6961 22.5335 40.0172 22.151 39.2133 22.1665L39.2133 22.1664ZM39.3148 22.9688C39.8143 22.9729 40.1732 23.2277 40.3979 23.5542C40.5691 23.803 40.6458 24.0996 40.6153 24.3631C40.5848 24.6266 40.4643 24.8601 40.1842 25.0491C40.1841 25.0492 40.1839 25.0493 40.1838 25.0494C38.5108 26.1828 35.3878 28.4248 32.3539 30.3836C30.837 31.363 29.3429 32.2707 28.0763 32.9279C26.8104 33.5848 25.7343 33.971 25.247 33.9721C25.247 33.9721 25.2466 33.9721 25.2464 33.9721C20.5974 33.9719 17.1396 32.2601 11.2908 33.351V32.1503C11.2916 32.0957 11.2815 32.0414 11.2612 31.9908C11.2408 31.9401 11.2105 31.8939 11.1722 31.855C11.1338 31.8161 11.0882 31.7852 11.0378 31.7642C10.9874 31.7431 10.9333 31.7322 10.8787 31.7322C10.824 31.7322 10.77 31.7431 10.7196 31.7642C10.6692 31.7852 10.6235 31.8161 10.5851 31.855C10.5468 31.8939 10.5165 31.9401 10.4962 31.9908C10.4758 32.0414 10.4657 32.0957 10.4665 32.1503V35.1756H9.22997V23.7379H10.4665V26.7591C10.4657 26.8137 10.4758 26.868 10.4962 26.9186C10.5165 26.9693 10.5468 27.0154 10.5851 27.0543C10.6235 27.0932 10.6692 27.1241 10.7196 27.1452C10.77 27.1663 10.824 27.1771 10.8787 27.1771C10.9333 27.1771 10.9874 27.1663 11.0378 27.1452C11.0882 27.1241 11.1338 27.0932 11.1722 27.0543C11.2105 27.0154 11.2408 26.9693 11.2612 26.9186C11.2815 26.868 11.2916 26.8137 11.2908 26.7591V25.76C12.7794 25.1675 15.2028 24.5787 16.5543 24.5787C18.1111 24.5787 19.176 24.8611 20.1957 25.156C21.2155 25.4509 22.2004 25.7658 23.4912 25.7658C23.4953 25.7658 23.4995 25.7657 23.5037 25.7656L27.9544 25.6296C27.9548 25.6296 27.9548 25.6296 27.9552 25.6296C28.5944 25.6119 29.1009 26.1139 29.1009 26.6643C29.1009 27.2203 28.6015 27.6733 27.9269 27.6991C27.9263 27.6991 27.9258 27.6992 27.9252 27.6992L19.4592 28.0619C19.4045 28.0634 19.3507 28.0757 19.3008 28.0982C19.251 28.1206 19.2061 28.1528 19.1688 28.1928C19.1314 28.2328 19.1025 28.2798 19.0835 28.3312C19.0646 28.3825 19.056 28.437 19.0584 28.4917C19.0607 28.5463 19.0739 28.5999 19.0972 28.6494C19.1204 28.6989 19.1533 28.7433 19.1939 28.78C19.2345 28.8166 19.282 28.8448 19.3336 28.8629C19.3852 28.8811 19.4399 28.8887 19.4945 28.8855L27.9586 28.5229L27.9607 28.5228C28.7647 28.4915 29.4915 28.0272 29.7862 27.3418C29.8004 27.3366 29.8144 27.3307 29.828 27.3241L38.4135 23.1982C38.7533 23.0348 39.0535 22.967 39.3152 22.9686L39.3148 22.9688ZM6.8228 23.7379H8.40554V35.1757H6.8228V26.6932V23.7379Z" fill="#EFEFEF"/>
<path fill-rule="evenodd" clip-rule="evenodd" d="M25.9165 16.1522C25.8073 16.1539 25.7032 16.1988 25.6271 16.2772C25.551 16.3556 25.5091 16.461 25.5106 16.5702V18.9484H23.1324C23.0778 18.9476 23.0236 18.9577 22.9729 18.9781C22.9222 18.9985 22.8761 19.0287 22.8372 19.0671C22.7983 19.1054 22.7674 19.1511 22.7463 19.2015C22.7252 19.2519 22.7144 19.306 22.7144 19.3606C22.7144 19.4152 22.7252 19.4693 22.7463 19.5197C22.7674 19.5701 22.7983 19.6158 22.8372 19.6541C22.8761 19.6925 22.9222 19.7227 22.9729 19.7431C23.0236 19.7634 23.0778 19.7735 23.1324 19.7728H25.5106V22.151C25.5099 22.2056 25.5199 22.2599 25.5403 22.3106C25.5607 22.3612 25.5909 22.4074 25.6293 22.4463C25.6676 22.4852 25.7133 22.5161 25.7637 22.5372C25.8141 22.5583 25.8682 22.5691 25.9228 22.5691C25.9774 22.5691 26.0315 22.5583 26.0819 22.5372C26.1323 22.5161 26.178 22.4852 26.2164 22.4463C26.2547 22.4074 26.285 22.3612 26.3053 22.3106C26.3257 22.2599 26.3358 22.2056 26.335 22.151V19.7728H28.7132C28.7678 19.7735 28.8221 19.7634 28.8728 19.7431C28.9234 19.7227 28.9696 19.6925 29.0085 19.6541C29.0474 19.6158 29.0782 19.5701 29.0993 19.5197C29.1204 19.4693 29.1313 19.4152 29.1313 19.3606C29.1313 19.306 29.1204 19.2519 29.0993 19.2015C29.0782 19.1511 29.0474 19.1054 29.0085 19.0671C28.9696 19.0287 28.9234 18.9985 28.8728 18.9781C28.8221 18.9577 28.7678 18.9476 28.7132 18.9484H26.335V16.5702C26.3358 16.515 26.3255 16.4603 26.3047 16.4092C26.2839 16.3581 26.2531 16.3117 26.2141 16.2727C26.1751 16.2338 26.1286 16.203 26.0775 16.1823C26.0264 16.1616 25.9716 16.1514 25.9165 16.1522Z" fill="#EFEFEF"/>
<path fill-rule="evenodd" clip-rule="evenodd" d="M29.2885 11C29.1792 11.0017 29.0751 11.0467 28.999 11.1251C28.9229 11.2034 28.8811 11.3088 28.8826 11.418V12.6174H27.6832C27.6286 12.6167 27.5743 12.6268 27.5237 12.6471C27.473 12.6675 27.4268 12.6977 27.3879 12.7361C27.349 12.7744 27.3182 12.8201 27.2971 12.8705C27.276 12.9209 27.2651 12.975 27.2651 13.0296C27.2651 13.0842 27.276 13.1383 27.2971 13.1887C27.3182 13.2391 27.349 13.2848 27.3879 13.3232C27.4268 13.3615 27.473 13.3917 27.5237 13.4121C27.5743 13.4325 27.6286 13.4426 27.6832 13.4418H28.8826V14.6371C28.8818 14.6917 28.8919 14.7459 28.9123 14.7966C28.9327 14.8473 28.9629 14.8935 29.0012 14.9323C29.0396 14.9712 29.0853 15.0021 29.1357 15.0232C29.1861 15.0443 29.2402 15.0551 29.2948 15.0551C29.3494 15.0551 29.4035 15.0443 29.4539 15.0232C29.5043 15.0021 29.55 14.9712 29.5883 14.9323C29.6267 14.8935 29.6569 14.8473 29.6773 14.7966C29.6976 14.7459 29.7077 14.6917 29.7069 14.6371V13.4418H30.9023C30.9569 13.4426 31.0111 13.4325 31.0618 13.4121C31.1125 13.3917 31.1586 13.3615 31.1975 13.3232C31.2364 13.2848 31.2673 13.2391 31.2884 13.1887C31.3094 13.1383 31.3203 13.0842 31.3203 13.0296C31.3203 12.975 31.3094 12.9209 31.2884 12.8705C31.2673 12.8201 31.2364 12.7744 31.1975 12.7361C31.1586 12.6977 31.1125 12.6675 31.0618 12.6471C31.0111 12.6268 30.9569 12.6167 30.9023 12.6174H29.7069V11.418C29.7077 11.3629 29.6974 11.3081 29.6767 11.2571C29.6559 11.206 29.6251 11.1596 29.5861 11.1206C29.5471 11.0816 29.5006 11.0508 29.4495 11.0301C29.3984 11.0094 29.3436 10.9992 29.2885 11V11Z" fill="#EFEFEF"/>
<path fill-rule="evenodd" clip-rule="evenodd" d="M22.5448 11C22.4356 11.0017 22.3315 11.0467 22.2554 11.1251C22.1793 11.2034 22.1374 11.3088 22.139 11.418V12.6174H20.9395C20.8849 12.6167 20.8307 12.6268 20.78 12.6471C20.7293 12.6675 20.6832 12.6977 20.6443 12.7361C20.6054 12.7744 20.5745 12.8201 20.5534 12.8705C20.5323 12.9209 20.5215 12.975 20.5215 13.0296C20.5215 13.0842 20.5323 13.1383 20.5534 13.1887C20.5745 13.2391 20.6054 13.2848 20.6443 13.3232C20.6832 13.3615 20.7293 13.3917 20.78 13.4121C20.8307 13.4325 20.8849 13.4426 20.9395 13.4418H22.139V14.6371C22.1382 14.6917 22.1483 14.7459 22.1686 14.7966C22.189 14.8473 22.2192 14.8935 22.2576 14.9323C22.2959 14.9712 22.3416 15.0021 22.392 15.0232C22.4424 15.0443 22.4965 15.0551 22.5511 15.0551C22.6057 15.0551 22.6598 15.0443 22.7102 15.0232C22.7606 15.0021 22.8063 14.9712 22.8447 14.9323C22.883 14.8935 22.9132 14.8473 22.9336 14.7966C22.954 14.7459 22.9641 14.6917 22.9633 14.6371V13.4418H24.1586C24.2132 13.4426 24.2674 13.4325 24.3181 13.4121C24.3688 13.3917 24.4149 13.3615 24.4538 13.3232C24.4927 13.2848 24.5236 13.2391 24.5447 13.1887C24.5658 13.1383 24.5766 13.0842 24.5766 13.0296C24.5766 12.975 24.5658 12.9209 24.5447 12.8705C24.5236 12.8201 24.4927 12.7744 24.4538 12.7361C24.4149 12.6977 24.3688 12.6675 24.3181 12.6471C24.2674 12.6268 24.2132 12.6167 24.1586 12.6174H22.9633V11.418C22.9641 11.3629 22.9538 11.3081 22.933 11.2571C22.9123 11.206 22.8814 11.1596 22.8424 11.1206C22.8034 11.0816 22.757 11.0508 22.7058 11.0301C22.6547 11.0094 22.6 10.9992 22.5448 11V11Z" fill="#EFEFEF"/>
<rect x="0.25" y="0.25" width="46.5" height="46.5" rx="4.75" stroke="#EFEFEF" stroke-width="0.5"/>
</svg>
