<svg width="47" height="47" viewBox="0 0 47 47" fill="none" xmlns="http://www.w3.org/2000/svg">
  <path
    d="M17.4189 13C15.8808 13 14.5801 14.0706 14.2057 15.5C13.4045 15.5 12.5834 15.5 11.7893 15.5C11.3539 15.5226 10.9783 15.9404 11.001 16.3767C11.0237 16.8131 11.4405 17.1895 11.8759 17.1667H14.2057C14.5786 18.5982 15.8792 19.6667 17.4189 19.6667C18.9586 19.6667 20.2593 18.5982 20.6322 17.1667H35.1567C35.596 17.1729 36 16.7736 36 16.3333C36 15.893 35.596 15.4938 35.1567 15.5H20.6322C20.2578 14.0706 18.9571 13 17.4189 13ZM17.4189 14.6667C18.3472 14.6667 19.0819 15.403 19.0819 16.3333C19.0819 17.2637 18.3472 18 17.4189 18C16.4907 18 15.756 17.2637 15.756 16.3333C15.756 15.403 16.4907 14.6667 17.4189 14.6667ZM29.6137 20.5C28.0755 20.5 26.7748 21.5706 26.4004 23C21.5322 23 16.6512 23 11.7893 23C11.3539 23.0226 10.9783 23.4404 11.001 23.8768C11.0237 24.3131 11.4405 24.6895 11.8759 24.6667H26.4004C26.7733 26.0982 28.074 27.1667 29.6137 27.1667C31.1533 27.1667 32.454 26.0982 32.8269 24.6667H35.1567C35.596 24.6728 36 24.2736 36 23.8333C36 23.393 35.596 22.9938 35.1567 23H32.8269C32.4525 21.5706 31.1518 20.5 29.6137 20.5ZM29.6137 22.1667C30.5419 22.1667 31.2766 22.903 31.2766 23.8333C31.2766 24.7637 30.5419 25.5 29.6137 25.5C28.6854 25.5 27.9507 24.7637 27.9507 23.8333C27.9507 22.903 28.6854 22.1667 29.6137 22.1667ZM17.4189 28C15.8808 28 14.5801 29.0706 14.2057 30.5C13.4045 30.5 12.5834 30.5 11.7893 30.5C11.3539 30.5228 10.9783 30.9404 11.001 31.3768C11.0237 31.8131 11.4405 32.1895 11.8759 32.1667H14.2057C14.5786 33.5982 15.8793 34.6667 17.4189 34.6667C18.9586 34.6667 20.2593 33.5982 20.6322 32.1667H35.1567C35.596 32.1728 36 31.7736 36 31.3333C36 30.893 35.596 30.4938 35.1567 30.5H20.6322C20.2578 29.0706 18.9571 28 17.4189 28ZM17.4189 29.6667C18.3472 29.6667 19.0819 30.403 19.0819 31.3333C19.0819 32.2637 18.3472 33 17.4189 33C16.4907 33 15.756 32.2637 15.756 31.3333C15.756 30.403 16.4907 29.6667 17.4189 29.6667Z"
    fill="#00552A" />
  <rect x="0.25" y="0.25" width="46.5" height="46.5" rx="4.75" stroke="#00552A" stroke-width="0.5" />
</svg>